<svg height="512pt" viewBox="0 -17 512 512" width="512pt" xmlns="http://www.w3.org/2000/svg"><path d="m483.5 50h-67v-20.496094c0-5.523437 4.476562-10 10-10h47c5.523438 0 10 4.476563 10 10zm0 0" fill="#caf1fd"/><path d="m504.5 56.738281v404.523438c0 5.519531-4.480469 10-10 10h-477c-5.519531 0-10-4.480469-10-10v-404.523438c0-5.519531 4.480469-10 10-10h477c5.519531 0 10 4.480469 10 10zm0 0" fill="#94deb8"/><g fill="#5ed398"><path d="m241.667969 94.296875h-186.566407c-11.53125 2.21875-20.265624 12.378906-20.265624 24.546875v26.371094c0 12.167968 8.734374 22.324218 20.265624 24.546875h186.566407c11.527343-2.222657 20.265625-12.378907 20.265625-24.546875v-26.371094c0-12.167969-8.738282-22.324219-20.265625-24.546875zm0 0"/><path d="m468.6875 144.167969c-2.21875-11.527344-12.375-20.265625-24.542969-20.265625h-8.371093c-12.167969 0-22.328126 8.738281-24.546876 20.265625h-.765624c-2.21875-11.527344-12.378907-20.265625-24.542969-20.265625h-8.375c-12.164063 0-22.324219 8.738281-24.542969 20.265625h-.769531c-2.21875-11.527344-12.375-20.265625-24.542969-20.265625h-8.371094c-12.167968 0-22.328125 8.738281-24.546875 20.265625v281.089843c2.222657 11.527344 12.378907 20.265626 24.546875 20.265626h8.371094c12.167969 0 22.324219-8.738282 24.542969-20.265626h.769531c2.21875 11.527344 12.378906 20.265626 24.542969 20.265626h8.375c12.164062 0 22.324219-8.738282 24.542969-20.265626h.765624c2.222657 11.527344 12.378907 20.265626 24.546876 20.265626h8.371093c12.167969 0 22.324219-8.738282 24.542969-20.265626zm0 0"/><path d="m204.003906 175.09375h-109.390625c-27.429687 0-49.746093 22.316406-49.746093 49.746094v109.394531c0 18.378906 10.023437 34.453125 24.886718 43.066406v10.488281c0 13.785157 11.214844 25 25 25h17.628906c6.945313 0 13.632813-2.921874 18.351563-8.019531l18.578125-20.078125 18.574219 20.078125c4.71875 5.097657 11.40625 8.019531 18.351562 8.019531h17.628907c13.785156 0 25-11.214843 25-25v-10.488281c14.863281-8.613281 24.890624-24.683593 24.890624-43.0625v-109.394531c-.003906-27.433594-22.320312-49.75-49.753906-49.75zm0 0"/><path d="m504.5 56.738281v404.523438c0 5.519531-4.480469 10-10 10h-23.25c5.519531 0 10-4.480469 10-10v-404.523438c0-5.519531-4.480469-10-10-10h23.25c5.519531 0 10 4.480469 10 10zm0 0"/><path d="m405.039062 46.738281v44.992188c0 13.78125-11.210937 25-25 25h-25c-11.71875 0-21.578124-8.121094-24.269531-19.019531-2.691406 10.898437-12.550781 19.019531-24.269531 19.019531h-25c-13.789062 0-25-11.21875-25-25v-26.660157c-4.359375 7.328126-12.359375 12.257813-21.5 12.257813h-91.648438c-13.792968 0-25-11.207031-25-25v-5.589844zm0 0"/></g><path d="m306.5 101.726562h-25c-5.523438 0-10-4.476562-10-10v-48.726562c0-5.523438 4.476562-10 10-10h25c5.523438 0 10 4.476562 10 10v48.726562c0 5.523438-4.476562 10-10 10zm0 0" fill="#b6aeb7"/><path d="m316.5 43v48.730469c0 5.519531-4.480469 10-10 10h-15.5c5.519531 0 10-4.480469 10-10v-48.730469c0-5.519531-4.480469-10-10-10h15.5c5.519531 0 10 4.480469 10 10zm0 0" fill="#a79da8"/><path d="m380.042969 101.726562h-25c-5.523438 0-10-4.476562-10-10v-48.726562c0-5.523438 4.476562-10 10-10h25c5.523437 0 10 4.476562 10 10v48.726562c0 5.523438-4.476563 10-10 10zm0 0" fill="#b6aeb7"/><path d="m390.039062 43v48.730469c0 5.519531-4.46875 10-10 10h-15.5c5.53125 0 10-4.480469 10-10v-48.730469c0-5.519531-4.46875-10-10-10h15.5c5.53125 0 10 4.480469 10 10zm0 0" fill="#a79da8"/><path d="m219.675781 37.996094h-61v-20.496094c0-5.523438 4.476563-10 10-10h41c5.519531 0 10 4.476562 10 10zm0 0" fill="#caf1fd"/><path d="m235 62.332031h-91.652344c-5.523437 0-10-4.476562-10-10v-16.332031h111.652344v16.332031c0 5.523438-4.476562 10-10 10zm0 0" fill="#6d80d6"/><path d="m309.3125 159.167969h28.375v251.089843h-28.375zm0 0" fill="#8998dd"/><path d="m337.6875 167.257812v-18.355468c0-5.519532-4.476562-10-10-10h-8.375c-5.523438 0-10 4.480468-10 10v18.355468zm0 0" fill="#e2e0e2"/><path d="m337.6875 420.523438v-18.355469h-28.375v18.355469c0 5.523437 4.476562 10 10 10h8.375c5.523438 0 10-4.476563 10-10zm0 0" fill="#e2e0e2"/><path d="m226.667969 108.84375v46.371094h-156.566407v-46.371094zm0 0" fill="#a79da8"/><path d="m226.667969 108.84375v46.371094h-27.167969v-46.371094zm0 0" fill="#928392"/><path d="m218.578125 155.214844h18.355469c5.519531 0 10-4.476563 10-10v-26.371094c0-5.523438-4.480469-10-10-10h-18.355469zm0 0" fill="#e2e0e2"/><path d="m59.835938 155.214844h18.351562v-46.371094h-18.351562c-5.523438 0-10 4.476562-10 10v26.371094c0 5.523437 4.476562 10 10 10zm0 0" fill="#e2e0e2"/><path d="m367.542969 159.167969h28.371093v251.089843h-28.371093zm0 0" fill="#5169ce"/><path d="m395.914062 167.257812v-18.355468c0-5.519532-4.476562-10-10-10h-8.371093c-5.523438 0-10 4.480468-10 10v18.355468zm0 0" fill="#e2e0e2"/><path d="m395.914062 420.523438v-18.355469h-28.371093v18.355469c0 5.523437 4.476562 10 10 10h8.371093c5.523438 0 10-4.476563 10-10zm0 0" fill="#e2e0e2"/><path d="m425.773438 159.167969h28.371093v251.089843h-28.371093zm0 0" fill="#8998dd"/><path d="m454.144531 167.257812v-18.355468c0-5.519532-4.476562-10-10-10h-8.371093c-5.523438 0-10 4.480468-10 10v18.355468zm0 0" fill="#e2e0e2"/><path d="m454.144531 420.523438v-18.355469h-28.371093v18.355469c0 5.523437 4.476562 10 10 10h8.371093c5.523438 0 10-4.476563 10-10zm0 0" fill="#e2e0e2"/><path d="m203.867188 397.789062h-17.628907c-2.789062 0-5.449219-1.160156-7.339843-3.207031l-27.03125-29.21875h62v22.425781c0 5.523438-4.476563 10-10 10zm0 0" fill="#e2e0e2"/><path d="m94.753906 397.789062h17.628906c2.789063 0 5.449219-1.160156 7.339844-3.207031l27.03125-29.21875h-62v22.425781c0 5.523438 4.476563 10 10 10zm0 0" fill="#e2e0e2"/><path d="m94.613281 368.984375c-19.191406 0-34.746093-15.558594-34.746093-34.746094v-109.398437c0-19.191406 15.554687-34.746094 34.746093-34.746094h109.390625c19.191406 0 34.75 15.558594 34.75 34.75v109.394531c0 19.1875-15.554687 34.746094-34.746094 34.746094zm0 0" fill="#e2e0e2"/><path d="m94.867188 358.984375c-13.785157 0-25-11.214844-25-25v-108.890625c0-13.785156 11.214843-25 25-25h108.886718c13.785156 0 25 11.214844 25 25v108.890625c0 13.785156-11.214844 25-25 25zm0 0" fill="#ccc6cc"/><path d="m203.753906 343.984375h-108.886718c-5.523438 0-10-4.476563-10-10v-108.890625c0-5.523438 4.476562-10 10-10h108.886718c5.523438 0 10 4.476562 10 10v108.886719c0 5.523437-4.476562 10.003906-10 10.003906zm0 0" fill="#6adcfa"/><path d="m213.75 225.089844v108.890625c0 5.53125-4.46875 10-10 10h-18.5c5.53125 0 10-4.46875 10-10v-108.890625c0-5.519532-4.46875-10-10-10h18.5c5.53125 0 10 4.480468 10 10zm0 0" fill="#00d2f9"/><path d="m177 316.058594h-31.332031c-5.523438 0-10-4.476563-10-10v-12.734375c0-5.519531 4.476562-10 10-10h31.332031c5.523438 0 10 4.480469 10 10v12.734375c0 5.523437-4.476562 10-10 10zm0 0" fill="#ffc783"/><path d="m494.5 39.238281h-3.5v-9.734375c0-9.648437-7.851562-17.5-17.5-17.5h-47c-9.648438 0-17.5 7.851563-17.5 17.5v9.734375h-11.875c-1.726562-7.847656-8.726562-13.738281-17.082031-13.738281h-25c-8.355469 0-15.355469 5.890625-17.082031 13.738281h-14.378907c-1.726562-7.847656-8.722656-13.738281-17.082031-13.738281h-25c-8.355469 0-15.355469 5.890625-17.082031 13.738281h-11.917969v-20.738281c0-4.140625-3.359375-7.5-7.5-7.5s-7.5 3.359375-7.5 7.5v10h-10.324219v-11c0-9.648438-7.851562-17.5-17.5-17.5h-41c-9.652343 0-17.5 7.851562-17.5 17.5v11h-10.328125v-10c0-4.140625-3.359375-7.5-7.5-7.5-4.144531 0-7.5 3.359375-7.5 7.5v20.738281h-108.347656c-9.648438 0-17.5 7.851563-17.5 17.5v404.523438c0 9.648437 7.851562 17.5 17.5 17.5h373.800781c4.144531 0 7.5-3.359375 7.5-7.5 0-4.144531-3.355469-7.5-7.5-7.5h-373.800781c-1.378906 0-2.5-1.125-2.5-2.5v-404.523438c0-1.378906 1.121094-2.5 2.5-2.5h108.457031c.953125 8.753907 8.386719 15.59375 17.390625 15.59375h91.652344c9.003906 0 16.4375-6.839843 17.390625-15.59375h11.609375v37.488281c0 9.648438 7.851562 17.5 17.5 17.5h25c9.648438 0 17.5-7.851562 17.5-17.5v-37.488281h13.542969v37.488281c0 9.648438 7.851562 17.5 17.5 17.5h25c9.648437 0 17.5-7.851562 17.5-17.5v-37.488281h96.957031c1.378906 0 2.5 1.121094 2.5 2.5v404.523438c0 1.375-1.121094 2.5-2.5 2.5h-67.800781c-4.144531 0-7.5 3.355469-7.5 7.5 0 4.140625 3.355469 7.5 7.5 7.5h67.800781c9.648438 0 17.5-7.851563 17.5-17.5v-404.523438c0-9.648437-7.851562-17.5-17.5-17.5zm-70.5-9.734375c0-1.378906 1.121094-2.5 2.5-2.5h47c1.378906 0 2.5 1.121094 2.5 2.5v9.734375h-52zm-68.957031 10.996094h25c1.378906 0 2.5 1.121094 2.5 2.5v26.832031h-30v-26.832031c0-1.378906 1.121093-2.5 2.5-2.5zm-73.542969 0h25c1.378906 0 2.5 1.121094 2.5 2.5v26.832031h-30v-26.832031c0-1.378906 1.121094-2.5 2.5-2.5zm-115.324219-23c0-1.378906 1.121094-2.5 2.5-2.5h41c1.375 0 2.5 1.121094 2.5 2.5v11h-46zm71.324219 34.832031c0 1.378907-1.121094 2.5-2.5 2.5h-91.652344c-1.378906 0-2.5-1.121093-2.5-2.5v-8.832031h96.652344zm69 41.894531h-25c-1.378906 0-2.5-1.121093-2.5-2.5v-6.894531h30v6.894531c0 1.378907-1.121094 2.5-2.5 2.5zm73.542969 0h-25c-1.378907 0-2.5-1.121093-2.5-2.5v-6.894531h30v6.894531c0 1.378907-1.121094 2.5-2.5 2.5zm0 0"/><path d="m309.3125 253.578125c-4.140625 0-7.5 3.359375-7.5 7.5v159.445313c0 9.648437 7.851562 17.5 17.5 17.5h8.375c9.648438 0 17.5-7.851563 17.5-17.5v-271.621094c0-9.648438-7.851562-17.5-17.5-17.5h-8.375c-9.648438 0-17.5 7.851562-17.5 17.5v76.78125c0 4.140625 3.359375 7.5 7.5 7.5s7.5-3.359375 7.5-7.5v-50.925782h13.375v219.910157h-13.375v-133.589844c0-4.140625-3.355469-7.5-7.5-7.5zm7.5-93.820313v-10.855468c0-1.378906 1.121094-2.5 2.5-2.5h8.375c1.375 0 2.5 1.121094 2.5 2.5v10.855468zm13.375 249.910157v10.855469c0 1.378906-1.121094 2.5-2.5 2.5h-8.375c-1.375 0-2.5-1.121094-2.5-2.5v-10.855469zm0 0"/><path d="m42.335938 145.214844c0 9.648437 7.847656 17.5 17.5 17.5h177.097656c9.648437 0 17.5-7.851563 17.5-17.5v-26.371094c0-9.652344-7.851563-17.5-17.5-17.5h-177.097656c-9.652344 0-17.5 7.847656-17.5 17.5zm43.351562 2.5v-31.371094h125.390625v31.371094zm140.980469-31.371094h10.265625c1.378906 0 2.5 1.121094 2.5 2.5v26.371094c0 1.378906-1.121094 2.5-2.5 2.5h-10.855469v-31.371094zm-169.332031 2.5c0-1.378906 1.121093-2.5 2.5-2.5h10.851562v31.371094h-10.851562c-1.378907 0-2.5-1.121094-2.5-2.5zm0 0"/><path d="m385.914062 131.402344h-8.371093c-9.648438 0-17.5 7.851562-17.5 17.5v271.621094c0 9.648437 7.851562 17.5 17.5 17.5h8.371093c9.652344 0 17.5-7.851563 17.5-17.5v-271.621094c0-9.648438-7.847656-17.5-17.5-17.5zm-10.871093 43.355468h13.371093v219.910157h-13.371093zm0-25.855468c0-1.378906 1.121093-2.5 2.5-2.5h8.371093c1.378907 0 2.5 1.121094 2.5 2.5v10.855468h-13.371093zm13.371093 271.621094c0 1.378906-1.121093 2.5-2.5 2.5h-8.371093c-1.378907 0-2.5-1.121094-2.5-2.5v-10.855469h13.371093zm0 0"/><path d="m418.269531 420.523438c0 9.648437 7.851563 17.5 17.5 17.5h8.375c9.648438 0 17.5-7.851563 17.5-17.5v-271.621094c0-9.648438-7.851562-17.5-17.5-17.5h-8.375c-9.648437 0-17.5 7.851562-17.5 17.5zm28.375-25.855469h-13.375v-219.910157h13.375zm0 25.855469c0 1.378906-1.121093 2.5-2.5 2.5h-8.375c-1.375 0-2.5-1.121094-2.5-2.5v-10.855469h13.375zm-13.375-271.621094c0-1.378906 1.125-2.5 2.5-2.5h8.375c1.378907 0 2.5 1.121094 2.5 2.5v10.855468h-13.375zm0 0"/><path d="m461.644531 95.359375v-18.027344c0-4.140625-3.359375-7.5-7.5-7.5s-7.5 3.359375-7.5 7.5v18.027344c0 4.144531 3.359375 7.5 7.5 7.5s7.5-3.355469 7.5-7.5zm0 0"/><path d="m433.269531 95.359375v-18.027344c0-4.140625-3.355469-7.5-7.5-7.5-4.140625 0-7.5 3.359375-7.5 7.5v18.027344c0 4.144531 3.359375 7.5 7.5 7.5 4.144531 0 7.5-3.355469 7.5-7.5zm0 0"/><path d="m203.753906 351.484375c9.648438 0 17.5-7.851563 17.5-17.5v-108.890625c0-9.648438-7.851562-17.5-17.5-17.5h-108.886718c-9.648438 0-17.5 7.851562-17.5 17.5v25.589844c0 4.140625 3.355468 7.5 7.5 7.5 4.140624 0 7.5-3.359375 7.5-7.5v-25.589844c0-1.378906 1.121093-2.5 2.5-2.5h108.886718c1.378906 0 2.5 1.121094 2.5 2.5v108.890625c0 1.375-1.121094 2.5-2.5 2.5h-108.886718c-1.378907 0-2.5-1.125-2.5-2.5v-47.90625c0-4.140625-3.359376-7.5-7.5-7.5-4.144532 0-7.5 3.359375-7.5 7.5v47.90625c0 9.648437 7.851562 17.5 17.5 17.5zm0 0"/><path d="m197.753906 441.894531c4.144532 0 7.5-3.359375 7.5-7.5v-3.167969h37.167969c4.140625 0 7.5-3.359374 7.5-7.5v-28.816406l15.578125-7.011718c2.691406-1.210938 4.421875-3.886719 4.421875-6.835938v-160.667969c0-4.140625-3.359375-7.5-7.5-7.5h-17.898437c-5.167969-17.496093-21.371094-30.300781-40.515626-30.300781h-109.394531c-23.296875 0-42.246093 18.953125-42.246093 42.246094v109.394531c0 17.109375 10.230468 31.867187 24.886718 38.5v15.054687c0 9.648438 7.851563 17.5 17.5 17.5h17.628906c4.863282 0 9.542969-2.046874 12.847657-5.613281l21.457031-23.195312h5.246094l21.460937 23.195312c3.300781 3.566407 7.980469 5.613281 12.84375 5.613281h4.019531v10.9375h-.328124c-4.144532 0-7.5 3.359376-7.5 7.5 0 4.140626 3.355468 7.5 7.5 7.5h.328124v3.167969c-.003906 4.140625 3.355469 7.5 7.496094 7.5zm-130.386718-107.660156v-109.394531c0-15.023438 12.222656-27.246094 27.246093-27.246094h109.390625c15.027344 0 27.25 12.222656 27.25 27.25v109.394531c0 15.023438-12.222656 27.246094-27.246094 27.246094h-109.394531c-15.023437 0-27.246093-12.222656-27.246093-27.25zm46.851562 55.253906c-.472656.507813-1.140625.800781-1.835938.800781h-17.628906c-1.375 0-2.5-1.121093-2.5-2.5v-11.375c.78125.042969 1.566406.066407 2.359375.066407h31.640625zm70.183594 0-12.035156-13.003906h31.640624c.792969 0 1.578126-.027344 2.359376-.070313v11.375c0 1.378907-1.125 2.5-2.5 2.5h-17.628907c-.695312 0-1.363281-.292968-1.835937-.800781zm20.851562 15.730469c9.003906-.710938 16.113282-8.246094 16.113282-17.429688v-15.054687c14.65625-6.632813 24.886718-21.390625 24.886718-38.5v-106.339844h8.667969v148.316407l-15.578125 7.011718c-2.691406 1.210938-4.421875 3.886719-4.421875 6.835938v26.167968h-29.667969zm0 0"/><path d="m59.867188 431.285156c4.140624 0 7.5-3.359375 7.5-7.5v-.113281c0-4.144531-3.359376-7.5-7.5-7.5-4.144532 0-7.5 3.355469-7.5 7.5v.113281c0 4.140625 3.355468 7.5 7.5 7.5zm0 0"/><path d="m88.222656 416.171875c-4.144531 0-7.5 3.355469-7.5 7.5v.113281c0 4.140625 3.355469 7.5 7.5 7.5 4.140625 0 7.5-3.359375 7.5-7.5v-.113281c0-4.144531-3.359375-7.5-7.5-7.5zm0 0"/><path d="m109.074219 423.671875v.113281c0 4.140625 3.359375 7.5 7.5 7.5 4.144531 0 7.5-3.359375 7.5-7.5v-.113281c0-4.144531-3.355469-7.5-7.5-7.5-4.140625 0-7.5 3.355469-7.5 7.5zm0 0"/><path d="m137.429688 423.671875v.113281c0 4.140625 3.355468 7.5 7.5 7.5 4.140624 0 7.5-3.359375 7.5-7.5v-.113281c0-4.144531-3.359376-7.5-7.5-7.5-4.144532 0-7.5 3.355469-7.5 7.5zm0 0"/><path d="m278.179688 123.316406h-.113282c-4.144531 0-7.5 3.355469-7.5 7.5 0 4.140625 3.355469 7.5 7.5 7.5h.113282c4.140624 0 7.5-3.359375 7.5-7.5 0-4.144531-3.359376-7.5-7.5-7.5zm0 0"/><path d="m278.179688 151.667969h-.113282c-4.144531 0-7.5 3.359375-7.5 7.5 0 4.144531 3.355469 7.5 7.5 7.5h.113282c4.140624 0 7.5-3.355469 7.5-7.5 0-4.140625-3.359376-7.5-7.5-7.5zm0 0"/><path d="m285.679688 187.523438c0-4.140626-3.359376-7.5-7.5-7.5h-.113282c-4.144531 0-7.5 3.359374-7.5 7.5 0 4.140624 3.355469 7.5 7.5 7.5h.113282c4.140624 0 7.5-3.359376 7.5-7.5zm0 0"/><path d="m251.066406 180.023438c-4.144531 0-7.5 3.359374-7.5 7.5 0 4.140624 3.355469 7.5 7.5 7.5h.113282c4.140624 0 7.5-3.359376 7.5-7.5 0-4.140626-3.359376-7.5-7.5-7.5zm0 0"/><path d="m73.667969 84.832031c4.140625 0 7.5-3.355469 7.5-7.5 0-4.140625-3.359375-7.5-7.5-7.5h-23.832031c-4.144532 0-7.5 3.359375-7.5 7.5 0 4.144531 3.355468 7.5 7.5 7.5zm0 0"/><path d="m177 323.558594c9.648438 0 17.5-7.847656 17.5-17.5v-12.734375c0-9.648438-7.851562-17.5-17.5-17.5h-31.332031c-9.648438 0-17.5 7.851562-17.5 17.5v12.734375c0 9.652344 7.851562 17.5 17.5 17.5zm-33.832031-17.5v-12.734375c0-1.375 1.121093-2.5 2.5-2.5h31.332031c1.378906 0 2.5 1.125 2.5 2.5v12.734375c0 1.378906-1.121094 2.5-2.5 2.5h-31.332031c-1.378907 0-2.5-1.121094-2.5-2.5zm0 0"/><path d="m273.5 438.023438c4.140625 0 7.5-3.359376 7.5-7.5v-27.394532c0-4.144531-3.359375-7.5-7.5-7.5s-7.5 3.355469-7.5 7.5v27.394532c0 4.140624 3.359375 7.5 7.5 7.5zm0 0"/></svg>