<svg height="512pt" viewBox="0 -46 512.00025 512" width="512pt" xmlns="http://www.w3.org/2000/svg"><path d="m421.011719 249.511719h-330.023438l-80.988281 40.488281 246 120 246-120zm0 0" fill="#ff5284"/><path d="m421.011719 169.511719h-330.023438l-80.988281 40.488281 246 120 246-120zm0 0" fill="#a0e4f8"/><path d="m502 130c-1.980469.964844-243.671875 118.863281-246 120-2.34375-1.140625-244.003906-119.023438-246-120l246-120zm0 0" fill="#fff"/><path d="m266 205c0-5.519531-4.480469-10-10-10s-10 4.480469-10 10 4.480469 10 10 10 10-4.480469 10-10zm0 0"/><path d="m296.171875 196.363281 120.679687-57.328125c4.988282-2.371094 7.109376-8.335937 4.742188-13.324218-2.371094-4.988282-8.335938-7.109376-13.324219-4.742188l-120.679687 57.328125c-4.988282 2.371094-7.113282 8.335937-4.742188 13.324219 2.378906 5.003906 8.347656 7.105468 13.324219 4.742187zm0 0"/><path d="m0 290.050781c.0195312 3.804688 2.195312 7.269531 5.617188 8.9375l246 120c1.382812.675781 2.882812 1.011719 4.382812 1.011719s3-.335938 4.382812-1.011719l246-120c3.421876-1.667969 5.597657-5.132812 5.617188-8.9375.019531-3.808593-2.125-7.292969-5.527344-8.996093l-62.882812-31.433594 62.796875-30.632813c3.417969-1.667969 5.59375-5.132812 5.613281-8.9375.019531-3.808593-2.125-7.292969-5.527344-8.996093l-62.878906-31.433594 62.792969-30.632813c3.433593-1.675781 5.613281-5.164062 5.613281-8.988281s-2.179688-7.3125-5.617188-8.988281l-246-120c-2.765624-1.347657-6-1.347657-8.765624 0l-246 120c-3.4375 1.679687-5.617188 5.164062-5.617188 8.988281s2.179688 7.3125 5.617188 8.988281l62.792968 30.628907-62.882812 31.4375c-3.402344 1.703124-5.5468752 5.191406-5.527344 8.996093.0195312 3.804688 2.195312 7.269531 5.617188 8.9375l62.792968 30.632813-62.882812 31.433594c-3.402344 1.703124-5.5468752 5.1875-5.527344 8.996093zm256-268.921875 223.191406 108.871094-223.191406 108.875-223.191406-108.875zm-164.953125 159.53125 160.570313 78.328125c1.382812.675781 2.882812 1.011719 4.382812 1.011719s3-.335938 4.382812-1.011719l160.574219-78.324219 58.460938 29.226563-223.417969 108.984375-223.417969-108.984375zm0 80 160.570313 78.328125c1.382812.675781 2.882812 1.011719 4.382812 1.011719s3-.335938 4.382812-1.011719l160.570313-78.324219 58.464844 29.226563-223.417969 108.984375-223.417969-108.984375zm0 0"/></svg>