<?xml version="1.0" encoding="iso-8859-1"?>
<!-- Generator: Adobe Illustrator 21.0.0, SVG Export Plug-In . SVG Version: 6.00 Build 0)  -->
<svg version="1.1" id="Capa_1" xmlns="http://www.w3.org/2000/svg" xmlns:xlink="http://www.w3.org/1999/xlink" x="0px" y="0px"
	 viewBox="0 0 591.146 591.146" style="enable-background:new 0 0 591.146 591.146;" xml:space="preserve">
<g>
	<g>
		<g id="filled_outline_26_">
			<rect x="512.326" y="285.72" style="fill:#FDB62F;" width="78.819" height="19.705"/>
			<rect x="512.326" y="236.458" style="fill:#FDB62F;" width="78.819" height="19.705"/>
			<rect x="512.326" y="187.196" style="fill:#FDB62F;" width="78.819" height="19.705"/>
			<rect x="512.326" y="137.934" style="fill:#FDB62F;" width="78.819" height="19.705"/>
			<rect x="512.326" y="88.672" style="fill:#FDB62F;" width="78.819" height="19.705"/>
			<rect x="512.326" y="482.769" style="fill:#FDB62F;" width="78.819" height="19.705"/>
			<rect x="512.326" y="433.507" style="fill:#FDB62F;" width="78.819" height="19.705"/>
			<rect x="512.326" y="384.245" style="fill:#FDB62F;" width="78.819" height="19.705"/>
			<rect x="512.326" y="334.983" style="fill:#FDB62F;" width="78.819" height="19.705"/>
			<rect x="512.326" y="285.72" style="fill:#FDB62F;" width="78.819" height="19.705"/>
			<rect x="512.326" y="236.458" style="fill:#FDB62F;" width="78.819" height="19.705"/>
			<rect x="512.326" y="187.196" style="fill:#FDB62F;" width="78.819" height="19.705"/>
			<rect x="512.326" y="137.934" style="fill:#FDB62F;" width="78.819" height="19.705"/>
			<rect x="512.326" y="88.672" style="fill:#FDB62F;" width="78.819" height="19.705"/>
			<rect x="512.326" y="482.769" style="fill:#FDB62F;" width="78.819" height="19.705"/>
			<rect x="512.326" y="433.507" style="fill:#FDB62F;" width="78.819" height="19.705"/>
			<rect x="512.326" y="384.245" style="fill:#FDB62F;" width="78.819" height="19.705"/>
			<rect x="512.326" y="334.983" style="fill:#FDB62F;" width="78.819" height="19.705"/>
			<rect x="285.72" style="fill:#FDB62F;" width="19.705" height="78.819"/>
			<rect x="236.458" style="fill:#FDB62F;" width="19.705" height="78.819"/>
			<rect x="187.196" style="fill:#FDB62F;" width="19.705" height="78.819"/>
			<rect x="137.934" style="fill:#FDB62F;" width="19.705" height="78.819"/>
			<rect x="88.672" style="fill:#FDB62F;" width="19.705" height="78.819"/>
			<rect x="482.769" style="fill:#FDB62F;" width="19.705" height="78.819"/>
			<rect x="433.507" style="fill:#FDB62F;" width="19.705" height="78.819"/>
			<rect x="384.245" style="fill:#FDB62F;" width="19.705" height="78.819"/>
			<rect x="334.983" style="fill:#FDB62F;" width="19.705" height="78.819"/>
			<rect x="285.72" y="512.326" style="fill:#FDB62F;" width="19.705" height="78.819"/>
			<rect x="236.458" y="512.326" style="fill:#FDB62F;" width="19.705" height="78.819"/>
			<rect x="187.196" y="512.326" style="fill:#FDB62F;" width="19.705" height="78.819"/>
			<rect x="137.934" y="512.326" style="fill:#FDB62F;" width="19.705" height="78.819"/>
			<rect x="88.672" y="512.326" style="fill:#FDB62F;" width="19.705" height="78.819"/>
			<rect x="482.769" y="512.326" style="fill:#FDB62F;" width="19.705" height="78.819"/>
			<rect x="433.507" y="512.326" style="fill:#FDB62F;" width="19.705" height="78.819"/>
			<rect x="384.245" y="512.326" style="fill:#FDB62F;" width="19.705" height="78.819"/>
			<rect x="334.983" y="512.326" style="fill:#FDB62F;" width="19.705" height="78.819"/>
			<rect x="0" y="285.72" style="fill:#FDB62F;" width="78.819" height="19.705"/>
			<rect x="0" y="236.458" style="fill:#FDB62F;" width="78.819" height="19.705"/>
			<rect x="0" y="187.196" style="fill:#FDB62F;" width="78.819" height="19.705"/>
			<rect x="0" y="137.934" style="fill:#FDB62F;" width="78.819" height="19.705"/>
			<rect x="0" y="88.672" style="fill:#FDB62F;" width="78.819" height="19.705"/>
			<rect x="0" y="482.769" style="fill:#FDB62F;" width="78.819" height="19.705"/>
			<rect x="0" y="433.507" style="fill:#FDB62F;" width="78.819" height="19.705"/>
			<rect x="0" y="384.245" style="fill:#FDB62F;" width="78.819" height="19.705"/>
			<rect x="0" y="334.983" style="fill:#FDB62F;" width="78.819" height="19.705"/>
			<rect x="285.72" style="fill:#FDB62F;" width="19.705" height="78.819"/>
			<rect x="236.458" style="fill:#FDB62F;" width="19.705" height="78.819"/>
			<rect x="187.196" style="fill:#FDB62F;" width="19.705" height="78.819"/>
			<rect x="137.934" style="fill:#FDB62F;" width="19.705" height="78.819"/>
			<rect x="88.672" style="fill:#FDB62F;" width="19.705" height="78.819"/>
			<rect x="482.769" style="fill:#FDB62F;" width="19.705" height="78.819"/>
			<rect x="433.507" style="fill:#FDB62F;" width="19.705" height="78.819"/>
			<rect x="384.245" style="fill:#FDB62F;" width="19.705" height="78.819"/>
			<rect x="334.983" style="fill:#FDB62F;" width="19.705" height="78.819"/>
			<rect x="512.326" y="285.72" style="fill:#FFA230;" width="39.41" height="19.705"/>
			<rect x="512.326" y="236.458" style="fill:#FFA230;" width="39.41" height="19.705"/>
			<rect x="512.326" y="187.196" style="fill:#FFA230;" width="39.41" height="19.705"/>
			<rect x="512.326" y="137.934" style="fill:#FFA230;" width="39.41" height="19.705"/>
			<rect x="512.326" y="88.672" style="fill:#FFA230;" width="39.41" height="19.705"/>
			<rect x="512.326" y="482.769" style="fill:#FFA230;" width="39.41" height="19.705"/>
			<rect x="512.326" y="433.507" style="fill:#FFA230;" width="39.41" height="19.705"/>
			<rect x="512.326" y="384.245" style="fill:#FFA230;" width="39.41" height="19.705"/>
			<rect x="512.326" y="334.983" style="fill:#FFA230;" width="39.41" height="19.705"/>
			<rect x="285.72" y="512.326" style="fill:#FDB62F;" width="19.705" height="78.819"/>
			<rect x="236.458" y="512.326" style="fill:#FDB62F;" width="19.705" height="78.819"/>
			<rect x="187.196" y="512.326" style="fill:#FDB62F;" width="19.705" height="78.819"/>
			<rect x="137.934" y="512.326" style="fill:#FDB62F;" width="19.705" height="78.819"/>
			<rect x="88.672" y="512.326" style="fill:#FDB62F;" width="19.705" height="78.819"/>
			<rect x="482.769" y="512.326" style="fill:#FDB62F;" width="19.705" height="78.819"/>
			<rect x="433.507" y="512.326" style="fill:#FDB62F;" width="19.705" height="78.819"/>
			<rect x="384.245" y="512.326" style="fill:#FDB62F;" width="19.705" height="78.819"/>
			<rect x="334.983" y="512.326" style="fill:#FDB62F;" width="19.705" height="78.819"/>
			<rect x="285.72" y="512.326" style="fill:#FFA230;" width="19.705" height="39.41"/>
			<rect x="334.983" y="512.326" style="fill:#FFA230;" width="19.705" height="39.41"/>
			<rect x="384.245" y="512.326" style="fill:#FFA230;" width="19.705" height="39.41"/>
			<rect x="433.507" y="512.326" style="fill:#FFA230;" width="19.705" height="39.41"/>
			<rect x="482.769" y="512.326" style="fill:#FFA230;" width="19.705" height="39.41"/>
			<rect x="88.672" y="512.326" style="fill:#FFA230;" width="19.705" height="39.41"/>
			<rect x="137.934" y="512.326" style="fill:#FFA230;" width="19.705" height="39.41"/>
			<rect x="187.196" y="512.326" style="fill:#FFA230;" width="19.705" height="39.41"/>
			<rect x="236.458" y="512.326" style="fill:#FFA230;" width="19.705" height="39.41"/>
			<rect x="0" y="285.72" style="fill:#FDB62F;" width="78.819" height="19.705"/>
			<rect x="0" y="236.458" style="fill:#FDB62F;" width="78.819" height="19.705"/>
			<rect x="0" y="187.196" style="fill:#FDB62F;" width="78.819" height="19.705"/>
			<rect x="0" y="137.934" style="fill:#FDB62F;" width="78.819" height="19.705"/>
			<rect x="0" y="88.672" style="fill:#FDB62F;" width="78.819" height="19.705"/>
			<rect x="0" y="482.769" style="fill:#FDB62F;" width="78.819" height="19.705"/>
			<rect x="0" y="433.507" style="fill:#FDB62F;" width="78.819" height="19.705"/>
			<rect x="0" y="384.245" style="fill:#FDB62F;" width="78.819" height="19.705"/>
			<rect x="0" y="334.983" style="fill:#FDB62F;" width="78.819" height="19.705"/>
			<path style="fill:#4398D1;" d="M118.229,59.115h354.688c32.651,0,59.115,26.464,59.115,59.115v354.688
				c0,32.651-26.464,59.115-59.115,59.115H118.229c-32.651,0-59.115-26.464-59.115-59.115V118.229
				C59.115,85.578,85.578,59.115,118.229,59.115z"/>
			<path style="fill:#3E8CC7;" d="M109.145,531.263c3.005,0.493,6.04,0.749,9.084,0.768h354.688
				c32.651,0,59.115-26.464,59.115-59.115V118.229c-0.02-3.044-0.276-6.079-0.768-9.084L109.145,531.263z"/>
			<path style="fill:#387EB3;" d="M463.064,492.622H128.082c-16.325,0-29.557-13.232-29.557-29.557V128.082
				c0-16.325,13.232-29.557,29.557-29.557h334.983c16.325,0,29.557,13.232,29.557,29.557v334.983
				C492.622,479.39,479.39,492.622,463.064,492.622z M128.082,118.229c-5.439,0-9.852,4.414-9.852,9.852v334.983
				c0,5.439,4.414,9.852,9.852,9.852h334.983c5.439,0,9.852-4.414,9.852-9.852V128.082c0-5.439-4.414-9.852-9.852-9.852H128.082z"/>
			<rect x="433.507" y="137.934" style="fill:#5EB3D1;" width="19.705" height="19.705"/>
			<rect x="137.934" y="433.507" style="fill:#5EB3D1;" width="19.705" height="19.705"/>
			<path style="fill:#5EB3D1;" d="M157.639,187.196h-19.705v-29.557c0-10.887,8.818-19.705,19.705-19.705h29.557v19.705h-29.557
				V187.196z"/>
			<path style="fill:#5EB3D1;" d="M433.507,453.212H403.95v-19.705h29.557V403.95h19.705v29.557
				C453.212,444.394,444.394,453.212,433.507,453.212z"/>
			<path d="M502.474,56.011V0h-19.705v50.05c-3.261-0.493-6.552-0.759-9.852-0.788h-19.705V0h-19.705v49.262H403.95V0h-19.705
				v49.262h-29.557V0h-19.705v49.262h-29.557V0H285.72v49.262h-29.557V0h-19.705v49.262h-29.557V0h-19.705v49.262h-29.557V0h-19.705
				v49.262h-19.705c-3.301,0.03-6.591,0.296-9.852,0.788V0H88.672v56.011c-14.306,6.828-25.833,18.355-32.661,32.661H0v19.705h50.05
				c-0.493,3.261-0.759,6.552-0.788,9.852v19.705H0v19.705h49.262v29.557H0v19.705h49.262v29.557H0v19.705h49.262v29.557H0v19.705
				h49.262v29.557H0v19.705h49.262v29.557H0v19.705h49.262v29.557H0v19.705h49.262v19.705c0.03,3.301,0.296,6.591,0.788,9.852H0
				v19.705h56.011c6.828,14.306,18.355,25.833,32.661,32.661v56.011h19.705v-50.05c3.261,0.493,6.552,0.759,9.852,0.788h19.705
				v49.262h19.705v-49.262h29.557v49.262h19.705v-49.262h29.557v49.262h19.705v-49.262h29.557v49.262h19.705v-49.262h29.557v49.262
				h19.705v-49.262h29.557v49.262h19.705v-49.262h29.557v49.262h19.705v-49.262h19.705c3.301-0.03,6.591-0.296,9.852-0.788v50.05
				h19.705v-56.011c14.306-6.828,25.833-18.355,32.661-32.661h56.011v-19.705h-50.05c0.493-3.261,0.759-6.552,0.788-9.852v-19.705
				h49.262v-19.705h-49.262V403.95h49.262v-19.705h-49.262v-29.557h49.262v-19.705h-49.262v-29.557h49.262V285.72h-49.262v-29.557
				h49.262v-19.705h-49.262v-29.557h49.262v-19.705h-49.262v-29.557h49.262v-19.705h-49.262v-19.705
				c-0.03-3.301-0.296-6.591-0.788-9.852h50.05V88.672h-56.011C528.307,74.366,516.78,62.839,502.474,56.011z M522.179,472.917
				c-0.03,27.193-22.069,49.233-49.262,49.262H118.229c-27.193-0.03-49.233-22.069-49.262-49.262V118.229
				c0.03-27.193,22.069-49.233,49.262-49.262h354.688c27.193,0.03,49.233,22.069,49.262,49.262V472.917z"/>
			<path d="M463.064,98.524H128.082c-16.325,0-29.557,13.232-29.557,29.557v334.983c0,16.325,13.232,29.557,29.557,29.557h334.983
				c16.325,0,29.557-13.232,29.557-29.557V128.082C492.622,111.756,479.39,98.524,463.064,98.524z M472.917,463.064
				c0,5.439-4.414,9.852-9.852,9.852H128.082c-5.439,0-9.852-4.414-9.852-9.852V128.082c0-5.439,4.414-9.852,9.852-9.852h334.983
				c5.439,0,9.852,4.414,9.852,9.852V463.064z"/>
			<rect x="433.507" y="137.934" width="19.705" height="19.705"/>
			<rect x="137.934" y="433.507" width="19.705" height="19.705"/>
			<path d="M137.934,157.639v29.557h19.705v-29.557h29.557v-19.705h-29.557C146.752,137.934,137.934,146.752,137.934,157.639z"/>
			<polygon points="433.507,433.507 403.95,433.507 403.95,453.212 453.212,453.212 453.212,403.95 433.507,403.95 			"/>
		</g>
	</g>
</g>
<g>
</g>
<g>
</g>
<g>
</g>
<g>
</g>
<g>
</g>
<g>
</g>
<g>
</g>
<g>
</g>
<g>
</g>
<g>
</g>
<g>
</g>
<g>
</g>
<g>
</g>
<g>
</g>
<g>
</g>
</svg>
