<svg id="Layer_1" data-name="Layer 1" xmlns="http://www.w3.org/2000/svg" viewBox="0 0 250 160"><defs><style>.cls-1{fill:#0092c8;}.cls-1,.cls-2{fill-rule:evenodd;}</style></defs><path class="cls-1" d="M32.38,70.38h130.9c2.93,0,5.36.27,7.24-2.24a5.3,5.3,0,0,0,.48-5.48,5.16,5.16,0,0,0-4.42-3c-2.74,0-5.69.39-8.44.61L32.38,70.38Z"/><path class="cls-2" d="M178.92,77.27v7.1c0,.19.82-.21,1.2-.35,4-1.55,10.58-2.53,14.56-1.2a3.35,3.35,0,0,1,2.66,3.1c-.88,0-3.16-.31-4.83-.31-4.77,0-11.22.15-14.85,3.78-3.11,3.11-3.62,9.42,1.81,12.14a16.6,16.6,0,0,0,6.65,1.47h5.36a11.65,11.65,0,0,0,5.13-1.15,7.7,7.7,0,0,0,1.25-.91c.17,2.1,6.58,1.75,8.23,1.75.36,0,.72,0,.72-.1v-10c0-5.64,1-12.69-4.52-15.44-3.83-1.89-8-1.65-12.35-1.65a47.78,47.78,0,0,0-10.55,1.39c-.29.08-.47,0-.47.36ZM90.83,76.14V94.46c0,2.5,1.9,4.91,3.77,6.22a13.92,13.92,0,0,0,13.25,1.12,11.11,11.11,0,0,1,1.61-.76c.14.54,1.05.79,1.53.95a26.1,26.1,0,0,0,7.63.8v-27h-9.16c-.49,0-.31.84-.31,1.75V92.3a4.79,4.79,0,0,1-3.91,4.52c-2.36.34-4.94-1-4.94-3.29V75.83H91.14c-.23,0-.31.07-.31.31Zm122,26.65H222V57h-9.26Zm-89.63-14c0,4.69,3,8,5.82,9.92a23.52,23.52,0,0,0,12,3.77,27.29,27.29,0,0,0,9-1,27.68,27.68,0,0,0,5.41-2.1l-3.19-4.32c-.4.09-2.43.92-4.39,1.38a25.33,25.33,0,0,1-5.7.57c-4.52,0-8.85-2.92-8.85-7.51a8.23,8.23,0,0,1,.91-4.65c4.91-8.08,17.81-2,17.82-2l3.19-4.12a36.93,36.93,0,0,0-5.37-2.34,22.7,22.7,0,0,0-8.73-1.16,24.09,24.09,0,0,0-6.65,1.17c-5.47,1.79-11.25,6-11.25,12.42Zm-94.46,4c2.57,6.27,10.93,9.69,17,9.69a28.18,28.18,0,0,0,9-1,27.26,27.26,0,0,0,5.39-2.12c-.14-.55-2.54-3.51-3.08-4.32a38.45,38.45,0,0,1-4.4,1.36c-4.07.81-8.61,1.21-12-1.54-1.83-1.48-2.64-3.41-2.64-6.31,0-3.78,2.28-6.13,5.37-7.29,2.68-1,6.41-.64,9,0,1.08.27,3.87,1.46,4.54,1.52A50.18,50.18,0,0,0,60,78.71c-1.08-.25-3.73-1.77-5.31-2.3a25.19,25.19,0,0,0-12.14-.84c-6,1-14.12,5.53-14.55,12.61a10.12,10.12,0,0,0,.73,4.62ZM76,77.89a6.37,6.37,0,0,0-3.34-1.29,31.09,31.09,0,0,0-5.93-.36v26.35h9.06c.27,0,.31-.19.31-1.24V86.74c0-2.61,3.17-4.32,5.57-4.32a9.77,9.77,0,0,1,4.63.82V76.75c0-.39-.16-.47-.8-.54-5.6-.63-7.57.32-9.5,1.68Zm84.38-1.13v25.42c0,.23.07.31.31.31h9.06v-26h-9.06C160.47,76.45,160.4,76.52,160.4,76.76Zm27.89,21.88c5.94-.11,9.08-3.44,8.77-8.34-2.66.15-4.71,0-7.32.09-3.25.14-6.08,1.41-6.27,4s1.63,4.32,4.82,4.26Z"/></svg>