<svg id="Layer_1" data-name="Layer 1" xmlns="http://www.w3.org/2000/svg" viewBox="0 0 250 160"><g id="Page-1"><g id="Fractal_Logotype" data-name="Fractal Logotype"><path id="Shape" d="M149.86,87.23a8.11,8.11,0,0,1,.73-2.52c0-.08.08-.08.08-.16l.24-.49h0a1.92,1.92,0,0,1,.33-.49,7.33,7.33,0,0,1,.65-.89h0a9.8,9.8,0,0,1,1-.89l.17-.17a8,8,0,0,1,.89-.48l.49-.25a5.1,5.1,0,0,1,.65-.24l.73-.24a2.74,2.74,0,0,1,.89-.09c.16,0,.24-.08.41-.08h.08c3.17,0,4.79,1.55,6.17,3.66l4.71-2.28a11.92,11.92,0,0,0-11-6.33A12.1,12.1,0,0,0,144.5,87V88h0V89.1a12.16,12.16,0,0,0,12.59,11.7,11.81,11.81,0,0,0,11-6.34l-4.71-2.28c-1.38,2.12-3,3.66-6.17,3.66h-.08a.74.74,0,0,1-.41-.08,3.36,3.36,0,0,1-.89-.08l-.73-.25c-.25-.08-.41-.16-.65-.24l-.49-.24c-.33-.17-.57-.33-.89-.49l-.17-.16a5.18,5.18,0,0,1-1-.9h0a7.56,7.56,0,0,1-.73-.89c-.08-.16-.25-.33-.33-.49h0l-.24-.48c0-.09-.08-.09-.08-.17a8.7,8.7,0,0,1-.73-2.52v-.08c0-.32-.09-.57-.09-.89s.17-.33.17-.65ZM81,100.31H86.9V87.55H99.49V81.79H86.9V71.31h13.49V65.54H81ZM176.5,68.38h-5.77v31.93h5.77V81.71h6V75.94h-6ZM135.72,79.27a9.94,9.94,0,0,0-8.28-3.9c-6.75,0-11.86,5.6-11.86,12.75s5.2,12.76,11.86,12.76a10.14,10.14,0,0,0,8.28-4.15v3.5h5.69V75.86h-5.69Zm-7.06,16.41A7.56,7.56,0,1,1,136,88.12,7.39,7.39,0,0,1,128.66,95.68Zm-26,4.63h5.77V81.71h6V75.94H102.66Zm101.14-21a10,10,0,0,0-8.29-3.9c-6.74,0-11.86,5.6-11.86,12.75s5.2,12.76,11.86,12.76a10.17,10.17,0,0,0,8.29-4.15v3.5h5.68V75.86H203.8Zm-7.07,16.41A7.56,7.56,0,1,1,204,88.12,7.39,7.39,0,0,1,196.73,95.68Zm16.89,4.63h5.77V65.46h-5.77Z"/><polygon id="Shape-2" data-name="Shape" points="30.61 103.15 30.61 91.62 50.67 80 60.74 85.77 40.68 97.38 40.68 109 30.61 103.15"/><polygon id="Shape-3" data-name="Shape" points="30.61 74.15 30.61 62.62 50.67 51 60.74 56.77 40.68 68.38 40.68 80 30.61 74.15"/></g></g></svg>