<svg id="Layer_1" data-name="Layer 1" xmlns="http://www.w3.org/2000/svg" viewBox="0 0 250 160"><defs><style>.cls-1{fill:#2d4f9e;}</style></defs><path class="cls-1" d="M224.85,62.61C222.13,47,175.22,42.13,120.08,51.73c-23.16,4-44.07,10-60.36,16.68,2.5,0,4.36.63,5.49,1.75a4.9,4.9,0,0,1,1.32,3.6v1.55h-5.4V74a1.72,1.72,0,0,0-1.9-1.85,1.67,1.67,0,0,0-1.84,1.36,2.62,2.62,0,0,0,0,1.08c.58,2.37,8.61,3.84,9.48,8.2a10.38,10.38,0,0,1,0,3.49c-.5,3.52-3.6,4.87-7.54,4.87-5.49,0-7.72-2.6-7.72-6.19v-1.7h5.8v2.12a1.82,1.82,0,0,0,2,1.84,1.76,1.76,0,0,0,2-1.36,2.63,2.63,0,0,0,0-1.52c-1.07-2.69-8.57-4-9.49-8.3a7.22,7.22,0,0,1-.05-2.86,5.66,5.66,0,0,1,.48-1.51C34.32,80.07,23.76,89.36,25.15,97.39c2.73,15.61,49.63,20.48,104.77,10.88,24.24-4.22,46-10.54,62.62-17.62-.24,0-.47,0-.72,0-3.78,0-7.15-1.41-7.49-5.27a12.1,12.1,0,0,1-.08-1.4V75.15c0-.38.05-1.05.09-1.4.45-3.72,3.4-5.26,7.48-5.26,3.16,0,7,.9,7.47,5.27.05.54.05,1.13.05,1.32v.84h-5.47V74.67a4.9,4.9,0,0,0-.06-.79,1.85,1.85,0,0,0-2-1.47,1.88,1.88,0,0,0-2,1.47,4.52,4.52,0,0,0-.09,1v9.64a5.15,5.15,0,0,0,.05.78,2.21,2.21,0,0,0,4.17,0,5.54,5.54,0,0,0,.05-.78v-3h-2.15V78.3h7.6V84a12.44,12.44,0,0,1-.08,1.4,5.36,5.36,0,0,1-.91,2.6c17.59-8.35,27.83-17.5,26.46-25.41Zm-143,27.67-2.77-18.8H79l-2.84,18.8H70.32l3.93-21.23h9.51l3.9,21.23Zm28,0-.13-18.43h-.09l-3.43,18.43h-5.47L97.36,71.85h-.09l-.13,18.43H91.72l.47-21.23h8.72l2.54,15.77h.12l2.55-15.77h8.72l.47,21.23Zm25.54-4.11C134.85,90.28,130.82,91,128,91c-4.73,0-7.65-2-7.65-6.14V83.19h5.73v2.09a1.81,1.81,0,0,0,2,1.83,1.77,1.77,0,0,0,2-1.35,2.78,2.78,0,0,0,0-1.51c-1.06-2.64-8.5-3.93-9.4-8.22a7.12,7.12,0,0,1,0-2.84c.63-3.88,4.35-4.68,7.35-4.68,2.69,0,4.64.58,5.81,1.75a4.88,4.88,0,0,1,1.32,3.57v1.53H129.7V74a1.7,1.7,0,0,0-1.87-1.83A1.67,1.67,0,0,0,126,73.53a2.57,2.57,0,0,0,0,1.07c.57,2.36,8.53,3.79,9.4,8.12A10.38,10.38,0,0,1,135.44,86.17Zm19.83-1.93c0,.4,0,1.19-.05,1.4-.33,3.49-2.83,5.27-7.42,5.27s-7.11-1.78-7.43-5.27a13.1,13.1,0,0,1-.05-1.4V69.05h5.47V84.72a5,5,0,0,0,.05.79,2,2,0,0,0,3.92,0,5.11,5.11,0,0,0,.05-.79V69.05h5.46Zm23.61,5.82h-7.63l-5.12-16.81h-.08l.28,16.81H161v-21H169l4.73,16.15h.11l-.28-16.15h5.36v21Z"/></svg>