<svg width="260" height="614" viewBox="0 0 260 614" fill="none" xmlns="http://www.w3.org/2000/svg">
<path d="M29.3457 78.8623L29.5371 80.1748L29.8174 78.9922L31.7861 72.0469H32.8936L34.8145 78.9922L35.0879 80.1953L35.2998 78.8555L36.8447 72.0469H38.1641L35.751 82H34.5547L32.5039 74.7471L32.3467 73.9883L32.1895 74.7471L30.0635 82H28.8672L26.4609 72.0469H27.7734L29.3457 78.8623ZM43.7627 82C43.6898 81.8542 43.6305 81.5944 43.585 81.2207C42.9971 81.8314 42.2952 82.1367 41.4795 82.1367C40.7503 82.1367 40.151 81.9316 39.6816 81.5215C39.2168 81.1068 38.9844 80.5827 38.9844 79.9492C38.9844 79.179 39.276 78.582 39.8594 78.1582C40.4473 77.7298 41.2721 77.5156 42.334 77.5156H43.5645V76.9346C43.5645 76.4925 43.4323 76.1416 43.168 75.8818C42.9036 75.6175 42.514 75.4854 41.999 75.4854C41.5479 75.4854 41.1696 75.5993 40.8643 75.8271C40.5589 76.055 40.4062 76.3307 40.4062 76.6543H39.1348C39.1348 76.2852 39.2646 75.9297 39.5244 75.5879C39.7887 75.2415 40.1442 74.9681 40.5908 74.7676C41.042 74.5671 41.5365 74.4668 42.0742 74.4668C42.9264 74.4668 43.5941 74.681 44.0771 75.1094C44.5602 75.5332 44.8109 76.1188 44.8291 76.8662V80.2705C44.8291 80.9495 44.9157 81.4896 45.0889 81.8906V82H43.7627ZM41.6641 81.0361C42.0605 81.0361 42.4365 80.9336 42.792 80.7285C43.1475 80.5234 43.4049 80.2568 43.5645 79.9287V78.4111H42.5732C41.0238 78.4111 40.249 78.8646 40.249 79.7715C40.249 80.168 40.3812 80.4779 40.6455 80.7012C40.9098 80.9245 41.2493 81.0361 41.6641 81.0361ZM48.0078 74.6035L48.0488 75.5332C48.6139 74.8223 49.3522 74.4668 50.2637 74.4668C51.8268 74.4668 52.6152 75.3486 52.6289 77.1123V82H51.3643V77.1055C51.3597 76.5723 51.2367 76.1781 50.9951 75.9229C50.7581 75.6676 50.3867 75.54 49.8809 75.54C49.4707 75.54 49.1107 75.6494 48.8008 75.8682C48.4909 76.0869 48.2493 76.374 48.0762 76.7295V82H46.8115V74.6035H48.0078ZM56.252 72.8125V74.6035H57.6328V75.5811H56.252V80.168C56.252 80.4642 56.3135 80.6875 56.4365 80.8379C56.5596 80.9837 56.7692 81.0566 57.0654 81.0566C57.2113 81.0566 57.4118 81.0293 57.667 80.9746V82C57.3343 82.0911 57.0107 82.1367 56.6963 82.1367C56.1312 82.1367 55.7051 81.9658 55.418 81.624C55.1309 81.2822 54.9873 80.7969 54.9873 80.168V75.5811H53.6406V74.6035H54.9873V72.8125H56.252ZM64.3047 72.8125V74.6035H65.6855V75.5811H64.3047V80.168C64.3047 80.4642 64.3662 80.6875 64.4893 80.8379C64.6123 80.9837 64.8219 81.0566 65.1182 81.0566C65.264 81.0566 65.4645 81.0293 65.7197 80.9746V82C65.387 82.0911 65.0635 82.1367 64.749 82.1367C64.1839 82.1367 63.7578 81.9658 63.4707 81.624C63.1836 81.2822 63.04 80.7969 63.04 80.168V75.5811H61.6934V74.6035H63.04V72.8125H64.3047ZM66.6973 78.2334C66.6973 77.5088 66.8385 76.8571 67.1211 76.2783C67.4082 75.6995 67.8047 75.2529 68.3105 74.9385C68.821 74.624 69.402 74.4668 70.0537 74.4668C71.0609 74.4668 71.8743 74.8154 72.4941 75.5127C73.1185 76.21 73.4307 77.1374 73.4307 78.2949V78.3838C73.4307 79.1038 73.2917 79.751 73.0137 80.3252C72.7402 80.8949 72.346 81.3392 71.8311 81.6582C71.3206 81.9772 70.7327 82.1367 70.0674 82.1367C69.0648 82.1367 68.2513 81.7881 67.627 81.0908C67.0072 80.3936 66.6973 79.4707 66.6973 78.3223V78.2334ZM67.9688 78.3838C67.9688 79.2041 68.1579 79.8626 68.5361 80.3594C68.9189 80.8561 69.4294 81.1045 70.0674 81.1045C70.71 81.1045 71.2204 80.8538 71.5986 80.3525C71.9769 79.8467 72.166 79.1403 72.166 78.2334C72.166 77.4222 71.9723 76.766 71.585 76.2646C71.2021 75.7588 70.6917 75.5059 70.0537 75.5059C69.4294 75.5059 68.9258 75.7542 68.543 76.251C68.1602 76.7477 67.9688 77.4587 67.9688 78.3838ZM84.751 78.3838C84.751 79.514 84.4912 80.4232 83.9717 81.1113C83.4521 81.7949 82.7549 82.1367 81.8799 82.1367C80.9456 82.1367 80.2233 81.8063 79.7129 81.1455L79.6514 82H78.4893V71.5H79.7539V75.417C80.2643 74.7835 80.9684 74.4668 81.8662 74.4668C82.764 74.4668 83.4681 74.8063 83.9785 75.4854C84.4935 76.1644 84.751 77.0941 84.751 78.2744V78.3838ZM83.4863 78.2402C83.4863 77.3789 83.32 76.7135 82.9873 76.2441C82.6546 75.7747 82.1761 75.54 81.5518 75.54C80.7178 75.54 80.1185 75.9274 79.7539 76.7021V79.9014C80.1413 80.6761 80.7451 81.0635 81.5654 81.0635C82.1715 81.0635 82.6432 80.8288 82.9805 80.3594C83.3177 79.89 83.4863 79.1836 83.4863 78.2402ZM90.917 81.2686C90.4248 81.8473 89.7025 82.1367 88.75 82.1367C87.9616 82.1367 87.36 81.9089 86.9453 81.4531C86.5352 80.9928 86.3278 80.3138 86.3232 79.416V74.6035H87.5879V79.3818C87.5879 80.5029 88.0436 81.0635 88.9551 81.0635C89.9212 81.0635 90.5638 80.7035 90.8828 79.9834V74.6035H92.1475V82H90.9443L90.917 81.2686ZM95.4492 82H94.1846V74.6035H95.4492V82ZM94.082 72.6416C94.082 72.4365 94.1436 72.2633 94.2666 72.1221C94.3942 71.9808 94.5811 71.9102 94.8271 71.9102C95.0732 71.9102 95.2601 71.9808 95.3877 72.1221C95.5153 72.2633 95.5791 72.4365 95.5791 72.6416C95.5791 72.8467 95.5153 73.0176 95.3877 73.1543C95.2601 73.291 95.0732 73.3594 94.8271 73.3594C94.5811 73.3594 94.3942 73.291 94.2666 73.1543C94.1436 73.0176 94.082 72.8467 94.082 72.6416ZM98.8535 82H97.5889V71.5H98.8535V82ZM100.576 78.2402C100.576 77.1055 100.845 76.194 101.383 75.5059C101.921 74.8132 102.625 74.4668 103.495 74.4668C104.361 74.4668 105.047 74.763 105.553 75.3555V71.5H106.817V82H105.655L105.594 81.207C105.088 81.8268 104.384 82.1367 103.481 82.1367C102.625 82.1367 101.925 81.7858 101.383 81.084C100.845 80.3822 100.576 79.4661 100.576 78.3359V78.2402ZM101.841 78.3838C101.841 79.2223 102.014 79.8786 102.36 80.3525C102.707 80.8265 103.185 81.0635 103.796 81.0635C104.598 81.0635 105.184 80.7035 105.553 79.9834V76.5859C105.174 75.8887 104.593 75.54 103.81 75.54C103.19 75.54 102.707 75.7793 102.36 76.2578C102.014 76.7363 101.841 77.445 101.841 78.3838ZM114.679 80.1475L116.401 74.6035H117.755L114.781 83.1416C114.321 84.3721 113.59 84.9873 112.587 84.9873L112.348 84.9668L111.876 84.8779V83.8525L112.218 83.8799C112.646 83.8799 112.979 83.7933 113.216 83.6201C113.457 83.4469 113.656 83.1302 113.811 82.6699L114.091 81.918L111.452 74.6035H112.833L114.679 80.1475ZM118.445 78.2334C118.445 77.5088 118.587 76.8571 118.869 76.2783C119.156 75.6995 119.553 75.2529 120.059 74.9385C120.569 74.624 121.15 74.4668 121.802 74.4668C122.809 74.4668 123.622 74.8154 124.242 75.5127C124.867 76.21 125.179 77.1374 125.179 78.2949V78.3838C125.179 79.1038 125.04 79.751 124.762 80.3252C124.488 80.8949 124.094 81.3392 123.579 81.6582C123.069 81.9772 122.481 82.1367 121.815 82.1367C120.813 82.1367 119.999 81.7881 119.375 81.0908C118.755 80.3936 118.445 79.4707 118.445 78.3223V78.2334ZM119.717 78.3838C119.717 79.2041 119.906 79.8626 120.284 80.3594C120.667 80.8561 121.177 81.1045 121.815 81.1045C122.458 81.1045 122.968 80.8538 123.347 80.3525C123.725 79.8467 123.914 79.1403 123.914 78.2334C123.914 77.4222 123.72 76.766 123.333 76.2646C122.95 75.7588 122.44 75.5059 121.802 75.5059C121.177 75.5059 120.674 75.7542 120.291 76.251C119.908 76.7477 119.717 77.4587 119.717 78.3838ZM131.331 81.2686C130.839 81.8473 130.117 82.1367 129.164 82.1367C128.376 82.1367 127.774 81.9089 127.359 81.4531C126.949 80.9928 126.742 80.3138 126.737 79.416V74.6035H128.002V79.3818C128.002 80.5029 128.458 81.0635 129.369 81.0635C130.335 81.0635 130.978 80.7035 131.297 79.9834V74.6035H132.562V82H131.358L131.331 81.2686ZM138.064 75.7383C137.873 75.7064 137.666 75.6904 137.442 75.6904C136.613 75.6904 136.05 76.0436 135.754 76.75V82H134.489V74.6035H135.72L135.74 75.458C136.155 74.7972 136.743 74.4668 137.504 74.4668C137.75 74.4668 137.937 74.4987 138.064 74.5625V75.7383ZM144.217 78.1035V82H142.904V72.0469H146.575C147.664 72.0469 148.517 72.3249 149.132 72.8809C149.752 73.4368 150.062 74.1729 150.062 75.0889C150.062 76.055 149.758 76.8001 149.152 77.3242C148.551 77.8438 147.687 78.1035 146.562 78.1035H144.217ZM144.217 77.0303H146.575C147.277 77.0303 147.815 76.8662 148.188 76.5381C148.562 76.2054 148.749 75.7269 148.749 75.1025C148.749 74.5101 148.562 74.0361 148.188 73.6807C147.815 73.3252 147.302 73.1406 146.65 73.127H144.217V77.0303ZM159.058 78.8418C158.935 79.8945 158.545 80.708 157.889 81.2822C157.237 81.8519 156.369 82.1367 155.284 82.1367C154.108 82.1367 153.165 81.7152 152.454 80.8721C151.748 80.029 151.395 78.901 151.395 77.4883V76.5312C151.395 75.6061 151.559 74.7926 151.887 74.0908C152.219 73.389 152.689 72.8512 153.295 72.4775C153.901 72.0993 154.603 71.9102 155.4 71.9102C156.458 71.9102 157.305 72.2064 157.943 72.7988C158.581 73.3867 158.953 74.2025 159.058 75.2461H157.738C157.624 74.4531 157.376 73.8789 156.993 73.5234C156.615 73.168 156.084 72.9902 155.4 72.9902C154.562 72.9902 153.903 73.3001 153.425 73.9199C152.951 74.5397 152.714 75.4215 152.714 76.5654V77.5293C152.714 78.6094 152.939 79.4684 153.391 80.1064C153.842 80.7445 154.473 81.0635 155.284 81.0635C156.013 81.0635 156.572 80.8994 156.959 80.5713C157.351 80.2386 157.611 79.6621 157.738 78.8418H159.058ZM168.696 82C168.623 81.8542 168.564 81.5944 168.519 81.2207C167.931 81.8314 167.229 82.1367 166.413 82.1367C165.684 82.1367 165.085 81.9316 164.615 81.5215C164.15 81.1068 163.918 80.5827 163.918 79.9492C163.918 79.179 164.21 78.582 164.793 78.1582C165.381 77.7298 166.206 77.5156 167.268 77.5156H168.498V76.9346C168.498 76.4925 168.366 76.1416 168.102 75.8818C167.837 75.6175 167.448 75.4854 166.933 75.4854C166.481 75.4854 166.103 75.5993 165.798 75.8271C165.493 76.055 165.34 76.3307 165.34 76.6543H164.068C164.068 76.2852 164.198 75.9297 164.458 75.5879C164.722 75.2415 165.078 74.9681 165.524 74.7676C165.976 74.5671 166.47 74.4668 167.008 74.4668C167.86 74.4668 168.528 74.681 169.011 75.1094C169.494 75.5332 169.744 76.1188 169.763 76.8662V80.2705C169.763 80.9495 169.849 81.4896 170.022 81.8906V82H168.696ZM166.598 81.0361C166.994 81.0361 167.37 80.9336 167.726 80.7285C168.081 80.5234 168.339 80.2568 168.498 79.9287V78.4111H167.507C165.957 78.4111 165.183 78.8646 165.183 79.7715C165.183 80.168 165.315 80.4779 165.579 80.7012C165.843 80.9245 166.183 81.0361 166.598 81.0361ZM176.052 80.0381C176.052 79.6963 175.922 79.432 175.662 79.2451C175.407 79.0537 174.958 78.8896 174.315 78.7529C173.677 78.6162 173.169 78.4521 172.791 78.2607C172.417 78.0693 172.139 77.8415 171.957 77.5771C171.779 77.3128 171.69 76.9984 171.69 76.6338C171.69 76.0277 171.946 75.515 172.456 75.0957C172.971 74.6764 173.627 74.4668 174.425 74.4668C175.263 74.4668 175.942 74.6833 176.462 75.1162C176.986 75.5492 177.248 76.1029 177.248 76.7773H175.977C175.977 76.431 175.828 76.1325 175.532 75.8818C175.241 75.6312 174.871 75.5059 174.425 75.5059C173.965 75.5059 173.604 75.6061 173.345 75.8066C173.085 76.0072 172.955 76.2692 172.955 76.5928C172.955 76.8981 173.076 77.1283 173.317 77.2832C173.559 77.4382 173.994 77.5863 174.623 77.7275C175.257 77.8688 175.769 78.0374 176.161 78.2334C176.553 78.4294 176.842 78.6663 177.029 78.9443C177.221 79.2178 177.316 79.5527 177.316 79.9492C177.316 80.61 177.052 81.141 176.523 81.542C175.995 81.9385 175.309 82.1367 174.466 82.1367C173.873 82.1367 173.349 82.0319 172.894 81.8223C172.438 81.6126 172.08 81.321 171.82 80.9473C171.565 80.569 171.438 80.1611 171.438 79.7236H172.702C172.725 80.1475 172.894 80.4847 173.208 80.7354C173.527 80.9814 173.946 81.1045 174.466 81.1045C174.944 81.1045 175.327 81.0088 175.614 80.8174C175.906 80.6214 176.052 80.3617 176.052 80.0381ZM188.685 78.3838C188.685 79.5094 188.427 80.4163 187.912 81.1045C187.397 81.7926 186.7 82.1367 185.82 82.1367C184.923 82.1367 184.216 81.8519 183.701 81.2822V84.8438H182.437V74.6035H183.592L183.653 75.4238C184.168 74.7858 184.884 74.4668 185.8 74.4668C186.688 74.4668 187.39 74.8018 187.905 75.4717C188.425 76.1416 188.685 77.0736 188.685 78.2676V78.3838ZM187.42 78.2402C187.42 77.4062 187.242 76.7477 186.887 76.2646C186.531 75.7816 186.044 75.54 185.424 75.54C184.658 75.54 184.084 75.8796 183.701 76.5586V80.0928C184.079 80.7673 184.658 81.1045 185.438 81.1045C186.044 81.1045 186.524 80.8652 186.88 80.3867C187.24 79.9036 187.42 79.1882 187.42 78.2402ZM193.367 82.1367C192.365 82.1367 191.549 81.8086 190.92 81.1523C190.291 80.4915 189.977 79.6097 189.977 78.5068V78.2744C189.977 77.5407 190.116 76.8867 190.394 76.3125C190.676 75.7337 191.068 75.2826 191.569 74.959C192.075 74.6309 192.622 74.4668 193.21 74.4668C194.172 74.4668 194.919 74.7835 195.452 75.417C195.985 76.0505 196.252 76.9574 196.252 78.1377V78.6641H191.241C191.259 79.3932 191.471 79.9834 191.877 80.4346C192.287 80.8812 192.807 81.1045 193.436 81.1045C193.882 81.1045 194.26 81.0133 194.57 80.8311C194.88 80.6488 195.151 80.4072 195.384 80.1064L196.156 80.708C195.536 81.6605 194.607 82.1367 193.367 82.1367ZM193.21 75.5059C192.7 75.5059 192.271 75.6927 191.925 76.0664C191.578 76.4355 191.364 76.9551 191.282 77.625H194.987V77.5293C194.951 76.8867 194.778 76.39 194.468 76.0391C194.158 75.6836 193.739 75.5059 193.21 75.5059ZM201.297 75.7383C201.105 75.7064 200.898 75.6904 200.675 75.6904C199.845 75.6904 199.283 76.0436 198.986 76.75V82H197.722V74.6035H198.952L198.973 75.458C199.387 74.7972 199.975 74.4668 200.736 74.4668C200.982 74.4668 201.169 74.4987 201.297 74.5625V75.7383ZM208.358 80.1475L210.081 74.6035H211.435L208.461 83.1416C208.001 84.3721 207.269 84.9873 206.267 84.9873L206.027 84.9668L205.556 84.8779V83.8525L205.897 83.8799C206.326 83.8799 206.659 83.7933 206.896 83.6201C207.137 83.4469 207.335 83.1302 207.49 82.6699L207.771 81.918L205.132 74.6035H206.513L208.358 80.1475ZM212.125 78.2334C212.125 77.5088 212.266 76.8571 212.549 76.2783C212.836 75.6995 213.232 75.2529 213.738 74.9385C214.249 74.624 214.83 74.4668 215.481 74.4668C216.489 74.4668 217.302 74.8154 217.922 75.5127C218.546 76.21 218.858 77.1374 218.858 78.2949V78.3838C218.858 79.1038 218.719 79.751 218.441 80.3252C218.168 80.8949 217.774 81.3392 217.259 81.6582C216.748 81.9772 216.16 82.1367 215.495 82.1367C214.493 82.1367 213.679 81.7881 213.055 81.0908C212.435 80.3936 212.125 79.4707 212.125 78.3223V78.2334ZM213.396 78.3838C213.396 79.2041 213.586 79.8626 213.964 80.3594C214.347 80.8561 214.857 81.1045 215.495 81.1045C216.138 81.1045 216.648 80.8538 217.026 80.3525C217.405 79.8467 217.594 79.1403 217.594 78.2334C217.594 77.4222 217.4 76.766 217.013 76.2646C216.63 75.7588 216.119 75.5059 215.481 75.5059C214.857 75.5059 214.354 75.7542 213.971 76.251C213.588 76.7477 213.396 77.4587 213.396 78.3838ZM225.011 81.2686C224.519 81.8473 223.796 82.1367 222.844 82.1367C222.055 82.1367 221.454 81.9089 221.039 81.4531C220.629 80.9928 220.422 80.3138 220.417 79.416V74.6035H221.682V79.3818C221.682 80.5029 222.137 81.0635 223.049 81.0635C224.015 81.0635 224.658 80.7035 224.977 79.9834V74.6035H226.241V82H225.038L225.011 81.2686ZM231.744 75.7383C231.553 75.7064 231.345 75.6904 231.122 75.6904C230.293 75.6904 229.73 76.0436 229.434 76.75V82H228.169V74.6035H229.399L229.42 75.458C229.835 74.7972 230.423 74.4668 231.184 74.4668C231.43 74.4668 231.617 74.4987 231.744 74.5625V75.7383ZM115.964 88.8125V90.6035H117.345V91.5811H115.964V96.168C115.964 96.4642 116.025 96.6875 116.148 96.8379C116.271 96.9837 116.481 97.0566 116.777 97.0566C116.923 97.0566 117.124 97.0293 117.379 96.9746V98C117.046 98.0911 116.723 98.1367 116.408 98.1367C115.843 98.1367 115.417 97.9658 115.13 97.624C114.843 97.2822 114.699 96.7969 114.699 96.168V91.5811H113.353V90.6035H114.699V88.8125H115.964ZM123.395 98C123.322 97.8542 123.262 97.5944 123.217 97.2207C122.629 97.8314 121.927 98.1367 121.111 98.1367C120.382 98.1367 119.783 97.9316 119.313 97.5215C118.849 97.1068 118.616 96.5827 118.616 95.9492C118.616 95.179 118.908 94.582 119.491 94.1582C120.079 93.7298 120.904 93.5156 121.966 93.5156H123.196V92.9346C123.196 92.4925 123.064 92.1416 122.8 91.8818C122.535 91.6175 122.146 91.4854 121.631 91.4854C121.18 91.4854 120.801 91.5993 120.496 91.8271C120.191 92.055 120.038 92.3307 120.038 92.6543H118.767C118.767 92.2852 118.896 91.9297 119.156 91.5879C119.421 91.2415 119.776 90.9681 120.223 90.7676C120.674 90.5671 121.168 90.4668 121.706 90.4668C122.558 90.4668 123.226 90.681 123.709 91.1094C124.192 91.5332 124.443 92.1188 124.461 92.8662V96.2705C124.461 96.9495 124.548 97.4896 124.721 97.8906V98H123.395ZM121.296 97.0361C121.692 97.0361 122.068 96.9336 122.424 96.7285C122.779 96.5234 123.037 96.2568 123.196 95.9287V94.4111H122.205C120.656 94.4111 119.881 94.8646 119.881 95.7715C119.881 96.168 120.013 96.4779 120.277 96.7012C120.542 96.9245 120.881 97.0361 121.296 97.0361ZM130.75 96.0381C130.75 95.6963 130.62 95.432 130.36 95.2451C130.105 95.0537 129.656 94.8896 129.014 94.7529C128.376 94.6162 127.868 94.4521 127.489 94.2607C127.116 94.0693 126.838 93.8415 126.655 93.5771C126.478 93.3128 126.389 92.9984 126.389 92.6338C126.389 92.0277 126.644 91.515 127.154 91.0957C127.669 90.6764 128.326 90.4668 129.123 90.4668C129.962 90.4668 130.641 90.6833 131.16 91.1162C131.684 91.5492 131.946 92.1029 131.946 92.7773H130.675C130.675 92.431 130.527 92.1325 130.23 91.8818C129.939 91.6312 129.57 91.5059 129.123 91.5059C128.663 91.5059 128.303 91.6061 128.043 91.8066C127.783 92.0072 127.653 92.2692 127.653 92.5928C127.653 92.8981 127.774 93.1283 128.016 93.2832C128.257 93.4382 128.692 93.5863 129.321 93.7275C129.955 93.8688 130.467 94.0374 130.859 94.2334C131.251 94.4294 131.541 94.6663 131.728 94.9443C131.919 95.2178 132.015 95.5527 132.015 95.9492C132.015 96.61 131.75 97.141 131.222 97.542C130.693 97.9385 130.007 98.1367 129.164 98.1367C128.572 98.1367 128.048 98.0319 127.592 97.8223C127.136 97.6126 126.778 97.321 126.519 96.9473C126.263 96.569 126.136 96.1611 126.136 95.7236H127.4C127.423 96.1475 127.592 96.4847 127.906 96.7354C128.225 96.9814 128.645 97.1045 129.164 97.1045C129.643 97.1045 130.025 97.0088 130.312 96.8174C130.604 96.6214 130.75 96.3617 130.75 96.0381ZM135.378 88.8125V90.6035H136.759V91.5811H135.378V96.168C135.378 96.4642 135.439 96.6875 135.562 96.8379C135.686 96.9837 135.895 97.0566 136.191 97.0566C136.337 97.0566 136.538 97.0293 136.793 96.9746V98C136.46 98.0911 136.137 98.1367 135.822 98.1367C135.257 98.1367 134.831 97.9658 134.544 97.624C134.257 97.2822 134.113 96.7969 134.113 96.168V91.5811H132.767V90.6035H134.113V88.8125H135.378ZM141.312 98.1367C140.309 98.1367 139.493 97.8086 138.864 97.1523C138.235 96.4915 137.921 95.6097 137.921 94.5068V94.2744C137.921 93.5407 138.06 92.8867 138.338 92.3125C138.62 91.7337 139.012 91.2826 139.514 90.959C140.02 90.6309 140.566 90.4668 141.154 90.4668C142.116 90.4668 142.863 90.7835 143.396 91.417C143.93 92.0505 144.196 92.9574 144.196 94.1377V94.6641H139.186C139.204 95.3932 139.416 95.9834 139.821 96.4346C140.231 96.8812 140.751 97.1045 141.38 97.1045C141.826 97.1045 142.205 97.0133 142.515 96.8311C142.825 96.6488 143.096 96.4072 143.328 96.1064L144.101 96.708C143.481 97.6605 142.551 98.1367 141.312 98.1367ZM141.154 91.5059C140.644 91.5059 140.215 91.6927 139.869 92.0664C139.523 92.4355 139.309 92.9551 139.227 93.625H142.932V93.5293C142.895 92.8867 142.722 92.39 142.412 92.0391C142.102 91.6836 141.683 91.5059 141.154 91.5059Z" fill="black"/>
<path d="M24.5742 207V197.047H27.8281C28.9082 197.047 29.7194 197.27 30.2617 197.717C30.8086 198.163 31.082 198.824 31.082 199.699C31.082 200.164 30.9499 200.576 30.6855 200.937C30.4212 201.292 30.0612 201.568 29.6055 201.764C30.1432 201.914 30.5671 202.201 30.877 202.625C31.1914 203.044 31.3486 203.546 31.3486 204.129C31.3486 205.022 31.0592 205.724 30.4805 206.234C29.9017 206.745 29.0837 207 28.0264 207H24.5742ZM25.8867 202.345V205.927H28.0537C28.6644 205.927 29.1452 205.77 29.4961 205.455C29.8516 205.136 30.0293 204.699 30.0293 204.143C30.0293 202.944 29.3776 202.345 28.0742 202.345H25.8867ZM25.8867 201.292H27.8691C28.4434 201.292 28.9014 201.148 29.2432 200.861C29.5895 200.574 29.7627 200.185 29.7627 199.692C29.7627 199.146 29.6032 198.749 29.2842 198.503C28.9652 198.252 28.4798 198.127 27.8281 198.127H25.8867V201.292ZM37.665 206.269C37.1729 206.847 36.4505 207.137 35.498 207.137C34.7096 207.137 34.1081 206.909 33.6934 206.453C33.2832 205.993 33.0758 205.314 33.0713 204.416V199.604H34.3359V204.382C34.3359 205.503 34.7917 206.063 35.7031 206.063C36.6693 206.063 37.3118 205.703 37.6309 204.983V199.604H38.8955V207H37.6924L37.665 206.269ZM42.1973 207H40.9326V199.604H42.1973V207ZM40.8301 197.642C40.8301 197.437 40.8916 197.263 41.0146 197.122C41.1423 196.981 41.3291 196.91 41.5752 196.91C41.8213 196.91 42.0081 196.981 42.1357 197.122C42.2633 197.263 42.3271 197.437 42.3271 197.642C42.3271 197.847 42.2633 198.018 42.1357 198.154C42.0081 198.291 41.8213 198.359 41.5752 198.359C41.3291 198.359 41.1423 198.291 41.0146 198.154C40.8916 198.018 40.8301 197.847 40.8301 197.642ZM45.6016 207H44.3369V196.5H45.6016V207ZM47.3242 203.24C47.3242 202.105 47.5931 201.194 48.1309 200.506C48.6686 199.813 49.3727 199.467 50.2432 199.467C51.109 199.467 51.7949 199.763 52.3008 200.355V196.5H53.5654V207H52.4033L52.3418 206.207C51.8359 206.827 51.1318 207.137 50.2295 207.137C49.3727 207.137 48.6732 206.786 48.1309 206.084C47.5931 205.382 47.3242 204.466 47.3242 203.336V203.24ZM48.5889 203.384C48.5889 204.222 48.762 204.879 49.1084 205.353C49.4548 205.826 49.9333 206.063 50.5439 206.063C51.346 206.063 51.9316 205.703 52.3008 204.983V201.586C51.9225 200.889 51.3415 200.54 50.5576 200.54C49.9378 200.54 49.4548 200.779 49.1084 201.258C48.762 201.736 48.5889 202.445 48.5889 203.384ZM60.5176 203.104V207H59.2051V197.047H62.876C63.9652 197.047 64.8174 197.325 65.4326 197.881C66.0524 198.437 66.3623 199.173 66.3623 200.089C66.3623 201.055 66.0592 201.8 65.4531 202.324C64.8516 202.844 63.988 203.104 62.8623 203.104H60.5176ZM60.5176 202.03H62.876C63.5778 202.03 64.1156 201.866 64.4893 201.538C64.863 201.205 65.0498 200.727 65.0498 200.103C65.0498 199.51 64.863 199.036 64.4893 198.681C64.1156 198.325 63.6029 198.141 62.9512 198.127H60.5176V202.03ZM75.3584 203.842C75.2354 204.895 74.8457 205.708 74.1895 206.282C73.5378 206.852 72.6696 207.137 71.585 207.137C70.4092 207.137 69.4658 206.715 68.7549 205.872C68.0485 205.029 67.6953 203.901 67.6953 202.488V201.531C67.6953 200.606 67.8594 199.793 68.1875 199.091C68.5202 198.389 68.9896 197.851 69.5957 197.478C70.2018 197.099 70.9036 196.91 71.7012 196.91C72.7585 196.91 73.6061 197.206 74.2441 197.799C74.8822 198.387 75.2536 199.202 75.3584 200.246H74.0391C73.9251 199.453 73.6768 198.879 73.2939 198.523C72.9157 198.168 72.3848 197.99 71.7012 197.99C70.8626 197.99 70.2041 198.3 69.7256 198.92C69.2516 199.54 69.0146 200.422 69.0146 201.565V202.529C69.0146 203.609 69.2402 204.468 69.6914 205.106C70.1426 205.744 70.7738 206.063 71.585 206.063C72.3141 206.063 72.8724 205.899 73.2598 205.571C73.6517 205.239 73.9115 204.662 74.0391 203.842H75.3584ZM84.9971 206.269C84.5049 206.847 83.7826 207.137 82.8301 207.137C82.0417 207.137 81.4401 206.909 81.0254 206.453C80.6152 205.993 80.4079 205.314 80.4033 204.416V199.604H81.668V204.382C81.668 205.503 82.1237 206.063 83.0352 206.063C84.0013 206.063 84.6439 205.703 84.9629 204.983V199.604H86.2275V207H85.0244L84.9971 206.269ZM92.4619 205.038C92.4619 204.696 92.332 204.432 92.0723 204.245C91.8171 204.054 91.3682 203.89 90.7256 203.753C90.0876 203.616 89.5794 203.452 89.2012 203.261C88.8275 203.069 88.5495 202.841 88.3672 202.577C88.1895 202.313 88.1006 201.998 88.1006 201.634C88.1006 201.028 88.3558 200.515 88.8662 200.096C89.3812 199.676 90.0374 199.467 90.835 199.467C91.6735 199.467 92.3525 199.683 92.8721 200.116C93.3962 200.549 93.6582 201.103 93.6582 201.777H92.3867C92.3867 201.431 92.2386 201.132 91.9424 200.882C91.6507 200.631 91.2816 200.506 90.835 200.506C90.3747 200.506 90.0146 200.606 89.7549 200.807C89.4951 201.007 89.3652 201.269 89.3652 201.593C89.3652 201.898 89.486 202.128 89.7275 202.283C89.9691 202.438 90.4043 202.586 91.0332 202.728C91.6667 202.869 92.1794 203.037 92.5713 203.233C92.9632 203.429 93.2526 203.666 93.4395 203.944C93.6309 204.218 93.7266 204.553 93.7266 204.949C93.7266 205.61 93.4622 206.141 92.9336 206.542C92.4049 206.938 91.7191 207.137 90.876 207.137C90.2835 207.137 89.7594 207.032 89.3037 206.822C88.848 206.613 88.4902 206.321 88.2305 205.947C87.9753 205.569 87.8477 205.161 87.8477 204.724H89.1123C89.1351 205.147 89.3037 205.485 89.6182 205.735C89.9372 205.981 90.3564 206.104 90.876 206.104C91.3545 206.104 91.7373 206.009 92.0244 205.817C92.3161 205.621 92.4619 205.362 92.4619 205.038ZM96.748 207H95.4834V199.604H96.748V207ZM95.3809 197.642C95.3809 197.437 95.4424 197.263 95.5654 197.122C95.693 196.981 95.8799 196.91 96.126 196.91C96.3721 196.91 96.5589 196.981 96.6865 197.122C96.8141 197.263 96.8779 197.437 96.8779 197.642C96.8779 197.847 96.8141 198.018 96.6865 198.154C96.5589 198.291 96.3721 198.359 96.126 198.359C95.8799 198.359 95.693 198.291 95.5654 198.154C95.4424 198.018 95.3809 197.847 95.3809 197.642ZM99.9746 199.604L100.016 200.533C100.581 199.822 101.319 199.467 102.23 199.467C103.794 199.467 104.582 200.349 104.596 202.112V207H103.331V202.105C103.326 201.572 103.203 201.178 102.962 200.923C102.725 200.668 102.354 200.54 101.848 200.54C101.438 200.54 101.077 200.649 100.768 200.868C100.458 201.087 100.216 201.374 100.043 201.729V207H98.7783V199.604H99.9746ZM106.202 203.24C106.202 202.087 106.469 201.171 107.002 200.492C107.535 199.809 108.242 199.467 109.121 199.467C110.023 199.467 110.728 199.786 111.233 200.424L111.295 199.604H112.45V206.822C112.45 207.779 112.165 208.534 111.596 209.085C111.031 209.636 110.27 209.912 109.312 209.912C108.779 209.912 108.257 209.798 107.747 209.57C107.237 209.342 106.847 209.03 106.578 208.634L107.234 207.875C107.777 208.545 108.44 208.88 109.224 208.88C109.839 208.88 110.317 208.707 110.659 208.36C111.006 208.014 111.179 207.526 111.179 206.897V206.262C110.673 206.845 109.982 207.137 109.107 207.137C108.242 207.137 107.54 206.788 107.002 206.091C106.469 205.394 106.202 204.443 106.202 203.24ZM107.474 203.384C107.474 204.218 107.645 204.874 107.986 205.353C108.328 205.826 108.807 206.063 109.422 206.063C110.219 206.063 110.805 205.701 111.179 204.977V201.6C110.791 200.893 110.21 200.54 109.436 200.54C108.82 200.54 108.34 200.779 107.993 201.258C107.647 201.736 107.474 202.445 107.474 203.384ZM117.502 203.233C117.502 202.509 117.643 201.857 117.926 201.278C118.213 200.7 118.609 200.253 119.115 199.938C119.626 199.624 120.207 199.467 120.858 199.467C121.866 199.467 122.679 199.815 123.299 200.513C123.923 201.21 124.235 202.137 124.235 203.295V203.384C124.235 204.104 124.096 204.751 123.818 205.325C123.545 205.895 123.151 206.339 122.636 206.658C122.125 206.977 121.537 207.137 120.872 207.137C119.869 207.137 119.056 206.788 118.432 206.091C117.812 205.394 117.502 204.471 117.502 203.322V203.233ZM118.773 203.384C118.773 204.204 118.963 204.863 119.341 205.359C119.724 205.856 120.234 206.104 120.872 206.104C121.515 206.104 122.025 205.854 122.403 205.353C122.782 204.847 122.971 204.14 122.971 203.233C122.971 202.422 122.777 201.766 122.39 201.265C122.007 200.759 121.496 200.506 120.858 200.506C120.234 200.506 119.73 200.754 119.348 201.251C118.965 201.748 118.773 202.459 118.773 203.384ZM130.388 206.269C129.896 206.847 129.173 207.137 128.221 207.137C127.432 207.137 126.831 206.909 126.416 206.453C126.006 205.993 125.799 205.314 125.794 204.416V199.604H127.059V204.382C127.059 205.503 127.514 206.063 128.426 206.063C129.392 206.063 130.035 205.703 130.354 204.983V199.604H131.618V207H130.415L130.388 206.269ZM137.121 200.738C136.93 200.706 136.722 200.69 136.499 200.69C135.67 200.69 135.107 201.044 134.811 201.75V207H133.546V199.604H134.776L134.797 200.458C135.212 199.797 135.799 199.467 136.561 199.467C136.807 199.467 136.993 199.499 137.121 199.562V200.738ZM144.729 206.104C145.181 206.104 145.575 205.968 145.912 205.694C146.249 205.421 146.436 205.079 146.473 204.669H147.669C147.646 205.093 147.5 205.496 147.231 205.879C146.963 206.262 146.603 206.567 146.151 206.795C145.705 207.023 145.231 207.137 144.729 207.137C143.722 207.137 142.92 206.802 142.323 206.132C141.731 205.457 141.435 204.537 141.435 203.37V203.158C141.435 202.438 141.567 201.798 141.831 201.237C142.095 200.677 142.474 200.242 142.966 199.932C143.463 199.622 144.048 199.467 144.723 199.467C145.552 199.467 146.24 199.715 146.787 200.212C147.339 200.709 147.632 201.354 147.669 202.146H146.473C146.436 201.668 146.254 201.276 145.926 200.971C145.602 200.661 145.201 200.506 144.723 200.506C144.08 200.506 143.581 200.738 143.226 201.203C142.875 201.663 142.699 202.331 142.699 203.206V203.445C142.699 204.298 142.875 204.954 143.226 205.414C143.576 205.874 144.078 206.104 144.729 206.104ZM153.657 206.269C153.165 206.847 152.443 207.137 151.49 207.137C150.702 207.137 150.1 206.909 149.686 206.453C149.275 205.993 149.068 205.314 149.063 204.416V199.604H150.328V204.382C150.328 205.503 150.784 206.063 151.695 206.063C152.661 206.063 153.304 205.703 153.623 204.983V199.604H154.888V207H153.685L153.657 206.269ZM161.122 205.038C161.122 204.696 160.992 204.432 160.732 204.245C160.477 204.054 160.028 203.89 159.386 203.753C158.748 203.616 158.24 203.452 157.861 203.261C157.488 203.069 157.21 202.841 157.027 202.577C156.85 202.313 156.761 201.998 156.761 201.634C156.761 201.028 157.016 200.515 157.526 200.096C158.041 199.676 158.698 199.467 159.495 199.467C160.334 199.467 161.013 199.683 161.532 200.116C162.056 200.549 162.318 201.103 162.318 201.777H161.047C161.047 201.431 160.899 201.132 160.603 200.882C160.311 200.631 159.942 200.506 159.495 200.506C159.035 200.506 158.675 200.606 158.415 200.807C158.155 201.007 158.025 201.269 158.025 201.593C158.025 201.898 158.146 202.128 158.388 202.283C158.629 202.438 159.064 202.586 159.693 202.728C160.327 202.869 160.84 203.037 161.231 203.233C161.623 203.429 161.913 203.666 162.1 203.944C162.291 204.218 162.387 204.553 162.387 204.949C162.387 205.61 162.122 206.141 161.594 206.542C161.065 206.938 160.379 207.137 159.536 207.137C158.944 207.137 158.42 207.032 157.964 206.822C157.508 206.613 157.15 206.321 156.891 205.947C156.635 205.569 156.508 205.161 156.508 204.724H157.772C157.795 205.147 157.964 205.485 158.278 205.735C158.597 205.981 159.017 206.104 159.536 206.104C160.015 206.104 160.397 206.009 160.685 205.817C160.976 205.621 161.122 205.362 161.122 205.038ZM165.75 197.812V199.604H167.131V200.581H165.75V205.168C165.75 205.464 165.812 205.688 165.935 205.838C166.058 205.984 166.267 206.057 166.563 206.057C166.709 206.057 166.91 206.029 167.165 205.975V207C166.832 207.091 166.509 207.137 166.194 207.137C165.629 207.137 165.203 206.966 164.916 206.624C164.629 206.282 164.485 205.797 164.485 205.168V200.581H163.139V199.604H164.485V197.812H165.75ZM168.143 203.233C168.143 202.509 168.284 201.857 168.566 201.278C168.854 200.7 169.25 200.253 169.756 199.938C170.266 199.624 170.847 199.467 171.499 199.467C172.506 199.467 173.32 199.815 173.939 200.513C174.564 201.21 174.876 202.137 174.876 203.295V203.384C174.876 204.104 174.737 204.751 174.459 205.325C174.186 205.895 173.791 206.339 173.276 206.658C172.766 206.977 172.178 207.137 171.513 207.137C170.51 207.137 169.697 206.788 169.072 206.091C168.452 205.394 168.143 204.471 168.143 203.322V203.233ZM169.414 203.384C169.414 204.204 169.603 204.863 169.981 205.359C170.364 205.856 170.875 206.104 171.513 206.104C172.155 206.104 172.666 205.854 173.044 205.353C173.422 204.847 173.611 204.14 173.611 203.233C173.611 202.422 173.418 201.766 173.03 201.265C172.647 200.759 172.137 200.506 171.499 200.506C170.875 200.506 170.371 200.754 169.988 201.251C169.605 201.748 169.414 202.459 169.414 203.384ZM177.651 199.604L177.686 200.424C178.228 199.786 178.959 199.467 179.88 199.467C180.914 199.467 181.618 199.863 181.992 200.656C182.238 200.301 182.557 200.014 182.949 199.795C183.346 199.576 183.813 199.467 184.351 199.467C185.973 199.467 186.798 200.326 186.825 202.044V207H185.561V202.119C185.561 201.59 185.44 201.196 185.198 200.937C184.957 200.672 184.551 200.54 183.981 200.54C183.512 200.54 183.122 200.681 182.812 200.964C182.503 201.242 182.323 201.618 182.272 202.092V207H181.001V202.153C181.001 201.078 180.475 200.54 179.422 200.54C178.592 200.54 178.025 200.893 177.72 201.6V207H176.455V199.604H177.651ZM192.41 207V197.047H195.664C196.744 197.047 197.555 197.27 198.098 197.717C198.645 198.163 198.918 198.824 198.918 199.699C198.918 200.164 198.786 200.576 198.521 200.937C198.257 201.292 197.897 201.568 197.441 201.764C197.979 201.914 198.403 202.201 198.713 202.625C199.027 203.044 199.185 203.546 199.185 204.129C199.185 205.022 198.895 205.724 198.316 206.234C197.738 206.745 196.92 207 195.862 207H192.41ZM193.723 202.345V205.927H195.89C196.5 205.927 196.981 205.77 197.332 205.455C197.688 205.136 197.865 204.699 197.865 204.143C197.865 202.944 197.214 202.345 195.91 202.345H193.723ZM193.723 201.292H195.705C196.279 201.292 196.737 201.148 197.079 200.861C197.425 200.574 197.599 200.185 197.599 199.692C197.599 199.146 197.439 198.749 197.12 198.503C196.801 198.252 196.316 198.127 195.664 198.127H193.723V201.292ZM205.501 206.269C205.009 206.847 204.286 207.137 203.334 207.137C202.546 207.137 201.944 206.909 201.529 206.453C201.119 205.993 200.912 205.314 200.907 204.416V199.604H202.172V204.382C202.172 205.503 202.628 206.063 203.539 206.063C204.505 206.063 205.148 205.703 205.467 204.983V199.604H206.731V207H205.528L205.501 206.269ZM210.033 207H208.769V199.604H210.033V207ZM208.666 197.642C208.666 197.437 208.728 197.263 208.851 197.122C208.978 196.981 209.165 196.91 209.411 196.91C209.657 196.91 209.844 196.981 209.972 197.122C210.099 197.263 210.163 197.437 210.163 197.642C210.163 197.847 210.099 198.018 209.972 198.154C209.844 198.291 209.657 198.359 209.411 198.359C209.165 198.359 208.978 198.291 208.851 198.154C208.728 198.018 208.666 197.847 208.666 197.642ZM213.438 207H212.173V196.5H213.438V207ZM215.16 203.24C215.16 202.105 215.429 201.194 215.967 200.506C216.505 199.813 217.209 199.467 218.079 199.467C218.945 199.467 219.631 199.763 220.137 200.355V196.5H221.401V207H220.239L220.178 206.207C219.672 206.827 218.968 207.137 218.065 207.137C217.209 207.137 216.509 206.786 215.967 206.084C215.429 205.382 215.16 204.466 215.16 203.336V203.24ZM216.425 203.384C216.425 204.222 216.598 204.879 216.944 205.353C217.291 205.826 217.769 206.063 218.38 206.063C219.182 206.063 219.768 205.703 220.137 204.983V201.586C219.758 200.889 219.177 200.54 218.394 200.54C217.774 200.54 217.291 200.779 216.944 201.258C216.598 201.736 216.425 202.445 216.425 203.384ZM226.439 207.137C225.437 207.137 224.621 206.809 223.992 206.152C223.363 205.492 223.049 204.61 223.049 203.507V203.274C223.049 202.541 223.188 201.887 223.466 201.312C223.748 200.734 224.14 200.283 224.642 199.959C225.147 199.631 225.694 199.467 226.282 199.467C227.244 199.467 227.991 199.784 228.524 200.417C229.058 201.05 229.324 201.957 229.324 203.138V203.664H224.313C224.332 204.393 224.544 204.983 224.949 205.435C225.359 205.881 225.879 206.104 226.508 206.104C226.954 206.104 227.333 206.013 227.643 205.831C227.952 205.649 228.224 205.407 228.456 205.106L229.229 205.708C228.609 206.66 227.679 207.137 226.439 207.137ZM226.282 200.506C225.772 200.506 225.343 200.693 224.997 201.066C224.651 201.436 224.437 201.955 224.354 202.625H228.06V202.529C228.023 201.887 227.85 201.39 227.54 201.039C227.23 200.684 226.811 200.506 226.282 200.506ZM234.369 200.738C234.178 200.706 233.97 200.69 233.747 200.69C232.918 200.69 232.355 201.044 232.059 201.75V207H230.794V199.604H232.024L232.045 200.458C232.46 199.797 233.048 199.467 233.809 199.467C234.055 199.467 234.242 199.499 234.369 199.562V200.738Z" fill="black"/>
<path d="M29.9404 323.842C29.8174 324.895 29.4277 325.708 28.7715 326.282C28.1198 326.852 27.2516 327.137 26.167 327.137C24.9912 327.137 24.0479 326.715 23.3369 325.872C22.6305 325.029 22.2773 323.901 22.2773 322.488V321.531C22.2773 320.606 22.4414 319.793 22.7695 319.091C23.1022 318.389 23.5716 317.851 24.1777 317.478C24.7839 317.099 25.4857 316.91 26.2832 316.91C27.3405 316.91 28.1882 317.206 28.8262 317.799C29.4642 318.387 29.8356 319.202 29.9404 320.246H28.6211C28.5072 319.453 28.2588 318.879 27.876 318.523C27.4977 318.168 26.9668 317.99 26.2832 317.99C25.4447 317.99 24.7861 318.3 24.3076 318.92C23.8337 319.54 23.5967 320.422 23.5967 321.565V322.529C23.5967 323.609 23.8223 324.468 24.2734 325.106C24.7246 325.744 25.3558 326.063 26.167 326.063C26.8962 326.063 27.4544 325.899 27.8418 325.571C28.2337 325.239 28.4935 324.662 28.6211 323.842H29.9404ZM31.2051 323.233C31.2051 322.509 31.3464 321.857 31.6289 321.278C31.916 320.7 32.3125 320.253 32.8184 319.938C33.3288 319.624 33.9098 319.467 34.5615 319.467C35.5687 319.467 36.3822 319.815 37.002 320.513C37.6263 321.21 37.9385 322.137 37.9385 323.295V323.384C37.9385 324.104 37.7995 324.751 37.5215 325.325C37.248 325.895 36.8538 326.339 36.3389 326.658C35.8285 326.977 35.2406 327.137 34.5752 327.137C33.5726 327.137 32.7591 326.788 32.1348 326.091C31.515 325.394 31.2051 324.471 31.2051 323.322V323.233ZM32.4766 323.384C32.4766 324.204 32.6657 324.863 33.0439 325.359C33.4268 325.856 33.9372 326.104 34.5752 326.104C35.2178 326.104 35.7282 325.854 36.1064 325.353C36.4847 324.847 36.6738 324.14 36.6738 323.233C36.6738 322.422 36.4801 321.766 36.0928 321.265C35.71 320.759 35.1995 320.506 34.5615 320.506C33.9372 320.506 33.4336 320.754 33.0508 321.251C32.668 321.748 32.4766 322.459 32.4766 323.384ZM40.7207 319.604L40.7617 320.533C41.3268 319.822 42.0651 319.467 42.9766 319.467C44.5397 319.467 45.3281 320.349 45.3418 322.112V327H44.0771V322.105C44.0726 321.572 43.9495 321.178 43.708 320.923C43.471 320.668 43.0996 320.54 42.5938 320.54C42.1836 320.54 41.8236 320.649 41.5137 320.868C41.2038 321.087 40.9622 321.374 40.7891 321.729V327H39.5244V319.604H40.7207ZM47.6729 327V320.581H46.5039V319.604H47.6729V318.975C47.6729 318.15 47.9076 317.507 48.377 317.047C48.8509 316.587 49.5186 316.356 50.3799 316.356C50.8903 316.356 51.5352 316.495 52.3145 316.773L52.1025 317.84C51.5329 317.612 50.9906 317.498 50.4756 317.498C49.9333 317.498 49.5413 317.621 49.2998 317.867C49.0628 318.109 48.9443 318.473 48.9443 318.961V319.604H50.4551V320.581H48.9443V327H47.6729ZM52.9434 327H51.6719V319.604H52.9434V327ZM58.5762 320.738C58.3848 320.706 58.1774 320.69 57.9541 320.69C57.1247 320.69 56.5618 321.044 56.2656 321.75V327H55.001V319.604H56.2314L56.252 320.458C56.6667 319.797 57.2546 319.467 58.0156 319.467C58.2617 319.467 58.4486 319.499 58.5762 319.562V320.738ZM60.9346 319.604L60.9688 320.424C61.5111 319.786 62.2425 319.467 63.1631 319.467C64.1976 319.467 64.9017 319.863 65.2754 320.656C65.5215 320.301 65.8405 320.014 66.2324 319.795C66.6289 319.576 67.096 319.467 67.6338 319.467C69.2562 319.467 70.0811 320.326 70.1084 322.044V327H68.8438V322.119C68.8438 321.59 68.723 321.196 68.4814 320.937C68.2399 320.672 67.8343 320.54 67.2646 320.54C66.7952 320.54 66.4056 320.681 66.0957 320.964C65.7858 321.242 65.6058 321.618 65.5557 322.092V327H64.2842V322.153C64.2842 321.078 63.7578 320.54 62.7051 320.54C61.8757 320.54 61.3083 320.893 61.0029 321.6V327H59.7383V319.604H60.9346ZM77.2109 317.812V319.604H78.5918V320.581H77.2109V325.168C77.2109 325.464 77.2725 325.688 77.3955 325.838C77.5186 325.984 77.7282 326.057 78.0244 326.057C78.1702 326.057 78.3708 326.029 78.626 325.975V327C78.2933 327.091 77.9697 327.137 77.6553 327.137C77.0902 327.137 76.6641 326.966 76.377 326.624C76.0898 326.282 75.9463 325.797 75.9463 325.168V320.581H74.5996V319.604H75.9463V317.812H77.2109ZM81.3398 320.499C81.9004 319.811 82.6296 319.467 83.5273 319.467C85.0905 319.467 85.8789 320.349 85.8926 322.112V327H84.6279V322.105C84.6234 321.572 84.5003 321.178 84.2588 320.923C84.0218 320.668 83.6504 320.54 83.1445 320.54C82.7344 320.54 82.3743 320.649 82.0645 320.868C81.7546 321.087 81.513 321.374 81.3398 321.729V327H80.0752V316.5H81.3398V320.499ZM90.8555 327.137C89.8529 327.137 89.0371 326.809 88.4082 326.152C87.7793 325.492 87.4648 324.61 87.4648 323.507V323.274C87.4648 322.541 87.6038 321.887 87.8818 321.312C88.1644 320.734 88.5563 320.283 89.0576 319.959C89.5635 319.631 90.1104 319.467 90.6982 319.467C91.6598 319.467 92.4072 319.784 92.9404 320.417C93.4736 321.05 93.7402 321.957 93.7402 323.138V323.664H88.7295C88.7477 324.393 88.9596 324.983 89.3652 325.435C89.7754 325.881 90.2949 326.104 90.9238 326.104C91.3704 326.104 91.7487 326.013 92.0586 325.831C92.3685 325.649 92.6396 325.407 92.8721 325.106L93.6445 325.708C93.0247 326.66 92.0951 327.137 90.8555 327.137ZM90.6982 320.506C90.1878 320.506 89.7594 320.693 89.4131 321.066C89.0667 321.436 88.8525 321.955 88.7705 322.625H92.4756V322.529C92.4391 321.887 92.266 321.39 91.9561 321.039C91.6462 320.684 91.2269 320.506 90.6982 320.506ZM98.3477 323.233C98.3477 322.509 98.4889 321.857 98.7715 321.278C99.0586 320.7 99.4551 320.253 99.9609 319.938C100.471 319.624 101.052 319.467 101.704 319.467C102.711 319.467 103.525 319.815 104.145 320.513C104.769 321.21 105.081 322.137 105.081 323.295V323.384C105.081 324.104 104.942 324.751 104.664 325.325C104.391 325.895 103.996 326.339 103.481 326.658C102.971 326.977 102.383 327.137 101.718 327.137C100.715 327.137 99.9017 326.788 99.2773 326.091C98.6576 325.394 98.3477 324.471 98.3477 323.322V323.233ZM99.6191 323.384C99.6191 324.204 99.8083 324.863 100.187 325.359C100.569 325.856 101.08 326.104 101.718 326.104C102.36 326.104 102.871 325.854 103.249 325.353C103.627 324.847 103.816 324.14 103.816 323.233C103.816 322.422 103.623 321.766 103.235 321.265C102.853 320.759 102.342 320.506 101.704 320.506C101.08 320.506 100.576 320.754 100.193 321.251C99.8105 321.748 99.6191 322.459 99.6191 323.384ZM110.242 320.738C110.051 320.706 109.843 320.69 109.62 320.69C108.791 320.69 108.228 321.044 107.932 321.75V327H106.667V319.604H107.897L107.918 320.458C108.333 319.797 108.921 319.467 109.682 319.467C109.928 319.467 110.115 319.499 110.242 319.562V320.738ZM110.967 323.24C110.967 322.105 111.236 321.194 111.773 320.506C112.311 319.813 113.015 319.467 113.886 319.467C114.752 319.467 115.438 319.763 115.943 320.355V316.5H117.208V327H116.046L115.984 326.207C115.479 326.827 114.774 327.137 113.872 327.137C113.015 327.137 112.316 326.786 111.773 326.084C111.236 325.382 110.967 324.466 110.967 323.336V323.24ZM112.231 323.384C112.231 324.222 112.405 324.879 112.751 325.353C113.097 325.826 113.576 326.063 114.187 326.063C114.989 326.063 115.574 325.703 115.943 324.983V321.586C115.565 320.889 114.984 320.54 114.2 320.54C113.58 320.54 113.097 320.779 112.751 321.258C112.405 321.736 112.231 322.445 112.231 323.384ZM122.246 327.137C121.243 327.137 120.428 326.809 119.799 326.152C119.17 325.492 118.855 324.61 118.855 323.507V323.274C118.855 322.541 118.994 321.887 119.272 321.312C119.555 320.734 119.947 320.283 120.448 319.959C120.954 319.631 121.501 319.467 122.089 319.467C123.05 319.467 123.798 319.784 124.331 320.417C124.864 321.05 125.131 321.957 125.131 323.138V323.664H120.12C120.138 324.393 120.35 324.983 120.756 325.435C121.166 325.881 121.686 326.104 122.314 326.104C122.761 326.104 123.139 326.013 123.449 325.831C123.759 325.649 124.03 325.407 124.263 325.106L125.035 325.708C124.415 326.66 123.486 327.137 122.246 327.137ZM122.089 320.506C121.578 320.506 121.15 320.693 120.804 321.066C120.457 321.436 120.243 321.955 120.161 322.625H123.866V322.529C123.83 321.887 123.657 321.39 123.347 321.039C123.037 320.684 122.618 320.506 122.089 320.506ZM130.176 320.738C129.984 320.706 129.777 320.69 129.554 320.69C128.724 320.69 128.161 321.044 127.865 321.75V327H126.601V319.604H127.831L127.852 320.458C128.266 319.797 128.854 319.467 129.615 319.467C129.861 319.467 130.048 319.499 130.176 319.562V320.738ZM135.439 327V320.581H134.271V319.604H135.439V318.845C135.439 318.052 135.651 317.439 136.075 317.006C136.499 316.573 137.098 316.356 137.873 316.356C138.165 316.356 138.454 316.395 138.741 316.473L138.673 317.498C138.459 317.457 138.231 317.437 137.989 317.437C137.579 317.437 137.262 317.557 137.039 317.799C136.816 318.036 136.704 318.378 136.704 318.824V319.604H138.283V320.581H136.704V327H135.439ZM139.35 323.233C139.35 322.509 139.491 321.857 139.773 321.278C140.061 320.7 140.457 320.253 140.963 319.938C141.473 319.624 142.054 319.467 142.706 319.467C143.713 319.467 144.527 319.815 145.146 320.513C145.771 321.21 146.083 322.137 146.083 323.295V323.384C146.083 324.104 145.944 324.751 145.666 325.325C145.393 325.895 144.998 326.339 144.483 326.658C143.973 326.977 143.385 327.137 142.72 327.137C141.717 327.137 140.904 326.788 140.279 326.091C139.66 325.394 139.35 324.471 139.35 323.322V323.233ZM140.621 323.384C140.621 324.204 140.81 324.863 141.188 325.359C141.571 325.856 142.082 326.104 142.72 326.104C143.362 326.104 143.873 325.854 144.251 325.353C144.629 324.847 144.818 324.14 144.818 323.233C144.818 322.422 144.625 321.766 144.237 321.265C143.854 320.759 143.344 320.506 142.706 320.506C142.082 320.506 141.578 320.754 141.195 321.251C140.812 321.748 140.621 322.459 140.621 323.384ZM151.244 320.738C151.053 320.706 150.845 320.69 150.622 320.69C149.793 320.69 149.23 321.044 148.934 321.75V327H147.669V319.604H148.899L148.92 320.458C149.335 319.797 149.923 319.467 150.684 319.467C150.93 319.467 151.117 319.499 151.244 319.562V320.738ZM158.853 326.104C159.304 326.104 159.698 325.968 160.035 325.694C160.372 325.421 160.559 325.079 160.596 324.669H161.792C161.769 325.093 161.623 325.496 161.354 325.879C161.086 326.262 160.726 326.567 160.274 326.795C159.828 327.023 159.354 327.137 158.853 327.137C157.845 327.137 157.043 326.802 156.446 326.132C155.854 325.457 155.558 324.537 155.558 323.37V323.158C155.558 322.438 155.69 321.798 155.954 321.237C156.218 320.677 156.597 320.242 157.089 319.932C157.586 319.622 158.171 319.467 158.846 319.467C159.675 319.467 160.363 319.715 160.91 320.212C161.462 320.709 161.756 321.354 161.792 322.146H160.596C160.559 321.668 160.377 321.276 160.049 320.971C159.725 320.661 159.324 320.506 158.846 320.506C158.203 320.506 157.704 320.738 157.349 321.203C156.998 321.663 156.822 322.331 156.822 323.206V323.445C156.822 324.298 156.998 324.954 157.349 325.414C157.7 325.874 158.201 326.104 158.853 326.104ZM167.78 326.269C167.288 326.847 166.566 327.137 165.613 327.137C164.825 327.137 164.223 326.909 163.809 326.453C163.398 325.993 163.191 325.314 163.187 324.416V319.604H164.451V324.382C164.451 325.503 164.907 326.063 165.818 326.063C166.785 326.063 167.427 325.703 167.746 324.983V319.604H169.011V327H167.808L167.78 326.269ZM175.245 325.038C175.245 324.696 175.115 324.432 174.855 324.245C174.6 324.054 174.151 323.89 173.509 323.753C172.871 323.616 172.363 323.452 171.984 323.261C171.611 323.069 171.333 322.841 171.15 322.577C170.973 322.313 170.884 321.998 170.884 321.634C170.884 321.028 171.139 320.515 171.649 320.096C172.164 319.676 172.821 319.467 173.618 319.467C174.457 319.467 175.136 319.683 175.655 320.116C176.179 320.549 176.441 321.103 176.441 321.777H175.17C175.17 321.431 175.022 321.132 174.726 320.882C174.434 320.631 174.065 320.506 173.618 320.506C173.158 320.506 172.798 320.606 172.538 320.807C172.278 321.007 172.148 321.269 172.148 321.593C172.148 321.898 172.269 322.128 172.511 322.283C172.752 322.438 173.188 322.586 173.816 322.728C174.45 322.869 174.963 323.037 175.354 323.233C175.746 323.429 176.036 323.666 176.223 323.944C176.414 324.218 176.51 324.553 176.51 324.949C176.51 325.61 176.245 326.141 175.717 326.542C175.188 326.938 174.502 327.137 173.659 327.137C173.067 327.137 172.543 327.032 172.087 326.822C171.631 326.613 171.273 326.321 171.014 325.947C170.758 325.569 170.631 325.161 170.631 324.724H171.896C171.918 325.147 172.087 325.485 172.401 325.735C172.72 325.981 173.14 326.104 173.659 326.104C174.138 326.104 174.521 326.009 174.808 325.817C175.099 325.621 175.245 325.362 175.245 325.038ZM179.873 317.812V319.604H181.254V320.581H179.873V325.168C179.873 325.464 179.935 325.688 180.058 325.838C180.181 325.984 180.39 326.057 180.687 326.057C180.832 326.057 181.033 326.029 181.288 325.975V327C180.955 327.091 180.632 327.137 180.317 327.137C179.752 327.137 179.326 326.966 179.039 326.624C178.752 326.282 178.608 325.797 178.608 325.168V320.581H177.262V319.604H178.608V317.812H179.873ZM182.266 323.233C182.266 322.509 182.407 321.857 182.689 321.278C182.977 320.7 183.373 320.253 183.879 319.938C184.389 319.624 184.97 319.467 185.622 319.467C186.629 319.467 187.443 319.815 188.062 320.513C188.687 321.21 188.999 322.137 188.999 323.295V323.384C188.999 324.104 188.86 324.751 188.582 325.325C188.309 325.895 187.914 326.339 187.399 326.658C186.889 326.977 186.301 327.137 185.636 327.137C184.633 327.137 183.82 326.788 183.195 326.091C182.576 325.394 182.266 324.471 182.266 323.322V323.233ZM183.537 323.384C183.537 324.204 183.726 324.863 184.104 325.359C184.487 325.856 184.998 326.104 185.636 326.104C186.278 326.104 186.789 325.854 187.167 325.353C187.545 324.847 187.734 324.14 187.734 323.233C187.734 322.422 187.541 321.766 187.153 321.265C186.771 320.759 186.26 320.506 185.622 320.506C184.998 320.506 184.494 320.754 184.111 321.251C183.729 321.748 183.537 322.459 183.537 323.384ZM191.774 319.604L191.809 320.424C192.351 319.786 193.082 319.467 194.003 319.467C195.037 319.467 195.742 319.863 196.115 320.656C196.361 320.301 196.68 320.014 197.072 319.795C197.469 319.576 197.936 319.467 198.474 319.467C200.096 319.467 200.921 320.326 200.948 322.044V327H199.684V322.119C199.684 321.59 199.563 321.196 199.321 320.937C199.08 320.672 198.674 320.54 198.104 320.54C197.635 320.54 197.245 320.681 196.936 320.964C196.626 321.242 196.446 321.618 196.396 322.092V327H195.124V322.153C195.124 321.078 194.598 320.54 193.545 320.54C192.715 320.54 192.148 320.893 191.843 321.6V327H190.578V319.604H191.774ZM206.533 327V317.047H209.787C210.867 317.047 211.678 317.27 212.221 317.717C212.768 318.163 213.041 318.824 213.041 319.699C213.041 320.164 212.909 320.576 212.645 320.937C212.38 321.292 212.02 321.568 211.564 321.764C212.102 321.914 212.526 322.201 212.836 322.625C213.15 323.044 213.308 323.546 213.308 324.129C213.308 325.022 213.018 325.724 212.439 326.234C211.861 326.745 211.043 327 209.985 327H206.533ZM207.846 322.345V325.927H210.013C210.623 325.927 211.104 325.77 211.455 325.455C211.811 325.136 211.988 324.699 211.988 324.143C211.988 322.944 211.337 322.345 210.033 322.345H207.846ZM207.846 321.292H209.828C210.402 321.292 210.86 321.148 211.202 320.861C211.549 320.574 211.722 320.185 211.722 319.692C211.722 319.146 211.562 318.749 211.243 318.503C210.924 318.252 210.439 318.127 209.787 318.127H207.846V321.292ZM219.624 326.269C219.132 326.847 218.41 327.137 217.457 327.137C216.669 327.137 216.067 326.909 215.652 326.453C215.242 325.993 215.035 325.314 215.03 324.416V319.604H216.295V324.382C216.295 325.503 216.751 326.063 217.662 326.063C218.628 326.063 219.271 325.703 219.59 324.983V319.604H220.854V327H219.651L219.624 326.269ZM224.156 327H222.892V319.604H224.156V327ZM222.789 317.642C222.789 317.437 222.851 317.263 222.974 317.122C223.101 316.981 223.288 316.91 223.534 316.91C223.78 316.91 223.967 316.981 224.095 317.122C224.222 317.263 224.286 317.437 224.286 317.642C224.286 317.847 224.222 318.018 224.095 318.154C223.967 318.291 223.78 318.359 223.534 318.359C223.288 318.359 223.101 318.291 222.974 318.154C222.851 318.018 222.789 317.847 222.789 317.642ZM227.561 327H226.296V316.5H227.561V327ZM229.283 323.24C229.283 322.105 229.552 321.194 230.09 320.506C230.628 319.813 231.332 319.467 232.202 319.467C233.068 319.467 233.754 319.763 234.26 320.355V316.5H235.524V327H234.362L234.301 326.207C233.795 326.827 233.091 327.137 232.188 327.137C231.332 327.137 230.632 326.786 230.09 326.084C229.552 325.382 229.283 324.466 229.283 323.336V323.24ZM230.548 323.384C230.548 324.222 230.721 324.879 231.067 325.353C231.414 325.826 231.892 326.063 232.503 326.063C233.305 326.063 233.891 325.703 234.26 324.983V321.586C233.882 320.889 233.3 320.54 232.517 320.54C231.897 320.54 231.414 320.779 231.067 321.258C230.721 321.736 230.548 322.445 230.548 323.384Z" fill="black"/>
<path d="M28.1084 441.862L28.2998 443.175L28.5801 441.992L30.5488 435.047H31.6562L33.5771 441.992L33.8506 443.195L34.0625 441.855L35.6074 435.047H36.9268L34.5137 445H33.3174L31.2666 437.747L31.1094 436.988L30.9521 437.747L28.8262 445H27.6299L25.2236 435.047H26.5361L28.1084 441.862ZM41.042 445.137C40.0394 445.137 39.2236 444.809 38.5947 444.152C37.9658 443.492 37.6514 442.61 37.6514 441.507V441.274C37.6514 440.541 37.7904 439.887 38.0684 439.312C38.3509 438.734 38.7428 438.283 39.2441 437.959C39.75 437.631 40.2969 437.467 40.8848 437.467C41.8464 437.467 42.5938 437.784 43.127 438.417C43.6602 439.05 43.9268 439.957 43.9268 441.138V441.664H38.916C38.9342 442.393 39.1462 442.983 39.5518 443.435C39.9619 443.881 40.4814 444.104 41.1104 444.104C41.557 444.104 41.9352 444.013 42.2451 443.831C42.555 443.649 42.8262 443.407 43.0586 443.106L43.8311 443.708C43.2113 444.66 42.2816 445.137 41.042 445.137ZM40.8848 438.506C40.3743 438.506 39.946 438.693 39.5996 439.066C39.2533 439.436 39.0391 439.955 38.957 440.625H42.6621V440.529C42.6257 439.887 42.4525 439.39 42.1426 439.039C41.8327 438.684 41.4134 438.506 40.8848 438.506ZM55.418 443.257L56.8398 437.604H58.1045L55.9512 445H54.9258L53.1279 439.395L51.3779 445H50.3525L48.2061 437.604H49.4639L50.9199 443.141L52.6426 437.604H53.6611L55.418 443.257ZM60.7705 445H59.5059V437.604H60.7705V445ZM59.4033 435.642C59.4033 435.437 59.4648 435.263 59.5879 435.122C59.7155 434.981 59.9023 434.91 60.1484 434.91C60.3945 434.91 60.5814 434.981 60.709 435.122C60.8366 435.263 60.9004 435.437 60.9004 435.642C60.9004 435.847 60.8366 436.018 60.709 436.154C60.5814 436.291 60.3945 436.359 60.1484 436.359C59.9023 436.359 59.7155 436.291 59.5879 436.154C59.4648 436.018 59.4033 435.847 59.4033 435.642ZM64.1748 445H62.9102V434.5H64.1748V445ZM67.5791 445H66.3145V434.5H67.5791V445ZM77.6484 445C77.5755 444.854 77.5163 444.594 77.4707 444.221C76.8828 444.831 76.181 445.137 75.3652 445.137C74.6361 445.137 74.0368 444.932 73.5674 444.521C73.1025 444.107 72.8701 443.583 72.8701 442.949C72.8701 442.179 73.1618 441.582 73.7451 441.158C74.333 440.73 75.1579 440.516 76.2197 440.516H77.4502V439.935C77.4502 439.493 77.318 439.142 77.0537 438.882C76.7894 438.618 76.3997 438.485 75.8848 438.485C75.4336 438.485 75.0553 438.599 74.75 438.827C74.4447 439.055 74.292 439.331 74.292 439.654H73.0205C73.0205 439.285 73.1504 438.93 73.4102 438.588C73.6745 438.242 74.0299 437.968 74.4766 437.768C74.9277 437.567 75.4222 437.467 75.96 437.467C76.8122 437.467 77.4798 437.681 77.9629 438.109C78.446 438.533 78.6966 439.119 78.7148 439.866V443.271C78.7148 443.95 78.8014 444.49 78.9746 444.891V445H77.6484ZM75.5498 444.036C75.9463 444.036 76.3223 443.934 76.6777 443.729C77.0332 443.523 77.2907 443.257 77.4502 442.929V441.411H76.459C74.9095 441.411 74.1348 441.865 74.1348 442.771C74.1348 443.168 74.2669 443.478 74.5312 443.701C74.7956 443.924 75.1351 444.036 75.5498 444.036ZM85.0039 443.038C85.0039 442.696 84.874 442.432 84.6143 442.245C84.359 442.054 83.9102 441.89 83.2676 441.753C82.6296 441.616 82.1214 441.452 81.7432 441.261C81.3695 441.069 81.0915 440.841 80.9092 440.577C80.7314 440.313 80.6426 439.998 80.6426 439.634C80.6426 439.028 80.8978 438.515 81.4082 438.096C81.9232 437.676 82.5794 437.467 83.377 437.467C84.2155 437.467 84.8945 437.683 85.4141 438.116C85.9382 438.549 86.2002 439.103 86.2002 439.777H84.9287C84.9287 439.431 84.7806 439.132 84.4844 438.882C84.1927 438.631 83.8236 438.506 83.377 438.506C82.9167 438.506 82.5566 438.606 82.2969 438.807C82.0371 439.007 81.9072 439.269 81.9072 439.593C81.9072 439.898 82.028 440.128 82.2695 440.283C82.5111 440.438 82.9463 440.586 83.5752 440.728C84.2087 440.869 84.7214 441.037 85.1133 441.233C85.5052 441.429 85.7946 441.666 85.9814 441.944C86.1729 442.218 86.2686 442.553 86.2686 442.949C86.2686 443.61 86.0042 444.141 85.4756 444.542C84.9469 444.938 84.2611 445.137 83.418 445.137C82.8255 445.137 82.3014 445.032 81.8457 444.822C81.39 444.613 81.0322 444.321 80.7725 443.947C80.5173 443.569 80.3896 443.161 80.3896 442.724H81.6543C81.6771 443.147 81.8457 443.485 82.1602 443.735C82.4792 443.981 82.8984 444.104 83.418 444.104C83.8965 444.104 84.2793 444.009 84.5664 443.817C84.8581 443.621 85.0039 443.362 85.0039 443.038ZM92.2227 443.038C92.2227 442.696 92.0928 442.432 91.833 442.245C91.5778 442.054 91.1289 441.89 90.4863 441.753C89.8483 441.616 89.3402 441.452 88.9619 441.261C88.5882 441.069 88.3102 440.841 88.1279 440.577C87.9502 440.313 87.8613 439.998 87.8613 439.634C87.8613 439.028 88.1165 438.515 88.627 438.096C89.1419 437.676 89.7982 437.467 90.5957 437.467C91.4342 437.467 92.1133 437.683 92.6328 438.116C93.1569 438.549 93.4189 439.103 93.4189 439.777H92.1475C92.1475 439.431 91.9993 439.132 91.7031 438.882C91.4115 438.631 91.0423 438.506 90.5957 438.506C90.1354 438.506 89.7754 438.606 89.5156 438.807C89.2559 439.007 89.126 439.269 89.126 439.593C89.126 439.898 89.2467 440.128 89.4883 440.283C89.7298 440.438 90.165 440.586 90.7939 440.728C91.4274 440.869 91.9401 441.037 92.332 441.233C92.724 441.429 93.0133 441.666 93.2002 441.944C93.3916 442.218 93.4873 442.553 93.4873 442.949C93.4873 443.61 93.223 444.141 92.6943 444.542C92.1657 444.938 91.4798 445.137 90.6367 445.137C90.0443 445.137 89.5202 445.032 89.0645 444.822C88.6087 444.613 88.251 444.321 87.9912 443.947C87.736 443.569 87.6084 443.161 87.6084 442.724H88.873C88.8958 443.147 89.0645 443.485 89.3789 443.735C89.6979 443.981 90.1172 444.104 90.6367 444.104C91.1152 444.104 91.498 444.009 91.7852 443.817C92.0768 443.621 92.2227 443.362 92.2227 443.038ZM98.2041 445.137C97.2015 445.137 96.3857 444.809 95.7568 444.152C95.1279 443.492 94.8135 442.61 94.8135 441.507V441.274C94.8135 440.541 94.9525 439.887 95.2305 439.312C95.513 438.734 95.9049 438.283 96.4062 437.959C96.9121 437.631 97.459 437.467 98.0469 437.467C99.0085 437.467 99.7559 437.784 100.289 438.417C100.822 439.05 101.089 439.957 101.089 441.138V441.664H96.0781C96.0964 442.393 96.3083 442.983 96.7139 443.435C97.124 443.881 97.6436 444.104 98.2725 444.104C98.7191 444.104 99.0973 444.013 99.4072 443.831C99.7171 443.649 99.9883 443.407 100.221 443.106L100.993 443.708C100.373 444.66 99.4437 445.137 98.2041 445.137ZM98.0469 438.506C97.5365 438.506 97.1081 438.693 96.7617 439.066C96.4154 439.436 96.2012 439.955 96.1191 440.625H99.8242V440.529C99.7878 439.887 99.6146 439.39 99.3047 439.039C98.9948 438.684 98.5755 438.506 98.0469 438.506ZM103.748 437.604L103.782 438.424C104.325 437.786 105.056 437.467 105.977 437.467C107.011 437.467 107.715 437.863 108.089 438.656C108.335 438.301 108.654 438.014 109.046 437.795C109.442 437.576 109.91 437.467 110.447 437.467C112.07 437.467 112.895 438.326 112.922 440.044V445H111.657V440.119C111.657 439.59 111.536 439.196 111.295 438.937C111.053 438.672 110.648 438.54 110.078 438.54C109.609 438.54 109.219 438.681 108.909 438.964C108.599 439.242 108.419 439.618 108.369 440.092V445H107.098V440.153C107.098 439.078 106.571 438.54 105.519 438.54C104.689 438.54 104.122 438.893 103.816 439.6V445H102.552V437.604H103.748ZM121.098 441.384C121.098 442.514 120.838 443.423 120.318 444.111C119.799 444.795 119.102 445.137 118.227 445.137C117.292 445.137 116.57 444.806 116.06 444.146L115.998 445H114.836V434.5H116.101V438.417C116.611 437.784 117.315 437.467 118.213 437.467C119.111 437.467 119.815 437.806 120.325 438.485C120.84 439.164 121.098 440.094 121.098 441.274V441.384ZM119.833 441.24C119.833 440.379 119.667 439.714 119.334 439.244C119.001 438.775 118.523 438.54 117.898 438.54C117.064 438.54 116.465 438.927 116.101 439.702V442.901C116.488 443.676 117.092 444.063 117.912 444.063C118.518 444.063 118.99 443.829 119.327 443.359C119.664 442.89 119.833 442.184 119.833 441.24ZM124.071 445H122.807V434.5H124.071V445ZM129.171 445.137C128.168 445.137 127.353 444.809 126.724 444.152C126.095 443.492 125.78 442.61 125.78 441.507V441.274C125.78 440.541 125.919 439.887 126.197 439.312C126.48 438.734 126.872 438.283 127.373 437.959C127.879 437.631 128.426 437.467 129.014 437.467C129.975 437.467 130.723 437.784 131.256 438.417C131.789 439.05 132.056 439.957 132.056 441.138V441.664H127.045C127.063 442.393 127.275 442.983 127.681 443.435C128.091 443.881 128.61 444.104 129.239 444.104C129.686 444.104 130.064 444.013 130.374 443.831C130.684 443.649 130.955 443.407 131.188 443.106L131.96 443.708C131.34 444.66 130.41 445.137 129.171 445.137ZM129.014 438.506C128.503 438.506 128.075 438.693 127.729 439.066C127.382 439.436 127.168 439.955 127.086 440.625H130.791V440.529C130.755 439.887 130.581 439.39 130.271 439.039C129.962 438.684 129.542 438.506 129.014 438.506ZM139.418 443.147L141.141 437.604H142.494L139.521 446.142C139.06 447.372 138.329 447.987 137.326 447.987L137.087 447.967L136.615 447.878V446.853L136.957 446.88C137.385 446.88 137.718 446.793 137.955 446.62C138.197 446.447 138.395 446.13 138.55 445.67L138.83 444.918L136.191 437.604H137.572L139.418 443.147ZM143.185 441.233C143.185 440.509 143.326 439.857 143.608 439.278C143.896 438.7 144.292 438.253 144.798 437.938C145.308 437.624 145.889 437.467 146.541 437.467C147.548 437.467 148.362 437.815 148.981 438.513C149.606 439.21 149.918 440.137 149.918 441.295V441.384C149.918 442.104 149.779 442.751 149.501 443.325C149.228 443.895 148.833 444.339 148.318 444.658C147.808 444.977 147.22 445.137 146.555 445.137C145.552 445.137 144.739 444.788 144.114 444.091C143.494 443.394 143.185 442.471 143.185 441.322V441.233ZM144.456 441.384C144.456 442.204 144.645 442.863 145.023 443.359C145.406 443.856 145.917 444.104 146.555 444.104C147.197 444.104 147.708 443.854 148.086 443.353C148.464 442.847 148.653 442.14 148.653 441.233C148.653 440.422 148.46 439.766 148.072 439.265C147.689 438.759 147.179 438.506 146.541 438.506C145.917 438.506 145.413 438.754 145.03 439.251C144.647 439.748 144.456 440.459 144.456 441.384ZM156.07 444.269C155.578 444.847 154.856 445.137 153.903 445.137C153.115 445.137 152.513 444.909 152.099 444.453C151.688 443.993 151.481 443.314 151.477 442.416V437.604H152.741V442.382C152.741 443.503 153.197 444.063 154.108 444.063C155.075 444.063 155.717 443.703 156.036 442.983V437.604H157.301V445H156.098L156.07 444.269ZM162.804 438.738C162.612 438.706 162.405 438.69 162.182 438.69C161.352 438.69 160.789 439.044 160.493 439.75V445H159.229V437.604H160.459L160.479 438.458C160.894 437.797 161.482 437.467 162.243 437.467C162.489 437.467 162.676 437.499 162.804 437.562V438.738ZM168.956 441.104V445H167.644V435.047H171.314C172.404 435.047 173.256 435.325 173.871 435.881C174.491 436.437 174.801 437.173 174.801 438.089C174.801 439.055 174.498 439.8 173.892 440.324C173.29 440.844 172.426 441.104 171.301 441.104H168.956ZM168.956 440.03H171.314C172.016 440.03 172.554 439.866 172.928 439.538C173.301 439.205 173.488 438.727 173.488 438.103C173.488 437.51 173.301 437.036 172.928 436.681C172.554 436.325 172.041 436.141 171.39 436.127H168.956V440.03ZM183.797 441.842C183.674 442.895 183.284 443.708 182.628 444.282C181.976 444.852 181.108 445.137 180.023 445.137C178.848 445.137 177.904 444.715 177.193 443.872C176.487 443.029 176.134 441.901 176.134 440.488V439.531C176.134 438.606 176.298 437.793 176.626 437.091C176.959 436.389 177.428 435.851 178.034 435.478C178.64 435.099 179.342 434.91 180.14 434.91C181.197 434.91 182.045 435.206 182.683 435.799C183.321 436.387 183.692 437.202 183.797 438.246H182.478C182.364 437.453 182.115 436.879 181.732 436.523C181.354 436.168 180.823 435.99 180.14 435.99C179.301 435.99 178.643 436.3 178.164 436.92C177.69 437.54 177.453 438.422 177.453 439.565V440.529C177.453 441.609 177.679 442.468 178.13 443.106C178.581 443.744 179.212 444.063 180.023 444.063C180.753 444.063 181.311 443.899 181.698 443.571C182.09 443.239 182.35 442.662 182.478 441.842H183.797ZM193.436 445C193.363 444.854 193.303 444.594 193.258 444.221C192.67 444.831 191.968 445.137 191.152 445.137C190.423 445.137 189.824 444.932 189.354 444.521C188.89 444.107 188.657 443.583 188.657 442.949C188.657 442.179 188.949 441.582 189.532 441.158C190.12 440.73 190.945 440.516 192.007 440.516H193.237V439.935C193.237 439.493 193.105 439.142 192.841 438.882C192.576 438.618 192.187 438.485 191.672 438.485C191.221 438.485 190.842 438.599 190.537 438.827C190.232 439.055 190.079 439.331 190.079 439.654H188.808C188.808 439.285 188.938 438.93 189.197 438.588C189.462 438.242 189.817 437.968 190.264 437.768C190.715 437.567 191.209 437.467 191.747 437.467C192.599 437.467 193.267 437.681 193.75 438.109C194.233 438.533 194.484 439.119 194.502 439.866V443.271C194.502 443.95 194.589 444.49 194.762 444.891V445H193.436ZM191.337 444.036C191.733 444.036 192.109 443.934 192.465 443.729C192.82 443.523 193.078 443.257 193.237 442.929V441.411H192.246C190.697 441.411 189.922 441.865 189.922 442.771C189.922 443.168 190.054 443.478 190.318 443.701C190.583 443.924 190.922 444.036 191.337 444.036ZM200.791 443.038C200.791 442.696 200.661 442.432 200.401 442.245C200.146 442.054 199.697 441.89 199.055 441.753C198.417 441.616 197.909 441.452 197.53 441.261C197.157 441.069 196.879 440.841 196.696 440.577C196.519 440.313 196.43 439.998 196.43 439.634C196.43 439.028 196.685 438.515 197.195 438.096C197.71 437.676 198.367 437.467 199.164 437.467C200.003 437.467 200.682 437.683 201.201 438.116C201.725 438.549 201.987 439.103 201.987 439.777H200.716C200.716 439.431 200.568 439.132 200.271 438.882C199.98 438.631 199.611 438.506 199.164 438.506C198.704 438.506 198.344 438.606 198.084 438.807C197.824 439.007 197.694 439.269 197.694 439.593C197.694 439.898 197.815 440.128 198.057 440.283C198.298 440.438 198.733 440.586 199.362 440.728C199.996 440.869 200.508 441.037 200.9 441.233C201.292 441.429 201.582 441.666 201.769 441.944C201.96 442.218 202.056 442.553 202.056 442.949C202.056 443.61 201.791 444.141 201.263 444.542C200.734 444.938 200.048 445.137 199.205 445.137C198.613 445.137 198.089 445.032 197.633 444.822C197.177 444.613 196.819 444.321 196.56 443.947C196.304 443.569 196.177 443.161 196.177 442.724H197.441C197.464 443.147 197.633 443.485 197.947 443.735C198.266 443.981 198.686 444.104 199.205 444.104C199.684 444.104 200.066 444.009 200.354 443.817C200.645 443.621 200.791 443.362 200.791 443.038ZM209.596 443.147L211.318 437.604H212.672L209.698 446.142C209.238 447.372 208.507 447.987 207.504 447.987L207.265 447.967L206.793 447.878V446.853L207.135 446.88C207.563 446.88 207.896 446.793 208.133 446.62C208.374 446.447 208.573 446.13 208.728 445.67L209.008 444.918L206.369 437.604H207.75L209.596 443.147ZM213.362 441.233C213.362 440.509 213.504 439.857 213.786 439.278C214.073 438.7 214.47 438.253 214.976 437.938C215.486 437.624 216.067 437.467 216.719 437.467C217.726 437.467 218.539 437.815 219.159 438.513C219.784 439.21 220.096 440.137 220.096 441.295V441.384C220.096 442.104 219.957 442.751 219.679 443.325C219.405 443.895 219.011 444.339 218.496 444.658C217.986 444.977 217.398 445.137 216.732 445.137C215.73 445.137 214.916 444.788 214.292 444.091C213.672 443.394 213.362 442.471 213.362 441.322V441.233ZM214.634 441.384C214.634 442.204 214.823 442.863 215.201 443.359C215.584 443.856 216.094 444.104 216.732 444.104C217.375 444.104 217.885 443.854 218.264 443.353C218.642 442.847 218.831 442.14 218.831 441.233C218.831 440.422 218.637 439.766 218.25 439.265C217.867 438.759 217.357 438.506 216.719 438.506C216.094 438.506 215.591 438.754 215.208 439.251C214.825 439.748 214.634 440.459 214.634 441.384ZM226.248 444.269C225.756 444.847 225.034 445.137 224.081 445.137C223.293 445.137 222.691 444.909 222.276 444.453C221.866 443.993 221.659 443.314 221.654 442.416V437.604H222.919V442.382C222.919 443.503 223.375 444.063 224.286 444.063C225.252 444.063 225.895 443.703 226.214 442.983V437.604H227.479V445H226.275L226.248 444.269ZM232.981 438.738C232.79 438.706 232.583 438.69 232.359 438.69C231.53 438.69 230.967 439.044 230.671 439.75V445H229.406V437.604H230.637L230.657 438.458C231.072 437.797 231.66 437.467 232.421 437.467C232.667 437.467 232.854 437.499 232.981 437.562V438.738ZM115.916 453.604L115.957 454.533C116.522 453.822 117.26 453.467 118.172 453.467C119.735 453.467 120.523 454.349 120.537 456.112V461H119.272V456.105C119.268 455.572 119.145 455.178 118.903 454.923C118.666 454.668 118.295 454.54 117.789 454.54C117.379 454.54 117.019 454.649 116.709 454.868C116.399 455.087 116.158 455.374 115.984 455.729V461H114.72V453.604H115.916ZM125.514 461.137C124.511 461.137 123.695 460.809 123.066 460.152C122.438 459.492 122.123 458.61 122.123 457.507V457.274C122.123 456.541 122.262 455.887 122.54 455.312C122.823 454.734 123.215 454.283 123.716 453.959C124.222 453.631 124.769 453.467 125.356 453.467C126.318 453.467 127.065 453.784 127.599 454.417C128.132 455.05 128.398 455.957 128.398 457.138V457.664H123.388C123.406 458.393 123.618 458.983 124.023 459.435C124.434 459.881 124.953 460.104 125.582 460.104C126.029 460.104 126.407 460.013 126.717 459.831C127.027 459.649 127.298 459.407 127.53 459.106L128.303 459.708C127.683 460.66 126.753 461.137 125.514 461.137ZM125.356 454.506C124.846 454.506 124.418 454.693 124.071 455.066C123.725 455.436 123.511 455.955 123.429 456.625H127.134V456.529C127.097 455.887 126.924 455.39 126.614 455.039C126.304 454.684 125.885 454.506 125.356 454.506ZM132.938 461.137C131.935 461.137 131.119 460.809 130.49 460.152C129.861 459.492 129.547 458.61 129.547 457.507V457.274C129.547 456.541 129.686 455.887 129.964 455.312C130.246 454.734 130.638 454.283 131.14 453.959C131.646 453.631 132.192 453.467 132.78 453.467C133.742 453.467 134.489 453.784 135.022 454.417C135.556 455.05 135.822 455.957 135.822 457.138V457.664H130.812C130.83 458.393 131.042 458.983 131.447 459.435C131.857 459.881 132.377 460.104 133.006 460.104C133.452 460.104 133.831 460.013 134.141 459.831C134.451 459.649 134.722 459.407 134.954 459.106L135.727 459.708C135.107 460.66 134.177 461.137 132.938 461.137ZM132.78 454.506C132.27 454.506 131.841 454.693 131.495 455.066C131.149 455.436 130.935 455.955 130.853 456.625H134.558V456.529C134.521 455.887 134.348 455.39 134.038 455.039C133.728 454.684 133.309 454.506 132.78 454.506ZM136.984 457.24C136.984 456.105 137.253 455.194 137.791 454.506C138.329 453.813 139.033 453.467 139.903 453.467C140.769 453.467 141.455 453.763 141.961 454.355V450.5H143.226V461H142.063L142.002 460.207C141.496 460.827 140.792 461.137 139.89 461.137C139.033 461.137 138.333 460.786 137.791 460.084C137.253 459.382 136.984 458.466 136.984 457.336V457.24ZM138.249 457.384C138.249 458.222 138.422 458.879 138.769 459.353C139.115 459.826 139.593 460.063 140.204 460.063C141.006 460.063 141.592 459.703 141.961 458.983V455.586C141.583 454.889 141.002 454.54 140.218 454.54C139.598 454.54 139.115 454.779 138.769 455.258C138.422 455.736 138.249 456.445 138.249 457.384Z" fill="black"/>
<path d="M46.4355 569.862L46.627 571.175L46.9072 569.992L48.876 563.047H49.9834L51.9043 569.992L52.1777 571.195L52.3896 569.855L53.9346 563.047H55.2539L52.8408 573H51.6445L49.5938 565.747L49.4365 564.988L49.2793 565.747L47.1533 573H45.957L43.5508 563.047H44.8633L46.4355 569.862ZM59.3691 573.137C58.3665 573.137 57.5508 572.809 56.9219 572.152C56.293 571.492 55.9785 570.61 55.9785 569.507V569.274C55.9785 568.541 56.1175 567.887 56.3955 567.312C56.6781 566.734 57.07 566.283 57.5713 565.959C58.0771 565.631 58.624 565.467 59.2119 565.467C60.1735 565.467 60.9209 565.784 61.4541 566.417C61.9873 567.05 62.2539 567.957 62.2539 569.138V569.664H57.2432C57.2614 570.393 57.4733 570.983 57.8789 571.435C58.2891 571.881 58.8086 572.104 59.4375 572.104C59.8841 572.104 60.2624 572.013 60.5723 571.831C60.8822 571.649 61.1533 571.407 61.3857 571.106L62.1582 571.708C61.5384 572.66 60.6087 573.137 59.3691 573.137ZM59.2119 566.506C58.7015 566.506 58.2731 566.693 57.9268 567.066C57.5804 567.436 57.3662 567.955 57.2842 568.625H60.9893V568.529C60.9528 567.887 60.7796 567.39 60.4697 567.039C60.1598 566.684 59.7406 566.506 59.2119 566.506ZM73.7451 571.257L75.167 565.604H76.4316L74.2783 573H73.2529L71.4551 567.395L69.7051 573H68.6797L66.5332 565.604H67.791L69.2471 571.141L70.9697 565.604H71.9883L73.7451 571.257ZM79.0977 573H77.833V565.604H79.0977V573ZM77.7305 563.642C77.7305 563.437 77.792 563.263 77.915 563.122C78.0426 562.981 78.2295 562.91 78.4756 562.91C78.7217 562.91 78.9085 562.981 79.0361 563.122C79.1637 563.263 79.2275 563.437 79.2275 563.642C79.2275 563.847 79.1637 564.018 79.0361 564.154C78.9085 564.291 78.7217 564.359 78.4756 564.359C78.2295 564.359 78.0426 564.291 77.915 564.154C77.792 564.018 77.7305 563.847 77.7305 563.642ZM82.502 573H81.2373V562.5H82.502V573ZM85.9062 573H84.6416V562.5H85.9062V573ZM95.7158 571.038C95.7158 570.696 95.5859 570.432 95.3262 570.245C95.071 570.054 94.6221 569.89 93.9795 569.753C93.3415 569.616 92.8333 569.452 92.4551 569.261C92.0814 569.069 91.8034 568.841 91.6211 568.577C91.4434 568.313 91.3545 567.998 91.3545 567.634C91.3545 567.028 91.6097 566.515 92.1201 566.096C92.6351 565.676 93.2913 565.467 94.0889 565.467C94.9274 565.467 95.6064 565.683 96.126 566.116C96.6501 566.549 96.9121 567.103 96.9121 567.777H95.6406C95.6406 567.431 95.4925 567.132 95.1963 566.882C94.9046 566.631 94.5355 566.506 94.0889 566.506C93.6286 566.506 93.2686 566.606 93.0088 566.807C92.749 567.007 92.6191 567.269 92.6191 567.593C92.6191 567.898 92.7399 568.128 92.9814 568.283C93.223 568.438 93.6582 568.586 94.2871 568.728C94.9206 568.869 95.4333 569.037 95.8252 569.233C96.2171 569.429 96.5065 569.666 96.6934 569.944C96.8848 570.218 96.9805 570.553 96.9805 570.949C96.9805 571.61 96.7161 572.141 96.1875 572.542C95.6589 572.938 94.973 573.137 94.1299 573.137C93.5374 573.137 93.0133 573.032 92.5576 572.822C92.1019 572.613 91.7441 572.321 91.4844 571.947C91.2292 571.569 91.1016 571.161 91.1016 570.724H92.3662C92.389 571.147 92.5576 571.485 92.8721 571.735C93.1911 571.981 93.6104 572.104 94.1299 572.104C94.6084 572.104 94.9912 572.009 95.2783 571.817C95.57 571.621 95.7158 571.362 95.7158 571.038ZM99.8926 566.499C100.453 565.811 101.182 565.467 102.08 565.467C103.643 565.467 104.432 566.349 104.445 568.112V573H103.181V568.105C103.176 567.572 103.053 567.178 102.812 566.923C102.575 566.668 102.203 566.54 101.697 566.54C101.287 566.54 100.927 566.649 100.617 566.868C100.307 567.087 100.066 567.374 99.8926 567.729V573H98.6279V562.5H99.8926V566.499ZM107.713 573H106.448V565.604H107.713V573ZM106.346 563.642C106.346 563.437 106.407 563.263 106.53 563.122C106.658 562.981 106.845 562.91 107.091 562.91C107.337 562.91 107.524 562.981 107.651 563.122C107.779 563.263 107.843 563.437 107.843 563.642C107.843 563.847 107.779 564.018 107.651 564.154C107.524 564.291 107.337 564.359 107.091 564.359C106.845 564.359 106.658 564.291 106.53 564.154C106.407 564.018 106.346 563.847 106.346 563.642ZM115.991 569.384C115.991 570.509 115.734 571.416 115.219 572.104C114.704 572.793 114.007 573.137 113.127 573.137C112.229 573.137 111.523 572.852 111.008 572.282V575.844H109.743V565.604H110.898L110.96 566.424C111.475 565.786 112.19 565.467 113.106 565.467C113.995 565.467 114.697 565.802 115.212 566.472C115.731 567.142 115.991 568.074 115.991 569.268V569.384ZM114.727 569.24C114.727 568.406 114.549 567.748 114.193 567.265C113.838 566.782 113.35 566.54 112.73 566.54C111.965 566.54 111.391 566.88 111.008 567.559V571.093C111.386 571.767 111.965 572.104 112.744 572.104C113.35 572.104 113.831 571.865 114.187 571.387C114.547 570.904 114.727 570.188 114.727 569.24ZM123.497 571.147L125.22 565.604H126.573L123.6 574.142C123.139 575.372 122.408 575.987 121.405 575.987L121.166 575.967L120.694 575.878V574.853L121.036 574.88C121.465 574.88 121.797 574.793 122.034 574.62C122.276 574.447 122.474 574.13 122.629 573.67L122.909 572.918L120.271 565.604H121.651L123.497 571.147ZM127.264 569.233C127.264 568.509 127.405 567.857 127.688 567.278C127.975 566.7 128.371 566.253 128.877 565.938C129.387 565.624 129.968 565.467 130.62 565.467C131.627 565.467 132.441 565.815 133.061 566.513C133.685 567.21 133.997 568.137 133.997 569.295V569.384C133.997 570.104 133.858 570.751 133.58 571.325C133.307 571.895 132.912 572.339 132.397 572.658C131.887 572.977 131.299 573.137 130.634 573.137C129.631 573.137 128.818 572.788 128.193 572.091C127.574 571.394 127.264 570.471 127.264 569.322V569.233ZM128.535 569.384C128.535 570.204 128.724 570.863 129.103 571.359C129.485 571.856 129.996 572.104 130.634 572.104C131.276 572.104 131.787 571.854 132.165 571.353C132.543 570.847 132.732 570.14 132.732 569.233C132.732 568.422 132.539 567.766 132.151 567.265C131.769 566.759 131.258 566.506 130.62 566.506C129.996 566.506 129.492 566.754 129.109 567.251C128.727 567.748 128.535 568.459 128.535 569.384ZM140.149 572.269C139.657 572.847 138.935 573.137 137.982 573.137C137.194 573.137 136.592 572.909 136.178 572.453C135.768 571.993 135.56 571.314 135.556 570.416V565.604H136.82V570.382C136.82 571.503 137.276 572.063 138.188 572.063C139.154 572.063 139.796 571.703 140.115 570.983V565.604H141.38V573H140.177L140.149 572.269ZM146.883 566.738C146.691 566.706 146.484 566.69 146.261 566.69C145.431 566.69 144.868 567.044 144.572 567.75V573H143.308V565.604H144.538L144.559 566.458C144.973 565.797 145.561 565.467 146.322 565.467C146.568 565.467 146.755 565.499 146.883 565.562V566.738ZM153.035 569.104V573H151.723V563.047H155.394C156.483 563.047 157.335 563.325 157.95 563.881C158.57 564.437 158.88 565.173 158.88 566.089C158.88 567.055 158.577 567.8 157.971 568.324C157.369 568.844 156.506 569.104 155.38 569.104H153.035ZM153.035 568.03H155.394C156.095 568.03 156.633 567.866 157.007 567.538C157.381 567.205 157.567 566.727 157.567 566.103C157.567 565.51 157.381 565.036 157.007 564.681C156.633 564.325 156.12 564.141 155.469 564.127H153.035V568.03ZM167.876 569.842C167.753 570.895 167.363 571.708 166.707 572.282C166.055 572.852 165.187 573.137 164.103 573.137C162.927 573.137 161.983 572.715 161.272 571.872C160.566 571.029 160.213 569.901 160.213 568.488V567.531C160.213 566.606 160.377 565.793 160.705 565.091C161.038 564.389 161.507 563.851 162.113 563.478C162.719 563.099 163.421 562.91 164.219 562.91C165.276 562.91 166.124 563.206 166.762 563.799C167.4 564.387 167.771 565.202 167.876 566.246H166.557C166.443 565.453 166.194 564.879 165.812 564.523C165.433 564.168 164.902 563.99 164.219 563.99C163.38 563.99 162.722 564.3 162.243 564.92C161.769 565.54 161.532 566.422 161.532 567.565V568.529C161.532 569.609 161.758 570.468 162.209 571.106C162.66 571.744 163.291 572.063 164.103 572.063C164.832 572.063 165.39 571.899 165.777 571.571C166.169 571.239 166.429 570.662 166.557 569.842H167.876ZM174.664 563.812V565.604H176.045V566.581H174.664V571.168C174.664 571.464 174.726 571.688 174.849 571.838C174.972 571.984 175.181 572.057 175.478 572.057C175.623 572.057 175.824 572.029 176.079 571.975V573C175.746 573.091 175.423 573.137 175.108 573.137C174.543 573.137 174.117 572.966 173.83 572.624C173.543 572.282 173.399 571.797 173.399 571.168V566.581H172.053V565.604H173.399V563.812H174.664ZM177.057 569.233C177.057 568.509 177.198 567.857 177.48 567.278C177.768 566.7 178.164 566.253 178.67 565.938C179.18 565.624 179.761 565.467 180.413 565.467C181.42 565.467 182.234 565.815 182.854 566.513C183.478 567.21 183.79 568.137 183.79 569.295V569.384C183.79 570.104 183.651 570.751 183.373 571.325C183.1 571.895 182.705 572.339 182.19 572.658C181.68 572.977 181.092 573.137 180.427 573.137C179.424 573.137 178.611 572.788 177.986 572.091C177.367 571.394 177.057 570.471 177.057 569.322V569.233ZM178.328 569.384C178.328 570.204 178.517 570.863 178.896 571.359C179.278 571.856 179.789 572.104 180.427 572.104C181.069 572.104 181.58 571.854 181.958 571.353C182.336 570.847 182.525 570.14 182.525 569.233C182.525 568.422 182.332 567.766 181.944 567.265C181.562 566.759 181.051 566.506 180.413 566.506C179.789 566.506 179.285 566.754 178.902 567.251C178.52 567.748 178.328 568.459 178.328 569.384ZM191.269 571.147L192.991 565.604H194.345L191.371 574.142C190.911 575.372 190.179 575.987 189.177 575.987L188.938 575.967L188.466 575.878V574.853L188.808 574.88C189.236 574.88 189.569 574.793 189.806 574.62C190.047 574.447 190.245 574.13 190.4 573.67L190.681 572.918L188.042 565.604H189.423L191.269 571.147ZM195.035 569.233C195.035 568.509 195.176 567.857 195.459 567.278C195.746 566.7 196.143 566.253 196.648 565.938C197.159 565.624 197.74 565.467 198.392 565.467C199.399 565.467 200.212 565.815 200.832 566.513C201.456 567.21 201.769 568.137 201.769 569.295V569.384C201.769 570.104 201.63 570.751 201.352 571.325C201.078 571.895 200.684 572.339 200.169 572.658C199.659 572.977 199.071 573.137 198.405 573.137C197.403 573.137 196.589 572.788 195.965 572.091C195.345 571.394 195.035 570.471 195.035 569.322V569.233ZM196.307 569.384C196.307 570.204 196.496 570.863 196.874 571.359C197.257 571.856 197.767 572.104 198.405 572.104C199.048 572.104 199.558 571.854 199.937 571.353C200.315 570.847 200.504 570.14 200.504 569.233C200.504 568.422 200.31 567.766 199.923 567.265C199.54 566.759 199.03 566.506 198.392 566.506C197.767 566.506 197.264 566.754 196.881 567.251C196.498 567.748 196.307 568.459 196.307 569.384ZM207.921 572.269C207.429 572.847 206.706 573.137 205.754 573.137C204.965 573.137 204.364 572.909 203.949 572.453C203.539 571.993 203.332 571.314 203.327 570.416V565.604H204.592V570.382C204.592 571.503 205.048 572.063 205.959 572.063C206.925 572.063 207.568 571.703 207.887 570.983V565.604H209.151V573H207.948L207.921 572.269ZM214.654 566.738C214.463 566.706 214.256 566.69 214.032 566.69C213.203 566.69 212.64 567.044 212.344 567.75V573H211.079V565.604H212.31L212.33 566.458C212.745 565.797 213.333 565.467 214.094 565.467C214.34 565.467 214.527 565.499 214.654 565.562V566.738ZM101.663 589V579.047H104.473C105.339 579.047 106.104 579.238 106.77 579.621C107.435 580.004 107.948 580.549 108.308 581.255C108.672 581.961 108.857 582.772 108.861 583.688V584.324C108.861 585.263 108.679 586.086 108.314 586.792C107.954 587.498 107.437 588.041 106.763 588.419C106.093 588.797 105.311 588.991 104.418 589H101.663ZM102.976 580.127V587.927H104.356C105.368 587.927 106.154 587.612 106.715 586.983C107.28 586.354 107.562 585.459 107.562 584.297V583.716C107.562 582.586 107.296 581.708 106.763 581.084C106.234 580.455 105.482 580.136 104.507 580.127H102.976ZM110.317 585.233C110.317 584.509 110.459 583.857 110.741 583.278C111.028 582.7 111.425 582.253 111.931 581.938C112.441 581.624 113.022 581.467 113.674 581.467C114.681 581.467 115.494 581.815 116.114 582.513C116.739 583.21 117.051 584.137 117.051 585.295V585.384C117.051 586.104 116.912 586.751 116.634 587.325C116.36 587.895 115.966 588.339 115.451 588.658C114.941 588.977 114.353 589.137 113.688 589.137C112.685 589.137 111.871 588.788 111.247 588.091C110.627 587.394 110.317 586.471 110.317 585.322V585.233ZM111.589 585.384C111.589 586.204 111.778 586.863 112.156 587.359C112.539 587.856 113.049 588.104 113.688 588.104C114.33 588.104 114.84 587.854 115.219 587.353C115.597 586.847 115.786 586.14 115.786 585.233C115.786 584.422 115.592 583.766 115.205 583.265C114.822 582.759 114.312 582.506 113.674 582.506C113.049 582.506 112.546 582.754 112.163 583.251C111.78 583.748 111.589 584.459 111.589 585.384ZM118.302 585.233C118.302 584.509 118.443 583.857 118.726 583.278C119.013 582.7 119.409 582.253 119.915 581.938C120.425 581.624 121.007 581.467 121.658 581.467C122.665 581.467 123.479 581.815 124.099 582.513C124.723 583.21 125.035 584.137 125.035 585.295V585.384C125.035 586.104 124.896 586.751 124.618 587.325C124.345 587.895 123.951 588.339 123.436 588.658C122.925 588.977 122.337 589.137 121.672 589.137C120.669 589.137 119.856 588.788 119.231 588.091C118.612 587.394 118.302 586.471 118.302 585.322V585.233ZM119.573 585.384C119.573 586.204 119.762 586.863 120.141 587.359C120.523 587.856 121.034 588.104 121.672 588.104C122.314 588.104 122.825 587.854 123.203 587.353C123.581 586.847 123.771 586.14 123.771 585.233C123.771 584.422 123.577 583.766 123.189 583.265C122.807 582.759 122.296 582.506 121.658 582.506C121.034 582.506 120.53 582.754 120.147 583.251C119.765 583.748 119.573 584.459 119.573 585.384ZM130.196 582.738C130.005 582.706 129.798 582.69 129.574 582.69C128.745 582.69 128.182 583.044 127.886 583.75V589H126.621V581.604H127.852L127.872 582.458C128.287 581.797 128.875 581.467 129.636 581.467C129.882 581.467 130.069 581.499 130.196 581.562V582.738ZM135.672 587.038C135.672 586.696 135.542 586.432 135.282 586.245C135.027 586.054 134.578 585.89 133.936 585.753C133.298 585.616 132.789 585.452 132.411 585.261C132.037 585.069 131.759 584.841 131.577 584.577C131.399 584.313 131.311 583.998 131.311 583.634C131.311 583.028 131.566 582.515 132.076 582.096C132.591 581.676 133.247 581.467 134.045 581.467C134.883 581.467 135.562 581.683 136.082 582.116C136.606 582.549 136.868 583.103 136.868 583.777H135.597C135.597 583.431 135.449 583.132 135.152 582.882C134.861 582.631 134.492 582.506 134.045 582.506C133.585 582.506 133.225 582.606 132.965 582.807C132.705 583.007 132.575 583.269 132.575 583.593C132.575 583.898 132.696 584.128 132.938 584.283C133.179 584.438 133.614 584.586 134.243 584.728C134.877 584.869 135.389 585.037 135.781 585.233C136.173 585.429 136.463 585.666 136.649 585.944C136.841 586.218 136.937 586.553 136.937 586.949C136.937 587.61 136.672 588.141 136.144 588.542C135.615 588.938 134.929 589.137 134.086 589.137C133.493 589.137 132.969 589.032 132.514 588.822C132.058 588.613 131.7 588.321 131.44 587.947C131.185 587.569 131.058 587.161 131.058 586.724H132.322C132.345 587.147 132.514 587.485 132.828 587.735C133.147 587.981 133.566 588.104 134.086 588.104C134.564 588.104 134.947 588.009 135.234 587.817C135.526 587.621 135.672 587.362 135.672 587.038ZM140.3 579.812V581.604H141.681V582.581H140.3V587.168C140.3 587.464 140.361 587.688 140.484 587.838C140.607 587.984 140.817 588.057 141.113 588.057C141.259 588.057 141.46 588.029 141.715 587.975V589C141.382 589.091 141.059 589.137 140.744 589.137C140.179 589.137 139.753 588.966 139.466 588.624C139.179 588.282 139.035 587.797 139.035 587.168V582.581H137.688V581.604H139.035V579.812H140.3ZM146.233 589.137C145.231 589.137 144.415 588.809 143.786 588.152C143.157 587.492 142.843 586.61 142.843 585.507V585.274C142.843 584.541 142.982 583.887 143.26 583.312C143.542 582.734 143.934 582.283 144.436 581.959C144.941 581.631 145.488 581.467 146.076 581.467C147.038 581.467 147.785 581.784 148.318 582.417C148.852 583.05 149.118 583.957 149.118 585.138V585.664H144.107C144.126 586.393 144.338 586.983 144.743 587.435C145.153 587.881 145.673 588.104 146.302 588.104C146.748 588.104 147.127 588.013 147.437 587.831C147.746 587.649 148.018 587.407 148.25 587.106L149.022 587.708C148.403 588.66 147.473 589.137 146.233 589.137ZM146.076 582.506C145.566 582.506 145.137 582.693 144.791 583.066C144.445 583.436 144.23 583.955 144.148 584.625H147.854V584.529C147.817 583.887 147.644 583.39 147.334 583.039C147.024 582.684 146.605 582.506 146.076 582.506ZM156.836 585.384C156.836 586.509 156.578 587.416 156.063 588.104C155.549 588.793 154.851 589.137 153.972 589.137C153.074 589.137 152.368 588.852 151.853 588.282V591.844H150.588V581.604H151.743L151.805 582.424C152.32 581.786 153.035 581.467 153.951 581.467C154.84 581.467 155.542 581.802 156.057 582.472C156.576 583.142 156.836 584.074 156.836 585.268V585.384ZM155.571 585.24C155.571 584.406 155.394 583.748 155.038 583.265C154.683 582.782 154.195 582.54 153.575 582.54C152.81 582.54 152.235 582.88 151.853 583.559V587.093C152.231 587.767 152.81 588.104 153.589 588.104C154.195 588.104 154.676 587.865 155.031 587.387C155.391 586.904 155.571 586.188 155.571 585.24Z" fill="black"/>
<ellipse cx="129" cy="40.5" rx="23" ry="21.5" fill="#6772D0"/>
<ellipse cx="129" cy="397.5" rx="23" ry="21.5" fill="#6772D0"/>
<ellipse cx="129" cy="533.5" rx="23" ry="21.5" fill="#6772D0"/>
<ellipse cx="129" cy="283.5" rx="23" ry="21.5" fill="#6772D0"/>
<ellipse cx="129" cy="171.5" rx="23" ry="21.5" fill="#6772D0"/>
<path d="M127.939 141.061C128.525 141.646 129.475 141.646 130.061 141.061L139.607 131.515C140.192 130.929 140.192 129.979 139.607 129.393C139.021 128.808 138.071 128.808 137.485 129.393L129 137.879L120.515 129.393C119.929 128.808 118.979 128.808 118.393 129.393C117.808 129.979 117.808 130.929 118.393 131.515L127.939 141.061ZM127.5 101V140H130.5V101H127.5Z" fill="black"/>
<path d="M127.939 508.061C128.525 508.646 129.475 508.646 130.061 508.061L139.607 498.515C140.192 497.929 140.192 496.979 139.607 496.393C139.021 495.808 138.071 495.808 137.485 496.393L129 504.879L120.515 496.393C119.929 495.808 118.979 495.808 118.393 496.393C117.808 496.979 117.808 497.929 118.393 498.515L127.939 508.061ZM127.5 468V507H130.5V468H127.5Z" fill="black"/>
<path d="M127.939 372.061C128.525 372.646 129.475 372.646 130.061 372.061L139.607 362.515C140.192 361.929 140.192 360.979 139.607 360.393C139.021 359.808 138.071 359.808 137.485 360.393L129 368.879L120.515 360.393C119.929 359.808 118.979 359.808 118.393 360.393C117.808 360.979 117.808 361.929 118.393 362.515L127.939 372.061ZM127.5 332V371H130.5V332H127.5Z" fill="black"/>
<path d="M127.939 256.061C128.525 256.646 129.475 256.646 130.061 256.061L139.607 246.515C140.192 245.929 140.192 244.979 139.607 244.393C139.021 243.808 138.071 243.808 137.485 244.393L129 252.879L120.515 244.393C119.929 243.808 118.979 243.808 118.393 244.393C117.808 244.979 117.808 245.929 118.393 246.515L127.939 256.061ZM127.5 216V255H130.5V216H127.5Z" fill="black"/>
</svg>
