<svg width="300" height="130" viewBox="0 0 300 130" fill="none" xmlns="http://www.w3.org/2000/svg">
<path d="M283.005 38.194V32.877L16.995 32.877V38.194L283.005 38.194Z" fill="#FF805A"/>
<path d="M98.31 107.9L90.975 93.327H94.41C94.7065 93.3141 94.9986 93.3924 95.235 93.548C95.4185 93.6812 95.5625 93.8506 95.655 94.042L100.395 103.727C100.395 103.727 100.08 107.9 98.31 107.9ZM102.045 108.394C102.24 107.796 102.735 106.977 102.975 106.444L108.855 94.094C108.946 93.8877 109.109 93.7107 109.32 93.587C109.528 93.4528 109.781 93.3799 110.04 93.379H113.19L100.5 118.742C100.385 118.977 100.217 119.189 100.005 119.366C99.7378 119.539 99.4074 119.622 99.075 119.6H96.075L100.215 111.8" fill="#1E2A3B"/>
<path d="M131.625 96.564C131.551 96.6979 131.434 96.81 131.287 96.8863C131.14 96.9626 130.971 96.9997 130.8 96.993C130.53 96.9767 130.268 96.9054 130.035 96.785L129 96.304C128.516 96.1074 128.015 95.9465 127.5 95.823C126.847 95.6603 126.169 95.5858 125.49 95.602C124.88 95.5904 124.272 95.665 123.69 95.823C123.19 95.9493 122.721 96.1566 122.31 96.434C121.949 96.6749 121.652 96.9809 121.44 97.331C121.234 97.6761 121.131 98.0605 121.14 98.449C121.11 98.921 121.287 99.3854 121.635 99.749C122.017 100.106 122.469 100.401 122.97 100.62C123.576 100.876 124.203 101.093 124.845 101.27C125.55 101.452 126.345 101.647 127.005 101.868C127.665 102.089 128.505 102.31 129.165 102.57C129.838 102.82 130.469 103.148 131.04 103.545C131.64 103.951 132.119 104.476 132.438 105.075C132.756 105.674 132.904 106.331 132.87 106.99C132.882 107.85 132.693 108.704 132.315 109.499C131.942 110.26 131.379 110.939 130.665 111.488C129.876 112.069 128.964 112.51 127.98 112.788C126.796 113.132 125.553 113.299 124.305 113.282C122.832 113.292 121.371 113.058 120 112.593C118.805 112.196 117.702 111.614 116.745 110.877L117.675 109.577C117.784 109.42 117.933 109.287 118.11 109.187C118.295 109.091 118.51 109.045 118.725 109.057C119.036 109.069 119.335 109.164 119.58 109.33L120.66 109.928C121.135 110.171 121.638 110.372 122.16 110.526C122.898 110.725 123.668 110.817 124.44 110.799C125.127 110.807 125.811 110.719 126.465 110.539C127.014 110.388 127.524 110.145 127.965 109.824C128.343 109.545 128.641 109.193 128.835 108.797C129.028 108.385 129.12 107.942 129.105 107.497C129.112 107.028 128.937 106.57 128.61 106.197C128.236 105.823 127.783 105.514 127.275 105.287C126.669 105.02 126.037 104.803 125.385 104.637L123.285 104C122.535 103.792 121.785 103.558 121.11 103.298C120.426 103.047 119.789 102.71 119.22 102.297C118.663 101.887 118.209 101.383 117.885 100.815C117.535 100.146 117.366 99.417 117.39 98.683C117.388 97.9341 117.572 97.1935 117.93 96.512C118.277 95.8208 118.788 95.2007 119.43 94.692C120.169 94.1265 121.024 93.6856 121.95 93.392C123.05 93.0665 124.207 92.9081 125.37 92.924C126.767 92.921 128.152 93.1505 129.45 93.6C130.559 93.9971 131.575 94.5653 132.45 95.277L131.625 96.564Z" fill="#1E2A3B"/>
<path d="M144 99.723V109.421C143.968 109.753 144.012 110.087 144.131 110.404C144.249 110.721 144.439 111.014 144.69 111.267C144.927 111.464 145.207 111.619 145.513 111.722C145.82 111.824 146.147 111.873 146.475 111.865C146.847 111.869 147.216 111.821 147.57 111.722C147.844 111.632 148.11 111.523 148.365 111.397L148.935 111.072C149.051 110.991 149.192 110.941 149.34 110.929C149.458 110.939 149.571 110.976 149.669 111.035C149.766 111.094 149.844 111.174 149.895 111.267L151.065 112.905C150.341 113.475 149.495 113.917 148.575 114.205C147.616 114.517 146.599 114.675 145.575 114.673C144.821 114.718 144.064 114.625 143.354 114.401C142.643 114.178 141.995 113.827 141.45 113.373C140.403 112.349 139.864 111.008 139.95 109.642V102.7C139.95 102.7 141.33 99.723 144 99.723ZM140.025 97.643H137.34C137.121 97.6464 136.908 97.5819 136.74 97.461C136.652 97.3875 136.584 97.2982 136.54 97.1994C136.496 97.1006 136.477 96.9947 136.485 96.889V95.511L140.205 95.108L141.12 89.037C141.156 88.8559 141.261 88.6908 141.42 88.569C141.503 88.5042 141.6 88.4546 141.706 88.4233C141.812 88.392 141.924 88.3797 142.035 88.387H144V95.147H150.54V97.643H144" fill="#1E2A3B"/>
<path d="M164.355 100.997H171.15C171.157 100.251 171.025 99.5095 170.76 98.8C170.513 98.1688 170.126 97.5857 169.62 97.084C169.113 96.5954 168.488 96.2093 167.79 95.953C167.018 95.6846 166.192 95.552 165.36 95.563C164.537 95.5292 163.714 95.6395 162.94 95.8874C162.167 96.1354 161.46 96.5158 160.86 97.006C159.678 98.1001 158.949 99.5043 158.79 100.997L158.655 103.155C158.671 104.254 158.874 105.344 159.255 106.392C159.572 107.235 160.082 108.013 160.755 108.68C161.367 109.283 162.132 109.754 162.99 110.058C163.918 110.368 164.905 110.523 165.9 110.513C166.772 110.526 167.642 110.426 168.48 110.214C169.125 110.044 169.752 109.826 170.355 109.564C170.865 109.33 171.3 109.122 171.66 108.914C171.922 108.743 172.234 108.639 172.56 108.615C172.709 108.608 172.858 108.634 172.992 108.691C173.126 108.748 173.24 108.834 173.325 108.94L174.435 110.24C173.926 110.745 173.335 111.183 172.68 111.54C171.985 111.919 171.246 112.233 170.475 112.476C169.676 112.754 168.847 112.963 168 113.1C167.183 113.228 166.355 113.293 165.525 113.295C164.042 113.307 162.571 113.073 161.19 112.606C159.874 112.134 158.696 111.414 157.74 110.5C156.735 109.553 155.973 108.432 155.505 107.211C154.937 105.763 154.663 104.242 154.695 102.713C154.675 101.387 154.919 100.068 155.415 98.813C155.873 97.6757 156.587 96.6284 157.515 95.732C158.438 94.8444 159.575 94.1432 160.845 93.678C162.267 93.154 163.8 92.897 165.345 92.924C166.632 92.9178 167.909 93.1207 169.11 93.522C170.237 93.9009 171.259 94.4811 172.11 95.225C172.97 96.0446 173.615 97.0159 174 98.072C174.499 99.263 174.743 100.523 174.72 101.79C174.759 102.162 174.692 102.537 174.525 102.882C174.436 102.981 174.318 103.058 174.184 103.106C174.05 103.154 173.904 103.171 173.76 103.155H161.76C161.76 103.155 162.645 100.997 164.355 100.997Z" fill="#1E2A3B"/>
<path d="M184.74 93.821C185.814 93.1373 187.156 92.8477 188.475 93.015C189.827 92.9658 191.15 93.3604 192.18 94.12C193.178 94.9256 193.887 95.9639 194.22 97.11C194.635 96.1557 195.31 95.3026 196.187 94.6234C197.065 93.9443 198.119 93.4593 199.26 93.21C199.981 93.0547 200.722 92.9761 201.465 92.976C202.552 92.9611 203.632 93.1289 204.645 93.47C205.545 93.7858 206.35 94.2748 207 94.9C207.685 95.5796 208.196 96.3771 208.5 97.24C208.853 98.2691 209.025 99.3385 209.01 100.412V112.905H205.005V100.464C205.106 99.2169 204.697 97.9787 203.85 96.967C203.43 96.5617 202.909 96.2437 202.328 96.0366C201.746 95.8296 201.118 95.7388 200.49 95.771C199.854 95.7696 199.223 95.871 198.63 96.07C198.064 96.2697 197.552 96.571 197.13 96.954C196.664 97.371 196.301 97.8666 196.065 98.41C195.795 99.069 195.663 99.7647 195.675 100.464V112.957H191.685V100.464C191.791 99.2101 191.399 97.9625 190.575 96.928C190.182 96.5342 189.689 96.2247 189.134 96.024C188.58 95.8232 187.98 95.7366 187.38 95.771L184.74 93.821ZM182.355 98.371V112.957H178.35V93.327C181.155 93.327 182.31 98.332 182.31 98.332L182.355 98.371Z" fill="#1E2A3B"/>
<path d="M227.46 96.564C227.382 96.6979 227.262 96.8095 227.113 96.8856C226.964 96.9617 226.793 96.999 226.62 96.993C226.355 96.9747 226.098 96.9035 225.87 96.785L224.835 96.304C224.35 96.1096 223.849 95.9488 223.335 95.823C222.682 95.6621 222.004 95.5876 221.325 95.602C220.71 95.5906 220.097 95.6652 219.51 95.823C219.011 95.9521 218.543 96.1592 218.13 96.434C217.773 96.6786 217.477 96.9838 217.26 97.331C217.061 97.6783 216.958 98.0612 216.96 98.449C216.928 98.9234 217.111 99.39 217.47 99.749C217.846 100.106 218.293 100.401 218.79 100.62C219.397 100.873 220.024 101.091 220.665 101.27C221.37 101.452 222.165 101.647 222.825 101.868C223.485 102.089 224.325 102.31 224.985 102.57C225.662 102.814 226.293 103.142 226.86 103.545C227.419 103.927 227.874 104.411 228.195 104.962C228.544 105.594 228.713 106.29 228.69 106.99C228.702 107.85 228.513 108.704 228.135 109.499C227.768 110.263 227.203 110.943 226.485 111.488C225.698 112.071 224.786 112.513 223.8 112.788C222.621 113.132 221.384 113.299 220.14 113.282C218.673 113.297 217.217 113.068 215.85 112.606C214.65 112.209 213.542 111.628 212.58 110.89L213.525 109.59C213.629 109.434 213.772 109.3 213.945 109.2C214.136 109.105 214.355 109.06 214.575 109.07C214.881 109.085 215.174 109.18 215.415 109.343C215.715 109.512 216.075 109.72 216.51 109.941C216.985 110.185 217.487 110.386 218.01 110.539C218.748 110.736 219.518 110.828 220.29 110.812C220.982 110.821 221.671 110.733 222.33 110.552C222.878 110.399 223.387 110.156 223.83 109.837C224.204 109.557 224.496 109.205 224.685 108.81C224.883 108.398 224.98 107.956 224.97 107.51C224.978 107.039 224.798 106.579 224.46 106.21C224.09 105.837 223.642 105.529 223.14 105.3C222.534 105.033 221.902 104.816 221.25 104.65L219.105 104C218.37 103.792 217.605 103.558 216.93 103.298C216.249 103.05 215.617 102.713 215.055 102.297C214.494 101.89 214.039 101.385 213.72 100.815C213.365 100.147 213.19 99.4181 213.21 98.683C213.208 97.9341 213.392 97.1935 213.75 96.512C214.102 95.8234 214.613 95.2042 215.25 94.692C215.993 94.1236 216.853 93.6824 217.785 93.392C218.885 93.0644 220.042 92.906 221.205 92.924C222.572 92.9079 223.931 93.1152 225.21 93.535C226.319 93.9321 227.335 94.5003 228.21 95.212L227.46 96.564Z" fill="#1E2A3B"/>
<path d="M86.115 96.564C86.0414 96.6979 85.9239 96.81 85.7772 96.8863C85.6304 96.9626 85.461 96.9997 85.29 96.993C85.0197 96.9767 84.7576 96.9054 84.525 96.785L83.49 96.304C83.0065 96.1074 82.5047 95.9465 81.99 95.823C81.3371 95.6603 80.6591 95.5858 79.98 95.602C79.3701 95.5904 78.7621 95.665 78.18 95.823C77.6796 95.9493 77.2113 96.1566 76.8 96.434C76.4385 96.6749 76.1417 96.9809 75.93 97.331C75.7239 97.6761 75.6207 98.0605 75.63 98.449C75.5997 98.921 75.7765 99.3854 76.125 99.749C76.5068 100.106 76.9588 100.401 77.46 100.62C78.066 100.876 78.6927 101.093 79.335 101.27C80.04 101.452 80.835 101.647 81.495 101.868C82.155 102.089 82.995 102.31 83.655 102.57C84.3281 102.82 84.9588 103.148 85.53 103.545C86.1301 103.951 86.6094 104.476 86.9277 105.075C87.2461 105.674 87.3943 106.331 87.36 106.99C87.3716 107.85 87.1828 108.704 86.805 109.499C86.4323 110.26 85.8687 110.939 85.155 111.488C84.3662 112.069 83.4541 112.51 82.47 112.788C81.2863 113.132 80.0435 113.299 78.795 113.282C77.3284 113.295 75.8725 113.065 74.505 112.606C73.3095 112.209 72.2068 111.627 71.25 110.89L72.18 109.59C72.289 109.433 72.4378 109.3 72.615 109.2C72.8001 109.104 73.0145 109.058 73.23 109.07C73.5408 109.082 73.8396 109.177 74.085 109.343L75.165 109.941C75.6401 110.184 76.1427 110.385 76.665 110.539C77.4025 110.738 78.1728 110.83 78.945 110.812C79.6452 110.807 80.3396 110.702 81 110.5C81.5492 110.349 82.0589 110.106 82.5 109.785C82.8782 109.506 83.1761 109.154 83.37 108.758C83.563 108.346 83.6549 107.903 83.64 107.458C83.6466 106.989 83.4724 106.531 83.145 106.158C82.7707 105.784 82.3176 105.475 81.81 105.248C81.2045 104.981 80.5718 104.764 79.92 104.598L77.775 104C77.025 103.792 76.275 103.558 75.6 103.298C74.9163 103.047 74.2794 102.71 73.71 102.297C73.1533 101.887 72.699 101.383 72.375 100.815C72.0254 100.146 71.8561 99.417 71.88 98.683C71.8775 97.9341 72.0617 97.1935 72.42 96.512C72.767 95.8208 73.2781 95.2007 73.92 94.692C74.6593 94.1265 75.5139 93.6856 76.44 93.392C77.5404 93.0665 78.6974 92.9081 79.86 92.924C81.2776 92.9143 82.6837 93.1439 84 93.6C85.1088 93.9971 86.1253 94.5653 87 95.277L86.115 96.564Z" fill="#1E2A3B"/>
<path d="M68.685 30.953V77.623H59.22V30.953H68.685Z" fill="#1E2A3B"/>
<path d="M90 28.002V50.57C91.445 52.3895 93.3948 53.8647 95.67 54.86C97.8422 55.7073 100.203 56.1289 102.585 56.095C104.81 56.2014 107.03 55.8327 109.052 55.0212C111.074 54.2097 112.835 52.9803 114.18 51.441C116.88 48.347 118.215 43.914 118.215 38.181C118.267 35.5581 117.954 32.9393 117.285 30.381C116.795 28.4588 115.884 26.6361 114.6 25.012C113.517 23.6694 112.027 22.6122 110.295 21.957C108.465 21.2841 106.492 20.9519 104.505 20.982L104.265 14.3C108.29 13.8104 112.392 14.348 116.07 15.847C118.613 16.8901 120.822 18.4567 122.505 20.41C124.405 22.654 125.794 25.1908 126.6 27.885C127.634 31.2382 128.138 34.6973 128.1 38.168C128.128 41.4222 127.587 44.6613 126.495 47.775C125.536 50.5632 123.978 53.1697 121.905 55.458C119.858 57.6859 117.244 59.4723 114.266 60.6768C111.289 61.8813 108.03 62.4712 104.745 62.4C101.832 62.4662 98.9378 61.9735 96.27 60.957C93.9006 59.9982 91.7705 58.6468 90 56.979V77.623H80.505V15.145C88.155 15.145 90 28.002 90 28.002Z" fill="#1E2A3B"/>
<path d="M147.36 28.002V50.57C148.801 52.3825 150.739 53.8566 153 54.86C155.166 55.7087 157.523 56.1305 159.9 56.095C162.125 56.2014 164.345 55.8327 166.367 55.0212C168.389 54.2097 170.15 52.9803 171.495 51.441C174.195 48.347 175.545 43.914 175.545 38.181C175.592 35.5576 175.275 32.9387 174.6 30.381C174.11 28.4588 173.199 26.6361 171.915 25.012C170.834 23.6727 169.351 22.616 167.625 21.957C165.789 21.2853 163.812 20.9532 161.82 20.982L161.55 14.352C165.575 13.8624 169.677 14.4 173.355 15.899C175.898 16.9421 178.107 18.5087 179.79 20.462C181.69 22.7061 183.079 25.2428 183.885 27.937C184.919 31.2902 185.423 34.7494 185.385 38.22C185.413 41.4742 184.872 44.7134 183.78 47.827C182.821 50.6152 181.263 53.2217 179.19 55.51C177.142 57.7231 174.532 59.4963 171.563 60.6914C168.594 61.8866 165.347 62.4713 162.075 62.4C159.162 62.4662 156.268 61.9735 153.6 60.957C151.236 59.98 149.116 58.6108 147.36 56.927V77.623H137.835V15.145C145.5 15.145 147.36 28.002 147.36 28.002Z" fill="#1E2A3B"/>
<path d="M218.13 33.15H234.3C234.319 31.3833 234 29.6261 233.355 27.95C232.785 26.4403 231.866 25.047 230.655 23.855C229.456 22.6962 227.975 21.7817 226.32 21.177C224.484 20.5252 222.514 20.2024 220.53 20.228C218.559 20.1361 216.587 20.3943 214.735 20.9867C212.883 21.5791 211.19 22.4932 209.76 23.673C206.952 26.2816 205.221 29.6238 204.84 33.176L204.525 38.298C204.564 40.9089 205.039 43.5011 205.935 45.994C206.651 47.9975 207.836 49.8517 209.415 51.441C210.858 52.8844 212.679 54.0077 214.725 54.717C216.926 55.468 219.275 55.839 221.64 55.809C223.715 55.8409 225.783 55.5998 227.775 55.094C229.323 54.6903 230.829 54.1728 232.275 53.547C233.328 53.0815 234.349 52.565 235.335 52C235.955 51.5865 236.7 51.3381 237.48 51.285C237.834 51.273 238.185 51.3381 238.502 51.4744C238.819 51.6107 239.092 51.8138 239.295 52.065L241.95 55.068C240.749 56.3156 239.332 57.3944 237.75 58.266C236.101 59.1703 234.34 59.9116 232.5 60.476C230.625 61.0626 228.692 61.4978 226.725 61.776C224.778 62.0703 222.806 62.2182 220.83 62.218C217.311 62.2443 213.819 61.6883 210.54 60.58C207.489 59.5139 204.744 57.8809 202.5 55.796C200.11 53.5485 198.291 50.8912 197.16 47.996C195.818 44.5556 195.169 40.941 195.24 37.31C195.218 34.214 195.801 31.1371 196.965 28.21C198.019 25.4833 199.686 22.9647 201.87 20.8C204.078 18.7032 206.778 17.0409 209.79 15.925C213.109 14.706 216.685 14.0995 220.29 14.144C223.365 14.1142 226.42 14.5906 229.29 15.548C231.961 16.4548 234.383 17.8365 236.4 19.604C238.473 21.4641 240.077 23.6776 241.11 26.104C242.311 28.9863 242.885 32.0364 242.805 35.1C242.896 35.9878 242.732 36.8813 242.325 37.7C242.111 37.9329 241.832 38.1147 241.515 38.2285C241.197 38.3422 240.851 38.384 240.51 38.35H211.845C211.845 38.35 214.08 33.15 218.13 33.15Z" fill="#1E2A3B"/>
<path d="M267.855 16.9C269.835 14.898 273.36 14.209 276.945 14.209C278.046 14.2099 279.143 14.3189 280.215 14.534C281.208 14.724 282.153 15.0675 283.005 15.548L282.315 21.671C282.273 22.0043 282.085 22.3108 281.788 22.5264C281.492 22.742 281.111 22.8501 280.725 22.828C279.985 22.8004 279.251 22.7046 278.535 22.542C277.468 22.3566 276.383 22.2651 275.295 22.269C273.763 22.2542 272.239 22.4742 270.795 22.919C269.473 23.341 268.264 23.9911 267.24 24.83C267.24 24.83 265.275 19.5 267.855 16.9ZM262.11 32.227V61.672H252.6V15.002C261.795 15.002 262.11 32.188 262.11 32.188V32.227Z" fill="#1E2A3B"/>
<path d="M32.25 16.9C34.23 14.898 37.755 14.209 41.34 14.209C42.4407 14.2099 43.5377 14.3189 44.61 14.534C45.6027 14.724 46.5478 15.0675 47.4 15.548L46.71 21.671C46.6683 22.0043 46.4796 22.3108 46.1833 22.5264C45.887 22.742 45.506 22.8501 45.12 22.828C44.3803 22.8004 43.6462 22.7046 42.93 22.542C41.8634 22.3566 40.7778 22.2651 39.69 22.269C38.1575 22.2542 36.6341 22.4742 35.19 22.919C33.8652 23.3439 32.6515 23.9936 31.62 24.83C31.62 24.83 29.67 19.5 32.25 16.9ZM26.505 32.188V61.672H16.995V15.002C26.19 15.002 26.505 32.188 26.505 32.188Z" fill="#1E2A3B"/>
<path d="M72.5752 13.891C72.5871 14.6631 72.3973 15.4275 72.0202 16.127C71.651 16.8148 71.1431 17.44 70.5202 17.973C69.8909 18.5217 69.1479 18.9627 68.3302 19.273C67.4988 19.5744 66.6064 19.729 65.7052 19.728C64.8181 19.7332 63.9394 19.5782 63.1252 19.273C62.3369 18.9583 61.6244 18.5172 61.0252 17.973C60.4001 17.4417 59.8918 16.8161 59.5252 16.127C59.1718 15.4217 58.9929 14.66 59.0002 13.891C59.0006 13.1101 59.179 12.337 59.5252 11.616C59.8874 10.9132 60.3959 10.2742 61.0252 9.73101C61.6197 9.18214 62.3333 8.74036 63.1252 8.43101C63.9443 8.12718 64.8296 7.98082 65.7202 8.00201C66.6232 7.99892 67.517 8.15828 68.3452 8.47001C69.1664 8.77495 69.9104 9.21664 70.5352 9.77001C71.1622 10.3148 71.6704 10.9535 72.0352 11.655C72.3938 12.3594 72.5778 13.1211 72.5752 13.891V13.891Z" fill="#FF805A"/>
</svg>
