<svg id="Layer_1" data-name="Layer 1" xmlns="http://www.w3.org/2000/svg" viewBox="0 0 200 100"><defs><style>.cls-1{fill:#ff805a;}.cls-2{fill:#1e2a3b;}</style></defs><rect class="cls-1" x="97.95" y="-61.33" width="4.09" height="177.34" transform="translate(127.34 -72.66) rotate(90)"/><path class="cls-2" d="M65.54,83,60.65,71.79h2.29a.84.84,0,0,1,.55.17,1,1,0,0,1,.28.38l3.16,7.45S66.72,83,65.54,83Zm2.49.38c.13-.46.46-1.09.62-1.5l3.92-9.5a.83.83,0,0,1,.31-.39.81.81,0,0,1,.48-.16h2.1L67,91.34a1.46,1.46,0,0,1-.33.48.92.92,0,0,1-.62.18h-2l2.76-6"/><path class="cls-2" d="M87.75,74.28a.58.58,0,0,1-.55.33,1.15,1.15,0,0,1-.51-.16L86,74.08a6.34,6.34,0,0,0-1-.37,4.41,4.41,0,0,0-1.34-.17,3.74,3.74,0,0,0-1.2.17,2.75,2.75,0,0,0-.92.47,2.1,2.1,0,0,0-.58.69,1.79,1.79,0,0,0-.2.86,1.44,1.44,0,0,0,.33,1,3.15,3.15,0,0,0,.89.67,9.29,9.29,0,0,0,1.25.5c.47.14,1,.29,1.44.46s1,.34,1.44.54a5.39,5.39,0,0,1,1.25.75,3.18,3.18,0,0,1,1.22,2.65,4.92,4.92,0,0,1-.37,1.93,4.28,4.28,0,0,1-1.1,1.53,5.3,5.3,0,0,1-1.79,1,7.33,7.33,0,0,1-2.45.38A7.7,7.7,0,0,1,80,86.61a7.08,7.08,0,0,1-2.17-1.32l.62-1a.93.93,0,0,1,.29-.3.71.71,0,0,1,.41-.1,1,1,0,0,1,.57.21l.72.46a5.38,5.38,0,0,0,1,.46,4.68,4.68,0,0,0,1.52.21,4.26,4.26,0,0,0,1.35-.2,2.93,2.93,0,0,0,1-.55,2.13,2.13,0,0,0,.58-.79,2.47,2.47,0,0,0,.18-1,1.62,1.62,0,0,0-.33-1,3,3,0,0,0-.89-.7,7.35,7.35,0,0,0-1.26-.5L82.19,80c-.5-.16-1-.34-1.45-.54a5,5,0,0,1-1.26-.77,3.58,3.58,0,0,1-.89-1.14,3.72,3.72,0,0,1-.33-1.64,4,4,0,0,1,.36-1.67,4.13,4.13,0,0,1,1-1.4,5.28,5.28,0,0,1,1.68-1,6.73,6.73,0,0,1,2.28-.36A7.28,7.28,0,0,1,86.3,72a6.61,6.61,0,0,1,2,1.29Z"/><path class="cls-2" d="M96,76.71v7.46a1.93,1.93,0,0,0,.46,1.42,1.65,1.65,0,0,0,1.19.46,2.29,2.29,0,0,0,.73-.11,3.76,3.76,0,0,0,.53-.25l.38-.25a.5.5,0,0,1,.27-.11.46.46,0,0,1,.37.26l.78,1.26a5,5,0,0,1-1.66,1,5.65,5.65,0,0,1-2,.36,3.61,3.61,0,0,1-2.75-1,4,4,0,0,1-1-2.87V79S94.22,76.71,96,76.71Zm-2.65-1.6H91.56a.61.61,0,0,1-.4-.14.56.56,0,0,1-.17-.44V73.47l2.48-.31.61-4.67a.62.62,0,0,1,.2-.36.55.55,0,0,1,.41-.14H96v5.2h4.36v1.92H96"/><path class="cls-2" d="M109.57,77.69h4.53a5.35,5.35,0,0,0-.26-1.69,3.91,3.91,0,0,0-.76-1.32,3.45,3.45,0,0,0-1.22-.87,4.18,4.18,0,0,0-1.62-.3,4.09,4.09,0,0,0-3,1.11,5.19,5.19,0,0,0-1.38,3.07l-.09,1.66a8.65,8.65,0,0,0,.4,2.49,5.05,5.05,0,0,0,1,1.76,4,4,0,0,0,1.49,1.06,5.23,5.23,0,0,0,1.94.35,5.78,5.78,0,0,0,1.72-.23,7.92,7.92,0,0,0,1.25-.5c.34-.18.63-.34.87-.5a1.16,1.16,0,0,1,.6-.23.58.58,0,0,1,.51.25l.74,1a5.32,5.32,0,0,1-1.17,1,7.71,7.71,0,0,1-1.47.72A8.76,8.76,0,0,1,112,87a9.37,9.37,0,0,1-1.65.15,7.74,7.74,0,0,1-2.89-.53A6.42,6.42,0,0,1,105.16,85a7,7,0,0,1-1.49-2.53,10.18,10.18,0,0,1-.54-3.46,8.9,8.9,0,0,1,.48-3,7,7,0,0,1,1.4-2.37,6.28,6.28,0,0,1,2.22-1.58,7.29,7.29,0,0,1,3-.58,6.87,6.87,0,0,1,2.51.46,5.74,5.74,0,0,1,2,1.31A5.9,5.9,0,0,1,116,75.44a8,8,0,0,1,.48,2.86,1.76,1.76,0,0,1-.13.84.56.56,0,0,1-.51.21h-8S108.43,77.69,109.57,77.69Z"/><path class="cls-2" d="M123.16,72.17a3.38,3.38,0,0,1,2.49-.62,3.58,3.58,0,0,1,2.47.85,4.72,4.72,0,0,1,1.36,2.3,4.86,4.86,0,0,1,3.36-3,6.1,6.1,0,0,1,1.47-.18,5.61,5.61,0,0,1,2.12.38A4.27,4.27,0,0,1,138,73a4.92,4.92,0,0,1,1,1.8,8.22,8.22,0,0,1,.34,2.44v9.61h-2.67V77.28a4.09,4.09,0,0,0-.77-2.69,2.79,2.79,0,0,0-2.24-.92,3.41,3.41,0,0,0-1.24.23,2.89,2.89,0,0,0-1,.68,3.26,3.26,0,0,0-.71,1.12,4.51,4.51,0,0,0-.26,1.58v9.61h-2.66V77.28a4.24,4.24,0,0,0-.74-2.72,2.59,2.59,0,0,0-2.13-.89m-3.35,2V86.89h-2.67V71.79C120.77,71.79,121.54,75.64,121.54,75.64Z"/><path class="cls-2" d="M151.64,74.28a.6.6,0,0,1-.56.33,1.15,1.15,0,0,1-.5-.16l-.69-.37a6.75,6.75,0,0,0-1-.37,4.5,4.5,0,0,0-1.34-.17,3.81,3.81,0,0,0-1.21.17,2.85,2.85,0,0,0-.92.47,2.23,2.23,0,0,0-.58.69,1.91,1.91,0,0,0-.2.86,1.4,1.4,0,0,0,.34,1,3.09,3.09,0,0,0,.88.67,9.85,9.85,0,0,0,1.25.5c.47.14,1,.29,1.44.46s1,.34,1.44.54a5,5,0,0,1,1.25.75,3.26,3.26,0,0,1,.89,1.09,3.39,3.39,0,0,1,.33,1.56,4.92,4.92,0,0,1-.37,1.93,4.16,4.16,0,0,1-1.1,1.53,5.21,5.21,0,0,1-1.79,1,7.27,7.27,0,0,1-2.44.38,7.63,7.63,0,0,1-2.86-.52,7.13,7.13,0,0,1-2.18-1.32l.63-1a.9.9,0,0,1,.28-.3.77.77,0,0,1,.42-.1,1,1,0,0,1,.56.21c.2.13.44.29.73.46a5.26,5.26,0,0,0,1,.46,4.76,4.76,0,0,0,1.52.21,4.28,4.28,0,0,0,1.36-.2,3,3,0,0,0,1-.55,2.11,2.11,0,0,0,.57-.79,2.48,2.48,0,0,0,.19-1,1.57,1.57,0,0,0-.34-1,3,3,0,0,0-.88-.7,7.35,7.35,0,0,0-1.26-.5L146.07,80c-.49-.16-1-.34-1.45-.54a4.77,4.77,0,0,1-1.25-.77,3.45,3.45,0,0,1-.89-1.14,3.71,3.71,0,0,1-.34-1.64,4,4,0,0,1,.36-1.67,4.27,4.27,0,0,1,1-1.4,5.22,5.22,0,0,1,1.69-1,6.65,6.65,0,0,1,2.28-.36,7.26,7.26,0,0,1,2.67.47,6.61,6.61,0,0,1,2,1.29Z"/><path class="cls-2" d="M57.41,74.28a.58.58,0,0,1-.55.33,1.15,1.15,0,0,1-.51-.16l-.69-.37a6.34,6.34,0,0,0-1-.37,4.41,4.41,0,0,0-1.34-.17,3.74,3.74,0,0,0-1.2.17,2.75,2.75,0,0,0-.92.47,2.1,2.1,0,0,0-.58.69,1.79,1.79,0,0,0-.2.86,1.44,1.44,0,0,0,.33,1,3.15,3.15,0,0,0,.89.67,9.29,9.29,0,0,0,1.25.5c.47.14,1,.29,1.44.46s1,.34,1.44.54a5.39,5.39,0,0,1,1.25.75,3.18,3.18,0,0,1,1.22,2.65,4.92,4.92,0,0,1-.37,1.93,4.28,4.28,0,0,1-1.1,1.53,5.3,5.3,0,0,1-1.79,1,7.33,7.33,0,0,1-2.45.38,7.7,7.7,0,0,1-2.86-.52,7.08,7.08,0,0,1-2.17-1.32l.62-1a.93.93,0,0,1,.29-.3.71.71,0,0,1,.41-.1,1,1,0,0,1,.57.21l.72.46a5.38,5.38,0,0,0,1,.46,4.68,4.68,0,0,0,1.52.21A4.22,4.22,0,0,0,54,85a2.93,2.93,0,0,0,1-.55,2.13,2.13,0,0,0,.58-.79,2.47,2.47,0,0,0,.18-1,1.62,1.62,0,0,0-.33-1,3,3,0,0,0-.89-.7,7.35,7.35,0,0,0-1.26-.5L51.85,80c-.5-.16-1-.34-1.45-.54a5,5,0,0,1-1.26-.77,3.58,3.58,0,0,1-.89-1.14,3.72,3.72,0,0,1-.33-1.64,4,4,0,0,1,.36-1.67,4.13,4.13,0,0,1,1-1.4,5.28,5.28,0,0,1,1.68-1,6.73,6.73,0,0,1,2.28-.36A7.28,7.28,0,0,1,56,72a6.61,6.61,0,0,1,2,1.29Z"/><path class="cls-2" d="M45.79,23.81v35.9H39.48V23.81Z"/><path class="cls-2" d="M60,21.54V38.9a10.13,10.13,0,0,0,3.78,3.3,10.8,10.8,0,0,0,4.61.95,9.07,9.07,0,0,0,7.73-3.58c1.8-2.38,2.69-5.79,2.69-10.2a25.19,25.19,0,0,0-.62-6,11.82,11.82,0,0,0-1.79-4.13,6.84,6.84,0,0,0-2.87-2.35,9.46,9.46,0,0,0-3.86-.75L69.51,11a13.94,13.94,0,0,1,7.87,1.19,11.49,11.49,0,0,1,4.29,3.51,16.88,16.88,0,0,1,2.73,5.75,29.55,29.55,0,0,1,1,7.91,24.77,24.77,0,0,1-1.07,7.39,17.81,17.81,0,0,1-3.06,5.91A14.17,14.17,0,0,1,69.83,48a13.18,13.18,0,0,1-5.65-1.11A13.36,13.36,0,0,1,60,43.83V59.71H53.67V11.65C58.77,11.65,60,21.54,60,21.54Z"/><path class="cls-2" d="M98.24,21.54V38.9A10.23,10.23,0,0,0,102,42.2a10.72,10.72,0,0,0,4.6.95,9.07,9.07,0,0,0,7.73-3.58c1.8-2.38,2.7-5.79,2.7-10.2a25.14,25.14,0,0,0-.63-6,11.82,11.82,0,0,0-1.79-4.13,6.87,6.87,0,0,0-2.86-2.35,9.54,9.54,0,0,0-3.87-.75l-.18-5.1a13.94,13.94,0,0,1,7.87,1.19,11.49,11.49,0,0,1,4.29,3.51,16.88,16.88,0,0,1,2.73,5.75,29.55,29.55,0,0,1,1,7.91,24.77,24.77,0,0,1-1.07,7.39,17.81,17.81,0,0,1-3.06,5.91A14.17,14.17,0,0,1,108.05,48a13.18,13.18,0,0,1-5.65-1.11,13.36,13.36,0,0,1-4.16-3.1V59.71H91.89V11.65C97,11.65,98.24,21.54,98.24,21.54Z"/><path class="cls-2" d="M145.42,25.5H156.2a12.28,12.28,0,0,0-.63-4,9,9,0,0,0-1.8-3.15,8.12,8.12,0,0,0-2.89-2.06,9.8,9.8,0,0,0-3.86-.73,9.66,9.66,0,0,0-7.18,2.65,12.4,12.4,0,0,0-3.28,7.31l-.21,3.94a20.8,20.8,0,0,0,.94,5.92,11.75,11.75,0,0,0,2.32,4.19,9.21,9.21,0,0,0,3.54,2.52,12.1,12.1,0,0,0,4.61.84,13.68,13.68,0,0,0,4.09-.55,18.93,18.93,0,0,0,3-1.19A21,21,0,0,0,156.89,40a2.69,2.69,0,0,1,1.43-.55,1.41,1.41,0,0,1,1.21.6l1.77,2.31a12.1,12.1,0,0,1-2.8,2.46A17.42,17.42,0,0,1,155,46.52a21.57,21.57,0,0,1-3.85,1,22.85,22.85,0,0,1-3.93.34,18.44,18.44,0,0,1-6.86-1.26A15,15,0,0,1,135,42.92a16.8,16.8,0,0,1-3.56-6,24.38,24.38,0,0,1-1.28-8.22,21.08,21.08,0,0,1,1.15-7A16.73,16.73,0,0,1,134.58,16a15.28,15.28,0,0,1,5.28-3.75,17.31,17.31,0,0,1,7-1.37,16.2,16.2,0,0,1,6,1.08,13.69,13.69,0,0,1,4.74,3.12,14.34,14.34,0,0,1,3.14,5A19.1,19.1,0,0,1,161.87,27a4.13,4.13,0,0,1-.32,2,1.35,1.35,0,0,1-1.21.5H141.23S142.72,25.5,145.42,25.5Z"/><path class="cls-2" d="M178.57,13c1.32-1.54,3.67-2.07,6.06-2.07a9.71,9.71,0,0,1,2.18.25,5.64,5.64,0,0,1,1.86.78l-.46,4.71a1,1,0,0,1-1.06.89,6.94,6.94,0,0,1-1.46-.22,10.76,10.76,0,0,0-2.16-.21,8.67,8.67,0,0,0-3,.5,6.94,6.94,0,0,0-2.37,1.47S176.85,15,178.57,13Zm-3.83,11.79V47.44H168.4V11.54C174.53,11.54,174.74,24.76,174.74,24.76Z"/><path class="cls-2" d="M21.5,13c1.32-1.54,3.67-2.07,6.06-2.07a9.71,9.71,0,0,1,2.18.25,5.64,5.64,0,0,1,1.86.78l-.46,4.71a1,1,0,0,1-1.06.89,6.94,6.94,0,0,1-1.46-.22,10.76,10.76,0,0,0-2.16-.21,8.67,8.67,0,0,0-3,.5,7.08,7.08,0,0,0-2.38,1.47S19.78,15,21.5,13ZM17.67,24.76V47.44H11.33V11.54C17.46,11.54,17.67,24.76,17.67,24.76Z"/><path class="cls-1" d="M104.5,12.53a3.94,3.94,0,0,1-.37,1.72,4.9,4.9,0,0,1-1,1.42,4.74,4.74,0,0,1-1.46,1,4.52,4.52,0,0,1-1.75.35,4.26,4.26,0,0,1-1.72-.35,4.59,4.59,0,0,1-1.4-1,4.81,4.81,0,0,1-1-1.42,4.23,4.23,0,0,1-.35-1.72,4.56,4.56,0,0,1,.35-1.75,4.82,4.82,0,0,1,1-1.45,4.4,4.4,0,0,1,1.4-1A4.11,4.11,0,0,1,99.93,8a4.35,4.35,0,0,1,1.75.36,4.55,4.55,0,0,1,1.46,1,4.91,4.91,0,0,1,1,1.45A4.23,4.23,0,0,1,104.5,12.53Z"/></svg>