<svg id="Capa_1" enable-background="new 0 0 510.753 510.753" height="512" viewBox="0 0 510.753 510.753" width="512" xmlns="http://www.w3.org/2000/svg"><g><path d="m455.944 359.74h-87.626v-26.823h58.42c16.022 0 29.011-12.988 29.011-29.01v-270.861c0-16.022-12.989-29.011-29.011-29.011h-342.722c-16.022 0-29.011 12.988-29.011 29.011v270.861c0 16.022 12.989 29.01 29.011 29.01h66.132v26.823h-95.338c-16.381 0-29.66 13.279-29.66 29.66v87.658c0 16.381 13.279 29.66 29.66 29.66h401.134c16.381 0 29.66-13.279 29.66-29.66v-87.658c0-16.381-13.279-29.66-29.66-29.66z" fill="#eaa895"/><g fill="#f9fbfc"><path d="m360.176 338.11c-1.728 0-3.13 1.402-3.13 3.13 0 1.729 1.402 3.13 3.13 3.13 1.729 0 3.13-1.401 3.13-3.13s-1.401-3.13-3.13-3.13z"/><path d="m349.707 348.578c-1.729 0-3.13 1.402-3.13 3.13 0 1.729 1.401 3.13 3.13 3.13s3.13-1.401 3.13-3.13c0-1.728-1.401-3.13-3.13-3.13z"/><path d="m339.999 338.11c-1.728 0-3.13 1.402-3.13 3.13 0 1.729 1.401 3.13 3.13 3.13s3.13-1.401 3.13-3.13c-.001-1.729-1.402-3.13-3.13-3.13z"/><path d="m329.53 348.578c-1.729 0-3.13 1.402-3.13 3.13 0 1.729 1.401 3.13 3.13 3.13s3.13-1.401 3.13-3.13c0-1.728-1.401-3.13-3.13-3.13z"/><path d="m319.821 338.11c-1.728 0-3.13 1.402-3.13 3.13 0 1.729 1.401 3.13 3.13 3.13s3.13-1.401 3.13-3.13-1.402-3.13-3.13-3.13z"/><path d="m309.352 348.578c-1.729 0-3.13 1.402-3.13 3.13 0 1.729 1.401 3.13 3.13 3.13s3.13-1.401 3.13-3.13c0-1.728-1.401-3.13-3.13-3.13z"/><path d="m299.643 338.11c-1.728 0-3.13 1.402-3.13 3.13 0 1.729 1.401 3.13 3.13 3.13s3.13-1.401 3.13-3.13-1.401-3.13-3.13-3.13z"/><path d="m289.175 348.578c-1.729 0-3.13 1.402-3.13 3.13 0 1.729 1.401 3.13 3.13 3.13s3.13-1.401 3.13-3.13c-.001-1.728-1.402-3.13-3.13-3.13z"/><path d="m279.466 338.11c-1.728 0-3.13 1.402-3.13 3.13 0 1.729 1.402 3.13 3.13 3.13 1.729 0 3.13-1.401 3.13-3.13-.001-1.729-1.402-3.13-3.13-3.13z"/><path d="m268.997 348.578c-1.729 0-3.13 1.402-3.13 3.13 0 1.729 1.401 3.13 3.13 3.13s3.13-1.401 3.13-3.13c0-1.728-1.402-3.13-3.13-3.13z"/><path d="m259.288 338.11c-1.728 0-3.13 1.402-3.13 3.13 0 1.729 1.401 3.13 3.13 3.13s3.13-1.401 3.13-3.13-1.401-3.13-3.13-3.13z"/><path d="m248.819 348.578c-1.729 0-3.13 1.402-3.13 3.13 0 1.729 1.401 3.13 3.13 3.13s3.13-1.401 3.13-3.13c0-1.728-1.401-3.13-3.13-3.13z"/><path d="m239.11 338.11c-1.728 0-3.13 1.402-3.13 3.13 0 1.729 1.402 3.13 3.13 3.13 1.729 0 3.13-1.401 3.13-3.13s-1.401-3.13-3.13-3.13z"/><path d="m228.642 348.578c-1.729 0-3.13 1.402-3.13 3.13 0 1.729 1.401 3.13 3.13 3.13s3.13-1.401 3.13-3.13c-.001-1.728-1.402-3.13-3.13-3.13z"/><path d="m218.933 338.11c-1.728 0-3.13 1.402-3.13 3.13 0 1.729 1.401 3.13 3.13 3.13s3.13-1.401 3.13-3.13c-.001-1.729-1.402-3.13-3.13-3.13z"/><path d="m208.464 348.578c-1.729 0-3.13 1.402-3.13 3.13 0 1.729 1.401 3.13 3.13 3.13s3.13-1.401 3.13-3.13c0-1.728-1.401-3.13-3.13-3.13z"/><path d="m198.755 338.11c-1.728 0-3.13 1.402-3.13 3.13 0 1.729 1.401 3.13 3.13 3.13s3.13-1.401 3.13-3.13-1.401-3.13-3.13-3.13z"/><path d="m188.286 348.578c-1.729 0-3.13 1.402-3.13 3.13 0 1.729 1.401 3.13 3.13 3.13s3.13-1.401 3.13-3.13c0-1.728-1.401-3.13-3.13-3.13z"/><path d="m178.577 338.11c-1.728 0-3.13 1.402-3.13 3.13 0 1.729 1.402 3.13 3.13 3.13 1.729 0 3.13-1.401 3.13-3.13s-1.401-3.13-3.13-3.13z"/><path d="m168.109 348.578c-1.729 0-3.13 1.402-3.13 3.13 0 1.729 1.401 3.13 3.13 3.13s3.13-1.401 3.13-3.13c-.001-1.728-1.402-3.13-3.13-3.13z"/><path d="m158.4 338.11c-1.728 0-3.13 1.402-3.13 3.13 0 1.729 1.401 3.13 3.13 3.13s3.13-1.401 3.13-3.13c-.001-1.729-1.402-3.13-3.13-3.13z"/></g><g fill="#f9fbfc"><path d="m468.45 367.196c-1.729 0-3.13 1.402-3.13 3.13 0 1.729 1.401 3.13 3.13 3.13s3.13-1.401 3.13-3.13c-.001-1.728-1.402-3.13-3.13-3.13z"/><path d="m478.918 376.905c-1.728 0-3.13 1.401-3.13 3.13s1.402 3.13 3.13 3.13c1.729 0 3.13-1.402 3.13-3.13 0-1.729-1.401-3.13-3.13-3.13z"/><path d="m468.45 387.374c-1.729 0-3.13 1.402-3.13 3.13 0 1.729 1.401 3.13 3.13 3.13s3.13-1.401 3.13-3.13c-.001-1.728-1.402-3.13-3.13-3.13z"/><path d="m478.918 397.083c-1.728 0-3.13 1.401-3.13 3.13s1.402 3.13 3.13 3.13c1.729 0 3.13-1.402 3.13-3.13 0-1.729-1.401-3.13-3.13-3.13z"/><path d="m468.45 407.552c-1.729 0-3.13 1.401-3.13 3.13s1.401 3.13 3.13 3.13 3.13-1.402 3.13-3.13c-.001-1.729-1.402-3.13-3.13-3.13z"/><path d="m478.918 417.261c-1.728 0-3.13 1.401-3.13 3.13s1.402 3.13 3.13 3.13c1.729 0 3.13-1.401 3.13-3.13s-1.401-3.13-3.13-3.13z"/><path d="m468.45 427.729c-1.729 0-3.13 1.401-3.13 3.13s1.401 3.13 3.13 3.13 3.13-1.402 3.13-3.13c-.001-1.728-1.402-3.13-3.13-3.13z"/><path d="m478.918 437.438c-1.728 0-3.13 1.401-3.13 3.13s1.402 3.13 3.13 3.13c1.729 0 3.13-1.401 3.13-3.13s-1.401-3.13-3.13-3.13z"/><path d="m468.45 447.907c-1.729 0-3.13 1.402-3.13 3.13 0 1.729 1.401 3.13 3.13 3.13s3.13-1.401 3.13-3.13c-.001-1.729-1.402-3.13-3.13-3.13z"/><path d="m478.918 457.616c-1.728 0-3.13 1.401-3.13 3.13s1.402 3.13 3.13 3.13c1.729 0 3.13-1.402 3.13-3.13 0-1.729-1.401-3.13-3.13-3.13z"/><path d="m468.45 468.085c-1.729 0-3.13 1.402-3.13 3.13 0 1.729 1.401 3.13 3.13 3.13s3.13-1.401 3.13-3.13c-.001-1.729-1.402-3.13-3.13-3.13z"/><path d="m478.918 477.794c-1.728 0-3.13 1.401-3.13 3.13s1.402 3.13 3.13 3.13c1.729 0 3.13-1.402 3.13-3.13 0-1.729-1.401-3.13-3.13-3.13z"/><path d="m468.45 488.262c-1.729 0-3.13 1.401-3.13 3.13s1.401 3.13 3.13 3.13 3.13-1.402 3.13-3.13c-.001-1.728-1.402-3.13-3.13-3.13z"/><path d="m448.272 367.196c-1.729 0-3.13 1.402-3.13 3.13 0 1.729 1.401 3.13 3.13 3.13s3.13-1.401 3.13-3.13c0-1.728-1.402-3.13-3.13-3.13z"/><path d="m458.741 376.905c-1.728 0-3.13 1.401-3.13 3.13s1.402 3.13 3.13 3.13c1.729 0 3.13-1.402 3.13-3.13-.001-1.729-1.402-3.13-3.13-3.13z"/><path d="m448.272 387.374c-1.729 0-3.13 1.402-3.13 3.13 0 1.729 1.401 3.13 3.13 3.13s3.13-1.401 3.13-3.13c0-1.728-1.402-3.13-3.13-3.13z"/><path d="m458.741 397.083c-1.728 0-3.13 1.401-3.13 3.13s1.402 3.13 3.13 3.13c1.729 0 3.13-1.402 3.13-3.13-.001-1.729-1.402-3.13-3.13-3.13z"/><path d="m448.272 407.552c-1.729 0-3.13 1.401-3.13 3.13s1.401 3.13 3.13 3.13 3.13-1.402 3.13-3.13c0-1.729-1.402-3.13-3.13-3.13z"/><path d="m458.741 417.261c-1.728 0-3.13 1.401-3.13 3.13s1.402 3.13 3.13 3.13c1.729 0 3.13-1.401 3.13-3.13s-1.402-3.13-3.13-3.13z"/><path d="m448.272 427.729c-1.729 0-3.13 1.401-3.13 3.13s1.401 3.13 3.13 3.13 3.13-1.402 3.13-3.13-1.402-3.13-3.13-3.13z"/><path d="m458.741 437.438c-1.728 0-3.13 1.401-3.13 3.13s1.402 3.13 3.13 3.13c1.729 0 3.13-1.401 3.13-3.13s-1.402-3.13-3.13-3.13z"/><path d="m448.272 447.907c-1.729 0-3.13 1.402-3.13 3.13 0 1.729 1.401 3.13 3.13 3.13s3.13-1.401 3.13-3.13-1.402-3.13-3.13-3.13z"/><path d="m458.741 457.616c-1.728 0-3.13 1.401-3.13 3.13s1.402 3.13 3.13 3.13c1.729 0 3.13-1.402 3.13-3.13-.001-1.729-1.402-3.13-3.13-3.13z"/><path d="m448.272 468.085c-1.729 0-3.13 1.402-3.13 3.13 0 1.729 1.401 3.13 3.13 3.13s3.13-1.401 3.13-3.13-1.402-3.13-3.13-3.13z"/><path d="m458.741 477.794c-1.728 0-3.13 1.401-3.13 3.13s1.402 3.13 3.13 3.13c1.729 0 3.13-1.402 3.13-3.13-.001-1.729-1.402-3.13-3.13-3.13z"/><path d="m448.272 488.262c-1.729 0-3.13 1.401-3.13 3.13s1.401 3.13 3.13 3.13 3.13-1.402 3.13-3.13-1.402-3.13-3.13-3.13z"/><path d="m458.741 504.231c1.729 0 3.13-1.401 3.13-3.13s-1.401-3.13-3.13-3.13c-1.728 0-3.13 1.401-3.13 3.13s1.401 3.13 3.13 3.13z"/><path d="m428.094 367.196c-1.729 0-3.13 1.402-3.13 3.13 0 1.729 1.401 3.13 3.13 3.13s3.13-1.401 3.13-3.13c0-1.728-1.401-3.13-3.13-3.13z"/><path d="m438.563 376.905c-1.728 0-3.13 1.401-3.13 3.13s1.401 3.13 3.13 3.13 3.13-1.402 3.13-3.13c0-1.729-1.401-3.13-3.13-3.13z"/><path d="m428.094 387.374c-1.729 0-3.13 1.402-3.13 3.13 0 1.729 1.401 3.13 3.13 3.13s3.13-1.401 3.13-3.13c0-1.728-1.401-3.13-3.13-3.13z"/><path d="m438.563 397.083c-1.728 0-3.13 1.401-3.13 3.13s1.401 3.13 3.13 3.13 3.13-1.402 3.13-3.13c0-1.729-1.401-3.13-3.13-3.13z"/><path d="m428.094 407.552c-1.729 0-3.13 1.401-3.13 3.13s1.401 3.13 3.13 3.13 3.13-1.402 3.13-3.13c0-1.729-1.401-3.13-3.13-3.13z"/><path d="m438.563 417.261c-1.728 0-3.13 1.401-3.13 3.13s1.401 3.13 3.13 3.13 3.13-1.401 3.13-3.13-1.401-3.13-3.13-3.13z"/><path d="m428.094 427.729c-1.729 0-3.13 1.401-3.13 3.13s1.401 3.13 3.13 3.13 3.13-1.402 3.13-3.13-1.401-3.13-3.13-3.13z"/><path d="m438.563 437.438c-1.728 0-3.13 1.401-3.13 3.13s1.401 3.13 3.13 3.13 3.13-1.401 3.13-3.13-1.401-3.13-3.13-3.13z"/><path d="m438.563 457.616c-1.728 0-3.13 1.401-3.13 3.13s1.401 3.13 3.13 3.13 3.13-1.402 3.13-3.13c0-1.729-1.401-3.13-3.13-3.13z"/><path d="m428.094 468.085c-1.729 0-3.13 1.402-3.13 3.13 0 1.729 1.401 3.13 3.13 3.13s3.13-1.401 3.13-3.13-1.401-3.13-3.13-3.13z"/><path d="m438.563 477.794c-1.728 0-3.13 1.401-3.13 3.13s1.401 3.13 3.13 3.13 3.13-1.402 3.13-3.13c0-1.729-1.401-3.13-3.13-3.13z"/><path d="m428.094 488.262c-1.729 0-3.13 1.401-3.13 3.13s1.401 3.13 3.13 3.13 3.13-1.402 3.13-3.13-1.401-3.13-3.13-3.13z"/><path d="m438.563 497.971c-1.728 0-3.13 1.401-3.13 3.13s1.401 3.13 3.13 3.13 3.13-1.401 3.13-3.13-1.401-3.13-3.13-3.13z"/><path d="m407.917 367.196c-1.729 0-3.13 1.402-3.13 3.13 0 1.729 1.401 3.13 3.13 3.13s3.13-1.401 3.13-3.13c0-1.728-1.402-3.13-3.13-3.13z"/><path d="m418.385 376.905c-1.728 0-3.13 1.401-3.13 3.13s1.401 3.13 3.13 3.13 3.13-1.402 3.13-3.13c0-1.729-1.401-3.13-3.13-3.13z"/><path d="m407.917 387.374c-1.729 0-3.13 1.402-3.13 3.13 0 1.729 1.401 3.13 3.13 3.13s3.13-1.401 3.13-3.13c0-1.728-1.402-3.13-3.13-3.13z"/><path d="m418.385 397.083c-1.728 0-3.13 1.401-3.13 3.13s1.401 3.13 3.13 3.13 3.13-1.402 3.13-3.13c0-1.729-1.401-3.13-3.13-3.13z"/><path d="m407.917 407.552c-1.729 0-3.13 1.401-3.13 3.13s1.401 3.13 3.13 3.13 3.13-1.402 3.13-3.13c0-1.729-1.402-3.13-3.13-3.13z"/><path d="m418.385 417.261c-1.728 0-3.13 1.401-3.13 3.13s1.401 3.13 3.13 3.13 3.13-1.401 3.13-3.13-1.401-3.13-3.13-3.13z"/><path d="m407.917 427.729c-1.729 0-3.13 1.401-3.13 3.13s1.401 3.13 3.13 3.13 3.13-1.402 3.13-3.13-1.402-3.13-3.13-3.13z"/><path d="m418.385 437.438c-1.728 0-3.13 1.401-3.13 3.13s1.401 3.13 3.13 3.13 3.13-1.401 3.13-3.13-1.401-3.13-3.13-3.13z"/><path d="m418.385 457.616c-1.728 0-3.13 1.401-3.13 3.13s1.401 3.13 3.13 3.13 3.13-1.402 3.13-3.13c0-1.729-1.401-3.13-3.13-3.13z"/><path d="m407.917 468.085c-1.729 0-3.13 1.402-3.13 3.13 0 1.729 1.401 3.13 3.13 3.13s3.13-1.401 3.13-3.13-1.402-3.13-3.13-3.13z"/><path d="m418.385 477.794c-1.728 0-3.13 1.401-3.13 3.13s1.401 3.13 3.13 3.13 3.13-1.402 3.13-3.13c0-1.729-1.401-3.13-3.13-3.13z"/><path d="m407.917 488.262c-1.729 0-3.13 1.401-3.13 3.13s1.401 3.13 3.13 3.13 3.13-1.402 3.13-3.13-1.402-3.13-3.13-3.13z"/><path d="m418.385 497.971c-1.728 0-3.13 1.401-3.13 3.13s1.401 3.13 3.13 3.13 3.13-1.401 3.13-3.13-1.401-3.13-3.13-3.13z"/><path d="m387.739 367.196c-1.729 0-3.13 1.402-3.13 3.13 0 1.729 1.401 3.13 3.13 3.13s3.13-1.401 3.13-3.13c0-1.728-1.401-3.13-3.13-3.13z"/><path d="m398.208 376.905c-1.728 0-3.13 1.401-3.13 3.13s1.402 3.13 3.13 3.13c1.729 0 3.13-1.402 3.13-3.13-.001-1.729-1.402-3.13-3.13-3.13z"/><path d="m387.739 387.374c-1.729 0-3.13 1.402-3.13 3.13 0 1.729 1.401 3.13 3.13 3.13s3.13-1.401 3.13-3.13c0-1.728-1.401-3.13-3.13-3.13z"/><path d="m398.208 397.083c-1.728 0-3.13 1.401-3.13 3.13s1.402 3.13 3.13 3.13c1.729 0 3.13-1.402 3.13-3.13-.001-1.729-1.402-3.13-3.13-3.13z"/><path d="m387.739 407.552c-1.729 0-3.13 1.401-3.13 3.13s1.401 3.13 3.13 3.13 3.13-1.402 3.13-3.13c0-1.729-1.401-3.13-3.13-3.13z"/><path d="m398.208 417.261c-1.728 0-3.13 1.401-3.13 3.13s1.402 3.13 3.13 3.13c1.729 0 3.13-1.401 3.13-3.13s-1.402-3.13-3.13-3.13z"/><path d="m387.739 427.729c-1.729 0-3.13 1.401-3.13 3.13s1.401 3.13 3.13 3.13 3.13-1.402 3.13-3.13-1.401-3.13-3.13-3.13z"/><path d="m398.208 437.438c-1.728 0-3.13 1.401-3.13 3.13s1.402 3.13 3.13 3.13c1.729 0 3.13-1.401 3.13-3.13s-1.402-3.13-3.13-3.13z"/><path d="m398.208 457.616c-1.728 0-3.13 1.401-3.13 3.13s1.402 3.13 3.13 3.13c1.729 0 3.13-1.402 3.13-3.13-.001-1.729-1.402-3.13-3.13-3.13z"/><path d="m387.739 468.085c-1.729 0-3.13 1.402-3.13 3.13 0 1.729 1.401 3.13 3.13 3.13s3.13-1.401 3.13-3.13-1.401-3.13-3.13-3.13z"/><path d="m398.208 477.794c-1.728 0-3.13 1.401-3.13 3.13s1.402 3.13 3.13 3.13c1.729 0 3.13-1.402 3.13-3.13-.001-1.729-1.402-3.13-3.13-3.13z"/><path d="m387.739 488.262c-1.729 0-3.13 1.401-3.13 3.13s1.401 3.13 3.13 3.13 3.13-1.402 3.13-3.13-1.401-3.13-3.13-3.13z"/><path d="m398.208 497.971c-1.728 0-3.13 1.401-3.13 3.13s1.402 3.13 3.13 3.13c1.729 0 3.13-1.401 3.13-3.13s-1.402-3.13-3.13-3.13z"/><path d="m367.561 367.196c-1.729 0-3.13 1.402-3.13 3.13 0 1.729 1.401 3.13 3.13 3.13s3.13-1.401 3.13-3.13c0-1.728-1.401-3.13-3.13-3.13z"/><path d="m378.03 376.905c-1.728 0-3.13 1.401-3.13 3.13s1.402 3.13 3.13 3.13c1.729 0 3.13-1.402 3.13-3.13 0-1.729-1.401-3.13-3.13-3.13z"/><path d="m367.561 387.374c-1.729 0-3.13 1.402-3.13 3.13 0 1.729 1.401 3.13 3.13 3.13s3.13-1.401 3.13-3.13c0-1.728-1.401-3.13-3.13-3.13z"/><path d="m378.03 397.083c-1.728 0-3.13 1.401-3.13 3.13s1.402 3.13 3.13 3.13c1.729 0 3.13-1.402 3.13-3.13 0-1.729-1.401-3.13-3.13-3.13z"/><path d="m367.561 407.552c-1.729 0-3.13 1.401-3.13 3.13s1.401 3.13 3.13 3.13 3.13-1.402 3.13-3.13c0-1.729-1.401-3.13-3.13-3.13z"/><path d="m378.03 417.261c-1.728 0-3.13 1.401-3.13 3.13s1.402 3.13 3.13 3.13c1.729 0 3.13-1.401 3.13-3.13s-1.401-3.13-3.13-3.13z"/><path d="m367.561 427.729c-1.729 0-3.13 1.401-3.13 3.13s1.401 3.13 3.13 3.13 3.13-1.402 3.13-3.13-1.401-3.13-3.13-3.13z"/><path d="m378.03 437.438c-1.728 0-3.13 1.401-3.13 3.13s1.402 3.13 3.13 3.13c1.729 0 3.13-1.401 3.13-3.13s-1.401-3.13-3.13-3.13z"/><path d="m378.03 457.616c-1.728 0-3.13 1.401-3.13 3.13s1.402 3.13 3.13 3.13c1.729 0 3.13-1.402 3.13-3.13 0-1.729-1.401-3.13-3.13-3.13z"/><path d="m367.561 468.085c-1.729 0-3.13 1.402-3.13 3.13 0 1.729 1.401 3.13 3.13 3.13s3.13-1.401 3.13-3.13-1.401-3.13-3.13-3.13z"/><path d="m378.03 477.794c-1.728 0-3.13 1.401-3.13 3.13s1.402 3.13 3.13 3.13c1.729 0 3.13-1.402 3.13-3.13 0-1.729-1.401-3.13-3.13-3.13z"/><path d="m367.561 488.262c-1.729 0-3.13 1.401-3.13 3.13s1.401 3.13 3.13 3.13 3.13-1.402 3.13-3.13-1.401-3.13-3.13-3.13z"/><path d="m378.03 497.971c-1.728 0-3.13 1.401-3.13 3.13s1.402 3.13 3.13 3.13c1.729 0 3.13-1.401 3.13-3.13s-1.401-3.13-3.13-3.13z"/><path d="m357.852 504.231c1.729 0 3.13-1.401 3.13-3.13s-1.401-3.13-3.13-3.13c-1.728 0-3.13 1.401-3.13 3.13s1.402 3.13 3.13 3.13z"/></g><path d="m154.496 450.458h-20.686c-4.08 0-7.388-3.308-7.388-7.388v-19.683c0-4.08 3.308-7.388 7.388-7.388h20.686c4.08 0 7.388 3.308 7.388 7.388v19.683c0 4.081-3.307 7.388-7.388 7.388z" fill="#f9fbfc"/><path d="m88.984 454.494h-20.555c-6.335 0-11.489-5.154-11.489-11.489v-19.552c0-6.335 5.154-11.489 11.489-11.489h20.555c6.335 0 11.489 5.154 11.489 11.489v19.552c0 6.335-5.154 11.489-11.489 11.489zm-20.555-34.459c-1.885 0-3.418 1.533-3.418 3.418v19.552c0 1.885 1.533 3.418 3.418 3.418h20.555c1.885 0 3.418-1.533 3.418-3.418v-19.552c0-1.885-1.533-3.418-3.418-3.418z" fill="#31373d"/><path d="m154.431 454.494h-20.556c-6.335 0-11.489-5.154-11.489-11.489v-19.552c0-6.335 5.154-11.489 11.489-11.489h20.556c6.335 0 11.489 5.154 11.489 11.489v19.552c0 6.335-5.154 11.489-11.489 11.489zm-20.556-34.459c-1.885 0-3.418 1.533-3.418 3.418v19.552c0 1.885 1.533 3.418 3.418 3.418h20.556c1.885 0 3.418-1.533 3.418-3.418v-19.552c0-1.885-1.533-3.418-3.418-3.418z" fill="#31373d"/><path d="m385.684 294.564h-260.615c-15.881 0-28.755-12.874-28.755-28.755v-194.664c0-15.881 12.874-28.755 28.756-28.755h260.615c15.881 0 28.755 12.874 28.755 28.755v194.663c0 15.881-12.875 28.756-28.756 28.756z" fill="#e9c278"/><g fill="#f9fbfc"><path d="m447.874 24.176c-1.729 0-3.13 1.401-3.13 3.13s1.401 3.13 3.13 3.13 3.13-1.401 3.13-3.13c0-1.728-1.401-3.13-3.13-3.13z"/><path d="m447.874 44.354c-1.729 0-3.13 1.402-3.13 3.13s1.401 3.13 3.13 3.13 3.13-1.401 3.13-3.13-1.401-3.13-3.13-3.13z"/><path d="m447.874 64.532c-1.729 0-3.13 1.401-3.13 3.13s1.401 3.13 3.13 3.13 3.13-1.401 3.13-3.13-1.401-3.13-3.13-3.13z"/><path d="m447.874 84.709c-1.729 0-3.13 1.402-3.13 3.13s1.401 3.13 3.13 3.13 3.13-1.401 3.13-3.13-1.401-3.13-3.13-3.13z"/><path d="m447.874 104.887c-1.729 0-3.13 1.401-3.13 3.13s1.401 3.13 3.13 3.13 3.13-1.401 3.13-3.13-1.401-3.13-3.13-3.13z"/><path d="m447.874 125.064c-1.729 0-3.13 1.402-3.13 3.13 0 1.729 1.401 3.13 3.13 3.13s3.13-1.401 3.13-3.13c0-1.728-1.401-3.13-3.13-3.13z"/><path d="m447.874 145.242c-1.729 0-3.13 1.402-3.13 3.13 0 1.729 1.401 3.13 3.13 3.13s3.13-1.401 3.13-3.13c0-1.728-1.401-3.13-3.13-3.13z"/><path d="m447.874 165.42c-1.729 0-3.13 1.402-3.13 3.13 0 1.729 1.401 3.13 3.13 3.13s3.13-1.401 3.13-3.13-1.401-3.13-3.13-3.13z"/><path d="m447.874 185.597c-1.729 0-3.13 1.402-3.13 3.13 0 1.729 1.401 3.13 3.13 3.13s3.13-1.401 3.13-3.13c0-1.728-1.401-3.13-3.13-3.13z"/><path d="m447.874 205.775c-1.729 0-3.13 1.402-3.13 3.13 0 1.729 1.401 3.13 3.13 3.13s3.13-1.401 3.13-3.13c0-1.728-1.401-3.13-3.13-3.13z"/><path d="m447.874 225.953c-1.729 0-3.13 1.402-3.13 3.13 0 1.729 1.401 3.13 3.13 3.13s3.13-1.401 3.13-3.13-1.401-3.13-3.13-3.13z"/><path d="m447.874 246.13c-1.729 0-3.13 1.402-3.13 3.13 0 1.729 1.401 3.13 3.13 3.13s3.13-1.401 3.13-3.13c0-1.728-1.401-3.13-3.13-3.13z"/><path d="m447.874 266.308c-1.729 0-3.13 1.401-3.13 3.13s1.401 3.13 3.13 3.13 3.13-1.401 3.13-3.13c0-1.728-1.401-3.13-3.13-3.13z"/><path d="m447.874 286.486c-1.729 0-3.13 1.402-3.13 3.13 0 1.729 1.401 3.13 3.13 3.13s3.13-1.401 3.13-3.13-1.401-3.13-3.13-3.13z"/><path d="m447.874 306.663c-1.729 0-3.13 1.401-3.13 3.13s1.401 3.13 3.13 3.13 3.13-1.401 3.13-3.13-1.401-3.13-3.13-3.13z"/><path d="m424.567 7.129c0 1.729 1.401 3.13 3.13 3.13s3.13-1.401 3.13-3.13c0-1.484-1.035-2.72-2.421-3.042-.395-.023-.793-.033-1.192-.039-1.498.233-2.647 1.518-2.647 3.081z"/><path d="m438.165 13.708c-1.728 0-3.13 1.402-3.13 3.13s1.402 3.13 3.13 3.13c1.729 0 3.13-1.401 3.13-3.13s-1.401-3.13-3.13-3.13z"/><path d="m427.697 24.176c-1.729 0-3.13 1.401-3.13 3.13s1.401 3.13 3.13 3.13 3.13-1.401 3.13-3.13c0-1.728-1.402-3.13-3.13-3.13z"/><path d="m438.165 33.885c-1.728 0-3.13 1.402-3.13 3.13s1.402 3.13 3.13 3.13c1.729 0 3.13-1.401 3.13-3.13s-1.401-3.13-3.13-3.13z"/><path d="m427.697 44.354c-1.729 0-3.13 1.402-3.13 3.13s1.401 3.13 3.13 3.13 3.13-1.401 3.13-3.13-1.402-3.13-3.13-3.13z"/><path d="m438.165 54.063c-1.728 0-3.13 1.402-3.13 3.13s1.402 3.13 3.13 3.13c1.729 0 3.13-1.401 3.13-3.13s-1.401-3.13-3.13-3.13z"/><path d="m427.697 64.532c-1.729 0-3.13 1.401-3.13 3.13s1.401 3.13 3.13 3.13 3.13-1.401 3.13-3.13-1.402-3.13-3.13-3.13z"/><path d="m438.165 74.241c-1.728 0-3.13 1.401-3.13 3.13s1.402 3.13 3.13 3.13c1.729 0 3.13-1.401 3.13-3.13s-1.401-3.13-3.13-3.13z"/><path d="m427.697 84.709c-1.729 0-3.13 1.402-3.13 3.13s1.401 3.13 3.13 3.13 3.13-1.401 3.13-3.13-1.402-3.13-3.13-3.13z"/><path d="m438.165 94.418c-1.728 0-3.13 1.402-3.13 3.13s1.402 3.13 3.13 3.13c1.729 0 3.13-1.401 3.13-3.13s-1.401-3.13-3.13-3.13z"/><path d="m427.697 104.887c-1.729 0-3.13 1.401-3.13 3.13s1.401 3.13 3.13 3.13 3.13-1.401 3.13-3.13-1.402-3.13-3.13-3.13z"/><path d="m438.165 114.596c-1.728 0-3.13 1.401-3.13 3.13s1.402 3.13 3.13 3.13c1.729 0 3.13-1.401 3.13-3.13s-1.401-3.13-3.13-3.13z"/><path d="m427.697 125.064c-1.729 0-3.13 1.402-3.13 3.13 0 1.729 1.401 3.13 3.13 3.13s3.13-1.401 3.13-3.13c0-1.728-1.402-3.13-3.13-3.13z"/><path d="m438.165 134.773c-1.728 0-3.13 1.402-3.13 3.13 0 1.729 1.402 3.13 3.13 3.13 1.729 0 3.13-1.401 3.13-3.13 0-1.728-1.401-3.13-3.13-3.13z"/><path d="m427.697 145.242c-1.729 0-3.13 1.402-3.13 3.13 0 1.729 1.401 3.13 3.13 3.13s3.13-1.401 3.13-3.13c0-1.728-1.402-3.13-3.13-3.13z"/><path d="m438.165 154.951c-1.728 0-3.13 1.402-3.13 3.13 0 1.729 1.402 3.13 3.13 3.13 1.729 0 3.13-1.401 3.13-3.13 0-1.728-1.401-3.13-3.13-3.13z"/><path d="m427.697 165.42c-1.729 0-3.13 1.402-3.13 3.13 0 1.729 1.401 3.13 3.13 3.13s3.13-1.401 3.13-3.13-1.402-3.13-3.13-3.13z"/><path d="m438.165 175.129c-1.728 0-3.13 1.402-3.13 3.13 0 1.729 1.402 3.13 3.13 3.13 1.729 0 3.13-1.401 3.13-3.13s-1.401-3.13-3.13-3.13z"/><path d="m427.697 185.597c-1.729 0-3.13 1.402-3.13 3.13 0 1.729 1.401 3.13 3.13 3.13s3.13-1.401 3.13-3.13c0-1.728-1.402-3.13-3.13-3.13z"/><path d="m438.165 195.307c-1.728 0-3.13 1.401-3.13 3.13s1.402 3.13 3.13 3.13c1.729 0 3.13-1.401 3.13-3.13s-1.401-3.13-3.13-3.13z"/><path d="m427.697 205.775c-1.729 0-3.13 1.402-3.13 3.13 0 1.729 1.401 3.13 3.13 3.13s3.13-1.401 3.13-3.13c0-1.728-1.402-3.13-3.13-3.13z"/><path d="m438.165 215.484c-1.728 0-3.13 1.402-3.13 3.13 0 1.729 1.402 3.13 3.13 3.13 1.729 0 3.13-1.401 3.13-3.13 0-1.728-1.401-3.13-3.13-3.13z"/><path d="m427.697 225.953c-1.729 0-3.13 1.402-3.13 3.13 0 1.729 1.401 3.13 3.13 3.13s3.13-1.401 3.13-3.13-1.402-3.13-3.13-3.13z"/><path d="m438.165 235.662c-1.728 0-3.13 1.401-3.13 3.13s1.402 3.13 3.13 3.13c1.729 0 3.13-1.401 3.13-3.13s-1.401-3.13-3.13-3.13z"/><path d="m427.697 246.13c-1.729 0-3.13 1.402-3.13 3.13 0 1.729 1.401 3.13 3.13 3.13s3.13-1.401 3.13-3.13c0-1.728-1.402-3.13-3.13-3.13z"/><path d="m438.165 255.839c-1.728 0-3.13 1.402-3.13 3.13 0 1.729 1.402 3.13 3.13 3.13 1.729 0 3.13-1.401 3.13-3.13 0-1.728-1.401-3.13-3.13-3.13z"/><path d="m427.697 266.308c-1.729 0-3.13 1.401-3.13 3.13s1.401 3.13 3.13 3.13 3.13-1.401 3.13-3.13c0-1.728-1.402-3.13-3.13-3.13z"/><path d="m438.165 276.017c-1.728 0-3.13 1.402-3.13 3.13 0 1.729 1.402 3.13 3.13 3.13 1.729 0 3.13-1.401 3.13-3.13 0-1.728-1.401-3.13-3.13-3.13z"/><path d="m427.697 286.486c-1.729 0-3.13 1.402-3.13 3.13 0 1.729 1.401 3.13 3.13 3.13s3.13-1.401 3.13-3.13-1.402-3.13-3.13-3.13z"/><path d="m438.165 296.195c-1.728 0-3.13 1.401-3.13 3.13s1.402 3.13 3.13 3.13c1.729 0 3.13-1.401 3.13-3.13s-1.401-3.13-3.13-3.13z"/><path d="m427.697 306.663c-1.729 0-3.13 1.401-3.13 3.13s1.401 3.13 3.13 3.13 3.13-1.401 3.13-3.13-1.402-3.13-3.13-3.13z"/><path d="m438.165 316.372c-1.728 0-3.13 1.401-3.13 3.13s1.402 3.13 3.13 3.13c1.729 0 3.13-1.401 3.13-3.13s-1.401-3.13-3.13-3.13z"/><path d="m430.827 329.971c0-1.729-1.401-3.13-3.13-3.13s-3.13 1.401-3.13 3.13c0 1.371.887 2.523 2.113 2.946h.058c.753 0 1.497-.038 2.235-.094 1.091-.489 1.854-1.58 1.854-2.852z"/><path d="m404.389 7.129c0 1.729 1.401 3.13 3.13 3.13s3.13-1.401 3.13-3.13c0-1.604-1.211-2.91-2.765-3.093h-.729c-1.555.182-2.766 1.489-2.766 3.093z"/><path d="m417.988 13.708c-1.728 0-3.13 1.402-3.13 3.13s1.401 3.13 3.13 3.13 3.13-1.401 3.13-3.13-1.402-3.13-3.13-3.13z"/><path d="m407.519 24.176c-1.729 0-3.13 1.401-3.13 3.13s1.401 3.13 3.13 3.13 3.13-1.401 3.13-3.13c0-1.728-1.401-3.13-3.13-3.13z"/><path d="m417.988 33.885c-1.728 0-3.13 1.402-3.13 3.13s1.401 3.13 3.13 3.13 3.13-1.401 3.13-3.13-1.402-3.13-3.13-3.13z"/><path d="m407.519 44.354c-1.729 0-3.13 1.402-3.13 3.13s1.401 3.13 3.13 3.13 3.13-1.401 3.13-3.13-1.401-3.13-3.13-3.13z"/><path d="m417.988 54.063c-1.728 0-3.13 1.402-3.13 3.13s1.401 3.13 3.13 3.13 3.13-1.401 3.13-3.13-1.402-3.13-3.13-3.13z"/><path d="m407.519 64.532c-1.729 0-3.13 1.401-3.13 3.13s1.401 3.13 3.13 3.13 3.13-1.401 3.13-3.13-1.401-3.13-3.13-3.13z"/><path d="m417.988 74.241c-1.728 0-3.13 1.401-3.13 3.13s1.401 3.13 3.13 3.13 3.13-1.401 3.13-3.13-1.402-3.13-3.13-3.13z"/><path d="m407.519 84.709c-1.729 0-3.13 1.402-3.13 3.13s1.401 3.13 3.13 3.13 3.13-1.401 3.13-3.13-1.401-3.13-3.13-3.13z"/><path d="m417.988 94.418c-1.728 0-3.13 1.402-3.13 3.13s1.401 3.13 3.13 3.13 3.13-1.401 3.13-3.13-1.402-3.13-3.13-3.13z"/><path d="m407.519 104.887c-1.729 0-3.13 1.401-3.13 3.13s1.401 3.13 3.13 3.13 3.13-1.401 3.13-3.13-1.401-3.13-3.13-3.13z"/><path d="m417.988 114.596c-1.728 0-3.13 1.401-3.13 3.13s1.401 3.13 3.13 3.13 3.13-1.401 3.13-3.13-1.402-3.13-3.13-3.13z"/><path d="m407.519 125.064c-1.729 0-3.13 1.402-3.13 3.13 0 1.729 1.401 3.13 3.13 3.13s3.13-1.401 3.13-3.13c0-1.728-1.401-3.13-3.13-3.13z"/><path d="m417.988 134.773c-1.728 0-3.13 1.402-3.13 3.13 0 1.729 1.401 3.13 3.13 3.13s3.13-1.401 3.13-3.13c0-1.728-1.402-3.13-3.13-3.13z"/><path d="m407.519 145.242c-1.729 0-3.13 1.402-3.13 3.13 0 1.729 1.401 3.13 3.13 3.13s3.13-1.401 3.13-3.13c0-1.728-1.401-3.13-3.13-3.13z"/><path d="m417.988 154.951c-1.728 0-3.13 1.402-3.13 3.13 0 1.729 1.401 3.13 3.13 3.13s3.13-1.401 3.13-3.13c0-1.728-1.402-3.13-3.13-3.13z"/><path d="m407.519 165.42c-1.729 0-3.13 1.402-3.13 3.13 0 1.729 1.401 3.13 3.13 3.13s3.13-1.401 3.13-3.13-1.401-3.13-3.13-3.13z"/><path d="m417.988 175.129c-1.728 0-3.13 1.402-3.13 3.13 0 1.729 1.401 3.13 3.13 3.13s3.13-1.401 3.13-3.13-1.402-3.13-3.13-3.13z"/><path d="m407.519 185.597c-1.729 0-3.13 1.402-3.13 3.13 0 1.729 1.401 3.13 3.13 3.13s3.13-1.401 3.13-3.13c0-1.728-1.401-3.13-3.13-3.13z"/><path d="m417.988 195.307c-1.728 0-3.13 1.401-3.13 3.13s1.401 3.13 3.13 3.13 3.13-1.401 3.13-3.13-1.402-3.13-3.13-3.13z"/><path d="m407.519 205.775c-1.729 0-3.13 1.402-3.13 3.13 0 1.729 1.401 3.13 3.13 3.13s3.13-1.401 3.13-3.13c0-1.728-1.401-3.13-3.13-3.13z"/><path d="m417.988 215.484c-1.728 0-3.13 1.402-3.13 3.13 0 1.729 1.401 3.13 3.13 3.13s3.13-1.401 3.13-3.13c0-1.728-1.402-3.13-3.13-3.13z"/><path d="m407.519 225.953c-1.729 0-3.13 1.402-3.13 3.13 0 1.729 1.401 3.13 3.13 3.13s3.13-1.401 3.13-3.13-1.401-3.13-3.13-3.13z"/><path d="m417.988 235.662c-1.728 0-3.13 1.401-3.13 3.13s1.401 3.13 3.13 3.13 3.13-1.401 3.13-3.13-1.402-3.13-3.13-3.13z"/><path d="m407.519 246.13c-1.729 0-3.13 1.402-3.13 3.13 0 1.729 1.401 3.13 3.13 3.13s3.13-1.401 3.13-3.13c0-1.728-1.401-3.13-3.13-3.13z"/><path d="m417.988 255.839c-1.728 0-3.13 1.402-3.13 3.13 0 1.729 1.401 3.13 3.13 3.13s3.13-1.401 3.13-3.13c0-1.728-1.402-3.13-3.13-3.13z"/><path d="m407.519 266.308c-1.729 0-3.13 1.401-3.13 3.13s1.401 3.13 3.13 3.13 3.13-1.401 3.13-3.13c0-1.728-1.401-3.13-3.13-3.13z"/><path d="m417.988 276.017c-1.728 0-3.13 1.402-3.13 3.13 0 1.729 1.401 3.13 3.13 3.13s3.13-1.401 3.13-3.13c0-1.728-1.402-3.13-3.13-3.13z"/><path d="m407.519 286.486c-1.729 0-3.13 1.402-3.13 3.13 0 1.729 1.401 3.13 3.13 3.13s3.13-1.401 3.13-3.13-1.401-3.13-3.13-3.13z"/><path d="m417.988 296.195c-1.728 0-3.13 1.401-3.13 3.13s1.401 3.13 3.13 3.13 3.13-1.401 3.13-3.13-1.402-3.13-3.13-3.13z"/><path d="m407.519 306.663c-1.729 0-3.13 1.401-3.13 3.13s1.401 3.13 3.13 3.13 3.13-1.401 3.13-3.13-1.401-3.13-3.13-3.13z"/><path d="m417.988 316.372c-1.728 0-3.13 1.401-3.13 3.13s1.401 3.13 3.13 3.13 3.13-1.401 3.13-3.13-1.402-3.13-3.13-3.13z"/><path d="m410.649 329.971c0-1.729-1.401-3.13-3.13-3.13s-3.13 1.401-3.13 3.13c0 1.371.887 2.523 2.113 2.946h2.034c1.226-.423 2.113-1.575 2.113-2.946z"/><path d="m384.212 7.129c0 1.729 1.401 3.13 3.13 3.13s3.13-1.401 3.13-3.13c0-1.604-1.211-2.91-2.765-3.093h-.729c-1.556.182-2.766 1.489-2.766 3.093z"/><path d="m397.81 13.708c-1.728 0-3.13 1.402-3.13 3.13s1.401 3.13 3.13 3.13 3.13-1.401 3.13-3.13-1.401-3.13-3.13-3.13z"/><path d="m387.341 24.176c-1.729 0-3.13 1.401-3.13 3.13s1.401 3.13 3.13 3.13 3.13-1.401 3.13-3.13c0-1.728-1.401-3.13-3.13-3.13z"/><path d="m397.81 33.885c-1.728 0-3.13 1.402-3.13 3.13s1.401 3.13 3.13 3.13 3.13-1.401 3.13-3.13-1.401-3.13-3.13-3.13z"/><path d="m387.341 44.354c-1.729 0-3.13 1.402-3.13 3.13s1.401 3.13 3.13 3.13 3.13-1.401 3.13-3.13-1.401-3.13-3.13-3.13z"/><path d="m397.81 54.063c-1.728 0-3.13 1.402-3.13 3.13s1.401 3.13 3.13 3.13 3.13-1.401 3.13-3.13-1.401-3.13-3.13-3.13z"/><path d="m387.341 64.532c-1.729 0-3.13 1.401-3.13 3.13s1.401 3.13 3.13 3.13 3.13-1.401 3.13-3.13-1.401-3.13-3.13-3.13z"/><path d="m397.81 74.241c-1.728 0-3.13 1.401-3.13 3.13s1.401 3.13 3.13 3.13 3.13-1.401 3.13-3.13-1.401-3.13-3.13-3.13z"/><path d="m387.341 84.709c-1.729 0-3.13 1.402-3.13 3.13s1.401 3.13 3.13 3.13 3.13-1.401 3.13-3.13-1.401-3.13-3.13-3.13z"/><path d="m397.81 94.418c-1.728 0-3.13 1.402-3.13 3.13s1.401 3.13 3.13 3.13 3.13-1.401 3.13-3.13-1.401-3.13-3.13-3.13z"/><path d="m387.341 104.887c-1.729 0-3.13 1.401-3.13 3.13s1.401 3.13 3.13 3.13 3.13-1.401 3.13-3.13-1.401-3.13-3.13-3.13z"/><path d="m397.81 114.596c-1.728 0-3.13 1.401-3.13 3.13s1.401 3.13 3.13 3.13 3.13-1.401 3.13-3.13-1.401-3.13-3.13-3.13z"/><path d="m387.341 125.064c-1.729 0-3.13 1.402-3.13 3.13 0 1.729 1.401 3.13 3.13 3.13s3.13-1.401 3.13-3.13c0-1.728-1.401-3.13-3.13-3.13z"/><path d="m397.81 134.773c-1.728 0-3.13 1.402-3.13 3.13 0 1.729 1.401 3.13 3.13 3.13s3.13-1.401 3.13-3.13c0-1.728-1.401-3.13-3.13-3.13z"/><path d="m387.341 145.242c-1.729 0-3.13 1.402-3.13 3.13 0 1.729 1.401 3.13 3.13 3.13s3.13-1.401 3.13-3.13c0-1.728-1.401-3.13-3.13-3.13z"/><path d="m397.81 154.951c-1.728 0-3.13 1.402-3.13 3.13 0 1.729 1.401 3.13 3.13 3.13s3.13-1.401 3.13-3.13c0-1.728-1.401-3.13-3.13-3.13z"/><path d="m387.341 165.42c-1.729 0-3.13 1.402-3.13 3.13 0 1.729 1.401 3.13 3.13 3.13s3.13-1.401 3.13-3.13-1.401-3.13-3.13-3.13z"/><path d="m397.81 175.129c-1.728 0-3.13 1.402-3.13 3.13 0 1.729 1.401 3.13 3.13 3.13s3.13-1.401 3.13-3.13-1.401-3.13-3.13-3.13z"/><path d="m387.341 185.597c-1.729 0-3.13 1.402-3.13 3.13 0 1.729 1.401 3.13 3.13 3.13s3.13-1.401 3.13-3.13c0-1.728-1.401-3.13-3.13-3.13z"/><path d="m397.81 195.307c-1.728 0-3.13 1.401-3.13 3.13s1.401 3.13 3.13 3.13 3.13-1.401 3.13-3.13-1.401-3.13-3.13-3.13z"/><path d="m387.341 205.775c-1.729 0-3.13 1.402-3.13 3.13 0 1.729 1.401 3.13 3.13 3.13s3.13-1.401 3.13-3.13c0-1.728-1.401-3.13-3.13-3.13z"/><path d="m397.81 215.484c-1.728 0-3.13 1.402-3.13 3.13 0 1.729 1.401 3.13 3.13 3.13s3.13-1.401 3.13-3.13c0-1.728-1.401-3.13-3.13-3.13z"/><path d="m387.341 225.953c-1.729 0-3.13 1.402-3.13 3.13 0 1.729 1.401 3.13 3.13 3.13s3.13-1.401 3.13-3.13-1.401-3.13-3.13-3.13z"/><path d="m397.81 235.662c-1.728 0-3.13 1.401-3.13 3.13s1.401 3.13 3.13 3.13 3.13-1.401 3.13-3.13-1.401-3.13-3.13-3.13z"/><path d="m387.341 246.13c-1.729 0-3.13 1.402-3.13 3.13 0 1.729 1.401 3.13 3.13 3.13s3.13-1.401 3.13-3.13c0-1.728-1.401-3.13-3.13-3.13z"/><path d="m397.81 255.839c-1.728 0-3.13 1.402-3.13 3.13 0 1.729 1.401 3.13 3.13 3.13s3.13-1.401 3.13-3.13c0-1.728-1.401-3.13-3.13-3.13z"/><path d="m387.341 266.308c-1.729 0-3.13 1.401-3.13 3.13s1.401 3.13 3.13 3.13 3.13-1.401 3.13-3.13c0-1.728-1.401-3.13-3.13-3.13z"/><path d="m397.81 276.017c-1.728 0-3.13 1.402-3.13 3.13 0 1.729 1.401 3.13 3.13 3.13s3.13-1.401 3.13-3.13c0-1.728-1.401-3.13-3.13-3.13z"/><path d="m387.341 286.486c-1.729 0-3.13 1.402-3.13 3.13 0 1.729 1.401 3.13 3.13 3.13s3.13-1.401 3.13-3.13-1.401-3.13-3.13-3.13z"/><path d="m397.81 296.195c-1.728 0-3.13 1.401-3.13 3.13s1.401 3.13 3.13 3.13 3.13-1.401 3.13-3.13-1.401-3.13-3.13-3.13z"/><path d="m387.341 306.663c-1.729 0-3.13 1.401-3.13 3.13s1.401 3.13 3.13 3.13 3.13-1.401 3.13-3.13-1.401-3.13-3.13-3.13z"/><path d="m397.81 316.372c-1.728 0-3.13 1.401-3.13 3.13s1.401 3.13 3.13 3.13 3.13-1.401 3.13-3.13-1.401-3.13-3.13-3.13z"/><path d="m390.471 329.971c0-1.729-1.401-3.13-3.13-3.13s-3.13 1.401-3.13 3.13c0 1.371.887 2.523 2.113 2.946h2.033c1.228-.423 2.114-1.575 2.114-2.946z"/><path d="m364.034 7.129c0 1.729 1.401 3.13 3.13 3.13s3.13-1.401 3.13-3.13c0-1.604-1.211-2.91-2.765-3.093h-.729c-1.555.182-2.766 1.489-2.766 3.093z"/><path d="m377.632 13.708c-1.728 0-3.13 1.402-3.13 3.13s1.402 3.13 3.13 3.13c1.729 0 3.13-1.401 3.13-3.13s-1.401-3.13-3.13-3.13z"/><path d="m367.164 24.176c-1.729 0-3.13 1.401-3.13 3.13s1.401 3.13 3.13 3.13 3.13-1.401 3.13-3.13c0-1.728-1.402-3.13-3.13-3.13z"/><path d="m357.414 13.705c-1.729 0-3.13 1.401-3.13 3.13s1.401 3.13 3.13 3.13 3.13-1.401 3.13-3.13-1.401-3.13-3.13-3.13z"/><path d="m377.632 33.885c-1.728 0-3.13 1.402-3.13 3.13s1.402 3.13 3.13 3.13c1.729 0 3.13-1.401 3.13-3.13s-1.401-3.13-3.13-3.13z"/><path d="m367.164 44.354c-1.729 0-3.13 1.402-3.13 3.13s1.401 3.13 3.13 3.13 3.13-1.401 3.13-3.13-1.402-3.13-3.13-3.13z"/><path d="m377.632 54.063c-1.728 0-3.13 1.402-3.13 3.13s1.402 3.13 3.13 3.13c1.729 0 3.13-1.401 3.13-3.13s-1.401-3.13-3.13-3.13z"/><path d="m367.164 64.532c-1.729 0-3.13 1.401-3.13 3.13s1.401 3.13 3.13 3.13 3.13-1.401 3.13-3.13-1.402-3.13-3.13-3.13z"/><path d="m377.632 74.241c-1.728 0-3.13 1.401-3.13 3.13s1.402 3.13 3.13 3.13c1.729 0 3.13-1.401 3.13-3.13s-1.401-3.13-3.13-3.13z"/><path d="m367.164 84.709c-1.729 0-3.13 1.402-3.13 3.13s1.401 3.13 3.13 3.13 3.13-1.401 3.13-3.13-1.402-3.13-3.13-3.13z"/><path d="m377.632 94.418c-1.728 0-3.13 1.402-3.13 3.13s1.402 3.13 3.13 3.13c1.729 0 3.13-1.401 3.13-3.13s-1.401-3.13-3.13-3.13z"/><path d="m367.164 104.887c-1.729 0-3.13 1.401-3.13 3.13s1.401 3.13 3.13 3.13 3.13-1.401 3.13-3.13-1.402-3.13-3.13-3.13z"/><path d="m377.632 114.596c-1.728 0-3.13 1.401-3.13 3.13s1.402 3.13 3.13 3.13c1.729 0 3.13-1.401 3.13-3.13s-1.401-3.13-3.13-3.13z"/><path d="m367.164 125.064c-1.729 0-3.13 1.402-3.13 3.13 0 1.729 1.401 3.13 3.13 3.13s3.13-1.401 3.13-3.13c0-1.728-1.402-3.13-3.13-3.13z"/><path d="m377.632 134.773c-1.728 0-3.13 1.402-3.13 3.13 0 1.729 1.402 3.13 3.13 3.13 1.729 0 3.13-1.401 3.13-3.13 0-1.728-1.401-3.13-3.13-3.13z"/><path d="m367.164 145.242c-1.729 0-3.13 1.402-3.13 3.13 0 1.729 1.401 3.13 3.13 3.13s3.13-1.401 3.13-3.13c0-1.728-1.402-3.13-3.13-3.13z"/><path d="m377.632 154.951c-1.728 0-3.13 1.402-3.13 3.13 0 1.729 1.402 3.13 3.13 3.13 1.729 0 3.13-1.401 3.13-3.13 0-1.728-1.401-3.13-3.13-3.13z"/><path d="m367.164 165.42c-1.729 0-3.13 1.402-3.13 3.13 0 1.729 1.401 3.13 3.13 3.13s3.13-1.401 3.13-3.13-1.402-3.13-3.13-3.13z"/><path d="m377.632 175.129c-1.728 0-3.13 1.402-3.13 3.13 0 1.729 1.402 3.13 3.13 3.13 1.729 0 3.13-1.401 3.13-3.13s-1.401-3.13-3.13-3.13z"/><path d="m367.164 185.597c-1.729 0-3.13 1.402-3.13 3.13 0 1.729 1.401 3.13 3.13 3.13s3.13-1.401 3.13-3.13c0-1.728-1.402-3.13-3.13-3.13z"/><path d="m377.632 195.307c-1.728 0-3.13 1.401-3.13 3.13s1.402 3.13 3.13 3.13c1.729 0 3.13-1.401 3.13-3.13s-1.401-3.13-3.13-3.13z"/><path d="m367.164 205.775c-1.729 0-3.13 1.402-3.13 3.13 0 1.729 1.401 3.13 3.13 3.13s3.13-1.401 3.13-3.13c0-1.728-1.402-3.13-3.13-3.13z"/><path d="m377.632 215.484c-1.728 0-3.13 1.402-3.13 3.13 0 1.729 1.402 3.13 3.13 3.13 1.729 0 3.13-1.401 3.13-3.13 0-1.728-1.401-3.13-3.13-3.13z"/><path d="m367.164 225.953c-1.729 0-3.13 1.402-3.13 3.13 0 1.729 1.401 3.13 3.13 3.13s3.13-1.401 3.13-3.13-1.402-3.13-3.13-3.13z"/><path d="m377.632 235.662c-1.728 0-3.13 1.401-3.13 3.13s1.402 3.13 3.13 3.13c1.729 0 3.13-1.401 3.13-3.13s-1.401-3.13-3.13-3.13z"/><path d="m367.164 246.13c-1.729 0-3.13 1.402-3.13 3.13 0 1.729 1.401 3.13 3.13 3.13s3.13-1.401 3.13-3.13c0-1.728-1.402-3.13-3.13-3.13z"/><path d="m377.632 255.839c-1.728 0-3.13 1.402-3.13 3.13 0 1.729 1.402 3.13 3.13 3.13 1.729 0 3.13-1.401 3.13-3.13 0-1.728-1.401-3.13-3.13-3.13z"/><path d="m367.164 266.308c-1.729 0-3.13 1.401-3.13 3.13s1.401 3.13 3.13 3.13 3.13-1.401 3.13-3.13c0-1.728-1.402-3.13-3.13-3.13z"/><path d="m377.632 276.017c-1.728 0-3.13 1.402-3.13 3.13 0 1.729 1.402 3.13 3.13 3.13 1.729 0 3.13-1.401 3.13-3.13 0-1.728-1.401-3.13-3.13-3.13z"/><path d="m367.164 286.486c-1.729 0-3.13 1.402-3.13 3.13 0 1.729 1.401 3.13 3.13 3.13s3.13-1.401 3.13-3.13-1.402-3.13-3.13-3.13z"/><path d="m377.632 296.195c-1.728 0-3.13 1.401-3.13 3.13s1.402 3.13 3.13 3.13c1.729 0 3.13-1.401 3.13-3.13s-1.401-3.13-3.13-3.13z"/><path d="m367.164 306.663c-1.729 0-3.13 1.401-3.13 3.13s1.401 3.13 3.13 3.13 3.13-1.401 3.13-3.13-1.402-3.13-3.13-3.13z"/><path d="m357.44 316.387c-1.729 0-3.13 1.402-3.13 3.13 0 1.729 1.401 3.13 3.13 3.13s3.13-1.401 3.13-3.13c0-1.728-1.401-3.13-3.13-3.13z"/><path d="m377.632 316.372c-1.728 0-3.13 1.401-3.13 3.13s1.402 3.13 3.13 3.13c1.729 0 3.13-1.401 3.13-3.13s-1.401-3.13-3.13-3.13z"/><path d="m370.294 329.971c0-1.729-1.401-3.13-3.13-3.13s-3.13 1.401-3.13 3.13c0 1.371.887 2.523 2.113 2.946h2.034c1.226-.423 2.113-1.575 2.113-2.946z"/></g><path d="m325.138 126.019h-134.095c-3.132 0-5.671 2.538-5.671 5.67v33.559h-33.559c-3.132 0-5.671 2.539-5.671 5.671v83.384c0 3.132 2.539 5.671 5.671 5.671h134.095c3.132 0 5.671-2.539 5.671-5.671v-33.559h33.559c3.132 0 5.671-2.538 5.671-5.671v-83.383c0-3.132-2.539-5.671-5.671-5.671z" fill="#f9fbfc"/><g fill="#31373d"><path d="m432.268 454.494h-149.398c-7.859 0-14.253-6.394-14.253-14.253v-14.023c0-7.859 6.394-14.253 14.253-14.253h149.398c7.859 0 14.253 6.394 14.253 14.253v14.023c0 7.859-6.394 14.253-14.253 14.253zm-149.398-34.459c-3.409 0-6.182 2.773-6.182 6.182v14.023c0 3.409 2.773 6.182 6.182 6.182h149.398c3.409 0 6.182-2.773 6.182-6.182v-14.023c0-3.409-2.773-6.182-6.182-6.182z"/><path d="m455.944 355.704h-83.59v-18.751h54.384c18.222 0 33.047-14.824 33.047-33.046v-270.861c0-18.222-14.825-33.046-33.047-33.046h-342.723c-18.222 0-33.045 14.824-33.045 33.046v270.861c0 18.222 14.824 33.046 33.046 33.046h62.097v18.751h-91.303c-18.58 0-33.696 15.116-33.696 33.696v87.658c0 18.58 15.117 33.696 33.696 33.696h401.134c18.58 0 33.695-15.116 33.695-33.696v-87.658c0-18.58-15.115-33.696-33.695-33.696zm-396.903-51.797v-270.861c0-13.772 11.204-24.975 24.975-24.975h342.723c13.772 0 24.976 11.204 24.976 24.975v270.861c0 13.771-11.204 24.975-24.976 24.975h-342.724c-13.77 0-24.974-11.204-24.974-24.975zm305.242 33.046v18.751h-210.1v-18.751zm117.285 140.105c0 14.129-11.495 25.625-25.624 25.625h-401.134c-14.129 0-25.625-11.495-25.625-25.625v-87.658c0-14.129 11.496-25.624 25.625-25.624h401.134c14.129 0 25.624 11.495 25.624 25.624z"/><path d="m385.429 298.599h-260.104c-18.222 0-33.047-14.824-33.047-33.046v-194.152c0-18.222 14.825-33.047 33.047-33.047h260.104c18.222 0 33.047 14.825 33.047 33.047v194.152c0 18.222-14.825 33.046-33.047 33.046zm-260.104-252.174c-13.772 0-24.976 11.204-24.976 24.976v194.152c0 13.772 11.204 24.975 24.976 24.975h260.104c13.772 0 24.976-11.204 24.976-24.975v-194.152c0-13.772-11.204-24.976-24.976-24.976z"/><path d="m325.138 121.984h-134.095c-5.352 0-9.706 4.354-9.706 9.706v29.523h-29.524c-5.352 0-9.706 4.354-9.706 9.706v83.384c0 5.352 4.354 9.706 9.706 9.706h134.096c5.352 0 9.706-4.354 9.706-9.706v-29.524h29.524c5.352 0 9.706-4.354 9.706-9.706v-83.383c0-5.352-4.355-9.706-9.707-9.706zm-135.73 9.706c0-.902.733-1.635 1.635-1.635h111.767v16.806h-113.402zm98.136 122.613c0 .902-.733 1.635-1.635 1.635h-134.096c-.902 0-1.635-.733-1.635-1.635v-83.384c0-.902.733-1.635 1.635-1.635h29.524v45.789c0 5.352 4.354 9.706 9.706 9.706h96.501zm39.23-39.23c0 .901-.734 1.635-1.635 1.635h-134.096c-.902 0-1.635-.734-1.635-1.635v-60.141h137.366zm0-68.212h-15.893v-16.806h14.257c.901 0 1.635.733 1.635 1.635v15.171z"/></g></g></svg>