<svg width="1270" height="556" viewBox="0 0 1270 556" fill="none" xmlns="http://www.w3.org/2000/svg">
<path d="M1100.15 198.024H988.451V428.655H1100.15V198.024Z" fill="#E6E6E6"/>
<path d="M998.884 416.845H1089.72V209.834H998.884V416.845Z" fill="white"/>
<path d="M1060.31 254.233H1033.79V257.022H1060.31V254.233Z" fill="#E6E6E6"/>
<path d="M1080.02 263.879H1033.79V266.667H1080.02V263.879Z" fill="#E6E6E6"/>
<path d="M1079.98 273.525H1033.79V276.313H1079.98V273.525Z" fill="#E6E6E6"/>
<path d="M1028.29 254.275H1008.58V276.581H1028.29V254.275Z" fill="#E6E6E6"/>
<path d="M1060.31 302.165H1033.79V304.954H1060.31V302.165Z" fill="#E6E6E6"/>
<path d="M1080.02 311.811H1033.79V314.599H1080.02V311.811Z" fill="#E6E6E6"/>
<path d="M1079.98 321.457H1033.79V324.245H1079.98V321.457Z" fill="#E6E6E6"/>
<path d="M1028.29 302.207H1008.58V324.513H1028.29V302.207Z" fill="#E6E6E6"/>
<path d="M1060.31 350.098H1033.79V352.886H1060.31V350.098Z" fill="#E6E6E6"/>
<path d="M1080.02 359.743H1033.79V362.532H1080.02V359.743Z" fill="#E6E6E6"/>
<path d="M1079.98 369.389H1033.79V372.177H1079.98V369.389Z" fill="#E6E6E6"/>
<path d="M1028.29 350.139H1008.58V372.446H1028.29V350.139Z" fill="#E6E6E6"/>
<path d="M788.373 198.024H676.674V428.655H788.373V198.024Z" fill="#E6E6E6"/>
<path d="M687.107 416.845H777.94V209.834H687.107V416.845Z" fill="white"/>
<path d="M748.536 254.233H722.009V257.022H748.536V254.233Z" fill="#E6E6E6"/>
<path d="M768.244 263.879H722.009V266.667H768.244V263.879Z" fill="#E6E6E6"/>
<path d="M768.199 273.525H722.009V276.313H768.199V273.525Z" fill="#E6E6E6"/>
<path d="M716.511 254.275H696.803V276.581H716.511V254.275Z" fill="#E6E6E6"/>
<path d="M748.536 302.165H722.009V304.954H748.536V302.165Z" fill="#E6E6E6"/>
<path d="M768.244 311.811H722.009V314.599H768.244V311.811Z" fill="#E6E6E6"/>
<path d="M768.199 321.457H722.009V324.245H768.199V321.457Z" fill="#E6E6E6"/>
<path d="M716.511 302.207H696.803V324.513H716.511V302.207Z" fill="#E6E6E6"/>
<path d="M748.536 350.098H722.009V352.886H748.536V350.098Z" fill="#E6E6E6"/>
<path d="M768.244 359.743H722.009V362.532H768.244V359.743Z" fill="#E6E6E6"/>
<path d="M768.199 369.389H722.009V372.177H768.199V369.389Z" fill="#E6E6E6"/>
<path d="M716.511 350.139H696.803V372.446H716.511V350.139Z" fill="#E6E6E6"/>
<path d="M883.5 447.411C1034 447.411 1156 441.812 1156 434.907C1156 428.001 1034 422.403 883.5 422.403C733.002 422.403 611 428.001 611 434.907C611 441.812 733.002 447.411 883.5 447.411Z" fill="#E6E6E6"/>
<path d="M964.449 123H812.376V436.991H964.449V123Z" fill="#3F3D56"/>
<path d="M818.947 429.002H957.877V130.989H818.947V429.002Z" fill="white"/>
<path d="M910.212 199.525H874.096V203.322H910.212V199.525Z" fill="#6C63FF"/>
<path d="M937.043 212.658H874.096V216.454H937.043V212.658Z" fill="#E6E6E6"/>
<path d="M936.982 225.79H874.096V229.586H936.982V225.79Z" fill="#E6E6E6"/>
<path d="M866.612 199.582H839.781V229.951H866.612V199.582Z" fill="#6C63FF"/>
<path d="M910.212 264.782H874.096V268.579H910.212V264.782Z" fill="#6C63FF"/>
<path d="M937.043 277.915H874.096V281.711H937.043V277.915Z" fill="#E6E6E6"/>
<path d="M936.982 291.047H874.096V294.843H936.982V291.047Z" fill="#E6E6E6"/>
<path d="M866.612 264.839H839.781V295.208H866.612V264.839Z" fill="#6C63FF"/>
<path d="M910.212 330.04H874.096V333.836H910.212V330.04Z" fill="#6C63FF"/>
<path d="M937.043 343.172H874.096V346.968H937.043V343.172Z" fill="#E6E6E6"/>
<path d="M936.982 356.304H874.096V360.1H936.982V356.304Z" fill="#E6E6E6"/>
<path d="M866.612 330.096H839.781V360.465H866.612V330.096Z" fill="#6C63FF"/>
<path d="M832.869 345.642L831.028 354.672C831.028 354.672 831.642 375.512 826.732 373.428C821.822 371.344 823.049 353.283 823.049 353.283L827.346 344.252L832.869 345.642Z" fill="#FFB8B8"/>
<path d="M805.558 246.651C812.337 246.651 817.833 240.431 817.833 232.758C817.833 225.085 812.337 218.864 805.558 218.864C798.779 218.864 793.283 225.085 793.283 232.758C793.283 240.431 798.779 246.651 805.558 246.651Z" fill="#FFB8B8"/>
<path d="M796.045 236.578L794.818 256.724L810.161 258.808C810.161 258.808 810.161 242.136 811.388 240.052C812.616 237.968 796.045 236.578 796.045 236.578Z" fill="#FFB8B8"/>
<path d="M830.107 262.629L810.233 253.102C810.233 253.102 800.739 244.811 795.17 250.941L792.67 254.987C792.67 254.987 770.575 264.713 770.575 272.354L779.167 310.561C779.167 310.561 774.258 332.095 781.622 333.485L821.515 337.653C821.515 337.653 827.039 330.011 822.129 320.286L823.97 297.362L830.107 262.629Z" fill="#575A89"/>
<path d="M816.605 263.323L830.107 262.629C830.107 262.629 834.403 264.018 837.472 277.217C840.541 290.415 841.155 311.95 841.155 311.95L833.79 350.852L824.584 349.462L828.266 311.95L822.129 286.942L816.605 263.323Z" fill="#575A89"/>
<path d="M777.94 267.491L771.283 269.838C771.283 269.838 765.665 279.301 765.665 284.163C765.665 289.026 763.21 325.843 763.21 325.843L779.167 355.714L784.077 341.126L774.258 322.37L782.236 299.446L777.94 267.491Z" fill="#575A89"/>
<path d="M823.356 336.264L779.231 331.869C779.231 331.869 774.871 363.356 775.485 375.86C776.099 388.364 776.713 407.814 776.713 407.814L771.803 492.564L790.828 489.785L793.283 419.624L801.262 381.417L810.468 430.044L816.605 492.564L833.176 490.48L827.652 414.761C827.652 414.761 832.562 346.684 823.356 336.264Z" fill="#2F2E41"/>
<path d="M829.494 487.007L835.017 489.091C835.017 489.091 846.678 485.617 843.61 494.648C840.541 503.679 831.949 502.29 831.949 502.29C831.949 502.29 821.515 511.32 817.219 504.374L819.674 489.785L829.494 487.007Z" fill="#2F2E41"/>
<path d="M784.691 487.007L790.215 489.091C790.215 489.091 801.876 485.617 798.807 494.648C795.738 503.679 787.146 502.29 787.146 502.29C787.146 502.29 776.712 511.32 772.416 504.374L774.871 489.785L784.691 487.007Z" fill="#2F2E41"/>
<path d="M796.045 244.914C796.045 244.914 783.157 234.494 789.908 221.99C794.591 213.316 804.296 214.002 809.801 215.237C811.285 215.546 812.679 216.26 813.864 217.316C815.049 218.371 815.99 219.737 816.605 221.296C817.526 223.727 817.526 226.158 813.843 226.158C806.479 226.158 810.161 232.41 810.161 232.41C810.161 232.41 805.251 233.8 806.479 238.662C807.706 243.525 796.045 244.914 796.045 244.914Z" fill="#2F2E41"/>
<path d="M450 174H80V269H450V174Z" fill="#5777BA"/>
<rect x="80" y="325" width="370" height="87" fill="#5777BA"/>
<path d="M163.195 219.66V226H160.23V208.938H166.758C168.664 208.938 170.176 209.434 171.293 210.426C172.418 211.418 172.98 212.73 172.98 214.363C172.98 216.035 172.43 217.336 171.328 218.266C170.234 219.195 168.699 219.66 166.723 219.66H163.195ZM163.195 217.281H166.758C167.812 217.281 168.617 217.035 169.172 216.543C169.727 216.043 170.004 215.324 170.004 214.387C170.004 213.465 169.723 212.73 169.16 212.184C168.598 211.629 167.824 211.344 166.84 211.328H163.195V217.281ZM181.945 215.922C181.57 215.859 181.184 215.828 180.785 215.828C179.48 215.828 178.602 216.328 178.148 217.328V226H175.301V213.32H178.02L178.09 214.738C178.777 213.637 179.73 213.086 180.949 213.086C181.355 213.086 181.691 213.141 181.957 213.25L181.945 215.922ZM189.094 226.234C187.289 226.234 185.824 225.668 184.699 224.535C183.582 223.395 183.023 221.879 183.023 219.988V219.637C183.023 218.371 183.266 217.242 183.75 216.25C184.242 215.25 184.93 214.473 185.812 213.918C186.695 213.363 187.68 213.086 188.766 213.086C190.492 213.086 191.824 213.637 192.762 214.738C193.707 215.84 194.18 217.398 194.18 219.414V220.562H185.895C185.98 221.609 186.328 222.438 186.938 223.047C187.555 223.656 188.328 223.961 189.258 223.961C190.562 223.961 191.625 223.434 192.445 222.379L193.98 223.844C193.473 224.602 192.793 225.191 191.941 225.613C191.098 226.027 190.148 226.234 189.094 226.234ZM188.754 215.371C187.973 215.371 187.34 215.645 186.855 216.191C186.379 216.738 186.074 217.5 185.941 218.477H191.367V218.266C191.305 217.312 191.051 216.594 190.605 216.109C190.16 215.617 189.543 215.371 188.754 215.371ZM207.527 219.789C207.527 221.758 207.086 223.324 206.203 224.488C205.328 225.652 204.121 226.234 202.582 226.234C201.098 226.234 199.941 225.699 199.113 224.629L198.973 226H196.395V208H199.242V214.539C200.062 213.57 201.168 213.086 202.559 213.086C204.105 213.086 205.32 213.66 206.203 214.809C207.086 215.957 207.527 217.562 207.527 219.625V219.789ZM204.68 219.543C204.68 218.168 204.438 217.137 203.953 216.449C203.469 215.762 202.766 215.418 201.844 215.418C200.609 215.418 199.742 215.957 199.242 217.035V222.262C199.75 223.363 200.625 223.914 201.867 223.914C202.758 223.914 203.445 223.582 203.93 222.918C204.414 222.254 204.664 221.25 204.68 219.906V219.543ZM217.605 224.758C216.77 225.742 215.582 226.234 214.043 226.234C212.668 226.234 211.625 225.832 210.914 225.027C210.211 224.223 209.859 223.059 209.859 221.535V213.32H212.707V221.5C212.707 223.109 213.375 223.914 214.711 223.914C216.094 223.914 217.027 223.418 217.512 222.426V213.32H220.359V226H217.676L217.605 224.758ZM226.289 226H223.441V213.32H226.289V226ZM223.266 210.027C223.266 209.59 223.402 209.227 223.676 208.938C223.957 208.648 224.355 208.504 224.871 208.504C225.387 208.504 225.785 208.648 226.066 208.938C226.348 209.227 226.488 209.59 226.488 210.027C226.488 210.457 226.348 210.816 226.066 211.105C225.785 211.387 225.387 211.527 224.871 211.527C224.355 211.527 223.957 211.387 223.676 211.105C223.402 210.816 223.266 210.457 223.266 210.027ZM232.43 226H229.582V208H232.43V226ZM235.008 219.566C235.008 217.613 235.461 216.047 236.367 214.867C237.273 213.68 238.488 213.086 240.012 213.086C241.355 213.086 242.441 213.555 243.27 214.492V208H246.117V226H243.539L243.398 224.688C242.547 225.719 241.41 226.234 239.988 226.234C238.504 226.234 237.301 225.637 236.379 224.441C235.465 223.246 235.008 221.621 235.008 219.566ZM237.855 219.812C237.855 221.102 238.102 222.109 238.594 222.836C239.094 223.555 239.801 223.914 240.715 223.914C241.879 223.914 242.73 223.395 243.27 222.355V216.941C242.746 215.926 241.902 215.418 240.738 215.418C239.816 215.418 239.105 215.785 238.605 216.52C238.105 217.246 237.855 218.344 237.855 219.812ZM261.609 219.426H258.305V226H255.34V208.938H261.34C263.309 208.938 264.828 209.379 265.898 210.262C266.969 211.145 267.504 212.422 267.504 214.094C267.504 215.234 267.227 216.191 266.672 216.965C266.125 217.73 265.359 218.32 264.375 218.734L268.207 225.848V226H265.031L261.609 219.426ZM258.305 217.047H261.352C262.352 217.047 263.133 216.797 263.695 216.297C264.258 215.789 264.539 215.098 264.539 214.223C264.539 213.309 264.277 212.602 263.754 212.102C263.238 211.602 262.465 211.344 261.434 211.328H258.305V217.047ZM273.07 226H270.223V213.32H273.07V226ZM270.047 210.027C270.047 209.59 270.184 209.227 270.457 208.938C270.738 208.648 271.137 208.504 271.652 208.504C272.168 208.504 272.566 208.648 272.848 208.938C273.129 209.227 273.27 209.59 273.27 210.027C273.27 210.457 273.129 210.816 272.848 211.105C272.566 211.387 272.168 211.527 271.652 211.527C271.137 211.527 270.738 211.387 270.457 211.105C270.184 210.816 270.047 210.457 270.047 210.027ZM287.285 219.789C287.285 221.75 286.84 223.316 285.949 224.488C285.059 225.652 283.863 226.234 282.363 226.234C280.973 226.234 279.859 225.777 279.023 224.863V230.875H276.176V213.32H278.801L278.918 214.609C279.754 213.594 280.891 213.086 282.328 213.086C283.875 213.086 285.086 213.664 285.961 214.82C286.844 215.969 287.285 217.566 287.285 219.613V219.789ZM284.449 219.543C284.449 218.277 284.195 217.273 283.688 216.531C283.188 215.789 282.469 215.418 281.531 215.418C280.367 215.418 279.531 215.898 279.023 216.859V222.484C279.539 223.469 280.383 223.961 281.555 223.961C282.461 223.961 283.168 223.598 283.676 222.871C284.191 222.137 284.449 221.027 284.449 219.543ZM300.809 219.789C300.809 221.75 300.363 223.316 299.473 224.488C298.582 225.652 297.387 226.234 295.887 226.234C294.496 226.234 293.383 225.777 292.547 224.863V230.875H289.699V213.32H292.324L292.441 214.609C293.277 213.594 294.414 213.086 295.852 213.086C297.398 213.086 298.609 213.664 299.484 214.82C300.367 215.969 300.809 217.566 300.809 219.613V219.789ZM297.973 219.543C297.973 218.277 297.719 217.273 297.211 216.531C296.711 215.789 295.992 215.418 295.055 215.418C293.891 215.418 293.055 215.898 292.547 216.859V222.484C293.062 223.469 293.906 223.961 295.078 223.961C295.984 223.961 296.691 223.598 297.199 222.871C297.715 222.137 297.973 221.027 297.973 219.543ZM308.812 226.234C307.008 226.234 305.543 225.668 304.418 224.535C303.301 223.395 302.742 221.879 302.742 219.988V219.637C302.742 218.371 302.984 217.242 303.469 216.25C303.961 215.25 304.648 214.473 305.531 213.918C306.414 213.363 307.398 213.086 308.484 213.086C310.211 213.086 311.543 213.637 312.48 214.738C313.426 215.84 313.898 217.398 313.898 219.414V220.562H305.613C305.699 221.609 306.047 222.438 306.656 223.047C307.273 223.656 308.047 223.961 308.977 223.961C310.281 223.961 311.344 223.434 312.164 222.379L313.699 223.844C313.191 224.602 312.512 225.191 311.66 225.613C310.816 226.027 309.867 226.234 308.812 226.234ZM308.473 215.371C307.691 215.371 307.059 215.645 306.574 216.191C306.098 216.738 305.793 217.5 305.66 218.477H311.086V218.266C311.023 217.312 310.77 216.594 310.324 216.109C309.879 215.617 309.262 215.371 308.473 215.371ZM322.758 215.922C322.383 215.859 321.996 215.828 321.598 215.828C320.293 215.828 319.414 216.328 318.961 217.328V226H316.113V213.32H318.832L318.902 214.738C319.59 213.637 320.543 213.086 321.762 213.086C322.168 213.086 322.504 213.141 322.77 213.25L322.758 215.922ZM333.773 219.66V226H330.809V208.938H337.336C339.242 208.938 340.754 209.434 341.871 210.426C342.996 211.418 343.559 212.73 343.559 214.363C343.559 216.035 343.008 217.336 341.906 218.266C340.812 219.195 339.277 219.66 337.301 219.66H333.773ZM333.773 217.281H337.336C338.391 217.281 339.195 217.035 339.75 216.543C340.305 216.043 340.582 215.324 340.582 214.387C340.582 213.465 340.301 212.73 339.738 212.184C339.176 211.629 338.402 211.344 337.418 211.328H333.773V217.281ZM359.18 220.445C359.008 222.266 358.336 223.688 357.164 224.711C355.992 225.727 354.434 226.234 352.488 226.234C351.129 226.234 349.93 225.914 348.891 225.273C347.859 224.625 347.062 223.707 346.5 222.52C345.938 221.332 345.645 219.953 345.621 218.383V216.789C345.621 215.18 345.906 213.762 346.477 212.535C347.047 211.309 347.863 210.363 348.926 209.699C349.996 209.035 351.23 208.703 352.629 208.703C354.512 208.703 356.027 209.215 357.176 210.238C358.324 211.262 358.992 212.707 359.18 214.574H356.227C356.086 213.348 355.727 212.465 355.148 211.926C354.578 211.379 353.738 211.105 352.629 211.105C351.34 211.105 350.348 211.578 349.652 212.523C348.965 213.461 348.613 214.84 348.598 216.66V218.172C348.598 220.016 348.926 221.422 349.582 222.391C350.246 223.359 351.215 223.844 352.488 223.844C353.652 223.844 354.527 223.582 355.113 223.059C355.699 222.535 356.07 221.664 356.227 220.445H359.18ZM368.672 222.555C368.672 222.047 368.461 221.66 368.039 221.395C367.625 221.129 366.934 220.895 365.965 220.691C364.996 220.488 364.188 220.23 363.539 219.918C362.117 219.23 361.406 218.234 361.406 216.93C361.406 215.836 361.867 214.922 362.789 214.188C363.711 213.453 364.883 213.086 366.305 213.086C367.82 213.086 369.043 213.461 369.973 214.211C370.91 214.961 371.379 215.934 371.379 217.129H368.531C368.531 216.582 368.328 216.129 367.922 215.77C367.516 215.402 366.977 215.219 366.305 215.219C365.68 215.219 365.168 215.363 364.77 215.652C364.379 215.941 364.184 216.328 364.184 216.812C364.184 217.25 364.367 217.59 364.734 217.832C365.102 218.074 365.844 218.32 366.961 218.57C368.078 218.812 368.953 219.105 369.586 219.449C370.227 219.785 370.699 220.191 371.004 220.668C371.316 221.145 371.473 221.723 371.473 222.402C371.473 223.543 371 224.469 370.055 225.18C369.109 225.883 367.871 226.234 366.34 226.234C365.301 226.234 364.375 226.047 363.562 225.672C362.75 225.297 362.117 224.781 361.664 224.125C361.211 223.469 360.984 222.762 360.984 222.004H363.75C363.789 222.676 364.043 223.195 364.512 223.562C364.98 223.922 365.602 224.102 366.375 224.102C367.125 224.102 367.695 223.961 368.086 223.68C368.477 223.391 368.672 223.016 368.672 222.555Z" fill="#FFFBFB"/>
<path d="M138.625 364.445C138.453 366.266 137.781 367.688 136.609 368.711C135.438 369.727 133.879 370.234 131.934 370.234C130.574 370.234 129.375 369.914 128.336 369.273C127.305 368.625 126.508 367.707 125.945 366.52C125.383 365.332 125.09 363.953 125.066 362.383V360.789C125.066 359.18 125.352 357.762 125.922 356.535C126.492 355.309 127.309 354.363 128.371 353.699C129.441 353.035 130.676 352.703 132.074 352.703C133.957 352.703 135.473 353.215 136.621 354.238C137.77 355.262 138.438 356.707 138.625 358.574H135.672C135.531 357.348 135.172 356.465 134.594 355.926C134.023 355.379 133.184 355.105 132.074 355.105C130.785 355.105 129.793 355.578 129.098 356.523C128.41 357.461 128.059 358.84 128.043 360.66V362.172C128.043 364.016 128.371 365.422 129.027 366.391C129.691 367.359 130.66 367.844 131.934 367.844C133.098 367.844 133.973 367.582 134.559 367.059C135.145 366.535 135.516 365.664 135.672 364.445H138.625ZM148.691 368.758C147.855 369.742 146.668 370.234 145.129 370.234C143.754 370.234 142.711 369.832 142 369.027C141.297 368.223 140.945 367.059 140.945 365.535V357.32H143.793V365.5C143.793 367.109 144.461 367.914 145.797 367.914C147.18 367.914 148.113 367.418 148.598 366.426V357.32H151.445V370H148.762L148.691 368.758ZM161.453 366.555C161.453 366.047 161.242 365.66 160.82 365.395C160.406 365.129 159.715 364.895 158.746 364.691C157.777 364.488 156.969 364.23 156.32 363.918C154.898 363.23 154.188 362.234 154.188 360.93C154.188 359.836 154.648 358.922 155.57 358.188C156.492 357.453 157.664 357.086 159.086 357.086C160.602 357.086 161.824 357.461 162.754 358.211C163.691 358.961 164.16 359.934 164.16 361.129H161.312C161.312 360.582 161.109 360.129 160.703 359.77C160.297 359.402 159.758 359.219 159.086 359.219C158.461 359.219 157.949 359.363 157.551 359.652C157.16 359.941 156.965 360.328 156.965 360.812C156.965 361.25 157.148 361.59 157.516 361.832C157.883 362.074 158.625 362.32 159.742 362.57C160.859 362.812 161.734 363.105 162.367 363.449C163.008 363.785 163.48 364.191 163.785 364.668C164.098 365.145 164.254 365.723 164.254 366.402C164.254 367.543 163.781 368.469 162.836 369.18C161.891 369.883 160.652 370.234 159.121 370.234C158.082 370.234 157.156 370.047 156.344 369.672C155.531 369.297 154.898 368.781 154.445 368.125C153.992 367.469 153.766 366.762 153.766 366.004H156.531C156.57 366.676 156.824 367.195 157.293 367.562C157.762 367.922 158.383 368.102 159.156 368.102C159.906 368.102 160.477 367.961 160.867 367.68C161.258 367.391 161.453 367.016 161.453 366.555ZM170.312 354.238V357.32H172.551V359.43H170.312V366.508C170.312 366.992 170.406 367.344 170.594 367.562C170.789 367.773 171.133 367.879 171.625 367.879C171.953 367.879 172.285 367.84 172.621 367.762V369.965C171.973 370.145 171.348 370.234 170.746 370.234C168.559 370.234 167.465 369.027 167.465 366.613V359.43H165.379V357.32H167.465V354.238H170.312ZM173.852 363.543C173.852 362.301 174.098 361.184 174.59 360.191C175.082 359.191 175.773 358.426 176.664 357.895C177.555 357.355 178.578 357.086 179.734 357.086C181.445 357.086 182.832 357.637 183.895 358.738C184.965 359.84 185.543 361.301 185.629 363.121L185.641 363.789C185.641 365.039 185.398 366.156 184.914 367.141C184.438 368.125 183.75 368.887 182.852 369.426C181.961 369.965 180.93 370.234 179.758 370.234C177.969 370.234 176.535 369.641 175.457 368.453C174.387 367.258 173.852 365.668 173.852 363.684V363.543ZM176.699 363.789C176.699 365.094 176.969 366.117 177.508 366.859C178.047 367.594 178.797 367.961 179.758 367.961C180.719 367.961 181.465 367.586 181.996 366.836C182.535 366.086 182.805 364.988 182.805 363.543C182.805 362.262 182.527 361.246 181.973 360.496C181.426 359.746 180.68 359.371 179.734 359.371C178.805 359.371 178.066 359.742 177.52 360.484C176.973 361.219 176.699 362.32 176.699 363.789ZM190.727 357.32L190.809 358.645C191.699 357.605 192.918 357.086 194.465 357.086C196.16 357.086 197.32 357.734 197.945 359.031C198.867 357.734 200.164 357.086 201.836 357.086C203.234 357.086 204.273 357.473 204.953 358.246C205.641 359.02 205.992 360.16 206.008 361.668V370H203.16V361.75C203.16 360.945 202.984 360.355 202.633 359.98C202.281 359.605 201.699 359.418 200.887 359.418C200.238 359.418 199.707 359.594 199.293 359.945C198.887 360.289 198.602 360.742 198.438 361.305L198.449 370H195.602V361.656C195.562 360.164 194.801 359.418 193.316 359.418C192.176 359.418 191.367 359.883 190.891 360.812V370H188.043V357.32H190.727ZM211.961 370H209.113V357.32H211.961V370ZM208.938 354.027C208.938 353.59 209.074 353.227 209.348 352.938C209.629 352.648 210.027 352.504 210.543 352.504C211.059 352.504 211.457 352.648 211.738 352.938C212.02 353.227 212.16 353.59 212.16 354.027C212.16 354.457 212.02 354.816 211.738 355.105C211.457 355.387 211.059 355.527 210.543 355.527C210.027 355.527 209.629 355.387 209.348 355.105C209.074 354.816 208.938 354.457 208.938 354.027ZM218.113 367.727H224.863V370H214.574V368.137L221.008 359.617H214.691V357.32H224.617V359.125L218.113 367.727ZM232.539 370.234C230.734 370.234 229.27 369.668 228.145 368.535C227.027 367.395 226.469 365.879 226.469 363.988V363.637C226.469 362.371 226.711 361.242 227.195 360.25C227.688 359.25 228.375 358.473 229.258 357.918C230.141 357.363 231.125 357.086 232.211 357.086C233.938 357.086 235.27 357.637 236.207 358.738C237.152 359.84 237.625 361.398 237.625 363.414V364.562H229.34C229.426 365.609 229.773 366.438 230.383 367.047C231 367.656 231.773 367.961 232.703 367.961C234.008 367.961 235.07 367.434 235.891 366.379L237.426 367.844C236.918 368.602 236.238 369.191 235.387 369.613C234.543 370.027 233.594 370.234 232.539 370.234ZM232.199 359.371C231.418 359.371 230.785 359.645 230.301 360.191C229.824 360.738 229.52 361.5 229.387 362.477H234.812V362.266C234.75 361.312 234.496 360.594 234.051 360.109C233.605 359.617 232.988 359.371 232.199 359.371ZM251.664 361.023L255.59 352.938H258.871L253.152 363.719V370H250.176V363.719L244.445 352.938H247.738L251.664 361.023ZM259.141 363.543C259.141 362.301 259.387 361.184 259.879 360.191C260.371 359.191 261.062 358.426 261.953 357.895C262.844 357.355 263.867 357.086 265.023 357.086C266.734 357.086 268.121 357.637 269.184 358.738C270.254 359.84 270.832 361.301 270.918 363.121L270.93 363.789C270.93 365.039 270.688 366.156 270.203 367.141C269.727 368.125 269.039 368.887 268.141 369.426C267.25 369.965 266.219 370.234 265.047 370.234C263.258 370.234 261.824 369.641 260.746 368.453C259.676 367.258 259.141 365.668 259.141 363.684V363.543ZM261.988 363.789C261.988 365.094 262.258 366.117 262.797 366.859C263.336 367.594 264.086 367.961 265.047 367.961C266.008 367.961 266.754 367.586 267.285 366.836C267.824 366.086 268.094 364.988 268.094 363.543C268.094 362.262 267.816 361.246 267.262 360.496C266.715 359.746 265.969 359.371 265.023 359.371C264.094 359.371 263.355 359.742 262.809 360.484C262.262 361.219 261.988 362.32 261.988 363.789ZM281.02 368.758C280.184 369.742 278.996 370.234 277.457 370.234C276.082 370.234 275.039 369.832 274.328 369.027C273.625 368.223 273.273 367.059 273.273 365.535V357.32H276.121V365.5C276.121 367.109 276.789 367.914 278.125 367.914C279.508 367.914 280.441 367.418 280.926 366.426V357.32H283.773V370H281.09L281.02 368.758ZM293.312 359.922C292.938 359.859 292.551 359.828 292.152 359.828C290.848 359.828 289.969 360.328 289.516 361.328V370H286.668V357.32H289.387L289.457 358.738C290.145 357.637 291.098 357.086 292.316 357.086C292.723 357.086 293.059 357.141 293.324 357.25L293.312 359.922ZM307.633 363.426H304.328V370H301.363V352.938H307.363C309.332 352.938 310.852 353.379 311.922 354.262C312.992 355.145 313.527 356.422 313.527 358.094C313.527 359.234 313.25 360.191 312.695 360.965C312.148 361.73 311.383 362.32 310.398 362.734L314.23 369.848V370H311.055L307.633 363.426ZM304.328 361.047H307.375C308.375 361.047 309.156 360.797 309.719 360.297C310.281 359.789 310.562 359.098 310.562 358.223C310.562 357.309 310.301 356.602 309.777 356.102C309.262 355.602 308.488 355.344 307.457 355.328H304.328V361.047ZM319.094 370H316.246V357.32H319.094V370ZM316.07 354.027C316.07 353.59 316.207 353.227 316.48 352.938C316.762 352.648 317.16 352.504 317.676 352.504C318.191 352.504 318.59 352.648 318.871 352.938C319.152 353.227 319.293 353.59 319.293 354.027C319.293 354.457 319.152 354.816 318.871 355.105C318.59 355.387 318.191 355.527 317.676 355.527C317.16 355.527 316.762 355.387 316.48 355.105C316.207 354.816 316.07 354.457 316.07 354.027ZM333.309 363.789C333.309 365.75 332.863 367.316 331.973 368.488C331.082 369.652 329.887 370.234 328.387 370.234C326.996 370.234 325.883 369.777 325.047 368.863V374.875H322.199V357.32H324.824L324.941 358.609C325.777 357.594 326.914 357.086 328.352 357.086C329.898 357.086 331.109 357.664 331.984 358.82C332.867 359.969 333.309 361.566 333.309 363.613V363.789ZM330.473 363.543C330.473 362.277 330.219 361.273 329.711 360.531C329.211 359.789 328.492 359.418 327.555 359.418C326.391 359.418 325.555 359.898 325.047 360.859V366.484C325.562 367.469 326.406 367.961 327.578 367.961C328.484 367.961 329.191 367.598 329.699 366.871C330.215 366.137 330.473 365.027 330.473 363.543ZM346.832 363.789C346.832 365.75 346.387 367.316 345.496 368.488C344.605 369.652 343.41 370.234 341.91 370.234C340.52 370.234 339.406 369.777 338.57 368.863V374.875H335.723V357.32H338.348L338.465 358.609C339.301 357.594 340.438 357.086 341.875 357.086C343.422 357.086 344.633 357.664 345.508 358.82C346.391 359.969 346.832 361.566 346.832 363.613V363.789ZM343.996 363.543C343.996 362.277 343.742 361.273 343.234 360.531C342.734 359.789 342.016 359.418 341.078 359.418C339.914 359.418 339.078 359.898 338.57 360.859V366.484C339.086 367.469 339.93 367.961 341.102 367.961C342.008 367.961 342.715 367.598 343.223 366.871C343.738 366.137 343.996 365.027 343.996 363.543ZM354.836 370.234C353.031 370.234 351.566 369.668 350.441 368.535C349.324 367.395 348.766 365.879 348.766 363.988V363.637C348.766 362.371 349.008 361.242 349.492 360.25C349.984 359.25 350.672 358.473 351.555 357.918C352.438 357.363 353.422 357.086 354.508 357.086C356.234 357.086 357.566 357.637 358.504 358.738C359.449 359.84 359.922 361.398 359.922 363.414V364.562H351.637C351.723 365.609 352.07 366.438 352.68 367.047C353.297 367.656 354.07 367.961 355 367.961C356.305 367.961 357.367 367.434 358.188 366.379L359.723 367.844C359.215 368.602 358.535 369.191 357.684 369.613C356.84 370.027 355.891 370.234 354.836 370.234ZM354.496 359.371C353.715 359.371 353.082 359.645 352.598 360.191C352.121 360.738 351.816 361.5 351.684 362.477H357.109V362.266C357.047 361.312 356.793 360.594 356.348 360.109C355.902 359.617 355.285 359.371 354.496 359.371ZM368.781 359.922C368.406 359.859 368.02 359.828 367.621 359.828C366.316 359.828 365.438 360.328 364.984 361.328V370H362.137V357.32H364.855L364.926 358.738C365.613 357.637 366.566 357.086 367.785 357.086C368.191 357.086 368.527 357.141 368.793 357.25L368.781 359.922ZM379.797 363.66V370H376.832V352.938H383.359C385.266 352.938 386.777 353.434 387.895 354.426C389.02 355.418 389.582 356.73 389.582 358.363C389.582 360.035 389.031 361.336 387.93 362.266C386.836 363.195 385.301 363.66 383.324 363.66H379.797ZM379.797 361.281H383.359C384.414 361.281 385.219 361.035 385.773 360.543C386.328 360.043 386.605 359.324 386.605 358.387C386.605 357.465 386.324 356.73 385.762 356.184C385.199 355.629 384.426 355.344 383.441 355.328H379.797V361.281ZM405.203 364.445C405.031 366.266 404.359 367.688 403.188 368.711C402.016 369.727 400.457 370.234 398.512 370.234C397.152 370.234 395.953 369.914 394.914 369.273C393.883 368.625 393.086 367.707 392.523 366.52C391.961 365.332 391.668 363.953 391.645 362.383V360.789C391.645 359.18 391.93 357.762 392.5 356.535C393.07 355.309 393.887 354.363 394.949 353.699C396.02 353.035 397.254 352.703 398.652 352.703C400.535 352.703 402.051 353.215 403.199 354.238C404.348 355.262 405.016 356.707 405.203 358.574H402.25C402.109 357.348 401.75 356.465 401.172 355.926C400.602 355.379 399.762 355.105 398.652 355.105C397.363 355.105 396.371 355.578 395.676 356.523C394.988 357.461 394.637 358.84 394.621 360.66V362.172C394.621 364.016 394.949 365.422 395.605 366.391C396.27 367.359 397.238 367.844 398.512 367.844C399.676 367.844 400.551 367.582 401.137 367.059C401.723 366.535 402.094 365.664 402.25 364.445H405.203Z" fill="#FFFBFB"/>
</svg>
