<svg height="512" viewBox="0 0 512 512" width="512" xmlns="http://www.w3.org/2000/svg"><g id="Filledoutline"><path d="m184 144h-128l16-80h96z" fill="#0093b9"/><path d="m448 304v-32a32 32 0 0 0 -32-32h-320a32 32 0 0 0 -32 32v32l16 96h352z" fill="#d7a148"/><path d="m407.6 388 5.518-55.184a32 32 0 0 1 31.842-28.816h11.04a32 32 0 0 1 32 32 32 32 0 0 1 -32 32h-8l-5.727 74.454a32 32 0 0 1 -31.906 29.546h-308.734a32 32 0 0 1 -31.906-29.546l-5.727-74.454h-8a32 32 0 0 1 -32-32 32 32 0 0 1 32-32h11.04a32 32 0 0 1 31.842 28.816l5.518 55.184s71.6-12 151.6-12 151.6 12 151.6 12z" fill="#e9ae48"/><path d="m344 64h144v112h-144z" fill="#e9ae48"/><path d="m376 96h80v48h-80z" fill="#2da4c4"/><circle cx="256" cy="64" fill="#0093b9" r="48"/><path d="m261.96 458.924 15.362-70.613a15.634 15.634 0 0 1 15.278-12.311 15.633 15.633 0 0 1 15.276 18.958l-15.686 72.092z" fill="#2da4c4"/><path d="m272 456a24 24 0 0 1 24 24v8a0 0 0 0 1 0 0h-48a0 0 0 0 1 0 0v-8a24 24 0 0 1 24-24z" fill="#f7c9a8"/><path d="m318.12 376h-118.12a16 16 0 1 1 0-32h118.12z" fill="#2da4c4"/><path d="m336 336h8a0 0 0 0 1 0 0v48a0 0 0 0 1 0 0h-8a24 24 0 0 1 -24-24 24 24 0 0 1 24-24z" fill="#f7c9a8"/><path d="m216 344v-88l-48 16v24a16 16 0 0 1 -16 16h-16v-46.143a24 24 0 0 1 17.1-22.988l62.9-18.869h80l62.9 18.869a24 24 0 0 1 17.1 22.988v46.143h-16a16 16 0 0 1 -16-16v-24l-48-16v88z" fill="#e3e4e2"/><g fill="#f7c9a8"><path d="m232 176v48h24a24 24 0 0 0 24-24v-24z"/><path d="m152 312h-16v-32h32v16a16 16 0 0 1 -16 16z"/><path d="m360 312h16v-32h-32v16a16 16 0 0 0 16 16z"/></g><path d="m232 184v-16a16 16 0 0 1 16-16h32a16 16 0 0 1 16 16 16 16 0 0 1 -16 16z" fill="#4e4e4f"/><path d="m216 272h80v32h-80z" fill="#c9c9c8"/><path d="m488 56h-144a8 8 0 0 0 -8 8v112a8 8 0 0 0 8 8h144a8 8 0 0 0 8-8v-112a8 8 0 0 0 -8-8zm-8 112h-128v-96h128z"/><path d="m376 152h80a8 8 0 0 0 8-8v-48a8 8 0 0 0 -8-8h-80a8 8 0 0 0 -8 8v48a8 8 0 0 0 8 8zm8-48h64v32h-64z"/><path d="m256 120a56 56 0 1 0 -56-56 56.063 56.063 0 0 0 56 56zm0-96a40 40 0 1 1 -40 40 40.045 40.045 0 0 1 40-40z"/><path d="m266.343 85.657 11.314-11.314-13.657-13.656v-20.687h-16v24a8 8 0 0 0 2.343 5.657z"/><path d="m48 328h24v16h-24z"/><path d="m440 328h24v16h-24z"/><path d="m456 296v-24a40.045 40.045 0 0 0 -40-40h-65.494l-52.206-15.663a7.991 7.991 0 0 0 -2.3-.337h-12.3a31.8 31.8 0 0 0 4.3-16v-9.376a24 24 0 0 0 -8-46.624h-32a24.028 24.028 0 0 0 -24 24v48h-8a7.991 7.991 0 0 0 -2.3.337l-52.208 15.663h-33.492v-80h56a8 8 0 0 0 7.845-9.569l-16-80a8 8 0 0 0 -7.845-6.431h-96a8 8 0 0 0 -7.845 6.431l-16 80a8 8 0 0 0 7.845 9.569h24v16h16v-16h16v80h-16a40.045 40.045 0 0 0 -40 40v24a40 40 0 0 0 0 80h.592l5.158 67.067a40.187 40.187 0 0 0 39.883 36.933h2.367v16h16v-16h120v8a8 8 0 0 0 8 8h48a8 8 0 0 0 8-8v-8h88v16h16v-16h2.367a40.187 40.187 0 0 0 39.883-36.933l5.158-67.067h.592a40 40 0 0 0 0-80zm-377.441-224h15.682l-6.086 30.431 15.69 3.138 6.714-33.569h18.882l6.714 33.569 15.69-3.138-6.086-30.431h15.682l12.8 64h-108.483zm361.441 200v24.312a39.855 39.855 0 0 0 -34.842 35.708l-4.641 46.408c-11.765-2.129-27.777-4.471-48.517-6.4v-36.028a8 8 0 0 0 -8-8h-8a31.86 31.86 0 0 0 -21.132 8h-10.868v-68.9l32 10.666v18.234a24.027 24.027 0 0 0 24 24h16a8 8 0 0 0 8-8v-46.144a31.95 31.95 0 0 0 -5.415-17.856h37.415a24.028 24.028 0 0 1 24 24zm-104 72v32a16 16 0 0 1 0-32zm-37.457 42.844a7.6 7.6 0 0 1 1.516 6.413l-12.759 58.643a31.8 31.8 0 0 0 -14.778-3.888l12.618-58a7.678 7.678 0 0 1 7.46-6.012 7.6 7.6 0 0 1 5.943 2.844zm6.47-18.844h-105.013a8 8 0 1 1 0-16h105.013a32.1 32.1 0 0 0 0 16zm-81.013-88h64v16h-64zm0 32h64v24h-64zm128-24h16v16h-8a8.009 8.009 0 0 1 -8-8zm-112-120a8.009 8.009 0 0 1 8-8h32a8 8 0 0 1 0 16h-40zm0 24h32v8a16.019 16.019 0 0 1 -16 16h-16zm-22.826 40h77.652l61.774 18.532a15.9 15.9 0 0 1 11.4 15.324v6.144h-16a8 8 0 0 0 -5.47-7.59l-48-16a8 8 0 0 0 -10.53 7.59v8h-64v-8a8 8 0 0 0 -10.53-7.59l-48 16a8 8 0 0 0 -5.47 7.59h-16v-6.144a15.9 15.9 0 0 1 11.4-15.324zm-73.174 56h16v8a8.009 8.009 0 0 1 -8 8h-8zm-48-40h37.415a31.95 31.95 0 0 0 -5.415 17.856v46.144a8 8 0 0 0 8 8h16a24.027 24.027 0 0 0 24-24v-18.234l32-10.666v68.9h-8a23.989 23.989 0 0 0 -21.552 34.546c-22.394 1.576-39.863 3.65-52.62 5.54-5.345.792-10.114 1.585-14.344 2.351l-4.642-46.417a39.854 39.854 0 0 0 -34.842-35.708v-24.312a24.028 24.028 0 0 1 24-24zm148.305 216h-142.672a24.11 24.11 0 0 1 -23.933-22.159l-5.727-74.454a8 8 0 0 0 -7.973-7.387h-8a24 24 0 0 1 0-48h11.041a23.924 23.924 0 0 1 23.88 21.611l4.806 48.059c-6.7 1.571-10 2.654-10.257 2.74l5.046 15.184c.118-.039 12.144-3.943 38.446-7.8 24.275-3.554 66.021-7.794 127.038-7.794h14.254a23.408 23.408 0 0 0 -.75 2.61l-14.41 66.238a32.237 32.237 0 0 0 -10.789 11.152zm11.695 16a16 16 0 0 1 32 0zm200-120h-8a8 8 0 0 0 -7.977 7.387l-5.723 74.454a24.11 24.11 0 0 1 -23.933 22.159h-109.326l14.652-67.342a23.543 23.543 0 0 0 -.683-12.535 31.852 31.852 0 0 0 20.99 7.877h8a7.99 7.99 0 0 0 6.922-4c48.795 4.572 70.338 11.522 70.546 11.591l5.064-15.178c-.358-.119-3.661-1.2-10.258-2.747l4.805-48.053a23.924 23.924 0 0 1 23.88-21.613h11.041a24 24 0 0 1 0 48z"/></g></svg>