<svg height="512pt" viewBox="0 0 512 512" width="512pt" xmlns="http://www.w3.org/2000/svg"><path d="m448.800781 0h-192.800781c-34.90625 0-63.199219 28.242188-63.199219 63.199219v289.199219c0 12.269531 14.070313 19.445312 24 12l60.265625-45.199219h171.734375c34.90625 0 63.199219-28.242188 63.199219-63.199219v-192.800781c0-34.90625-28.242188-63.199219-63.199219-63.199219zm0 0" fill="#eff6fe"/><path d="m337.398438 208.867188h-65.332032c-8.285156 0-15 6.714843-15 15 0 8.285156 6.714844 15 15 15h65.332032c8.285156 0 15-6.714844 15-15 0-8.285157-6.714844-15-15-15zm0 0" fill="#3ab4fb"/><path d="m448.800781 0h-96.402343v319.199219h96.402343c34.910157 0 63.199219-28.238281 63.199219-63.199219v-192.800781c0-34.910157-28.238281-63.199219-63.199219-63.199219zm0 0" fill="#d9e4ef"/><path d="m432.734375 80.332031h-160.667969c-8.285156 0-15 6.71875-15 15 0 8.285157 6.714844 15 15 15h160.667969c8.28125 0 15-6.714843 15-15 0-8.28125-6.714844-15-15-15zm0 0" fill="#3ab4fb"/><path d="m432.734375 144.601562h-160.667969c-8.285156 0-15 6.714844-15 15 0 8.28125 6.714844 15 15 15h160.667969c8.28125 0 15-6.71875 15-15 0-8.285156-6.714844-15-15-15zm0 0" fill="#3ab4fb"/><path d="m447.730469 95.328125c0 8.292969-6.710938 15-15 15h-80.332031v-30h80.332031c8.289062 0 15 6.722656 15 15zm0 0" fill="#1d9cfd"/><path d="m447.730469 159.601562c0 8.277344-6.710938 15-15 15h-80.332031v-30h80.332031c8.289062 0 15 6.71875 15 15zm0 0" fill="#1d9cfd"/><path d="m166.238281 311.898438c0 39.160156-31.746093 70.90625-70.90625 70.90625-39.160156 0-70.90625-31.746094-70.90625-70.90625 0-39.164063 31.746094-70.910157 70.90625-70.910157 39.160157 0 70.90625 31.746094 70.90625 70.910157zm0 0" fill="#ffcfbe"/><path d="m166.238281 311.898438c0 39.160156-31.75 70.902343-70.910156 70.902343v-141.8125c39.160156 0 70.910156 31.75 70.910156 70.910157zm0 0" fill="#f9bcaa"/><path d="m95.332031 382.804688c-52.648437 0-95.332031 42.683593-95.332031 95.332031v18.863281c0 8.285156 6.714844 15 15 15h160.667969c8.28125 0 15-6.714844 15-15v-18.863281c0-52.648438-42.683594-95.332031-95.335938-95.332031zm0 0" fill="#ff7579"/><path d="m95.332031 382.804688s0 0-.003906 0v129.195312h80.335937c8.285157 0 15-6.714844 15-15v-18.863281c.003907-52.648438-42.679687-95.332031-95.332031-95.332031zm0 0" fill="#fe4a60"/></svg>