<svg id="Capa_1" enable-background="new 0 0 512 512" height="512" viewBox="0 0 512 512" width="512" xmlns="http://www.w3.org/2000/svg"><g><g><g><path d="m186.44 343.487h38.85c16.499 0 29.874 13.375 29.874 29.874v68.183h-245.164v-68.186c0-16.497 13.373-29.871 29.87-29.871h39.358" fill="#9bc6ff"/><g><g><g><path d="m47.171 161.044-.004 39.229h-1.05c-9.172 0-16.984 7.133-17.309 16.299-.342 9.624 7.357 17.533 16.904 17.533h2.989l1.474 6.762c0 48.383 58.157 68.925 65.306 69.949l-8.488 32.672h50.601l-8.488-32.673c7.147-1.023 65.307-21.332 65.307-69.948l1.474-6.762h3.566c9.547 0 17.246-7.909 16.904-17.533-.326-9.167-8.138-16.299-17.31-16.299h-1.627l-.004-39.229" fill="#ffcbbe"/></g></g><g><g><g><path d="m91.579 237.049c-5.523 0-10-4.477-10-10v-14.03c0-5.523 4.477-10 10-10s10 4.477 10 10v14.03c0 5.523-4.477 10-10 10z"/></g></g><g><g><path d="m173.585 237.049c-5.523 0-10-4.477-10-10v-14.03c0-5.523 4.477-10 10-10s10 4.477 10 10v14.03c0 5.523-4.477 10-10 10z"/></g></g></g><g><path d="m132.602 284.145c-8.452 0-16.333-4.548-20.568-11.868-2.766-4.781-1.132-10.898 3.648-13.664 4.781-2.766 10.899-1.132 13.664 3.648.683 1.18 1.9 1.884 3.256 1.884 1.357 0 2.574-.704 3.256-1.883 2.765-4.78 8.882-6.415 13.663-3.649 4.781 2.765 6.414 8.882 3.649 13.663-4.234 7.321-12.115 11.869-20.568 11.869z"/></g><path d="m217.42 200.273s16.621-24.49 16.629-69.876c.006-31.285-20.416-59.964-20.461-59.94l-2.873 2.299c-20.08 16.069-27.665 19.448-71.465 7.439-40.04-16.475-54.948 18.389-84.11 17.384-36.95-1.273-7.974 102.694-7.974 102.694s12.17-37.782 20.627-37.782c0 0 67.651 2.501 79.641 1.752 14.304-.893 32.286-5.344 32.326-19.676z" fill="#ffcb7c"/></g></g><g><g><path d="m166.494 387.242 21.015-51.728-26.844-10.395-28.102 20.717z" fill="#e5ecec"/></g><g><g><path d="m98.67 387.242-21.014-51.728 26.843-10.395 28.102 20.717z" fill="#e5ecec"/></g><path d="m225.291 333.487h-27.991c-.137-.66-.34-1.31-.611-1.938-1.063-2.46-3.069-4.392-5.569-5.36l-26.189-10.142c7.577-3.195 16.775-7.974 25.41-14.287 21.403-15.646 33.118-35.684 34.017-58.097 5.483-1 10.501-3.679 14.464-7.785 5.118-5.303 7.792-12.286 7.529-19.662-.351-9.891-6.011-18.32-14.245-22.706 5.297-12.342 11.939-33.682 11.945-63.112.003-14.425-3.734-29.85-11.106-45.848-2.841-6.165-5.676-11.162-7.554-14.269-4.04-6.682-4.925-7.377-6.708-8.432-3.579-2.118-8.095-1.8-11.341.799l-2.872 2.299c-17.036 13.633-21.146 16.92-62.001 5.759-28.165-11.339-46.651-.783-61.526 7.709-8.904 5.084-16.604 9.474-25.456 9.169-8.363-.29-15.441 2.945-20.48 9.349-8.863 11.264-10.888 32.274-6.19 64.231 1.809 12.308 4.255 23.68 6.097 31.45-9.228 4.056-15.72 12.987-16.098 23.603-.262 7.376 2.412 14.359 7.53 19.662 3.822 3.961 8.626 6.593 13.883 7.673.867 22.364 12.58 42.409 34.009 58.115 8.773 6.43 18.1 11.276 25.725 14.486l-25.917 10.036c-2.499.968-4.506 2.9-5.569 5.36-.271.628-.475 1.278-.611 1.938h-27.995c-21.985 0-39.871 17.886-39.871 39.871v68.186c0 5.523 4.477 10 10 10h245.165c5.523 0 9.999-4.477 9.999-10v-68.183c0-21.987-17.887-39.874-39.873-39.874zm-63.114 2.941 12.241 4.741-10.855 26.719-16.593-20.249zm-111.454-227.128c.907-1.151 1.864-1.797 4.073-1.727 14.532.5 25.972-6.028 36.061-11.788 14.041-8.016 25.133-14.348 44.589-6.342.378.155.766.288 1.161.396 42.006 11.517 54.847 9.798 74.312-4.599 5.457 9.984 13.134 27.222 13.131 45.155-.004 22.078-4.225 38.857-8.178 49.732l-27.826-41.161c-1.895-2.803-5.026-4.4-8.285-4.4-.97 0-1.952.142-2.915.436-4.199 1.28-7.072 5.148-7.085 9.538-.018 6.544-14.434 9.191-22.949 9.723-9.427.59-59.97-1.074-78.649-1.765-.123-.004-.246-.007-.369-.007-6.567 0-12.008 4.396-17.731 14.739-.527-2.968-1.032-6.042-1.488-9.164-5.271-36.022.312-46.433 2.148-48.766zm9.452 131.567c0-.716-.077-1.43-.229-2.129l-1.474-6.762c-1.001-4.594-5.068-7.871-9.771-7.871h-2.99c-1.893 0-3.661-.751-4.976-2.114-1.315-1.362-2.001-3.16-1.934-5.064.13-3.669 3.412-6.654 7.316-6.654.196 0 .39-.007.583-.018.089.004.177.015.267.016.067.001.134.002.201.002 4.333 0 8.184-2.795 9.517-6.934 4.178-12.971 10.129-26.377 13.534-30.753 13.098.47 66.783 2.325 77.839 1.638 16.49-1.03 26.534-5.298 32.616-10.45l28.461 42.101c1.858 2.749 4.958 4.396 8.276 4.399h.009c.27 0 .538-.015.805-.036.271.022.545.036.822.036 3.904 0 7.186 2.985 7.316 6.654.068 1.903-.619 3.701-1.934 5.063-1.316 1.363-3.084 2.114-4.977 2.114h-3.566c-4.702 0-8.769 3.276-9.77 7.871l-1.474 6.762c-.153.7-.229 1.414-.229 2.129 0 40.164-49.705 58.818-56.725 60.049-2.818.403-5.331 1.988-6.908 4.358-1.578 2.37-2.07 5.3-1.354 8.055l3.276 12.609-10.12 7.461-10.605-7.818 3.183-12.25c.716-2.755.255-5.68-1.322-8.05-1.578-2.37-4.059-3.95-6.876-4.354-7.078-1.253-56.787-19.983-56.787-60.06zm42.813 95.561 15.207 11.211-16.593 20.249-10.855-26.719zm142.177 95.116h-225.165v-58.186c0-10.957 8.914-19.871 19.871-19.871h34.293l15.242 37.519c1.328 3.268 4.279 5.595 7.767 6.124.5.076 1.001.113 1.498.113 2.97 0 5.819-1.325 7.734-3.662l26.177-31.944 26.177 31.944c1.915 2.337 4.764 3.662 7.734 3.662.497 0 .998-.037 1.499-.113 3.488-.528 6.439-2.855 7.767-6.124l15.242-37.519h34.29c10.958 0 19.874 8.915 19.874 19.874z"/></g></g></g><g><g><g><circle cx="405.192" cy="229.081" fill="#c4ead9" r="58.275"/><path d="m405.192 297.356c-37.647 0-68.274-30.628-68.274-68.275s30.628-68.275 68.274-68.275 68.274 30.628 68.274 68.275c.001 37.647-30.627 68.275-68.274 68.275zm0-116.55c-26.618 0-48.274 21.656-48.274 48.275s21.656 48.275 48.274 48.275 48.274-21.656 48.274-48.275c.001-26.618-21.656-48.275-48.274-48.275z"/></g><g><path d="m398.992 252.16c-2.56 0-5.118-.976-7.071-2.929l-13.757-13.756c-3.905-3.905-3.905-10.237 0-14.142 3.906-3.905 10.236-3.906 14.143 0l6.686 6.686 19.086-19.087c3.906-3.905 10.236-3.906 14.143 0 3.905 3.905 3.905 10.237 0 14.142l-26.157 26.158c-1.955 1.951-4.513 2.928-7.073 2.928z"/></g></g><g><g><g><g><path d="m308.38 410.49c-4.349 0-8.298-2.946-9.56-7.1-1.228-4.04.291-8.585 3.742-11.035 3.312-2.351 7.796-2.456 11.223-.282 3.552 2.254 5.297 6.668 4.314 10.748-1.068 4.438-5.147 7.669-9.719 7.669z"/></g><g><path d="m502 410.485h-148.626c-5.522 0-10-4.477-10-10s4.478-10 10-10h148.626c5.522 0 10 4.477 10 10s-4.478 10-10 10z"/></g></g></g><g><g><g><path d="m308.38 369.43c-4.353 0-8.297-2.943-9.56-7.1-1.23-4.048.294-8.571 3.742-11.032 3.263-2.328 7.681-2.458 11.093-.365 3.506 2.151 5.343 6.417 4.535 10.447-.927 4.621-5.094 8.05-9.81 8.05z"/></g><g><path d="m502 369.426h-148.626c-5.522 0-10-4.477-10-10s4.478-10 10-10h148.626c5.522 0 10 4.477 10 10s-4.478 10-10 10z"/></g></g></g><g><path d="m502 451.544h-193.615c-5.522 0-10-4.477-10-10s4.478-10 10-10h193.615c5.522 0 10 4.477 10 10s-4.478 10-10 10z"/></g></g></g></g></svg>