<?xml version="1.0" encoding="iso-8859-1"?>
<!-- Generator: Adobe Illustrator 19.0.0, SVG Export Plug-In . SVG Version: 6.00 Build 0)  -->
<svg version="1.1" id="Capa_1" xmlns="http://www.w3.org/2000/svg" xmlns:xlink="http://www.w3.org/1999/xlink" x="0px" y="0px"
	 viewBox="0 0 512 512" style="enable-background:new 0 0 512 512;" xml:space="preserve">
<path style="fill:#69F0F7;" d="M437.333,384v32H320l-10.667,21.333H202.667L192,416H74.667v-32V138.667h362.667V384z"/>
<path style="fill:#AAC4DA;" d="M480,384v32h-42.667V138.667H74.667V416H32V117.333C32.035,105.566,41.566,96.035,53.333,96h405.333
	c11.767,0.035,21.298,9.566,21.333,21.333V384z"/>
<path style="fill:#D9EEF7;" d="M501.333,416v53.333c0,5.891-4.776,10.667-10.667,10.667H21.333c-5.891,0-10.667-4.776-10.667-10.667
	V416H192l10.667,21.333h106.667L320,416H501.333z"/>
<g>
	<path style="fill:#F2F2F2;" d="M352,224h42.667v128H352V224z"/>
	<path style="fill:#F2F2F2;" d="M117.333,245.333H160v117.333h-42.667V245.333z"/>
</g>
<path style="fill:#D9EEF7;" d="M330.667,32v42.667h-21.333H202.667h-21.333V32H330.667z"/>
<path style="fill:#FFE451;" d="M309.333,96v256c-0.035,11.768-9.566,21.298-21.333,21.333h-64
	c-11.767-0.035-21.298-9.566-21.333-21.333V74.667h106.667V96z"/>
<g>
	<path style="fill:#4C5B66;" d="M170.667,74.667c0,5.891,4.776,10.667,10.667,10.667h149.333c5.891,0,10.667-4.776,10.667-10.667
		v-32h21.333V21.333H149.333v21.333h21.333V74.667z M320,42.667V64H192V42.667H320z"/>
	<path style="fill:#4C5B66;" d="M192,96v256c0,17.673,14.327,32,32,32h64c17.673,0,32-14.327,32-32V96h-21.333v256
		c0,5.891-4.776,10.667-10.667,10.667h-64c-5.891,0-10.667-4.776-10.667-10.667V96H192z"/>
	<path style="fill:#4C5B66;" d="M341.333,352c0,5.891,4.776,10.667,10.667,10.667h42.667c5.891,0,10.667-4.776,10.667-10.667V224
		c0-5.891-4.776-10.667-10.667-10.667H352c-5.891,0-10.667,4.776-10.667,10.667V352z M362.667,234.667H384v106.667h-21.333V234.667z
		"/>
	<path style="fill:#4C5B66;" d="M170.667,362.667V245.333c0-5.891-4.776-10.667-10.667-10.667h-42.667
		c-5.891,0-10.667,4.776-10.667,10.667v117.333H128V256h21.333v106.667H170.667z"/>
	<path style="fill:#4C5B66;" d="M501.333,405.333H320c-4.043-0.002-7.739,2.282-9.547,5.899l-7.712,15.435h-93.483l-7.659-15.435
		c-1.816-3.634-5.538-5.921-9.6-5.899H10.667C4.776,405.333,0,410.109,0,416v53.333c0,11.782,9.551,21.333,21.333,21.333h469.333
		c11.782,0,21.333-9.551,21.333-21.333V416C512,410.109,507.224,405.333,501.333,405.333z M490.667,469.333H21.333v-42.667h164.075
		l7.712,15.435c1.807,3.617,5.504,5.901,9.547,5.899h106.667c4.043,0.002,7.739-2.282,9.547-5.899l7.712-15.435h164.075V469.333z"/>
	<path style="fill:#4C5B66;" d="M42.667,117.333c0-5.891,4.776-10.667,10.667-10.667H160V85.333H53.333c-17.673,0-32,14.327-32,32
		V384h21.333V117.333z"/>
	<path style="fill:#4C5B66;" d="M352,106.667h106.667c5.891,0,10.667,4.776,10.667,10.667V384h21.333V117.333
		c0-17.673-14.327-32-32-32H352V106.667z"/>
	<path style="fill:#4C5B66;" d="M448,384V138.667c0-5.891-4.776-10.667-10.667-10.667h-96v21.333h85.333V384H448z"/>
	<path style="fill:#4C5B66;" d="M170.667,128h-96C68.776,128,64,132.776,64,138.667V384h21.333V149.333h85.333V128z"/>
	<path style="fill:#4C5B66;" d="M42.667,437.333H64v21.333H42.667V437.333z"/>
	<path style="fill:#4C5B66;" d="M448,437.333h21.333v21.333H448V437.333z"/>
	<path style="fill:#4C5B66;" d="M234.667,96v234.667c0,5.891,4.776,10.667,10.667,10.667h32V320H256v-21.333h21.333v-21.333H256V256
		h21.333v-21.333H256v-21.333h21.333V192H256v-21.333h21.333v-21.333H256V128h21.333v-21.333H256V96H234.667z"/>
	<path style="fill:#4C5B66;" d="M128,192h21.333v-21.333h-32c-5.891,0-10.667,4.776-10.667,10.667v32H128V192z"/>
	<path style="fill:#4C5B66;" d="M384,170.667h21.333V192H384V170.667z"/>
	<path style="fill:#4C5B66;" d="M341.333,170.667h21.333V192h-21.333V170.667z"/>
</g>
<g>
</g>
<g>
</g>
<g>
</g>
<g>
</g>
<g>
</g>
<g>
</g>
<g>
</g>
<g>
</g>
<g>
</g>
<g>
</g>
<g>
</g>
<g>
</g>
<g>
</g>
<g>
</g>
<g>
</g>
</svg>
