<svg id="Layer_1" data-name="Layer 1" xmlns="http://www.w3.org/2000/svg" viewBox="0 0 250 160"><defs><style>.cls-1{fill:#fff;}</style></defs><path class="cls-1" d="M223,56.36c.16.08.43.13.46.24a3.29,3.29,0,0,1,0,.83v46.21h-197V56.36H176.76a5.73,5.73,0,0,0,.68,1c3.68,3.69,7.4,7.36,11.07,11.07a2.61,2.61,0,0,0,2.09.83c6.11,0,12.22,0,18.33,0h1.39v1.42c0,6.16,0,12.33,0,18.49a2.57,2.57,0,0,0,.68,1.63c3.69,3.75,7.43,7.44,11.16,11.15.23.24.5.45.89.8,0-.58.06-1,.06-1.35q0-21.82,0-43.66A13.37,13.37,0,0,0,223,56.36ZM99.33,74.58c-.31-.33-.53-.55-.73-.79C95.38,70.09,92,66.51,89,62.65c-1.82-2.36-3.79-3.44-6.74-3a35.67,35.67,0,0,1-4.74,0v40.46h10.1V75c3.53,4.08,6.86,7.94,10.2,11.79,1,1.19,1.92,1.2,2.93,0,2.27-2.62,4.53-5.26,6.79-7.88,1.08-1.25,2.17-2.49,3.48-4v25.17h10.08V59.66c-2.54,0-5,.05-7.47,0a2.56,2.56,0,0,0-2.24,1C107.44,65.28,103.42,69.87,99.33,74.58ZM128.91,100a1.39,1.39,0,0,0,.38.14c7.3-.12,14.62,0,21.9-.44a19.37,19.37,0,0,0,12.5-5.43c6.58-6.35,7.56-18.32,2.11-26.06-4.06-5.78-10-8.2-16.78-8.47-6.5-.26-13-.08-19.53-.09a3.36,3.36,0,0,0-.58.1Zm-56.14.16c-.16-.43-.23-.65-.32-.87Q63.78,79.88,55.14,60.46a1.17,1.17,0,0,0-1.26-.81c-3.23,0-6.47.06-9.7,0a1.54,1.54,0,0,0-1.72,1.18Q35.3,78.63,28.09,96.4l-1.51,3.78c3.57,0,7,0,10.33,0,.27,0,.64-.52.78-.86.82-2.07,1.62-4.15,2.36-6.24a1.14,1.14,0,0,1,1.27-.91q8.15,0,16.29,0a1.2,1.2,0,0,1,1.28.93c.83,2.1,1.71,4.19,2.62,6.27.14.34.53.82.82.82C65.75,100.2,69.17,100.18,72.77,100.18ZM189.43,71.89a4.47,4.47,0,0,0-.51.34c-4.07,4-8.15,8.09-12.18,12.17a2.29,2.29,0,0,0-.48,1.48c0,5.37,0,10.74,0,16.11v1.19a4.74,4.74,0,0,0,.69.1c5.67,0,11.34,0,17,0a2.39,2.39,0,0,0,1.41-.69Q201.19,96.82,207,91c.24-.23.44-.5.83-1H189.43Z"/><path d="M223,56.36a13.37,13.37,0,0,1,.12,1.42q0,21.82,0,43.66c0,.39,0,.77-.06,1.35-.39-.35-.66-.56-.89-.8-3.73-3.71-7.47-7.4-11.16-11.15a2.57,2.57,0,0,1-.68-1.63c0-6.16,0-12.33,0-18.49V69.3h-1.39c-6.11,0-12.22,0-18.33,0a2.61,2.61,0,0,1-2.09-.83c-3.67-3.71-7.39-7.38-11.07-11.07a5.73,5.73,0,0,1-.68-1Z"/><path d="M99.33,74.58c4.09-4.71,8.11-9.3,12.07-13.93a2.56,2.56,0,0,1,2.24-1c2.46.07,4.93,0,7.47,0v40.46H111V75c-1.31,1.5-2.4,2.74-3.48,4-2.26,2.62-4.52,5.26-6.79,7.88-1,1.16-1.9,1.15-2.93,0-3.34-3.85-6.67-7.71-10.2-11.79v25.13H77.53V59.66a35.67,35.67,0,0,0,4.74,0c3-.42,4.92.66,6.74,3,3,3.86,6.37,7.44,9.59,11.14C98.8,74,99,74.25,99.33,74.58Z"/><path d="M128.91,100V59.77a3.36,3.36,0,0,1,.58-.1c6.51,0,13-.17,19.53.09,6.8.27,12.72,2.69,16.78,8.47,5.45,7.74,4.47,19.71-2.11,26.06a19.37,19.37,0,0,1-12.5,5.43c-7.28.43-14.6.32-21.9.44A1.39,1.39,0,0,1,128.91,100Zm10.26-32.7v25.3c2.8,0,5.53.17,8.22,0,5-.39,8.85-2.58,10.47-7.52a19.48,19.48,0,0,0,.86-6.31c-.12-6.28-4.17-10.75-10.39-11.38C145.34,67.07,142.29,67.32,139.17,67.32Z"/><path d="M72.77,100.18c-3.6,0-7,0-10.44,0-.29,0-.68-.48-.82-.82-.91-2.08-1.79-4.17-2.62-6.27a1.2,1.2,0,0,0-1.28-.93q-8.14.06-16.29,0a1.14,1.14,0,0,0-1.27.91c-.74,2.09-1.54,4.17-2.36,6.24-.14.34-.51.85-.78.86-3.38.06-6.76,0-10.33,0l1.51-3.78q7.2-17.79,14.37-35.58a1.54,1.54,0,0,1,1.72-1.18c3.23.07,6.47,0,9.7,0a1.17,1.17,0,0,1,1.26.81q8.63,19.42,17.31,38.85C72.54,99.53,72.61,99.75,72.77,100.18ZM55.49,85,49,69.45,43.13,85Z"/><path d="M189.43,71.89V90.06h18.36c-.39.46-.59.73-.83,1q-5.79,5.79-11.61,11.55a2.39,2.39,0,0,1-1.41.69c-5.67,0-11.34,0-17,0a4.74,4.74,0,0,1-.69-.1V102c0-5.37,0-10.74,0-16.11a2.29,2.29,0,0,1,.48-1.48c4-4.08,8.11-8.12,12.18-12.17A4.47,4.47,0,0,1,189.43,71.89Z"/><path class="cls-1" d="M139.17,67.32c3.12,0,6.17-.25,9.16.05,6.22.63,10.27,5.1,10.39,11.38a19.48,19.48,0,0,1-.86,6.31c-1.62,4.94-5.51,7.13-10.47,7.52-2.69.21-5.42,0-8.22,0Z"/><path class="cls-1" d="M55.49,85H43.13L49,69.45Z"/></svg>