<svg id="Layer_1" data-name="Layer 1" xmlns="http://www.w3.org/2000/svg" viewBox="0 0 250 160"><defs><style>.cls-1{fill:#fbcb13;}.cls-1,.cls-2{fill-rule:evenodd;}</style></defs><path class="cls-1" d="M72.78,101.5s-4.66-.09-7.34,1.43a7.47,7.47,0,0,0-3.95,5.47l-2.77,11.74-1,4.21H61.4a2.32,2.32,0,0,0,1.89-1.7l.44-1.62,3-11.65c1-4.48,6.63-4.57,6.63-4.57h10l-1.35,6.46H72.16a2.47,2.47,0,0,0-2.51,2l-.18.8-.36,1.17H80.94l-1.79,9.14h3.76a2.69,2.69,0,0,0,2.15-2.24l.45-2.15,3.85-18.46Zm16,22.85,3.94-19.45h15.68s4.39.09,6.27,1.53c2.69,2,1.62,5.28,1.62,5.28s-1.53,7.26-1.62,7.71c-1.07,5.29-3.13,5-6.45,4.93,0,0,1.08-4.57,2.42-10.66,1-4.49-2.24-4.13-2.24-4.13h-11l-2.24,10c-1.08,4-3.5,4.75-4.93,4.84ZM140.08,117c-.36,5.56,19.09,3,17.12,3.32l-1.44,3.85s-23.56,3.67-21-9.68c2.51-12.36,27-9.32,27-9.32l-1.88,3.94s-15-1.34-19.09,3.86h14.69s-.8,3.31-2.33,4Zm-21.86,1.23a5.51,5.51,0,0,0,2,4.89c3.76,2.72,12.19,1.36,12.19,1.36l1-3.61s-9.59,1.13-9.77-2l2.15-7.69h5.2c2.33,0,4.75-4.16,4.75-4.16h-9.14l.63-2.4c.45-1.53,1.16-2.65-.54-2.73h-4.48l-3.94,16.34Zm48.21-3.83c2.42-7,20.43-5.11,20.43-5.11l1.79-3.85s-26.61-3.22-27.78,8.87c-1.25,13.35,22.67,10,22.67,10l1.71-4.93c-2.25.27-21.33,2.06-18.82-5Zm23.65,6.2a2.19,2.19,0,1,1-2.19,2.18,2.19,2.19,0,0,1,2.19-2.18Zm0,.53a1.66,1.66,0,1,1-1.65,1.65,1.65,1.65,0,0,1,1.65-1.65Zm-1,2.74h.44V123h.09a.57.57,0,0,1,.22,0,.28.28,0,0,1,.14.09,2.51,2.51,0,0,1,.23.32l.31.47h.53l-.27-.42a2.57,2.57,0,0,0-.25-.36,1.54,1.54,0,0,0-.23-.18.7.7,0,0,0,.43-.2.59.59,0,0,0,.14-.4.64.64,0,0,0-.09-.34.53.53,0,0,0-.26-.21,1.49,1.49,0,0,0-.5-.06h-.93v2.17Zm.44-1.25h.33a1.45,1.45,0,0,0,.39,0,.23.23,0,0,0,.12-.09.28.28,0,0,0,.05-.16.24.24,0,0,0-.06-.18.28.28,0,0,0-.16-.09h-.67Z"/><path class="cls-2" d="M134.26,64.56h6.16c1.43-.07,1.91-1.47,1-3L127.37,37.26c-1.78-3-2.77-3-4.4,0L93.5,88.66c-1.22,2.13-1.41,3.67,1.44,3.62h48c2.14,0,3.06-.92,1.8-3.1l-2.22-3.84c-.76-1.17-1.23-1.54-2.17-1.57h-31c-2.39.1-2.07-1.48-1.21-3.33l15.52-27c1.11-1.87,2.46-1.86,3.5,0,2,3.62,4,7.09,6,10.72C133.38,64.51,133.89,64.58,134.26,64.56Z"/><path class="cls-1" d="M124.78,68a2,2,0,0,1,1.82-1h16.6c1.3.09,1.5.36,2.12,1.39q6.15,10.55,12.32,21.08c1,1.92.33,2.86-1.15,2.83h-5.74c-1.11,0-1.34-.2-2-1.26l-9.24-16.37H124.36c-1.83,0-2.66-.8-1.75-2.6Z"/></svg>