<svg id="Layer_1" data-name="Layer 1" xmlns="http://www.w3.org/2000/svg" viewBox="0 0 250 160"><defs><style>.cls-1{fill:#fefefe;}.cls-2{fill:#010101;}.cls-3{fill:#dbdbdb;}.cls-4{fill:#e2e2e2;}.cls-5{fill:#fdfdfd;}.cls-6{fill:#fbfbfb;}</style></defs><path class="cls-1" d="M40.74,105.26H18V54.74q105.54,0,211.08-.06c2.44,0,2.94.46,2.92,2.87q-.21,22.46,0,44.9c0,2.41-.48,2.88-2.92,2.87q-93.81-.12-187.63-.06c-.37-1.77,1-2.48,2.1-3.32C49,97.6,54.38,93.25,59.74,88.83c1.16-1,3.37-1.67,2.45-3.71-.83-1.86-2.79-1.32-4.62-1.09,1.64,1.13,1.65,2.34,0,3.19-4,2.08-7.7,4.63-11.89,6.25-2.89,1.12-4.62-.41-4.08-3.53a28.56,28.56,0,0,1,2.61-8,9.68,9.68,0,0,0,.84-2.76c.66-1.85,2.21-3,3.53-4.31,5-5,10-9.91,15-14.82,1.27-1.23,2.6-2.22,4.19-1.11.09-2.35,0-2.41-2.77-1.63a26.58,26.58,0,0,1-3.75,1,9.54,9.54,0,0,1-1.51.06,11.27,11.27,0,0,0-6.54.86C44.44,62.88,35.48,66.17,26.76,70c-1.14.51-3.08.37-2.51,2.83.22,1-1.8,1.17-2.71,1.9.9.39,1.88.18,2.77.49,1.22.42,2.83.63,2.91,2.14s-1.69,1.6-2.83,2.09c4.1,1.12,5,2.12,5.15,5.7a19.81,19.81,0,0,1-.5,6.24c-.7,2.47.5,2.39,2.22,1.72a1.15,1.15,0,0,1,.64.71c-.48,2.59.78,4.17,2.76,5.79S40.13,101.92,40.74,105.26Z"/><path class="cls-2" d="M40.74,105.26c-2.63-2-5.19-4.16-7.93-6-2.13-1.44-2.54-3-1.26-5.12,3.06-5,7.76-8.41,11.87-12.4.44-.43,1.45-1.14,1.67.39-1,2.75-1.92,5.5-2.85,8.26-.29.87-.63,1.72.49,2.45a2.19,2.19,0,0,0,2.58,0C49.66,90.51,54,88.26,58.42,86c-.39-1.54-2.26-.77-3-2.58,2.62.56,5.1-2.69,7.62.92,1.17,1.69.86,2.41-.61,3.56-6.65,5.24-13.22,10.59-19.79,15.92-.49.39-1.34.55-1.24,1.46Z"/><path d="M61.55,57.64c1.43-.5,2.84-1.06,4.3-1.49.93-.28,1.9-1.3,2.9-.27s.5,2.14,0,3.23c-.19.42-.34.85-.67,1.68-.54-1.88-1.18-2.64-2.76-1-6.49,6.55-13.09,13-19.65,19.48A111.42,111.42,0,0,1,31.46,93.15l-3.49,3c.18-3.17.41-5.9.49-8.62.17-6,.14-6-5.85-8l4.55-2c-2.4-1.94-5.18-1.92-8.38-2.16,1.69-1.64,3.67-1.74,5.16-2.68-.33-1.07-1.79-.4-2.35-1.66C32.75,66.57,43.87,62.14,55,57.66c1.65-.66,3.25-.25,4.87-.08-.09,2.44-2.42,2.36-4.1,3.52C58.36,60.63,59.52,58.42,61.55,57.64Z"/><path class="cls-2" d="M122.3,71.42c3,0,5.92-.07,8.87,0,3.29.1,4.42,1.51,3.32,4.47-2.26,6-4.69,11.94-7.12,17.88-1.15,2.83-3.58,4-6.48,4.1-5.67.12-11.36.16-17,0-3.13-.07-4-1.48-2.94-4.38,2.31-6.11,4.81-12.15,7.16-18.24a5.61,5.61,0,0,1,5.7-3.87C116.62,71.4,119.46,71.42,122.3,71.42Z"/><path class="cls-2" d="M84.5,97.79c3-1.93,4.16-4.78,5.51-7.63,1.14-2.42.12-2.56-2-2.92-7.74-1.34-13.52,2-18.41,7.29-3.27,3.57-7.24,3.68-11.86,3C67.84,89.22,77.67,81.1,87.48,73a5.77,5.77,0,0,1,3.88-1.41c3.67,0,7.33,0,11,0,2,0,2.82.31,1.88,2.58-2.95,7.11-5.75,14.28-8.5,21.46a3.09,3.09,0,0,1-3.45,2.26C89.7,97.72,87.1,97.79,84.5,97.79Z"/><path class="cls-2" d="M161.83,97.78c-4,0-7.93,0-11.89,0-1.33,0-1.81-.8-2.22-1.84-.89-2.28-1.8-4.56-2.76-6.82-.36-.83-.76-1.84-1.92-1.78s-1.54,1-1.89,1.86c-.63,1.51-1.15,3.06-1.72,4.59-1.46,3.86-3.8,5-7.88,4-1.34-.33-1.4-1-1-2,2.36-5.85,4.68-11.71,7.12-17.52.61-1.44,6.9-2.29,7.73-1.07s-.4,2.36-.84,3.47c-1.59,4-1.59,4.13,2.7,4,2.09,0,4.93,1,6.12-.55,1.83-2.46,2.76-5.62,3.81-8.57.67-1.87-1-1.71-2.13-1.72-4.5,0-9-.07-13.5,0a4.72,4.72,0,0,1-4.45-2.28c8.76,0,17.21-.09,25.65.06,2.53,0,3.52,1.66,2.53,4.14-.78,2-1.69,3.86-2.31,5.87-1.22,4-3.67,6.18-8.06,5.75-2.22-.22-2.78.58-1.74,2.54,1.33,2.53,1.56,6.07,6,5.56.87-.1,1.89,1.1,2.84,1.7Z"/><path d="M185.35,71.54c4.05,0,7.79,0,11.53,0,1.62,0,2.2.54,1.59,2.08-2.79,6.92-5.53,13.86-8.39,20.76a5.4,5.4,0,0,1-5.33,3.4c-5.91,0-11.83.09-17.74,0-3.22-.05-4.12-1.47-2.94-4.63,1.63-4.37,3.33-8.72,5.23-13,1.54-3.44,2.38-6.47-2.22-8.61h11.47c2.09,0,1.52,1.12,1,2.31-2.4,6.07-4.7,12.19-7.17,18.23-.92,2.25-1,3.37,2.06,3.27,9.07-.28,6.79,1.16,10-6.62,1.12-2.69,2.21-5.4,3.3-8.1C189.94,75.32,189.94,75.32,185.35,71.54Z"/><path class="cls-2" d="M191.23,97.76c1.29-2.24,2.91-2.51,4.78-2.48,4.38.08,8.77.07,13.15,0,2.58,0,6.11-4.64,5.46-7-.33-1.2-1.47-1-2.34-1.06-3.43,0-6.87.23-10.29.13-4-.12-4.79-1.42-3.46-5.15,3.82-10.66,3.82-10.66,15.34-10.66h16.29a4.82,4.82,0,0,1-4.67,2.61c-4.26-.06-8.53.1-12.79-.06-2.38-.1-3.56.74-4.44,3-3.06,7.69-3.16,7.65,5,7.65,2.13,0,4.27-.1,6.39.06,2.33.19,3.47,1.53,2.7,3.84a57.59,57.59,0,0,1-2.53,6.15,5.32,5.32,0,0,1-5.22,3C206.92,97.78,199.23,97.76,191.23,97.76Z"/><path class="cls-3" d="M31.46,93.15A178.07,178.07,0,0,1,45.68,79.22c-.06,1,.48,2.1-.59,2.89-.92-1.54-1.25,0-1.59.38-4,3.84-8,7.74-11.95,11.63Z"/><path class="cls-4" d="M61.55,57.64a21.12,21.12,0,0,0-2.32,2.52c-1.47,2.22-3.28,2.56-5.61,1.19,1.62-2,5-1.27,6.23-3.77Z"/><path class="cls-5" d="M114.23,95.3c-7.15.17-6-.25-4.11-5.06,1.65-4.11,3.52-8.15,4.9-12.35,1-3,2.52-3.94,5.64-3.83,6.52.22,6.53,0,4.15,6-1.42,3.58-3.12,7.08-4.19,10.75S117.61,96.23,114.23,95.3Z"/><path class="cls-6" d="M81.58,83.86c3.88-3.18,7.54-6.22,11.25-9.18.57-.45,1.37-1.12,2.2-.36s0,1.27-.2,1.88-.51,1.3-.78,1.94C91.13,85.28,90,85.82,81.58,83.86Z"/></svg>