<svg id="Layer_1" data-name="Layer 1" xmlns="http://www.w3.org/2000/svg" viewBox="0 0 250 160"><defs><style>.cls-1{fill-rule:evenodd;}</style></defs><g id="logo"><path id="path33148" class="cls-1" d="M184.05,72.57V77.9h-3.67a20.52,20.52,0,0,0-4.44.4,9.64,9.64,0,0,0-3.18,1.27c-1.79,1.12-2.69,2.49-2.69,4.13s.86,2.87,2.57,4A10.31,10.31,0,0,0,176,89.05a23.89,23.89,0,0,0,4.8.4h3.24v5.34h-4.89a31.94,31.94,0,0,1-10.82-1.54c-3.55-1.31-6-3.21-7.5-5.67a7.44,7.44,0,0,1-1.11-3.83,8.1,8.1,0,0,1,1.85-5,13.17,13.17,0,0,1,3.73-3.22,21,21,0,0,1,8-2.62,46.24,46.24,0,0,1,6.2-.37Z"/><path id="path33152" class="cls-1" d="M194.21,65V77.84l.07.26c3.33.42,6.92-.4,8.58-3.39a7.85,7.85,0,0,0,1.08-2.14h7.35c1.29,3.81-2,7.15-5.28,8.47,5.29,3.49,6,7.29,5.76,13.75H203c.14-5.17-.68-11.2-8.83-10.7v10.7h-9.16V65Z"/><path id="path33156" class="cls-1" d="M74.94,95H91.71l1.34,0a9.43,9.43,0,0,0,9.34-9.32c0-5.32-4.84-8.61-10.45-8.61H82a2.71,2.71,0,0,1-2.63-2.59,2.91,2.91,0,0,1,2.86-3h18.61V65.05H81.9c-7.24,0-10.32,4-10.46,8.88a9.26,9.26,0,0,0,9.3,9.4H91.06l1.16.08a2.5,2.5,0,0,1,2.34,2.35,3,3,0,0,1-3.13,2.86l-20.57.08L71,65H58.35c-4-.06-6,2.35-7.5,5.71L38.2,94.92l.72,0,9.36-.08q5-10.29,9.92-20.58c1.26-2.19,2-2.51,4.26-2.26V95Z"/><path id="path33160" class="cls-1" d="M110.61,76.56h6.73a4.27,4.27,0,0,0,3-.8,2.13,2.13,0,0,0,.58-1.48,1.79,1.79,0,0,0-.8-1.61,4.93,4.93,0,0,0-2.6-.6h-7v4.49ZM117.79,65c2.44.08,4.35-.14,5.93.32,3.38.94,5.2,2.44,6.08,4.27a7.07,7.07,0,0,1,.67,3.21,6.77,6.77,0,0,1-2,5.13,6.5,6.5,0,0,1-2,1.4,16.21,16.21,0,0,1-3.29,1c5.5,3.07,6.94,6.47,6.94,14.4h-9.54c0-8-3.21-11.2-10-11.13v11.2h-7.16V65Z"/><path id="path33164" class="cls-1" d="M144.59,79a4.7,4.7,0,1,1-5.05,4.69A4.88,4.88,0,0,1,144.59,79"/><path id="path33168" class="cls-1" d="M144.59,77.42a6.28,6.28,0,1,1-6.74,6.26,6.53,6.53,0,0,1,6.74-6.26m0-4.85c8.07,0,14.66,5,14.66,11.11s-6.59,11.11-14.66,11.11-14.67-5-14.67-11.11,6.59-11.11,14.67-11.11"/><path id="path33172" class="cls-1" d="M207.75,65.93a2.41,2.41,0,1,1-2.4,2.4,2.41,2.41,0,0,1,2.4-2.4m0,.46a1.95,1.95,0,1,1-1.94,1.94,1.94,1.94,0,0,1,1.94-1.94"/><path id="path33176" class="cls-1" d="M207.27,68.14h.37a1.94,1.94,0,0,0,.45,0,.22.22,0,0,0,.13-.1.27.27,0,0,0,.05-.18.35.35,0,0,0-.06-.21.39.39,0,0,0-.19-.1h-.75v.62Zm-.5,1.42V67.1h1a1.61,1.61,0,0,1,.57.07.59.59,0,0,1,.29.23.76.76,0,0,1,.1.39.65.65,0,0,1-.16.46.81.81,0,0,1-.48.23,1.37,1.37,0,0,1,.26.2,2.55,2.55,0,0,1,.28.4l.3.48h-.59L208,69a3.56,3.56,0,0,0-.26-.36.36.36,0,0,0-.15-.11,1.11,1.11,0,0,0-.25,0h-.1v1Z"/></g></svg>