<svg id="Layer_1" data-name="Layer 1" xmlns="http://www.w3.org/2000/svg" viewBox="0 0 250 160"><defs><style>.cls-1{fill:#00539b;}</style></defs><path class="cls-1" d="M215.59,65.33a4,4,0,0,1,6.86-2.91,4,4,0,1,1-6.86,2.91m-.33,0a4.41,4.41,0,0,0,4.39,4.42,4.14,4.14,0,0,0,3.06-1.29A4.53,4.53,0,0,0,224,65.33a4.38,4.38,0,0,0-1.29-3.14,4.31,4.31,0,0,0-3.06-1.29,4.41,4.41,0,0,0-4.39,4.43M218,68h.63V65.88H220a1.32,1.32,0,0,1,.55.07.8.8,0,0,1,.33.63l.08.81v.37c0,.07,0,.11.07.15h.77V67.8c-.11,0-.14-.15-.18-.3a1,1,0,0,1,0-.4l0-.63a1.08,1.08,0,0,0-.15-.59,1.3,1.3,0,0,0-.44-.29,1.1,1.1,0,0,0,.48-.45,1.3,1.3,0,0,0,.14-.7A1.2,1.2,0,0,0,221,63.3a2,2,0,0,0-.85-.15H218l0,4.8Zm.59-2.62V63.67h1.48a1,1,0,0,1,.51.11.73.73,0,0,1,.33.7c0,.33-.07.55-.25.66a1.11,1.11,0,0,1-.67.19ZM43.92,71.41,26,99.58H38.24L55.49,72.66Zm73.76-.63V60.35H82.85a11.31,11.31,0,0,0-8.37,4.2c-1.66,1.74-2.58,5.39-2.58,5.39V60.42H53.35a4.41,4.41,0,0,0-3.72,2c-1,1.36-5.27,8.36-5.27,8.36Zm94.74,0V60.35H175.15a11.37,11.37,0,0,0-8.36,4.2c-1.66,1.74-2.58,5.39-2.58,5.39v.84Zm-82.5-10.39H119.49V70.78h10.43Zm34.17,0H153.7V70.78h10.39Zm0,14.15-10.24-.62V86s0,3.47-3.39,3.47H132.91a3.31,3.31,0,0,1-3-3.43V72.3l-10.32-.74V90a11.32,11.32,0,0,0,9.66,9.55s.81,0,1,.07H154s10.18-.81,10.18-10.62l-.08-14.49Zm-102.81,25H110a11.45,11.45,0,0,0,9.37-9.44,16.07,16.07,0,0,0,.18-4.17c-.26-1.55-3.2-8.4-9.55-9-3.79-.37-37.6-3.06-37.6-3.06A10.64,10.64,0,0,0,75.62,80a13.44,13.44,0,0,0,6.08,2.91l26.07,2.18a2.12,2.12,0,1,1,.14,4.24H71.45V73.84l-10.13-.73S61.28,99.58,61.28,99.58Zm102.89.07h37.31c9.36-.55,10.69-9.44,10.69-9.44a17.15,17.15,0,0,0,.07-4.24c-.26-2.1-3.24-8.44-9.62-9.07-3.76-.37-37.79-2.36-37.79-2.36a9.93,9.93,0,0,0,3.39,5.53,12,12,0,0,0,5.87,2.81l26.32,2.21c.81,0,2.47.11,2.47,2.1a2.23,2.23,0,0,1-.67,1.55,4.23,4.23,0,0,1-1.73.48h-36.2Z"/></svg>