<svg id="Layer_1" data-name="Layer 1" xmlns="http://www.w3.org/2000/svg" viewBox="0 0 250 160"><defs><style>.cls-1{fill:#ee7f00;}</style></defs><path d="M60,70.73H55.65V63.9h-5V89.57h9.63c5.85,0,9.23-3.65,9.23-9.65a9.73,9.73,0,0,0-2-6.29c-1.79-2.26-4.09-2.9-7.51-2.9Zm-.86,14.8H55.65V74.8H58.7c3.88,0,5.57,1.39,5.57,5.47s-1.47,5.26-5.17,5.26ZM81.7,74.66h6.61V70.73H81c-6.29,0-9.52,3.29-9.52,9.44s3.23,9.4,9.52,9.4h7.29V85.64H81.66c-3.23,0-4.52-.39-4.63-3.5H88.31V78.21H77c.11-3,1.47-3.55,4.67-3.55Z"/><path class="cls-1" d="M96.32,80.38a9.73,9.73,0,0,0,2.05,6.29c1.8,2.25,4.13,2.89,7.54,2.89h4.27v6.83h5V70.73h-9.63c-5.86,0-9.23,3.61-9.23,9.65Zm13.86-5.58V85.53h-3.05c-3.88,0-5.57-1.39-5.57-5.5,0-3.93,1.47-5.22,5.17-5.22h3.45Zm21.49,10.62h-4c-2.62,0-3.27-.64-3.27-3.15V70.73h-5V82.67c0,4.93,2.44,6.9,7.87,6.9h9.41V70.73h-5V85.42Zm9.48-16.84h5.24V63.9h-5.24v4.68Zm0,21h5.24V70.73h-5.24V89.57Zm8.47-9.41c0,6.19,3.23,9.4,9.52,9.4h7.29V85.63h-6.65c-3.23,0-4.53-.39-4.63-3.5h11.28V78.2H155.15c.11-3,1.47-3.54,4.67-3.54h6.61V70.73h-7.29c-6.28,0-9.52,3.28-9.52,9.43ZM176.28,63.9h-5v6.83h-3.52v3.75h3.52v9.19c0,3.86,2.08,5.9,5.71,5.9h4.56V85.82h-2.05c-2.55,0-3.23-1.11-3.23-3.72V74.49h5.28V70.73h-5.28V63.9Zm8.94,0V83h5.43V63.9Zm0,25.67h5.39V85h-5.39v4.61Z"/><path d="M196.19,66h.5c.42,0,.8,0,.8-.5s-.34-.47-.66-.47h-.64v1Zm-.46-1.34h1.16c.72,0,1.06.28,1.06.87a.78.78,0,0,1-.79.83l.87,1.33h-.51l-.82-1.31h-.5v1.31h-.46v-3Zm3.14,1.5a2.15,2.15,0,1,0-2.15,2.23,2.14,2.14,0,0,0,2.15-2.23Zm-2.14-2.58a2.6,2.6,0,1,1-2.61,2.58,2.59,2.59,0,0,1,2.61-2.58Z"/></svg>