<svg id="Layer_1" data-name="Layer 1" xmlns="http://www.w3.org/2000/svg" viewBox="0 0 250 160"><defs><style>.cls-1{fill:none;}</style></defs><g id="Cooler-Master_logo_190212_black_wordmark"><rect id="rect12" class="cls-1" x="56" y="24.62" width="49.34" height="42.58"/><path id="path14" d="M72.28,71.32c-.2-7,2.2-13.65,8.22-15,3.93-.89,7.85,2.48,8.68,7.51l-5.48,1c-.39-1.94-1.5-3.17-3.12-2.71-2.51.7-3.4,4.13-3.32,8.43s1.09,7,3.54,6.84c1.62-.12,3.1-1.8,3.36-4.11l5.27-.44c0,5.24-3.92,10-8.55,10-5.18,0-8.41-4.69-8.6-11.54Zm38-6.22c-.45-10.22,2-19.74,8.5-22.2,6.73-2.57,11.54,6.73,11.75,18.46.24,14.27-4,21.5-10.47,21.5C114.29,82.86,110.72,75.55,110.26,65.1Zm6.39-.67c.21,6.25,1.43,10.81,3.48,10.61,2.27-.22,3.46-5.71,3.28-12.9-.19-7.38-1.69-12.13-4-10.77C117.79,52.33,116.41,57.33,116.65,64.43Zm-26.24,3.5c-.31-8.88,2.44-16.34,7.72-18.11,5.9-2,10.18,5.51,10.36,15.15.21,11-3.11,17.89-9.44,17.89C93.87,82.86,90.72,76.68,90.41,67.93Zm5.46-1c.16,5.39,1.33,9.35,3.31,9.18s3.37-4.65,3.23-10.5-1.61-10-3.75-9.3C97.23,56.83,95.69,60.87,95.87,67ZM140.4,43.43,133.13,41V82.44H149.7V75l-9.3-.68Zm42.33,29.3,3.19,9.71h-5.15l-2.84-9.18-2-.23v9.41h-6V53.18l9.68,3.26c3.91,1.31,6.2,5.44,6.2,9.83C185.74,70.31,184.16,72.12,182.73,72.73Zm-1.66-7.44a3.45,3.45,0,0,0-2.32-3.59L175.9,61v6.34l2.85.53C180.11,68.08,181.07,67.15,181.07,65.29ZM133.13,94.14l5.06-.33v31.52l6.92-2.31V93.31l4.54-.37V85.52H133.13Zm18.64,26.66,16-5.32v-6.2l-9.38,2.46v-6.51l8.27-1.65V97.26l-8.27,1.07V92.42l9.38-.66V85.52h-16Zm31-20,3.16,8.6-5.17,1.72L177.94,103l-2,.45v9.35l-6,2V85.52h9.7c3.92,0,6.23,3.37,6.23,7.79,0,4.06-1.6,6.42-3,7.52Zm-1.67-6.93c0-1.88-1-2.92-2.33-2.82l-2.85.2v6.37l2.85-.42C180.13,97,181.09,95.77,181.09,93.9Zm-76.56-8.38,6.84,36.53L105,119.83l-.84-5.49-5.74-1.64-.73,4.63-5.25-1.81,5.47-30Zm-1.38,21.69-2-12.36-1.88,11.47Zm-22-9.36L78.7,85.52H72.83v23.22l4.1,1.44V95.49L80,111.24l1.77.62,4-15.06v16.44l5.38,1.87V85.52h-7ZM194,72.72V97.59c0,12.55-1.91,16.21-13.42,21.23-4,1.72-10,4.72-25.44,10.55-6.78,2.58-17,6-25.91,6s-19.07-3.43-25.88-6c-15.39-5.83-21.42-8.83-25.42-10.55-11.51-5-13.44-8.68-13.44-21.23V72.72c0-13.52,3.24-18.89,14.57-24.08,2.33-1.07,5-2.4,19.7-7.79,16.83-6.19,25.26-7.72,30.47-7.72s13.67,1.53,30.52,7.72c14.69,5.39,17.37,6.72,19.7,7.79C190.79,53.83,194,59.2,194,72.72Zm-3.61-1.66c0-12.33-5.55-16.48-13.49-19.78-2.79-1.18-4-1.93-18-7.15-11.58-4.3-22.18-7.51-29.64-7.51s-18,3.21-29.61,7.51c-14.06,5.22-15.21,6-18,7.15-7.92,3.3-13.46,7.45-13.46,19.78V98.54c0,9.54,2.2,13.18,10.07,16.7,6.58,2.93,7.25,3.24,20.87,8.59,8.61,3.37,20.07,7.83,30.16,7.83s21.59-4.46,30.19-7.83c13.64-5.35,14.31-5.66,20.9-8.59,7.87-3.52,10.07-7.16,10.07-16.7ZM118.18,96.52c-.1-2.08,1.4-3.48,2.88-3.32,1.1.13,2.53,1.3,2.33,4.11l7.22.71c.38-7.29-2.69-12.78-9.31-12.89-5.13-.07-10.08,4.34-9.92,11,.25,11.92,13.25,10,13.34,19.91,0,1.48-.82,3-2.34,2.83-1.92-.36-3.36-1.69-3.49-5.77l-6.76-1.65c-.06,6.22,2.19,12.8,8.78,14.23,6.4,1.41,12.28-3.77,10.89-12.66C130.16,102.68,118.48,102.06,118.18,96.52Zm33.59-14.08h16V76.19l-9.38-.64V69.17l7.79,1V63.87l-7.79-1.6v-6l9.38,2.49V52.46l-16-5.3Z"/></g></svg>