<svg id="Layer_1" data-name="Layer 1" xmlns="http://www.w3.org/2000/svg" viewBox="0 0 250 160"><defs><style>.cls-1{fill:#231f20;}</style></defs><path class="cls-1" d="M49.81,53.53s4.34,8.88,3.56,12.57c0,0,11.4,3.69,12.63,9.79C66,75.82,72.22,67.66,49.81,53.53ZM45.4,66.81a40.13,40.13,0,0,1,2.27,7.46L41.19,71.8c.58-4-3.24-9.91-3.24-9.91ZM33.87,72.9a40.71,40.71,0,0,1,1.94,6.35L30,77.83c.58-4-3.11-8.68-3.11-8.68Z"/><path class="cls-1" d="M46.63,63.44S72.74,81.78,74.49,88.91c1.3,5.38-2.46,10.3-2.46,10.3s-2-14-52,7.26A26.79,26.79,0,0,0,27.06,85.8a25.69,25.69,0,0,0-2.46-8.94L36.33,83a2,2,0,0,0,.06.59,39.71,39.71,0,0,1-1,13.67,31.89,31.89,0,0,0,3-16.78,31.07,31.07,0,0,0-2.65-10.18l12.5,8.36c.07.39.07.84.13,1.23a39.84,39.84,0,0,1-1.36,15A32.13,32.13,0,0,0,50.78,76.6,32.44,32.44,0,0,0,46.63,63.44ZM78.51,86.77c0,7.52,6.22,12.77,14.12,12.44a18.63,18.63,0,0,0,8.49-2.4V90.33h-1c-.91,4-3.3,7.26-7.45,7.26-5.12,0-9.07-5-9.07-10.82S87.65,76,92.7,76c4.15,0,6.54,3.24,7.45,7.26h1V76.73a19.61,19.61,0,0,0-8.49-2.4C84.73,74,78.51,79.25,78.51,86.77Zm37.26-12.44a12.51,12.51,0,1,0,12.31,12.51A12.3,12.3,0,0,0,115.77,74.33Zm0,23.46c-4.34,0-7.26-5.12-7.26-11s2.92-11,7.26-11,7.25,5.11,7.25,11S120.11,97.79,115.77,97.79Zm40.56-18.34c0-2,2.07-3.63,4.21-3.69,2.33,0,4.67,1,5.9,5.57h.64V75.89a17,17,0,0,0-6.6-1.56c-4,0-8,2.46-8,7.06,0,8.23,11.27,6.68,11.27,12.18,0,2.79-1.68,4.09-4.27,4.09S154,95.58,153,91.44h-.84v6c1,.32,3.69,1.88,7.13,1.88,6,0,8.88-4,8.88-7.52C168.25,83,156.33,85.6,156.33,79.45Zm44.84-2.14a1.52,1.52,0,0,1,.71-1.23l1.55-.84v-.39h-9.26v.39l1.55.84a1.38,1.38,0,0,1,.72,1.23v19a1.55,1.55,0,0,1-.72,1.23l-1.55.84v.39h9.26v-.39l-1.55-.84a1.4,1.4,0,0,1-.71-1.23Zm-72.9-2.46v.39l1.56.84a1.39,1.39,0,0,1,.71,1.23v19a1.54,1.54,0,0,1-.71,1.23l-1.56.84v.39h9.27v-.39L136,97.53a1.4,1.4,0,0,1-.71-1.23v-19a1.84,1.84,0,0,1,.26-.84.61.61,0,0,1,.58-.26h3c1.82,0,3.76,2.14,3.76,4.79v1.37c0,2.65-1.75,4.47-3.76,4.47h-1.81s5.83,10,6.74,11.14c1.29,1.62,5.57,3.76,8.87,3-3.24-1.75-6.28-7.33-8.81-12a6.78,6.78,0,0,1-2.85-1,6.14,6.14,0,0,0,6.42-6.28c0-5.64-4-6.81-8.43-6.81H128.27v-.06Zm77.11,0v.39l1.55.84a1.38,1.38,0,0,1,.72,1.23v19a1.55,1.55,0,0,1-.72,1.23l-1.55.84v.39h9.26v-.39l-1.55-.84a1.38,1.38,0,0,1-.71-1.23v-19a2,2,0,0,1,.25-.84.63.63,0,0,1,.59-.26h3C218,76.21,220,78.35,220,81v1.37c0,2.65-1.75,4.47-3.76,4.47h-1.82s5.84,10,6.74,11.14c1.3,1.62,5.58,3.76,8.88,3-3.24-1.75-6.29-7.33-8.81-12a6.78,6.78,0,0,1-2.85-1,6.13,6.13,0,0,0,6.41-6.28c0-5.64-3.95-6.81-8.42-6.81h-11Zm-14,22.68a1.76,1.76,0,0,1-.65-.72l-8.81-22h-2.85l-8.81,22a1.16,1.16,0,0,1-.65.72l-1.55.84v.39h7.12v-.39l-1.36-.71a1.49,1.49,0,0,1-.77-1.3,1.33,1.33,0,0,1,.12-.52l2-4.79h8.29l2,4.79a1.22,1.22,0,0,1,.06.46,1.37,1.37,0,0,1-.52,1.1c-.06.06-.13.06-.19.13l-1.56.84v.39h9.79v-.39l-1.56-.84ZM175.7,89.3l3.44-8.55,3.43,8.55Z"/></svg>