<svg id="Layer_1" data-name="Layer 1" xmlns="http://www.w3.org/2000/svg" viewBox="0 0 250 160"><path d="M55.09,61C49,61,42.52,63.36,35.66,68.5a2.65,2.65,0,1,0,3.18,4.25c6.63-5,12.21-6.68,17.18-6.43s9.59,2.52,14.14,6.33a2.66,2.66,0,1,0,3.41-4.07C68.45,64.3,62.73,61.34,56.3,61,55.9,61,55.5,61,55.09,61Zm94.38,0c-6.08,0-12.58,2.38-19.44,7.52a2.66,2.66,0,1,0,3.19,4.25c6.63-5,12.2-6.68,17.18-6.43s9.59,2.52,14.14,6.33a2.66,2.66,0,1,0,3.4-4.07c-5.11-4.28-10.83-7.24-17.26-7.57C150.28,61,149.87,61,149.47,61ZM118.86,62a2.66,2.66,0,0,0-2.27,1.48L102,90.66,87.41,63.52A2.66,2.66,0,0,0,85,62.07a2.71,2.71,0,0,0-2.28,1.33,2.66,2.66,0,0,0,0,2.62L99.66,97.51a2.66,2.66,0,0,0,4.68,0L121.27,66a2.66,2.66,0,0,0-2.41-4Zm77.42.07A2.64,2.64,0,0,0,194,63.52L177.07,95a2.66,2.66,0,0,0,0,2.71A2.63,2.63,0,0,0,179.48,99a2.68,2.68,0,0,0,2.27-1.48l14.6-27.14,14.58,27.14A2.69,2.69,0,0,0,213.21,99a2.63,2.63,0,0,0,2.37-1.28,2.66,2.66,0,0,0,0-2.7L198.68,63.52a2.63,2.63,0,0,0-2.4-1.41ZM36.72,77.34a2.66,2.66,0,1,0,0,5.32H55.9a2.66,2.66,0,1,0,0-5.32Zm112,0a2.66,2.66,0,1,0,0,5.32h15L163.8,88c-4.31,3.44-8.7,5.48-13.4,5.73-5,.25-10.55-1.47-17.18-6.43A2.66,2.66,0,1,0,130,91.52c7.32,5.48,14.23,7.8,20.65,7.47s12.15-3.27,17.26-7.55a2.7,2.7,0,0,0,1-2c0-.75,0-9,0-9.43a2.32,2.32,0,0,0-2.53-2.65H148.67Zm47.54,6.28a3.56,3.56,0,1,0,3.55,3.57,3.59,3.59,0,0,0-3.55-3.57ZM37.12,86.72a2.65,2.65,0,0,0-1.46,4.8C43,97,49.88,99.32,56.3,99s12.15-3.27,17.26-7.55a2.66,2.66,0,1,0-3.4-4.09C65.61,91.16,61,93.44,56,93.69s-10.55-1.46-17.18-6.42a2.66,2.66,0,0,0-1.72-.55Z"/></svg>