<svg id="Layer_1" data-name="Layer 1" xmlns="http://www.w3.org/2000/svg" viewBox="0 0 250 160"><g id="Page-1"><g id="Fractal_Logotype" data-name="Fractal Logotype"><path id="Shape" d="M151.44,87.69a8.52,8.52,0,0,1,.78-2.68c0-.09.08-.09.08-.17l.26-.52h0a1.76,1.76,0,0,1,.35-.52,9.77,9.77,0,0,1,.69-1h0a10.06,10.06,0,0,1,1-.95l.17-.17a9,9,0,0,1,.95-.52l.52-.26a5.67,5.67,0,0,1,.69-.26l.78-.26a3.44,3.44,0,0,1,.95-.08c.17,0,.26-.09.43-.09h.08c3.37,0,5.1,1.64,6.57,3.89l5-2.42A12.67,12.67,0,0,0,159.13,75c-7.52,0-12.88,5.1-13.39,12.44v1.12h0v1.13a12.93,12.93,0,0,0,13.39,12.44,12.58,12.58,0,0,0,11.66-6.74l-5-2.42c-1.47,2.25-3.2,3.89-6.57,3.89h-.08a.75.75,0,0,1-.43-.09,3.78,3.78,0,0,1-.95-.08l-.78-.26c-.26-.09-.43-.18-.69-.26l-.52-.26c-.35-.18-.61-.35-.95-.52l-.17-.17a5.54,5.54,0,0,1-1-.95h0a9.92,9.92,0,0,1-.78-1c-.09-.18-.26-.35-.34-.52h0l-.26-.52c0-.09-.09-.09-.09-.17a9.6,9.6,0,0,1-.78-2.68v-.09c0-.34-.08-.6-.08-1s.17-.34.17-.69ZM78.17,101.6h6.31V88H97.87V81.9H84.48V70.76H98.82V64.62H78.17Zm101.61-34h-6.14v34h6.14V81.81h6.39V75.68h-6.39ZM136.4,79.22a10.57,10.57,0,0,0-8.81-4.14c-7.17,0-12.61,6-12.61,13.56s5.53,13.56,12.61,13.56a10.78,10.78,0,0,0,8.81-4.4v3.71h6V75.59h-6Zm-7.51,17.46a8,8,0,1,1,7.77-8A7.86,7.86,0,0,1,128.89,96.68Zm-27.65,4.92h6.13V81.81h6.4V75.68H101.24ZM208.81,79.22A10.59,10.59,0,0,0,200,75.08c-7.18,0-12.62,6-12.62,13.56S192.91,102.2,200,102.2a10.8,10.8,0,0,0,8.81-4.4v3.71h6.05V75.59h-6.05Zm-7.52,17.46a8,8,0,1,1,7.78-8A7.85,7.85,0,0,1,201.29,96.68Zm18,4.92h6.14V64.53h-6.14Z"/><polygon id="Shape-2" data-name="Shape" points="24.6 104.62 24.6 92.36 45.94 80 56.66 86.13 35.32 98.49 35.32 110.84 24.6 104.62"/><polygon id="Shape-3" data-name="Shape" points="24.6 73.78 24.6 61.51 45.94 49.16 56.66 55.29 35.32 67.64 35.32 80 24.6 73.78"/></g></g></svg>