<svg id="Layer_1" data-name="Layer 1" xmlns="http://www.w3.org/2000/svg" viewBox="0 0 250 160"><defs><style>.cls-1{fill:#005daa;}</style></defs><polygon class="cls-1" points="221.22 67.38 219.67 67.38 219.67 66.75 223.47 66.75 223.47 67.38 221.93 67.38 221.93 71.72 221.22 71.72 221.22 67.38"/><polygon class="cls-1" points="224.19 66.75 225.37 66.75 226.94 70.87 228.47 66.75 229.65 66.75 229.65 71.72 228.94 71.72 228.94 67.42 228.92 67.42 227.28 71.72 226.57 71.72 224.93 67.42 224.91 67.42 224.91 71.72 224.19 71.72 224.19 66.75"/><rect class="cls-1" x="51.31" y="66.67" width="7.09" height="26.51"/><path class="cls-1" d="M100.33,66.69H109L119.3,93.33h-7.79l-2-5.68h-10l-2.1,5.68H90.21l10.12-26.64m4.35,5.5h-.07l-3.44,10.42h6.68l-3.17-10.42"/><path class="cls-1" d="M122.75,66.69H135c5,0,8.66,2.17,8.66,6.75,0,3.36-1.71,5.24-4.69,6.23v.07c3.54.73,5.38,2.64,5.38,5.88,0,6.38-5.61,7.71-10.38,7.71H122.75V66.69m7.1,21.61H132c2.59,0,5.3-.39,5.3-3.09,0-2.91-2.79-3.17-5.23-3.17h-2.18V88.3m0-11.07h2c2.33,0,4.73-.58,4.73-2.83,0-2.45-2.29-2.67-4.65-2.67h-2.07v5.5"/><polyline class="cls-1" points="153.97 83.3 144.13 66.69 152.29 66.69 157.53 77.38 162.68 66.69 170.85 66.69 161.07 83.3 161.07 93.33 153.97 93.33 153.97 83.3"/><polyline class="cls-1" points="180.34 71.95 173.77 71.95 173.77 66.69 194 66.69 194 71.95 187.44 71.95 187.44 93.33 180.34 93.33 180.34 71.95"/><polyline class="cls-1" points="197.38 66.69 216.16 66.69 216.16 71.73 204.48 71.73 204.48 77.23 215.51 77.23 215.51 82.26 204.48 82.26 204.48 88.3 216.58 88.3 216.58 93.33 197.38 93.33 197.38 66.69"/><path class="cls-1" d="M35.19,72.52c-4.72.39-7.3,3.49-7.3,7.51A7.48,7.48,0,0,0,35,87.21h2.06a.84.84,0,0,0,.86-.84V78H45.2c0,4.73,0,15.34,0,15.34H33.81A13.45,13.45,0,0,1,20.35,80,13.25,13.25,0,0,1,34,66.78l10.91,0v5.7H35.19"/><path class="cls-1" d="M77.38,72.52c-4.73.39-7.3,3.49-7.3,7.51a7.48,7.48,0,0,0,7.1,7.18h2.06a.84.84,0,0,0,.86-.84V78h7.28c0,4.73,0,15.34,0,15.34H76A13.44,13.44,0,0,1,62.55,80,13.25,13.25,0,0,1,76.23,66.78l10.89,0v5.7H77.38"/></svg>