<svg id="Layer_1" data-name="Layer 1" xmlns="http://www.w3.org/2000/svg" viewBox="0 0 250 160"><defs><style>.cls-1{fill:#b51b1f;}.cls-1,.cls-2,.cls-3{fill-rule:evenodd;}.cls-2{fill:#d61518;}.cls-3{fill:#881b20;}</style></defs><path class="cls-1" d="M57.76,106.74a18.08,18.08,0,0,0,3.76,5.52l-1.45-4.13a45.21,45.21,0,0,1-.53-25,40.38,40.38,0,0,1,3-7.64l.32-.45c.79,15.51,6.06,27.92,17.8,37a48.26,48.26,0,0,0,18.6,8.76c5.81,1.32,12.35,1.75,18.25.14a20.4,20.4,0,0,0,4.8-2c-.56,0-4.17.51-6.16.57a53.19,53.19,0,0,1-6.7-.24,46.12,46.12,0,0,1-11.2-2.55,42.44,42.44,0,0,1-9.1-4.65c-3.37-2.21-4.78-3.87-7.41-6.45-4-3.91-8.38-12-10.31-17.18a49.05,49.05,0,0,1-2.78-11,43.7,43.7,0,0,1-.15-9.9c.11-1.21.74-1.44,1.39-2l2.23-2.33c.81-.69,1.6-1.39,2.44-2.11a54.28,54.28,0,0,1,10.94-7.22c1-.52,2-1,3.12-1.42.55-.23,1-.43,1.62-.66.27-.1,1.56-.42,1.56-.42h-.33C99.67,48.8,106.27,48,115,49.84a43.28,43.28,0,0,1,14.27,5.8c1.49,1,2.59,1.89,3.81,2.81-2.39-3.7-7.85-7.75-11.61-9.82C110.33,42.52,97.74,42.88,86,47.22c-9.52,3.51-12.58,6.88-14.07,7.55.5-2.11,4.07-7.47,5.45-9.24a37.73,37.73,0,0,1,7.45-7.32c-1.94.53-6,3.39-7.62,4.64A38.47,38.47,0,0,0,71,49a36.52,36.52,0,0,0-6.39,12.14c-.61,2-1,2-2.3,3.91C55,77.74,51.24,92.83,57.76,106.74Z"/><path class="cls-2" d="M45.62,55.1A7.7,7.7,0,0,0,39,63.85a7.83,7.83,0,1,0,6.65-8.75Zm91.26,42.78V100H125.33c-1.29,0-2.44-.18-3.08.81a1.93,1.93,0,0,0,.62,2.69c.72.41,2.71.22,3.66.22h11.59c1.36,0,2.28-.07,2.47-1.41.16-1.08.17-6.8-.23-7.47-.55-.93-1.93-.71-3.08-.71-2.66,0-9.87.16-11.58,0V92c2.15-.18,8.56,0,11.45,0,1.4,0,2.55.17,3.18-.79a1.94,1.94,0,0,0-.56-2.69c-.77-.44-2.57-.25-3.57-.25H124.62c-1.3,0-2.31.08-2.57,1.24a38.29,38.29,0,0,0,.13,7.53c.47,1,1.66.85,2.91.85ZM114,94.18c-1.56-.17-3.91,0-5.55,0-1.42,0-4.23-.34-5.09.49a1.87,1.87,0,0,0,1.38,3.23c1.69.1,3.93-.17,5.53,0l0,2c-1,.28-9.48.08-11.2.08V92h10c1.44,0,3.58.32,4.43-.62a1.87,1.87,0,0,0-1.09-3.09l-15.05,0c-2.2,0-2.08,1.1-2.08,3.11,0,3.35,0,6.69,0,10,0,2.22.72,2.34,2.8,2.33,2.48,0,14.37.21,15.11-.24,1.09-.66.74-2.85.74-4.24,0-1.58.11-3.55,0-5.08Zm33.62,5.17a30.43,30.43,0,0,1,3.52,1.19l7,2.43c1.21.41,2.54,1.15,3.61.25a1.86,1.86,0,0,0-.47-3l-10.58-3.82c.92-.31,4.93-2.3,6.88-3.07,1.2-.47,2.31-.93,3.51-1.38a1.82,1.82,0,0,0,.85-3.15c-1-1-2.45-.17-3.59.28l-7.1,2.82a34.5,34.5,0,0,1-3.62,1.4,24.6,24.6,0,0,0-.12-3.81,1.93,1.93,0,0,0-2.66-1c-1.15.49-1,1.51-1,3v8.13c0,1.2-.23,2.8.47,3.54a2,2,0,0,0,2.91-.12c.56-.7.38-2.6.38-3.69Zm44.9-9.06v11.48c0,1.39.59,2,2,2h14.69a1.84,1.84,0,0,0,1.62-2.87c-.66-1.21-2.54-.85-4.25-.85-3.34,0-7,.13-10.29,0,0-2.88,0-5.75,0-8.63,0-1.41,0-2.69-1.31-3a1.83,1.83,0,0,0-2.42,1.93ZM176,100V91.49c0-1.41.2-2.55-1.08-3.06a1.86,1.86,0,0,0-2.61,1.32v12.57c.21,1.5,1.44,1.42,2.91,1.42h12.66c1.57,0,2.68,0,2.91-1.49a1.8,1.8,0,0,0-1.94-2.24c-4.22-.06-8.59.1-12.84,0Zm-10.36-9.72v11.12c0,1.35.36,2.2,1.68,2.3a1.77,1.77,0,0,0,2-1.94V90.29A1.87,1.87,0,1,0,165.59,90.29ZM117.31,101.6a1.86,1.86,0,0,0,1.13,3.55C120.82,104.52,119.76,100.74,117.31,101.6Z"/><path class="cls-3" d="M64.33,38.09a4.81,4.81,0,1,0,5.62,4A4.84,4.84,0,0,0,64.33,38.09ZM62,65.48l-.27.68a60,60,0,0,0-6.25,15.91L55.1,83l-.2.3c0,.08-.15.34-.22.49a47,47,0,0,0-3.84,16.73c-2.61-6-.42-15.14,1.82-20.54a46.3,46.3,0,0,1,6.89-11.64L62,65.48Zm29.8-14.2s-1.29.32-1.56.42l-1.62.66c-1.11.46-2.08.91-3.12,1.42A53.9,53.9,0,0,0,74.55,61c-.84.71-1.63,1.41-2.44,2.1l-2.23,2.34,4-2.29c10.6-5.7,25.24-7.69,36.78-4.76a44,44,0,0,1,23,14.72,35.94,35.94,0,0,1,4.88,7.7c-.39-3.86-3.82-10-6-13.07-5.4-7.72-13.67-12.83-23.25-15.12a60.51,60.51,0,0,0-17.53-1.35Z"/></svg>