<svg id="Layer_1" data-name="Layer 1" xmlns="http://www.w3.org/2000/svg" viewBox="0 0 250 160"><defs><style>.cls-1{fill:#a6a6a6;}.cls-1,.cls-2,.cls-3{fill-rule:evenodd;}.cls-2{fill:#db241d;}</style></defs><path class="cls-1" d="M174,77.32c-.49.13-3.51-.9-4.35-1.13a68,68,0,0,0-13.23-2c-.12,0-.93,0-1-.13s-.06,0-.08,0c-.26.18.11.08-.45.13-.19,0-.51,0-.71,0-1.66-.06-8,.1-8.85.48.42.15,4.53.49,5.43.62a76.79,76.79,0,0,1,27.44,9.52A37.75,37.75,0,0,1,182,87.1a22.81,22.81,0,0,1-2.81,1.73C168,95.51,152.2,99,139.28,100.44c-4.09.46-9,.77-13.13.89-1.47,0-3.15,0-4.58.12.3,0,3.52.43,4.26.5a138.76,138.76,0,0,0,32.53-.57,72.8,72.8,0,0,0,22.71-6.77,53.82,53.82,0,0,0,6.18-3.76,38.86,38.86,0,0,1,3.62,2.81c.29.23.39.37.69.6l1.36,1.21c.51.53.86.76,1.37,1.21s.83.87,1.28,1.29l1.9,2c.25.26.48.41.74.66l2.43,2.71c2.18,2.66,3.6,4.36,5.61,7.26a14.89,14.89,0,0,0,1.06,1.54,67.61,67.61,0,0,0-2.89-7.2c-3-6.44-5.08-8.83-9.1-13.7l-1.95-1.92c-.24-.23-.36-.43-.6-.68-.47-.47-.93-.61-1.37-1.26l2-2.16a33.29,33.29,0,0,0,5-7.65,37.69,37.69,0,0,0,3.41-13.42l-1.31,3.13a41.3,41.3,0,0,1-5.93,9.15l-7.8,7.39L183.82,82a50.25,50.25,0,0,0-8.25-3.92l-.85-.32-.45-.13c-.51-.22-.33,0-.31-.3Z"/><path class="cls-2" d="M127.76,73a13.46,13.46,0,0,1,2.6,1.51,23.11,23.11,0,0,1-2.27,1c-1.4.59-1.14.21-1.58,1.69a49.42,49.42,0,0,0-1.47,5l25.19,0,1.21-4-18.9,0,8.13-3.49c-.55-.57-5.43-3-6.12-3.5a.81.81,0,0,1-.21-.2H153.6l1.21-4H129.58ZM97.24,82.15h5.56l3.39-11.22c3.87-.17,9.86,0,14,0-.38,1.67-.63,1.38-2.15,2a27.11,27.11,0,0,1-3,1.2l-8.39,0a29.89,29.89,0,0,0-1.2,4c2.72,0,5.47,0,8.19,0,3.22,0,3.07-.23,6.48-1.69L123,75.28c2.37-1,1.51-.09,3.06-5.13a30.47,30.47,0,0,0,1-3.28H101.83L97.24,82.15ZM155.3,74s.07,0,.08,0,.88.12,1,.13a68,68,0,0,1,13.23,2c.84.23,3.86,1.26,4.35,1.13,1.08-.46,2.23-.91,3.32-1.35l2.5-1c.51-.2.48-.11.65-.63.4-1.2.74-2.48,1.1-3.69a36,36,0,0,0,1.09-3.77h-25.2L155.3,74ZM73.52,70.76l6.35,5.45c.2.19.32.25.52.42s.72.6,1,.85L80,82.14l5.56,0c.3-.93.56-1.86.85-2.79.46-1.48.15-1.54,1.46-2.27l9.38-5.36c1.31-.77,1.34-.39,1.8-1.95a24.8,24.8,0,0,0,.84-2.93H94.34c-.87,2.67.15,1.56-4.06,4A56.12,56.12,0,0,1,85,73.78a2.37,2.37,0,0,0-.57-.57l-4.77-4.07.64-2.27H74.69l-1.17,3.89ZM65.2,72.48l-12.62,0-1.23,4,12.62,0-1.66,5.59,5.57,0,4.58-15.25-5.58,0L65.2,72.48ZM42.69,82.15h5.54L52.81,66.9l-5.48,0c-.12.21-4.57,14.72-4.64,15.28Zm118.17-8c3,0,6,0,9.07,0,1.67,0,3.33-.85,5.07-1.63.58-.26.6-.48.83-1.61H162c-.4.11-1.06,2.89-1.12,3.24Zm-8,8,.48,0H158l.41,0,1.16-3.8a27.77,27.77,0,0,0-5.21-1.29l-1.52,5.1Z"/><path class="cls-3" d="M79.23,59.54a5.43,5.43,0,0,1-.57,4.37c-.3.41-.72.53-.73.9A6.41,6.41,0,0,0,81,63.35c1-1,1.2-1.69,1.19-3.5V55.17c0-1-.18-2.43.5-3a4.17,4.17,0,0,1,.85-.4,26.39,26.39,0,0,0-4.09,0l0,.72c-.63-.48-1.87-2-3.76-.09-3.14,3.14-1.29,9.68,2.18,8.51.92-.32.85-.63,1.39-1.34ZM46.93,48c.46.49.71.15,1.09.89.58,1.11.65,10.3,0,11.2-.36.51-.8.36-1.23.68.6.14,3.51.06,4.51.06.4,0,1.21.13,1.51-.15-1.26-.3-1.68-.09-1.69-2.33,0-1.26-.08-2.81,0-4,1.45-.29,2,1.27,2.3,2.37a31.93,31.93,0,0,1,.8,4.12l4.44,0c-.14-.18,0-.05-.19-.18l-.32-.16c-2.49-1.24.28-6.18-6.45-6.55.06-.3,1.22-1.32,1.46-1.56a23.73,23.73,0,0,1,3.35-3.1c.8-.58,2-1.1,2-1.23a23.8,23.8,0,0,0-4.92,0c.33.52,1.27.13,1.09,1.51s-3.2,4.29-3.58,4.26c-.09-.81-.21-4.43.31-5.15s1.1-.23,1.22-.69l-5.75,0Zm51.81,3.54A5.06,5.06,0,0,0,95,56.88c.23,2.21,2.38,4.56,5,4.06a5,5,0,0,0,3.7-5.42c-.32-2.09-2.48-4.54-5-4Zm8.45,1.12v-1l-3.79,0c-1,0,.93,0,1,1.65,0,1,.15,6.17-.23,6.88s-.43.52-.85.6a31.08,31.08,0,0,0,4.78.06c-.15-.45-.82.18-.91-1.81,0-1,0-2,0-2.93,0-1.61-.36-4.48,1.78-4.05.87.75.53,3.18.53,4.52,0,.85,0,1.73,0,2.58s0,1.12-.47,1.43-.24,0-.35.27a37.92,37.92,0,0,0,4.84-.07c-.84-.62-1.09.33-1.09-3,0-2.78.56-6-2.27-6.28-2.29-.23-2.29.77-3,1.18Zm-39,0v-1H65.11c-.43,0-.69,0-.93.16,1.55.81,1.26.31,1.26,4.45,0,.86.13,3.28-.23,4-.25.48-.52.33-.84.6a27.25,27.25,0,0,0,4.78,0c-.38-.31-.86.11-.93-1.75,0-.88,0-1.81,0-2.69,0-1.48-.31-4.08,1.13-4.32,1.67-.29,1.17,3,1.17,4.2,0,.68.21,3.86-.38,4.32a1,1,0,0,1-.23.12l-.23.12a26.3,26.3,0,0,0,4.86,0c-.55-.42-.82.06-1-1-.51-2.68,1.2-7.94-2.33-8.29a2.92,2.92,0,0,0-3,1.18ZM84,57.93l-1.31,0c.06,3.21,5.16,4.24,7,1.59a3,3,0,0,0,.18-3.06c-1-1.48-4.21-1.7-4.8-2.93-1-2.13,3.38-3,3.33.43h1.12c-.18-3.22-5.71-3.33-6.34-.12-.86,4.36,6.15,3.34,4.64,6.16-.49.91-3.68,2-3.79-2Zm5.4-5.64h1.49c.19,1.68-.26,6,.21,7.19.85,2.2,4.68,1.32,4.87.28-.63.28-1.16.64-1.75,0a3,3,0,0,1-.52-2V52.31l1.6,0,.25-.67H93.73l0-2.81c-.48.19-.5.4-1,1a10.12,10.12,0,0,1-1,.89L89.4,52.29Zm-30.56-.67c.15.46.4.14.85.55a1.94,1.94,0,0,1,.43,1.21c.11,1,.06,6.13-.24,6.73-.19.38-.37.42-.78.63l-.07,0a28,28,0,0,0,5.1,0c-.57-.41-1,.1-1.23-1.29l-.1-7.86ZM99,51.75c-1.35.62-1,3.44-1,5,0,1.4-.05,4.82,2.07,3.89,1.22-.53,1-3.55,1-5.06s0-4.79-2-3.88Zm-21.22.09c-1,.54-.87,3.5-.87,4.73,0,6.29,2.79,4.48,2.64-.94a11.92,11.92,0,0,0-.24-2.55c-.15-.61-.7-1.71-1.53-1.24ZM61.09,48.27a1.42,1.42,0,1,0,.8,2.73A1.42,1.42,0,0,0,61.09,48.27Z"/></svg>