<svg id="Layer_1" data-name="Layer 1" xmlns="http://www.w3.org/2000/svg" viewBox="0 0 250 160"><defs><style>.cls-1{fill:#00aae8;}</style></defs><rect id="rect4" class="cls-1" x="46.77" y="47.92" width="12.31" height="12.31"/><g id="g10"><path id="path6" d="M58.78,112.08V67.73H47.12v44.35Zm77.48.44V101.65a27.71,27.71,0,0,1-4.2-.26,4.86,4.86,0,0,1-2.77-1.23,4.93,4.93,0,0,1-1.22-2.63,27.63,27.63,0,0,1-.27-4.29V77.72h8.46v-10H127.8V50.42H116.1v42.9a38.73,38.73,0,0,0,.92,9.16,12.84,12.84,0,0,0,3.12,5.87,12.41,12.41,0,0,0,5.69,3.2,33.94,33.94,0,0,0,8.9,1Zm67-.44V47h-11.7v65.08Zm-98.39-40c-3.24-3.51-7.8-5.26-13.59-5.26a17.09,17.09,0,0,0-7.66,1.71,16.44,16.44,0,0,0-5.79,4.73l-.66.83V67.73H65.62v44.35H77.23V89.29c.13-4.16,1.14-7.23,3.07-9.2a10,10,0,0,1,7.41-3.16c3.37,0,6,1,7.66,3.07s2.55,4.86,2.55,8.5h0v.09h0V112h11.79V86.88C109.75,80.57,108.08,75.57,104.84,72.07Zm80.64,17.75a24.39,24.39,0,0,0-1.67-9,24,24,0,0,0-4.69-7.32,21.23,21.23,0,0,0-7.23-4.9,23.56,23.56,0,0,0-9.29-1.76,23.14,23.14,0,0,0-9,1.8,23.71,23.71,0,0,0-7.32,4.91,22.9,22.9,0,0,0-4.9,7.32,22.23,22.23,0,0,0-1.8,9,23.79,23.79,0,0,0,1.71,9,22.43,22.43,0,0,0,4.78,7.32,21.77,21.77,0,0,0,7.4,4.91A24.14,24.14,0,0,0,163,113a25.1,25.1,0,0,0,19.72-8.72l-8.41-6.4a15.36,15.36,0,0,1-11.22,5,13.16,13.16,0,0,1-8.06-2.28,11.22,11.22,0,0,1-4.21-6.18l-.13-.39h34.84Zm-34.75-4.08c0-3.24,3.72-8.9,11.74-8.94s11.79,5.65,11.79,8.9Z"/></g></svg>