<svg id="Layer_1" data-name="Layer 1" xmlns="http://www.w3.org/2000/svg" viewBox="0 0 250 160"><defs><style>.cls-1{fill:none;}.cls-2{fill:#010101;}.cls-3{fill:#030303;}.cls-4{fill:#050505;}.cls-5{fill:#060606;}.cls-6{fill:#070707;}.cls-7{fill:#040404;}.cls-8{fill:#0a0a0a;}.cls-9{fill:#131313;}.cls-10{fill:#acacac;}.cls-11{fill:#404040;}.cls-12{fill:#d3d3d3;}</style></defs><path class="cls-1" d="M58.5,75.05a4.24,4.24,0,0,1,3-4.35,38.5,38.5,0,0,0,4-2.16,2,2,0,0,0-.76-1.25A18.64,18.64,0,0,0,50,61.08c-1.83,0-1.82,0-2.12,1.8-.62,3.66-1.26,7.31-1.89,11-.52,3.1-1,6.2-1.59,9.55.84-.46,1.42-.78,2-1.08,4-2.11,7.75-4.54,11.82-6.46C58.13,75.53,58.15,75.22,58.5,75.05Z"/><path class="cls-1" d="M63,94.2a.27.27,0,0,1-.09.2.27.27,0,0,0,.09-.2.38.38,0,0,0,.44-.35h0A.38.38,0,0,1,63,94.2Z"/><path class="cls-1" d="M58.26,76.28l-.36,2.41,8.36-4.63c-.12.93-.18,1.58-.29,2.21Q64.52,84.85,63,93.42l-.14.41.14,0a2.2,2.2,0,0,1,.37.07l0,0c6.43-5.39,8.06-15.36,3.72-23.07l-8.51,4.62C58.56,75.72,58.63,76.08,58.26,76.28Z"/><path class="cls-1" d="M38.51,89.6c-1.34.78-2.33.91-3.4-.2a8.07,8.07,0,0,1,0-1.39c1.11-6.27,2.27-12.53,3.35-18.8A16.93,16.93,0,0,0,39,65.09a14.21,14.21,0,0,0-2.83,2.62c-5.34,6.2-6,15.74-1.58,22.17C38,96.07,46.35,100,53.2,98.74c1-.19,1.25-.65,1.39-1.53.46-2.81,1-5.61,1.48-8.42.57-3.24,1.11-6.49,1.67-9.75a2.51,2.51,0,0,0-1.4.55C50.39,82.91,44.41,86.18,38.51,89.6Z"/><path class="cls-2" d="M50.31,58.66A21.34,21.34,0,1,0,72,80,21.29,21.29,0,0,0,50.31,58.66Zm5.76,30.13c-.48,2.81-1,5.61-1.48,8.42-.14.88-.37,1.34-1.39,1.53C46.35,100,38,96.07,34.62,89.88c-4.44-6.43-3.76-16,1.58-22.17A14.21,14.21,0,0,1,39,65.09a16.93,16.93,0,0,1-.57,4.12c-1.08,6.27-2.24,12.53-3.35,18.8a8.07,8.07,0,0,0,0,1.39c1.07,1.11,2.06,1,3.4.2,5.9-3.42,11.88-6.69,17.83-10a2.51,2.51,0,0,1,1.4-.55C57.18,82.3,56.64,85.55,56.07,88.79Zm7.3,5,0,0h0a.38.38,0,0,1-.44.35.27.27,0,0,1-.09.2s-.11.06-.15,0c-.24-.24-.15-.47.17-.59l.14-.41Q64.5,84.84,66,76.27c.11-.63.17-1.28.29-2.21L57.9,78.69l.36-2.41-.09-.42c-4.07,1.92-7.85,4.35-11.82,6.46-.58.3-1.16.62-2,1.08.56-3.35,1.07-6.45,1.59-9.55.63-3.66,1.27-7.31,1.89-11,.3-1.76.29-1.76,2.12-1.8a18.64,18.64,0,0,1,14.71,6.21,2,2,0,0,1,.76,1.25,38.5,38.5,0,0,1-4,2.16,4.24,4.24,0,0,0-3,4.35.23.23,0,0,1,.08.33l8.51-4.62C71.43,78.47,69.8,88.44,63.37,93.83Z"/><path class="cls-2" d="M171.47,62.05c-2.26,0-4.37,0-6.48,0-1.17,0-1.75.63-1.94,1.83-.51,3.3-1.13,6.58-1.7,9.85-.68-.06-.73-.54-.91-.86-1.47-2.51-2.91-5-4.37-7.57-.63-1.08-1.07-2.55-2-3.1s-2.45-.2-3.71-.2c-3.46,0-3.44,0-4,3.42-.79,4.71-1.65,9.41-2.42,14.12-.15.92-.56,1.19-1.45,1.16-2.14-.06-1.82-.08-2.22-1.72-1.25-5.08-2.59-10.14-3.88-15.21C135.9,62,135.9,62,134.18,62c-1.19,0-2.39,0-3.59,0a5.57,5.57,0,0,0-5.65,3.18c-3.11,5.7-6.42,11.29-9.63,16.93-.2.35-.69.69-.26,1.26,1.69,0,3.42,0,5.14,0,1.2,0,2.34-.28,2.81-1.49s1.49-1.51,2.69-1.4a10.9,10.9,0,0,0,1.4,0c2.08-.06,2.39-.29,3.3-2.65h-5.14l4.93-8.67c.91,4.58,1.78,8.7,2.53,12.83.2,1.07.58,1.45,1.67,1.41,2.32-.08,4.65,0,7,0s4.39,0,6.58,0c2.52-.07,3.57-1,4-3.5.15-.85.24-1.71.45-2.55.47-1.9.49-3.9,1.25-6,1.62,2.81,3.12,5.46,4.67,8.07.77,1.3,1.14,3.18,2.44,3.74s3.13.23,4.72.22c2,0,2.4-.42,2.74-2.38q.78-4.41,1.55-8.82C170.32,68.84,170.88,65.52,171.47,62.05Z"/><path class="cls-2" d="M185.41,83.35a9.36,9.36,0,0,0,1.59.07q7.86,0,15.73,0c2.3,0,2.79-.4,3.51-2.78h-4c-2.25,0-4.51,0-6.77,0-1.93-.06-2.35-.64-2-2.49.47-2.54,1-5.07,1.4-7.61.49-2.79.93-5.59,1.42-8.58-2.43,0-4.55,0-6.66,0-1.9,0-2.25.38-2.57,2.28-.21,1.31-.46,2.61-.68,3.91-.76,4.43-1.53,8.86-2.27,13.29C183.89,82.68,184.21,83.15,185.41,83.35Z"/><path class="cls-2" d="M101.67,80.7H99.92c-3,0-6,0-9,0-2,0-2.31-.37-2.07-2.41.15-1.25.41-2.49.62-3.73.72-4.1,1.44-8.21,2.18-12.47H84.43c-1.24,0-1.7.77-1.88,1.88-1,5.62-1.94,11.24-2.9,16.86-.34,2-.13,2.31,1.87,2.52.4,0,.8,0,1.2,0,5.11,0,10.23-.05,15.34,0A3.22,3.22,0,0,0,101.67,80.7Z"/><path class="cls-2" d="M214.78,61.94c-2.69,0-2.94.21-3.37,2.76-1.06,6.18-2.12,12.35-3.2,18.7,2.51,0,5,0,7.51,0,1,0,1.41-.75,1.56-1.72.43-2.67.94-5.32,1.4-8,.68-3.87,1.34-7.73,2-11.74Z"/><path class="cls-2" d="M115.26,62c-2.06,0-4.12,0-6.18.05-1.16,0-1.7.69-1.88,1.88-.58,3.67-1.29,7.32-1.92,11-.48,2.74-.93,5.48-1.42,8.45,2.22,0,4.27,0,6.31,0s2.28-.34,2.61-2.25c.5-2.87,1-5.75,1.51-8.62.54-3.08,1.09-6.15,1.62-9.22C116,62.73,116.3,62,115.26,62Z"/><path class="cls-3" d="M150.83,89.87c0-.58-.23-.82-.83-.82-1.6,0-1.79.07-1.63,1.42a1.75,1.75,0,0,1-.12,1.15c-.2.19-.35,0-.52,0-1.69-.4-2.65-.13-3.32,1a4.29,4.29,0,0,0,.32,4.51,2.35,2.35,0,0,0,3.22.4c.41-.23.54,0,.87.18,1,.51,2,.14,2-.6C150.85,94.64,150.82,92.25,150.83,89.87Zm-2.44,4.88c0,.69-.22,1.39-1,1.36s-1-.72-1-1.45.2-1.56,1.16-1.47S148.41,94,148.39,94.75Z"/><path class="cls-3" d="M129.82,93.48c-.18-1.72-1.24-2.41-2.92-2-.44.09-.72.55-1.31.46,0-.65,0-1.31,0-2,.08-1.13-.71-.85-1.33-.89s-1.13,0-1.11.92q.09,3.47,0,7c0,1.13.73.82,1.34.87s1.15,0,1.1-.92a17.1,17.1,0,0,1,.08-2.77.83.83,0,0,1,1-.79.78.78,0,0,1,.71.82,20.2,20.2,0,0,1,0,2.58c-.06.9.33,1.11,1.16,1.1s1.41-.08,1.32-1.16S129.93,94.52,129.82,93.48Z"/><path class="cls-3" d="M88.34,89c-1.46,0-2.93.08-4.38,0-1.06-.06-1.22.43-1.17,1.3s0,2,0,3,.07,2.13,0,3.18.35,1.31,1.35,1.32,1.34-.33,1.33-1.35c0-2.17.05-2.17,2.16-2.25.13,0,.26,0,.4,0,.54,0,.84-.12.85-.77s-.17-1-.89-1a16.36,16.36,0,0,1-2,0c-.53,0-.55-.49-.55-.9s.28-.56.63-.57c.73,0,1.46,0,2.19,0s1.13-.08,1.12-.94S89.11,89,88.34,89Z"/><path class="cls-4" d="M200,93.79c-.16-2.15-1.42-3-3.38-2.15a1.15,1.15,0,0,1-1.27,0c-1.34-.72-2-.2-2,1.34,0,.53,0,1.06,0,1.59,0,.73,0,1.47,0,2.19-.09,1,.4,1.09,1.18,1s1.36.1,1.26-1a21.18,21.18,0,0,1,0-2.39c0-.58.25-1.07.89-1.12s.83.54.86,1.07c0,.86.05,1.73,0,2.59,0,.6.24.82.83.81,1.58,0,1.72,0,1.64-1.41C200,95.52,200.07,94.65,200,93.79Z"/><path class="cls-4" d="M173.51,91.42c-2-.33-3.68.31-4.34,1.66a3.48,3.48,0,0,0,1.39,4.49,4.74,4.74,0,0,0,5.32-1.32c-1.12-.2-2-.46-2.89.07-.75.42-1.36,0-1.55-.94a19.75,19.75,0,0,1,3.82-.13c.69,0,.94-.28.85-1A3,3,0,0,0,173.51,91.42Zm-.92,2.76c-.49-.11-1.12.2-1.16-.5s.52-.91,1-.93a.91.91,0,0,1,1.06.9C173.53,94.42,172.84,94,172.59,94.18Z"/><path class="cls-5" d="M104.44,91.43c-2.11-.39-3.75.26-4.44,1.76a3.35,3.35,0,0,0,1.13,4.23,4.57,4.57,0,0,0,5.49-1.08c-1.49-.4-1.5-.41-2.63,0-.32.11-.6.28-.94.12s-.78-.35-.69-.84.51-.32.81-.32c.93,0,1.86,0,2.79,0s1-.34.94-1.09A2.93,2.93,0,0,0,104.44,91.43Zm-1.13,2.74c-.38-.11-1,.25-1.08-.44a1,1,0,0,1,1-1c.63,0,1.22.27,1.16,1S103.7,94.06,103.31,94.17Z"/><path class="cls-6" d="M94.37,91.37c-1.93,0-3.22.94-3.5,2.53a3.31,3.31,0,0,0,1.84,3.78,4,4,0,0,0,4.87-1.48c-.84-.12-1.64-.48-2.48.06s-1.32.06-1.9-.79a4.41,4.41,0,0,1,2-.22,13.22,13.22,0,0,1,1.78,0c1.07.12,1.23-.42,1.07-1.3C97.7,92.24,96.48,91.36,94.37,91.37Zm.09,2.75c-.37,0-.81.17-1.07-.21s0-.51.18-.7a1,1,0,0,1,1.22-.36,1.1,1.1,0,0,1,.72,1.22A10.29,10.29,0,0,1,94.46,94.12Z"/><path class="cls-5" d="M187.88,91.37c-2.07,0-3.39.9-3.67,2.59A3.31,3.31,0,0,0,186,97.63a4.28,4.28,0,0,0,5-1.38,3.27,3.27,0,0,0-2.67.06c-.8.45-1.33,0-1.69-.93a14.5,14.5,0,0,1,3.64-.12c1.07,0,1.24-.43,1.09-1.32C191.07,92.29,189.89,91.4,187.88,91.37ZM186.71,94a1,1,0,0,1,1-1.24c.64,0,1.1.35,1.13,1.2A4.55,4.55,0,0,1,186.71,94Z"/><path class="cls-5" d="M215.56,91.43c-2.27-.4-4.09.47-4.58,2.17a3.43,3.43,0,0,0,1.73,4.05,4.18,4.18,0,0,0,5-1.46c-.87-.09-1.65-.45-2.52.06s-1.45.11-1.86-1H218C218.09,92.89,217.32,91.74,215.56,91.43Zm0,2.56a4.38,4.38,0,0,1-2.19,0c.1-.9.54-1.28,1.19-1.23A1,1,0,0,1,215.57,94Z"/><path class="cls-4" d="M135.73,91.38c-2.22-.09-3.56.81-3.85,2.59a3.27,3.27,0,0,0,1.74,3.67,4.3,4.3,0,0,0,5.08-1.45c-.95-.06-1.78-.46-2.73.11-.77.47-1.32,0-1.62-.78.61-.47,1.22-.24,1.8-.27s1.33,0,2,0,1-.13.93-.9C138.93,92.54,137.75,91.46,135.73,91.38Zm-.38,2.77c-.39,0-1,.24-1-.52a1,1,0,0,1,1.08-.89c.65,0,1.05.41,1.13,1.21A1.73,1.73,0,0,1,135.35,94.15Z"/><path class="cls-7" d="M206.49,95.93a1.1,1.1,0,0,1-1.75-.13,1.94,1.94,0,0,1,0-2.25,1.08,1.08,0,0,1,1.72-.3c.89.86,1.65.34,2.54.13-1-1.87-2.54-2.48-4.68-1.91A3.12,3.12,0,0,0,202,95a2.87,2.87,0,0,0,2.75,2.84c2.46.32,3.54-.23,4.29-2.37C208.06,95.54,207.24,95.06,206.49,95.93Z"/><path class="cls-5" d="M164.05,90.64c-.65,1.31-1.32,2.17,0,3.32.16.15,0,.64,0,1,0,.67,0,1.33,0,2s.33.84,1,.89c1.05.07,1.55-.17,1.51-1.39s-.57-2.76,1-3.61c.09,0,0-.38.07-.57.28-.94-1.21-.56-1-1.34s1.42-.06,1.38-1.09c0-.19,0-.39.09-.74L166.54,89C165.29,88.92,164.68,89.37,164.05,90.64Z"/><path class="cls-3" d="M162,89.12c-1.08-.74-3.44,0-3.58,1.27-.1.86-.89,1-1.05,1.7-.21.94.78,1.13.9,1.8a6.53,6.53,0,0,1,0,1c0,.66,0,1.33,0,2s.19.92.9.94c1.48,0,1.5.07,1.52-1.51,0-.73,0-1.46,0-2.19a.92.92,0,0,1,.37-.81c1.23-1,1.15-1.42-.37-2.12.23-.8.87-.5,1.19-.76S162.52,89.48,162,89.12Z"/><path class="cls-4" d="M120.71,93.29c.8-.5.56-1.58.33-1.61-1.61-.19-.92-1.44-1.18-2.32-1.73,0-2.25,1.41-3.13,2.34-.31.33-.33,1.09,0,1.29,1.08.61.72,1.57.76,2.43.1,2.15.74,2.71,2.86,2.42.37,0,.87,0,.84-.56,0-.4.14-.81-.44-1.14A1.59,1.59,0,0,1,120.71,93.29Z"/><path class="cls-8" d="M110.2,89c-.71,0-1.32,0-1.27,1,0,1.18,0,2.37,0,3.56s0,2.11,0,3.16.46,1.06,1.22,1,1.28,0,1.26-1c-.06-2.24,0-4.48,0-6.72C111.43,89.16,111,89,110.2,89Z"/><path class="cls-5" d="M180.67,91.75c-.52.14-1.28-.39-2-.3-.55.07-.56.45-.56.85,0,1.39,0,2.77,0,4.16,0,.77-.05,1.4,1.08,1.36,1,0,1.54-.15,1.38-1.29a8,8,0,0,1,0-1.38c0-1,.05-1.84,1.41-1.93.8,0,.74-.94.93-1.54C182.1,91.19,181.45,91.53,180.67,91.75Z"/><path class="cls-8" d="M154.37,91.43c-.77,0-1.25.11-1.21,1,.06,1.45,0,2.9,0,4.35,0,.63.16.93.87,1,1.43.09,1.54,0,1.57-1.44,0-.53,0-1.06,0-1.58,0-.79,0-1.59,0-2.37C155.69,91.42,155.08,91.44,154.37,91.43Z"/><path class="cls-9" d="M154.53,89c-.58.06-1.37-.25-1.37.85,0,.94.64.82,1.21.81s1.23.25,1.26-.73S155.23,89,154.53,89Z"/><path class="cls-10" d="M58.58,75.38a.23.23,0,0,0-.08-.33c-.35.17-.37.48-.33.81l.09.42C58.63,76.08,58.56,75.72,58.58,75.38Z"/><path class="cls-11" d="M63,94.2l.07-.42-.14,0c-.32.12-.41.35-.17.59,0,0,.1,0,.15,0a.27.27,0,0,0,.09-.2Z"/><path class="cls-12" d="M63,94.2h0a.38.38,0,0,0,.44-.35h0a2.2,2.2,0,0,0-.37-.07Z"/><polygon class="cls-12" points="63.4 93.85 63.4 93.85 63.4 93.85 63.4 93.85"/><path class="cls-12" d="M63,94.2h0l.07-.42L63,94.2Z"/></svg>