<svg id="Layer_1" data-name="Layer 1" xmlns="http://www.w3.org/2000/svg" viewBox="0 0 250 160"><defs><style>.cls-1{fill:#737373;}.cls-2{fill:#f25022;}.cls-3{fill:#7fba00;}.cls-4{fill:#00a4ef;}.cls-5{fill:#ffb900;}</style></defs><path class="cls-1" d="M97.05,83.09,95.92,86.3h-.1a22.09,22.09,0,0,0-1.1-3.15L88.64,67.88h-6V92.22h3.94v-15c0-1,0-2,0-3.34,0-.66-.09-1.17-.12-1.54h.09a14.39,14.39,0,0,0,.57,2.07l7.31,17.77h2.77l7.24-17.92a16.91,16.91,0,0,0,.47-1.92h.1c-.1,1.79-.16,3.4-.19,4.37V92.12H109V67.81h-5.73ZM113,74.68h4.09V92.12H113Zm2.07-7.37a2.45,2.45,0,0,0-1.73.69,2.33,2.33,0,0,0,0,3.37,2.43,2.43,0,0,0,1.73.66,2.51,2.51,0,0,0,1.74-.66,2.22,2.22,0,0,0,.72-1.67,2.34,2.34,0,0,0-.72-1.7,2.31,2.31,0,0,0-1.74-.69m16.54,7.21a11.32,11.32,0,0,0-2.3-.25,9.89,9.89,0,0,0-5,1.23,8.22,8.22,0,0,0-3.27,3.37,10.62,10.62,0,0,0-1.14,5,9.32,9.32,0,0,0,1.11,4.5,7.59,7.59,0,0,0,3.08,3.12,9.15,9.15,0,0,0,4.51,1.1,9.84,9.84,0,0,0,4.94-1.17l0,0V87.65l-.16.13a7,7,0,0,1-2,1,6.13,6.13,0,0,1-1.95.38,4.82,4.82,0,0,1-3.84-1.52,5.76,5.76,0,0,1-1.42-4.12,5.93,5.93,0,0,1,1.45-4.25,5,5,0,0,1,3.84-1.58,6.63,6.63,0,0,1,3.9,1.33l.16.12v-4l0,0a9.51,9.51,0,0,0-2-.63m13.51-.13a4.33,4.33,0,0,0-2.77,1,5.88,5.88,0,0,0-1.58,2.36h0v-3h-4.09V92.12h4.09V83.21a6,6,0,0,1,1-3.68,3.13,3.13,0,0,1,2.64-1.42,8.85,8.85,0,0,1,1.23.16,3.06,3.06,0,0,1,1,.41l.16.12V74.71l-.1,0a3.07,3.07,0,0,0-1.54-.29m11.15-.09a9,9,0,0,0-6.77,2.52,9.37,9.37,0,0,0-2.43,6.86,9,9,0,0,0,2.39,6.52,9.83,9.83,0,0,0,13-.15,9.34,9.34,0,0,0,2.43-6.77,9.14,9.14,0,0,0-2.3-6.59,8.3,8.3,0,0,0-6.36-2.39m3.27,13.42a4.13,4.13,0,0,1-3.43,1.44,4.3,4.3,0,0,1-3.53-1.51,6.21,6.21,0,0,1-1.26-4.19,6.62,6.62,0,0,1,1.26-4.28,4.33,4.33,0,0,1,3.5-1.51,4.17,4.17,0,0,1,3.4,1.45,6.43,6.43,0,0,1,1.26,4.25,7.27,7.27,0,0,1-1.2,4.35m14.52-5.8a9.61,9.61,0,0,1-2.49-1.29,1.82,1.82,0,0,1-.47-1.32,1.45,1.45,0,0,1,.66-1.26,3,3,0,0,1,1.8-.47,8.16,8.16,0,0,1,2.11.31,5.37,5.37,0,0,1,1.82.85l.16.13V75l-.09,0a11,11,0,0,0-1.86-.53,12.24,12.24,0,0,0-2-.19,7.3,7.3,0,0,0-4.82,1.51A4.65,4.65,0,0,0,167,79.62a4.87,4.87,0,0,0,.41,2.14,4.67,4.67,0,0,0,1.26,1.64,10.75,10.75,0,0,0,2.51,1.42c.95.41,1.67.72,2.11,1a4.34,4.34,0,0,1,1,.76,1.78,1.78,0,0,1,.25,1c0,1.16-.88,1.73-2.68,1.73a7.14,7.14,0,0,1-2.26-.41,8.44,8.44,0,0,1-2.3-1.17l-.16-.12v4l.1,0a12.24,12.24,0,0,0,2.2.69,13.86,13.86,0,0,0,2.36.29,7.67,7.67,0,0,0,5.07-1.52,4.79,4.79,0,0,0,1.92-4,4.44,4.44,0,0,0-1-3,13,13,0,0,0-3.69-2.17m15.5-7.62a9,9,0,0,0-6.78,2.52,9.54,9.54,0,0,0-2.42,6.86,9,9,0,0,0,2.39,6.52,9.83,9.83,0,0,0,13-.15,9.34,9.34,0,0,0,2.43-6.77,9.14,9.14,0,0,0-2.3-6.59,8.32,8.32,0,0,0-6.36-2.39m3.24,13.42a4.14,4.14,0,0,1-3.43,1.44,4.25,4.25,0,0,1-3.53-1.51,6.21,6.21,0,0,1-1.26-4.19,6.62,6.62,0,0,1,1.26-4.28,4.31,4.31,0,0,1,3.49-1.51,4.24,4.24,0,0,1,3.41,1.45A6.43,6.43,0,0,1,194,83.37a6.87,6.87,0,0,1-1.2,4.35m27.3-9.67V74.68H216V69.51l-.13,0-3.9,1.17-.1,0v3.94h-6.17V72.47a3.49,3.49,0,0,1,.69-2.3,2.46,2.46,0,0,1,1.92-.75,4.49,4.49,0,0,1,1.83.41l.16.09V66.36l-.1,0a7.28,7.28,0,0,0-2.3-.31,7.42,7.42,0,0,0-3.27.75A5.49,5.49,0,0,0,202.36,69a6.47,6.47,0,0,0-.82,3.24v2.43h-2.86V78h2.86v14.1h4.13V78.05h6.17v9c0,3.69,1.73,5.55,5.2,5.55a11.3,11.3,0,0,0,1.73-.19,6.13,6.13,0,0,0,1.29-.41l0,0V88.57l-.15.12a2.67,2.67,0,0,1-.85.38,3.12,3.12,0,0,1-.82.13,2.17,2.17,0,0,1-1.8-.67,3.38,3.38,0,0,1-.56-2.23V78.05Z"/><path class="cls-2" d="M29.91,59.69h19.3V79H29.91Z"/><path class="cls-3" d="M51.23,59.69h19.3V79H51.23Z"/><path class="cls-4" d="M29.91,81h19.3v19.3H29.91Z"/><path class="cls-5" d="M51.23,81h19.3v19.3H51.23Z"/></svg>