<svg id="Layer_1" data-name="Layer 1" xmlns="http://www.w3.org/2000/svg" viewBox="0 0 250 160"><defs><style>.cls-1,.cls-2,.cls-3,.cls-4{fill-rule:evenodd;}.cls-2{fill:#c7c7c7;}.cls-3{fill:#ed1c24;}.cls-4{fill:#fff;}</style></defs><g id="g20"><path id="path4" class="cls-1" d="M208.33,96.13l9-24.85a77.68,77.68,0,0,0-13.53,1.37l-8.57,23.58h13.12Zm-1.59-31.62-1.69,4.76a77.06,77.06,0,0,1,13.53-1.38l1.69-4.76a113.27,113.27,0,0,0-13.53,1.38Z"/><path id="path6" class="cls-1" d="M159.68,90.31a69.38,69.38,0,0,0,12.48,1.16c2.86,0,7.51-.31,7.93-3.91.21-1.37-1.37-2.43-3.8-3.7-2.86-1.59-5-2.33-7.41-4A5.89,5.89,0,0,1,166.24,73c2.43-8.14,14.38-9.52,21.47-9.52a68.73,68.73,0,0,1,14.17,1.38l-1.7,4.54c-4.23-.74-19.66-3.38-20.4,2.86-.22,1.37,1.26,2.32,3.7,3.7,2.85,1.59,5.07,2.43,7.5,4a5.89,5.89,0,0,1,2.65,6.87c-2.43,8.14-14.38,9.52-21.47,9.52A70.91,70.91,0,0,1,158,95Z"/><path id="path8" class="cls-1" d="M140.12,96.13l7.51-20.73c3-8.14-11.1-4.86-14.38,4.23l-6,16.5h-13l7.5-20.73c3-8.14-11.1-4.86-14.38,4.34l-6,16.49h-13l12-33c4.12,0,6.34.95,8.25,2.86a5.38,5.38,0,0,1,1.37,2.53,50.43,50.43,0,0,1,6-3.17,27.28,27.28,0,0,1,10.15-2.11c4.12,0,6.34.95,8.25,2.85a4.64,4.64,0,0,1,1.37,2.54,49,49,0,0,1,6-3.17,27.27,27.27,0,0,1,10.15-2.12c4.12,0,6.34,1,8.25,2.86s1.8,5.18,1.16,7.08l-8.35,23h-12.8Z"/><path id="path10" class="cls-2" d="M30.68,59.33c7.3-4.55,16.18-8.67,24.64-10h.42c8.46,1.38,17.45,5.5,24.64,10l.74.42v.85c.11,11-1.69,22.73-6.77,32.56-3.91,7.72-10,14.39-18.4,17.35l-.52.21-.53-.21c-8.36-2.86-14.49-9.63-18.4-17.35-5.08-9.83-6.88-21.57-6.77-32.56v-.85Z"/><path id="path12" class="cls-3" d="M31.53,60.7c7.61-4.76,16.28-8.56,24.11-9.83h0c7.72,1.27,16.49,5.07,24.11,9.83.1,25.38-9.73,43.46-24.11,48.43h0C41.15,104.16,31.42,86.08,31.53,60.7Z"/><path id="path14" class="cls-1" d="M62.62,70.54c-3.18,3.7-8.25,4.23-11.74,4.33-.42,0-1.16.11-1.38.42a.39.39,0,0,0,.22.53c3.91,2.75,9.09.74,11.73-.63-3.06,2.75-8.35,3.28-12.79,1.69-.53-.21-.95-.21-1.17,0a.63.63,0,0,0,0,.74c1.27,2.33,2.12,4.12,5.4,5.18-3.7-.21-6-3.7-6.56-5.6,0,3.17,2.75,5.28,3.81,6.55-1.48.11-3,.22-3.6,1.27a23.61,23.61,0,0,1-1,2.65C43.79,84.49,42.42,80,43.69,76a11.33,11.33,0,0,1,6.77-7.5A27.36,27.36,0,0,0,47.71,72c-.74,1.27.1,1.79,1.16.1,1.37,3.17,10.89,1.27,13.43-1.8l1-.42Zm-6,27.91a.83.83,0,0,1,.53-.21.54.54,0,0,1,.31.85,9.45,9.45,0,0,1-1,1,2.23,2.23,0,0,1-.32.53h0A2.45,2.45,0,0,1,56.59,98.45ZM52.15,97A.64.64,0,0,1,53,97c.21.21.32.64.11.85a2.58,2.58,0,0,1-.85.63,2.51,2.51,0,0,0-1.16,1.16,4.42,4.42,0,0,1,.32-1.69A6,6,0,0,1,52.15,97Zm10.57-.53c.11-.1.32,0,.42,0s.22.32.32.43c.11.42.11.74.21,1.16.11.1.11.32.21.42a2.57,2.57,0,0,1-1-.63c-.21-.32-.53-.53-.53-.95a.58.58,0,0,1,.32-.43ZM48.87,94.33a.93.93,0,0,1,.74.1c.21.21.11.43.11.74a.34.34,0,0,1-.32.32c-.42.21-.95.42-1.48.64a1.36,1.36,0,0,0-.74.63,2.2,2.2,0,0,1,.42-1.16A2.87,2.87,0,0,1,48.87,94.33Zm18.82-3.17c0-.22.11-.32.32-.43a2.48,2.48,0,0,1,.95.32,1.28,1.28,0,0,0,.63.11,2.56,2.56,0,0,1-1.26.42.67.67,0,0,1-.64-.42Zm-21.57-1.7c.11-.1.32,0,.42,0a.79.79,0,0,1,.53.64c0,.32,0,.63-.32.84a10.57,10.57,0,0,0-1.9,1c-.21.1-.32.31-.53.52a4.75,4.75,0,0,1,1-2.22C45.38,89.89,45.8,89.68,46.12,89.46Zm7.82-3.06a3.34,3.34,0,0,1,1.38-.32,1.86,1.86,0,0,0-1.06.63c-.1.11-.21.32,0,.43a1.43,1.43,0,0,0,.64.1c.21.11.1.32.1.53a4.67,4.67,0,0,1-.74,1.48.41.41,0,0,0-.1.32c.1,0,.21-.11.31-.11a4.69,4.69,0,0,0,1.17-.95c.1-.21.31-.32.42-.53s-.32-.21-.32-.42a1.42,1.42,0,0,1,.74-.53,1.92,1.92,0,0,1,2.12.32c-.32-.11-.64-.21-1.06-.32-.21,0-.42.11-.42.21a1.32,1.32,0,0,1-.11.64,2.36,2.36,0,0,1-1.48,1.69,2.79,2.79,0,0,0-.74.42.85.85,0,0,0-.21.53c.21.11.32,0,.53.11a2.11,2.11,0,0,0,1.16-.11c.32-.1.53-.42.85-.63a2.24,2.24,0,0,1,2.53.84c-.31-.1-.52-.31-.84-.42a1,1,0,0,0-1,.11,2.09,2.09,0,0,0-.64.74c-.1.1-.1.21-.31.21s-.43-.21-.74-.11-.64.21-1.06.32c-.21.1-.53,0-.74,0a5.19,5.19,0,0,0-1.27-.21c-.21,0-.42,0-.53.21s-.11.42-.21.63c-.11-.53-.32-1.16-.42-1.69a14.29,14.29,0,0,1-.11-2.11,3.44,3.44,0,0,1,.32,1,.55.55,0,0,0,.31.42.72.72,0,0,0,.64-.42c.21-.32.53-.74.42-1.17,0-.21-.32-.21-.42-.31a.66.66,0,0,1-.11-.74,1.92,1.92,0,0,1,.95-.74Zm16.29-1c0-.11.21-.22.42-.22h.85a2.12,2.12,0,0,1-.85.53C70.44,85.87,70.23,85.66,70.23,85.45Zm.21-3.6.63-.32c-.1.21-.21.53-.52.64s-.32-.21-.11-.32ZM60,78.15a3.14,3.14,0,0,0,2,2.54c1.27.42,3,.1,4.34,0,1.05,0,2.11-.21,3,.31A1.84,1.84,0,0,1,70,82.06a5.79,5.79,0,0,1,.53,1.17,1.82,1.82,0,0,1-.11,1,2.78,2.78,0,0,0-.53,1.48,7.54,7.54,0,0,0-.21,1.48,6.26,6.26,0,0,1-.42,1.48,9.76,9.76,0,0,1-1,1.17,5.53,5.53,0,0,0-1,2.11A9.32,9.32,0,0,0,67,93.8a1.87,1.87,0,0,1-1,1.27,20.52,20.52,0,0,1-2.75.84,9.6,9.6,0,0,0-2,1.27,3.28,3.28,0,0,1-1.69.95c-1.38.22-1.69-.84-4.12,0a1.44,1.44,0,0,1-1,0c-.53-.31-.63-1-1.27-1.37a6.54,6.54,0,0,0-2.11-.42.79.79,0,0,1-.74-.53c-.21-.42-.21-.85-.42-1.27-.43-1-2-1.27-2.44-2.12s.11-1.37.22-2.11c0-1-.74-1.48-2-1.48a9,9,0,0,0,1.27-3c.21-.42.21-.85.63-1.06A5.07,5.07,0,0,1,49,84.39a3.06,3.06,0,0,1,1.69.1c1.27.64.95,2.44.31,3.18-.84,1-3.06.84-2.74-.74.42.42.84.95,1.48.31a.39.39,0,0,1,.1-.21.93.93,0,0,0-.63-.63,1.12,1.12,0,0,0-.53-.11,2.16,2.16,0,0,0-1.27,1.06c-.53,1,.53,1.8,1.8,1.59a5.51,5.51,0,0,0,2.43-1.27,19.68,19.68,0,0,0,.1,3.49,12.31,12.31,0,0,0,.85,2.74,4.2,4.2,0,0,0,2,1.8,7.34,7.34,0,0,0,3.07.43,15.62,15.62,0,0,0,5.92-1.49c2.32-1.26,2.64-2.22,3.8-4.12a14.13,14.13,0,0,0,1.27-3,9.83,9.83,0,0,0,.64-3,2.8,2.8,0,0,0-.53-1.8c-1.06-1.27-3.17-.74-5.18-.84-.11.31-.32.63,0,1,.53.53,1.69.42,2.43.53-3.38,1.37-6.45-.11-7.3-2.86.74.85,1.91,2.75,3.6,2.22.63-.21.32-.63.1-1,0-.11-.31-.11-.42-.21-1.69-.85-2.33-2.22-2-3.49Zm-11-.63a3.4,3.4,0,0,0,.63.63C52,80,54.16,80,57.22,80.05c-2.75.64-6.24.21-8.14-1.58-.32-.21-.42-.53-.63-.74-.11-.43.21-.43.53-.21ZM60.4,77c2.43-.11,5,.84,5.81,3.17A3.8,3.8,0,0,0,64,79.63c-.11,0-.32.11-.32.21s.11.42.11.53a3.11,3.11,0,0,1-3-1.16c.32.1.63.31,1,.42a1.85,1.85,0,0,0,1.69-.53.58.58,0,0,0-.21-.84c-.85-.74-1.69-.74-2.85-1.27Zm2.53-4.44c.32-.22.64-.53,1-.74-1.37,2.11-4.75,3.8-7.4,4.22-1.37.32-4.23.64-5.5-.1-.1-.11-.31-.21-.1-.32a1.89,1.89,0,0,1,.74-.1H53.2a26.13,26.13,0,0,0,4-.43,13.36,13.36,0,0,0,5.71-2.53ZM38,64.93a2.11,2.11,0,0,1,1.16.11,2.21,2.21,0,0,1,.85.84c.1.22.21.32.1.53a.37.37,0,0,0-.31.11.37.37,0,0,0-.11.32,4.92,4.92,0,0,0,.63,1.69c0,.1.11.1.22.21.1-.64-.11-1.27.21-1.9a.23.23,0,0,1,.21-.22c.21,0,.42.22.63.11a.26.26,0,0,0,.11-.42c-.11-.43-.42-.64-.74-1a3.86,3.86,0,0,1,1.37,1.26.81.81,0,0,1-.21,1c-.1.1-.32.1-.53.1a1.35,1.35,0,0,0-.21,1.38.34.34,0,0,0,.32.31,8.71,8.71,0,0,0,1.06-.53,14.44,14.44,0,0,0-2.12,2.86c0-.21.11-.53,0-.74s-.21-.21-.32-.32c-.42-.21-.84-.32-1.26-.53s-.64-.63-1-1-.52-.1-.74-.32,0-.42-.1-.63-.11-.74-.42-.95a2.51,2.51,0,0,0-1.27-.21h0a3,3,0,0,1,1.05-.21,2.42,2.42,0,0,1,1.38.74c.21.21.21.63.42.84s.42.32.64.42a2.08,2.08,0,0,0,.74.32.81.81,0,0,0-.22-.84,2.75,2.75,0,0,1-.63-1.48,1.3,1.3,0,0,1,.21-1.06c.11-.21.21-.32.11-.53A6.06,6.06,0,0,0,38,64.93ZM53.31,59a32.31,32.31,0,0,0,3.81,2.22c-.32.21-.53.53-.95.53A8,8,0,0,1,53.31,59Zm1.59-2.43h0a17,17,0,0,0,5.81,4.76,6.28,6.28,0,0,0,2.12.63c.42,0,.84-.21,1.27-.21a2.68,2.68,0,0,1,1.37.42c.11.11.21.21.21.32a1.79,1.79,0,0,0,.74,1.37,1.21,1.21,0,0,0,1.06.11.77.77,0,0,0,.63.63c.32.11.64-.31,1-.21a1,1,0,0,0,.42.53c.1.11.42.21.53.32a2.91,2.91,0,0,1,1.27,1.48,2.85,2.85,0,0,0-1.38-1.06c0,.85,0,2-.63,2.43A2.83,2.83,0,0,0,69,66.52c-.53.32-.95.84-1.59,1,.22-.32.74-.63.53-1.06a1.19,1.19,0,0,0-1.05-.1,3.87,3.87,0,0,0-1.49.74c-.1-.32-.21-.53-.31-.85-.32,0-1.38.42-1.06,1s1.27.32,1.69.43a.94.94,0,0,1,.64.63,1.39,1.39,0,0,1,.1-.63,6.88,6.88,0,0,1,1.27,1.79c.53-.21.64-.53.74-1.16a1.75,1.75,0,0,1,.21,1.06,1.45,1.45,0,0,0,.32-.43,2.33,2.33,0,0,1-1.37,2.86c.21-.64.31-1.16-.53-1.16a15.48,15.48,0,0,0-2.12.31c.21-.1,1.38-.74,1.17-1.16a.56.56,0,0,0-.43-.21c-.42-.11-.84-.32-1.27-.42a1.43,1.43,0,0,0-.63.21c-1.16-.53-1.48.1-2.33.21a2.23,2.23,0,0,1-2-1c-.84-1.38.43-2.22,1.59-2.54-1.48-.21-2.12.32-2.43,1.8-.74-.21-1.06-.21-1.91-.43-5-.74-8.88.74-11.1,3.18a13.12,13.12,0,0,0-3.49,8.88c-.1,3.17.95,5.07,2.54,7.82a13.85,13.85,0,0,1-4.12-6.13c-.32.32-.22.74-.32,1.16-1.38-1.9.53-6.66,1.48-8.77A5.59,5.59,0,0,0,40,75c-.11-2.75,2.32-5.4,4.76-7.62a8.18,8.18,0,0,0-2,.74c2.32-2.43,6.66-3.91,10.46-4a27.41,27.41,0,0,0-3-.53c3-.64,5.08-.64,7.09-2,1,.63,2,1.27,2.64,1.06-1.48-1.17-4.54-3.92-5.07-6ZM63.78,63a4.41,4.41,0,0,1,.63.74,1.2,1.2,0,0,0,1.06.32c-.11-.22-.11-.43-.32-.64a.39.39,0,0,0-.31-.1A10.59,10.59,0,0,0,63.78,63Z"/><path id="path16" class="cls-4" d="M62.51,70.11c-3.17,3.7-8.25,4.23-11.74,4.34-.42,0-1.16.1-1.37.42a.39.39,0,0,0,.21.53c3.91,2.75,9.09.74,11.74-.63C58.28,77.52,53,78,48.55,76.46c-.53-.21-.95-.21-1.16,0a.61.61,0,0,0,0,.74c1.27,2.32,2.11,4.12,5.39,5.18-3.7-.21-6-3.7-6.55-5.61,0,3.18,2.75,5.29,3.8,6.56-1.48.11-3,.21-3.59,1.27a25,25,0,0,1-1.06,2.64c-1.69-3.17-3.07-7.72-1.8-11.63a11.38,11.38,0,0,1,6.77-7.51,29.05,29.05,0,0,0-2.75,3.49c-.74,1.27.11,1.8,1.16.11,1.38,3.17,10.89,1.27,13.43-1.8l1-.42ZM56.48,98a.8.8,0,0,1,.53-.21.54.54,0,0,1,.32.84,9.63,9.63,0,0,1-1.06,1.06,2.11,2.11,0,0,1-.32.53h0A2.5,2.5,0,0,1,56.48,98Zm-4.54-1.48a.64.64,0,0,1,.84,0c.21.21.32.63.11.84A2.48,2.48,0,0,1,52,98a2.46,2.46,0,0,0-1.16,1.16,4.24,4.24,0,0,1,.32-1.69A5.58,5.58,0,0,1,51.94,96.55ZM62.62,96c.1-.11.31,0,.42,0s.21.32.32.42c.1.43.1.74.21,1.17.1.1.1.31.21.42a2.45,2.45,0,0,1-1-.64c-.21-.31-.53-.52-.53-1a.56.56,0,0,1,.32-.42Zm-14-2.12a.94.94,0,0,1,.74.11c.21.21.1.42.1.74a.34.34,0,0,1-.31.32c-.43.21-.95.42-1.48.63a1.42,1.42,0,0,0-.74.64,3.68,3.68,0,0,1,.42-1.17,4.94,4.94,0,0,1,1.27-1.27Zm18.93-3.17c0-.21.1-.31.31-.42a2.37,2.37,0,0,1,.95.32,1.46,1.46,0,0,0,.64.1,2.64,2.64,0,0,1-1.27.43c-.32,0-.63-.11-.63-.43ZM45.91,89c.1-.1.32,0,.42,0a.78.78,0,0,1,.53.64.87.87,0,0,1-.32.84,11.23,11.23,0,0,0-1.9,1c-.21.11-.32.32-.53.53a4.65,4.65,0,0,1,1-2.22A2.76,2.76,0,0,1,45.91,89ZM53.73,86a3.32,3.32,0,0,1,1.38-.31,1.76,1.76,0,0,0-1.06.63c-.11.11-.21.32,0,.42a1.3,1.3,0,0,0,.64.11c.21.11.1.32.1.53a4.67,4.67,0,0,1-.74,1.48.38.38,0,0,0-.11.32c.11,0,.22-.11.32-.11a5.18,5.18,0,0,0,1.17-1c.1-.21.31-.32.42-.53s-.32-.21-.32-.42a1.33,1.33,0,0,1,.74-.53,1.92,1.92,0,0,1,2.12.32,10.59,10.59,0,0,0-1.06-.32c-.21,0-.42.1-.42.21a1.28,1.28,0,0,1-.11.63,2.39,2.39,0,0,1-1.48,1.7,2.53,2.53,0,0,0-.74.42.8.8,0,0,0-.21.53c.21.1.32,0,.53.1.42,0,.84.11,1.16-.1s.53-.42.85-.64a2.25,2.25,0,0,1,2.53.85c-.31-.11-.53-.32-.84-.42a1,1,0,0,0-1,.1,2.17,2.17,0,0,0-.64.74c-.1.11-.1.21-.32.21s-.42-.21-.74-.1-.63.21-1.05.32c-.21.1-.53,0-.74,0a5.21,5.21,0,0,0-1.27-.22c-.21,0-.43,0-.53.22s-.11.42-.21.63c-.11-.53-.32-1.16-.43-1.69a14.28,14.28,0,0,1-.1-2.12,3.61,3.61,0,0,1,.32,1,.57.57,0,0,0,.31.42.72.72,0,0,0,.64-.42c.21-.32.53-.75.42-1.17,0-.21-.32-.21-.42-.32a.66.66,0,0,1-.11-.74,2.69,2.69,0,0,1,.95-.74Zm16.39-1c0-.1.21-.21.43-.21h.84a2.41,2.41,0,0,1-.84.53C70.23,85.45,70,85.23,70.12,85Zm.21-3.59.64-.32c-.11.21-.21.53-.53.63s-.32-.21-.11-.31Zm-10.57-3.7a3.12,3.12,0,0,0,2,2.53c1.27.43,3,.11,4.34,0,1,0,2.11-.21,3,.32a1.84,1.84,0,0,1,.74,1.06,5.38,5.38,0,0,1,.52,1.16,1.85,1.85,0,0,1-.1,1.06,2.78,2.78,0,0,0-.53,1.48,6.86,6.86,0,0,0-.21,1.48,6.26,6.26,0,0,1-.42,1.48,9.81,9.81,0,0,1-1,1.16,5.62,5.62,0,0,0-1,2.12,9.32,9.32,0,0,0-.42,1.8,1.88,1.88,0,0,1-.95,1.26,20.53,20.53,0,0,1-2.75.85,9.35,9.35,0,0,0-2,1.27,3.35,3.35,0,0,1-1.69.95c-1.38.21-1.69-.84-4.13,0a1.41,1.41,0,0,1-1,0c-.53-.32-.63-1.06-1.27-1.37a6.83,6.83,0,0,0-2.11-.43.79.79,0,0,1-.74-.52c-.21-.43-.21-.85-.42-1.27-.43-1-2-1.27-2.44-2.12s.11-1.37.21-2.11c0-1-.74-1.48-2-1.48a8.87,8.87,0,0,0,1.26-3c.22-.43.22-.85.64-1.06A5.11,5.11,0,0,1,48.76,84a3.09,3.09,0,0,1,1.7.1c1.26.64.95,2.43.31,3.17-.84,1-3.06.85-2.75-.74.43.43.85,1,1.48.32a.34.34,0,0,1,.11-.21A1,1,0,0,0,49,86a1.24,1.24,0,0,0-.53-.1,1.84,1.84,0,0,0-1.27,1.06c-.53.95.53,1.79,1.8,1.58a5.31,5.31,0,0,0,2.43-1.27,19.65,19.65,0,0,0,.1,3.49,11.89,11.89,0,0,0,.85,2.75,4.2,4.2,0,0,0,2,1.8,7.48,7.48,0,0,0,3.06.42,15.8,15.8,0,0,0,5.93-1.48C65.68,93,66,92,67.16,90.1a14.92,14.92,0,0,0,1.27-3,9.83,9.83,0,0,0,.64-3,2.84,2.84,0,0,0-.53-1.8c-1.06-1.27-3.18-.74-5.18-.85-.11.32-.32.64,0,1,.52.53,1.69.43,2.43.53-3.39,1.38-6.45-.1-7.3-2.85.74.84,1.91,2.75,3.6,2.22.63-.21.31-.64.1-.95,0-.11-.31-.11-.42-.21a3.23,3.23,0,0,1-2-3.49Zm-10.89-.64a3.77,3.77,0,0,0,.63.64c2.44,1.79,4.55,1.79,7.62,1.9-2.75.63-6.24.21-8.14-1.59-.32-.21-.43-.52-.64-.74-.21-.42.21-.42.53-.21Zm11.42-.53c2.43-.1,5,.85,5.82,3.18a3.83,3.83,0,0,0-2.23-.53c-.1,0-.31.1-.31.21s.1.42.1.53a3.13,3.13,0,0,1-3-1.17c.32.11.64.32.95.43a1.89,1.89,0,0,0,1.7-.53c.21-.21.1-.64-.22-.85-.84-.74-1.79-.74-2.85-1.27Zm2.54-4.44c.31-.21.63-.53,1-.74-1.38,2.12-4.76,3.81-7.4,4.23-1.38.32-4.23.64-5.5-.1-.11-.11-.32-.22-.11-.32a1.73,1.73,0,0,1,.74-.11H53.1a26.11,26.11,0,0,0,4-.42,13.36,13.36,0,0,0,5.71-2.54ZM37.77,64.51a2.11,2.11,0,0,1,1.16.1,2.31,2.31,0,0,1,.85.85c.1.21.21.32.1.53a.39.39,0,0,0-.32.11.39.39,0,0,0-.1.31,4.59,4.59,0,0,0,.63,1.69c0,.11.11.11.21.22.11-.64-.1-1.27.22-1.91a.23.23,0,0,1,.21-.21c.21,0,.42.21.63.11a.27.27,0,0,0,.11-.43c-.11-.42-.43-.63-.74-.95A4,4,0,0,1,42.1,66.2a.79.79,0,0,1-.21,1,.78.78,0,0,1-.53.11,1.32,1.32,0,0,0-.21,1.37.34.34,0,0,0,.32.32,10.44,10.44,0,0,0,1.06-.53,14.05,14.05,0,0,0-2.12,2.86c0-.22.11-.53,0-.74s-.21-.22-.32-.32c-.42-.21-.84-.32-1.27-.53s-.63-.63-1-1-.53-.11-.74-.32,0-.42-.1-.63-.11-.74-.43-1a2.37,2.37,0,0,0-1.27-.22h0a3.32,3.32,0,0,1,1.06-.21,2.54,2.54,0,0,1,1.38.74c.21.21.21.64.42.85s.42.32.63.42a2.25,2.25,0,0,0,.74.32.82.82,0,0,0-.21-.85,2.62,2.62,0,0,1-.63-1.48,1.27,1.27,0,0,1,.21-1c.11-.22.21-.32.11-.53a4.08,4.08,0,0,0-1.27-.32ZM53.1,58.59a33.75,33.75,0,0,0,3.81,2.22c-.32.21-.53.53-1,.53A7.18,7.18,0,0,1,53.1,58.59Zm1.59-2.43h0a17,17,0,0,0,5.81,4.75,6.28,6.28,0,0,0,2.12.64c.42,0,.84-.21,1.26-.21a2.68,2.68,0,0,1,1.38.42c.1.11.21.21.21.32a1.81,1.81,0,0,0,.74,1.37,1.28,1.28,0,0,0,1.06.11.77.77,0,0,0,.63.63c.32.11.64-.32.95-.21a1.13,1.13,0,0,0,.43.53c.1.1.42.21.53.32a2.81,2.81,0,0,1,1.26,1.48,2.77,2.77,0,0,0-1.37-1.06c0,.85,0,2-.63,2.43a2.8,2.8,0,0,0-.32-1.58c-.53.31-1,.84-1.59,1,.21-.32.74-.64.53-1.06a1.24,1.24,0,0,0-1.06-.11,4.21,4.21,0,0,0-1.48.74c-.1-.31-.21-.52-.31-.84-.32,0-1.38.42-1.06,1s1.27.32,1.69.42a1,1,0,0,1,.64.64,1.43,1.43,0,0,1,.1-.64A7.1,7.1,0,0,1,67.48,69c.53-.21.63-.53.74-1.16a1.72,1.72,0,0,1,.21,1c.21-.1.21-.21.32-.42a2.33,2.33,0,0,1-1.38,2.86c.22-.64.32-1.17-.52-1.17a13.92,13.92,0,0,0-2.12.32c.21-.11,1.38-.74,1.16-1.16a.52.52,0,0,0-.42-.21c-.42-.11-.85-.32-1.27-.43a1.57,1.57,0,0,0-.63.21c-1.17-.52-1.48.11-2.33.22a2.2,2.2,0,0,1-2-1c-.84-1.37.42-2.22,1.59-2.53-1.48-.21-2.12.31-2.43,1.79-.74-.21-1.06-.21-1.91-.42-5-.74-8.88.74-11.1,3.17A13.1,13.1,0,0,0,41.89,79c-.11,3.17,1,5.07,2.54,7.82a14,14,0,0,1-4.13-6.13c-.31.31-.21.74-.31,1.16-1.38-1.9.53-6.66,1.48-8.78a5.75,5.75,0,0,0-1.69,1.48c-.11-2.74,2.32-5.39,4.75-7.61a7.73,7.73,0,0,0-2,.74c2.32-2.43,6.66-3.91,10.46-4-1-.31-2-.31-3-.53,3-.63,5.08-.63,7.09-2,1,.63,2,1.26,2.64,1-1.48-1.16-4.44-3.91-5.07-6Zm9,6.45a4.43,4.43,0,0,1,.64.74,1.15,1.15,0,0,0,1,.31c-.1-.21-.1-.42-.31-.63a.38.38,0,0,0-.32-.11c-.42-.1-.74-.21-1.06-.31Z"/></g></svg>