<svg id="Layer_1" data-name="Layer 1" xmlns="http://www.w3.org/2000/svg" viewBox="0 0 250 160"><defs><style>.cls-1{fill:#79ba05;}</style></defs><path class="cls-1" d="M47.57,93.91a78.37,78.37,0,0,0,8.23-.63,32.73,32.73,0,0,0,14.6-7c3.81-3.06,7.29-6.53,10.92-9.82.75-.68.94-1.28.15-2.15-7-7.7-15.26-13.29-25.69-15.12a46.38,46.38,0,0,0-7-.44c-.93,0-1.29-.29-1.25-1.24.06-1.62.08-3.25,0-4.87,0-1,.31-1.33,1.32-1.32,4.63,0,9.27,0,13.91,0h37.7c1.82,0,1.82,0,1.82,1.87q0,27.09,0,54.18c0,1.87,0,1.86-1.83,1.87H49.4c-1.84,0-1.83,0-1.83-1.85,0-1.08,0-2.16,0-3.24s.26-1.25,1.23-1.25c14.54.1,28.05-4,40.92-10.41a54.79,54.79,0,0,0,5.35-3.4,14.85,14.85,0,0,0,1.23-1.07c-1.46-.91-2.71-1.75-4-2.51-1.78-1.05-3.63-2-5.39-3.09a1.35,1.35,0,0,0-1.88.17c-4.86,4.1-9.84,8-15.56,10.9A40,40,0,0,1,49.65,98c-2.08-.08-2.08-.07-2.08-2.1Z"/><path class="cls-1" d="M47,59.25a6.3,6.3,0,0,1,.15.64c.18,3,.18,3-2.73,3.52A33.58,33.58,0,0,0,24.13,75.13a1.83,1.83,0,0,0-.5,2.06c3.12,7.71,7.61,14.34,15.16,18.33a38.31,38.31,0,0,0,7.1,2.5c.91.26,1.26.57,1.27,1.51,0,2.94.07,3-2.83,2.44C35.11,100.28,28,95.29,22.15,88.12a50.87,50.87,0,0,1-6.88-11.43c-.32-.74-.49-1.34.28-2,8.08-7,16.91-12.56,27.52-14.83C44.33,59.59,45.62,59.46,47,59.25Z"/><path class="cls-1" d="M57.49,82.11l7.15-6c.69-.58.23-1-.19-1.46-3.85-4-8.41-6.4-14.06-6.44-2.85,0-2.85,0-2.82-2.85,0-1.89,0-1.86,2-1.9,7-.12,12.89,2.82,18.14,7.2,1.48,1.23,2.75,2.71,4.13,4.06a1.06,1.06,0,0,1,.08,1.7A44.7,44.7,0,0,1,60.78,86.57c-3.63,2.25-7.47,3.51-11.8,2.73-1-.18-1.46-.56-1.44-1.67q.09-6.41,0-12.82c0-1.23.43-1.49,1.53-1.21a8.2,8.2,0,0,1,5,3.38C55.2,78.62,56.28,80.26,57.49,82.11Z"/><path d="M169,91.41V69.12c4.75.24,9.44.21,14.06.79,3.94.49,6,3.39,6.75,7.15a17.4,17.4,0,0,1-.36,8.42c-.9,3.09-3,5.11-6.09,5.4C178.63,91.31,173.85,91.26,169,91.41Zm6.13-5c3.77.66,6.76-.21,8-2.29s1.17-6.07-.28-8-4.8-2.62-7.76-1.77Z"/><path d="M110.4,69.55c4.9,0,9.73-.27,14.51.08,4.42.33,6.92,2.93,7.21,7.37.3,4.65.06,9.34.06,14.15h-5.82c0-.43-.08-.9-.08-1.37,0-3.2,0-6.39-.1-9.59a12,12,0,0,0-.48-2.91,3.24,3.24,0,0,0-3-2.52c-2-.13-3.94,0-6.09,0V91.19H110.4Z"/><path d="M227.19,91.27c-2,0-3.95,0-5.87,0-.32,0-.76-.53-.91-.91-1.11-2.91-1.09-2.92-4.25-2.92-1.94,0-3.88,0-5.81,0a1.38,1.38,0,0,0-1.57,1.08c-1,2.8-1,2.79-4.08,2.79h-3c1.17-3,2.27-5.8,3.37-8.59,1.6-4.07,3.22-8.12,4.79-12.19a1.46,1.46,0,0,1,1.65-1.17c2,.08,4.05,0,6.08.07a1.74,1.74,0,0,1,1.29.78c2.74,6.76,5.42,13.54,8.1,20.32A7.16,7.16,0,0,1,227.19,91.27ZM214.37,73.38,210.58,83.5h7.5Z"/><path d="M133.41,69.35c2,0,4,0,6,.05.29,0,.71.59.83,1,1.44,4.92,2.84,9.86,4.25,14.79.1.35.22.68.41,1.28.21-.55.36-.88.46-1.23,1.47-4.92,3-9.83,4.38-14.76.24-.82.57-1.18,1.48-1.13,1.65.07,3.31,0,5.15,0-.38,1.22-.71,2.29-1.05,3.34-1.88,5.78-3.78,11.56-5.63,17.35-.28.89-.64,1.3-1.67,1.26-2.25-.09-4.5,0-6.75-.08a1.5,1.5,0,0,1-1.13-.77c-2.25-6.8-4.44-13.62-6.63-20.43A4.28,4.28,0,0,1,133.41,69.35Z"/><path class="cls-1" d="M47.14,92.93a19.08,19.08,0,0,1-8.89-4.16,24.43,24.43,0,0,1-7.41-10.91,1.85,1.85,0,0,1,.33-1.6A28.89,28.89,0,0,1,45.81,69c.86-.16,1.44,0,1.33,1.05,0,.14,0,.27,0,.41,0,2.13,0,2.13-2.1,2.51A13,13,0,0,0,37.76,77a1.7,1.7,0,0,0-.34,1.41c1.57,4.3,4,8,8.22,10.09a2.21,2.21,0,0,1,1.52,2.58A13.49,13.49,0,0,0,47.14,92.93Z"/><path d="M199.08,91.19h-6V69.45h6Z"/><path d="M165,91.19h-6V69.41h6Z"/><path d="M228.3,87.88a3.33,3.33,0,0,1,3.38-3.3,3.35,3.35,0,1,1-3.38,3.3Zm3.37-2.6A2.65,2.65,0,0,0,229,87.89a2.64,2.64,0,1,0,2.67-2.61Z"/><path d="M230.73,86.3a4.87,4.87,0,0,1,.81-.06,1.34,1.34,0,0,1,.94.26.84.84,0,0,1,.26.62.85.85,0,0,1-.62.83h0a.83.83,0,0,1,.48.66,5.54,5.54,0,0,0,.25.89h-.43a3.46,3.46,0,0,1-.22-.78c-.1-.45-.27-.61-.65-.63h-.4v1.41h-.42Zm.42,1.48h.43c.45,0,.74-.24.74-.61s-.31-.61-.75-.61a1.75,1.75,0,0,0-.42,0Z"/></svg>