<svg id="Layer_1" data-name="Layer 1" xmlns="http://www.w3.org/2000/svg" viewBox="0 0 250 160"><path id="S" d="M47.52,85.5a3.28,3.28,0,0,1,0,1.88,2.2,2.2,0,0,1-2.49,1.72,2.28,2.28,0,0,1-2.56-2.31V84.31H35.66v2c0,5.7,4.48,7.42,9.29,7.42,4.61,0,8.41-1.57,9-5.84a12.78,12.78,0,0,0,0-4.18c-1.08-5.35-10.77-6.94-11.5-9.94a3.18,3.18,0,0,1,0-1.34,2.1,2.1,0,0,1,2.33-1.71A2.17,2.17,0,0,1,47.13,73v1.58H53.5v-1.8c0-5.56-5-6.43-8.6-6.43-4.55,0-8.26,1.51-8.94,5.67A8.89,8.89,0,0,0,36,75.46c1.11,5.22,10.19,6.73,11.5,10"/><path d="M63,67.17,58.27,92.7h6.9l3.49-23.17h.15l3.4,23.17h6.86l-4.7-25.54Zm38.58,0L98.44,86.69h-.15L95.15,67.17H84.73L84.17,92.7h6.39l.16-23h.14l4.26,23h6.48l4.27-23H106l.16,23h6.39L112,67.16Z"/><path id="S-2" data-name="S" d="M130.55,85.45a3.39,3.39,0,0,1,0,1.89,2.2,2.2,0,0,1-2.48,1.72,2.29,2.29,0,0,1-2.57-2.32V84.27h-6.85v2c0,5.7,4.48,7.42,9.28,7.42,4.61,0,8.42-1.57,9-5.83a12.54,12.54,0,0,0,0-4.19c-1.08-5.35-10.77-6.94-11.5-9.93a3.23,3.23,0,0,1,0-1.35,2.1,2.1,0,0,1,2.33-1.71A2.17,2.17,0,0,1,130.15,73v1.58h6.37V72.74c0-5.57-5-6.44-8.6-6.44-4.54,0-8.26,1.51-8.93,5.67a9,9,0,0,0,.06,3.45c1.11,5.21,10.18,6.72,11.5,10"/><path d="M152,88.88A2.3,2.3,0,0,0,154.43,87a6.07,6.07,0,0,0,.06-1V67.17H161v18.3q0,.84-.06,1.68c-.45,4.77-4.21,6.31-8.91,6.31s-8.47-1.54-8.92-6.31c0-.25-.06-1.21-.06-1.68V67.16h6.47V86.05a4.41,4.41,0,0,0,.06,1A2.3,2.3,0,0,0,152,88.88m31.23-21.71.34,20h-.13l-5.88-20h-9.47V92.43h6.27L174,71.69h.13l6.31,20.74h9.09V67.17Zm22,21.44a2.39,2.39,0,0,0,2.61-1.86,5.89,5.89,0,0,0,.06-1V82.08h-2.62V78.36h9.05v6.85c0,.48,0,.82-.09,1.68-.42,4.65-4.46,6.31-9,6.31s-8.55-1.66-9-6.31c-.07-.86-.09-1.2-.09-1.68V74.46c0-.45.06-1.26.11-1.68.57-4.77,4.44-6.31,9-6.31s8.5,1.52,9,6.31a16,16,0,0,1,.06,1.68v.85h-6.44V73.88a5.88,5.88,0,0,0-.08-1,2.33,2.33,0,0,0-2.55-1.86,2.37,2.37,0,0,0-2.55,1.86,6.44,6.44,0,0,0-.1,1.21V85.79a6.09,6.09,0,0,0,.06,1,2.39,2.39,0,0,0,2.61,1.85"/></svg>