<svg id="Layer_1" data-name="Layer 1" xmlns="http://www.w3.org/2000/svg" viewBox="0 0 250 160"><defs><style>.cls-1{fill:#ec1b24;}</style></defs><g id="layer1"><g id="g3367"><path id="path3926" class="cls-1" d="M121.34,60.43H115a1.91,1.91,0,0,0-.75,1.62c0,1.39.75,1.67.75,1.67h5.6c8.08,0,13.22,5.43,13.22,16.11,0,11.48-5,16.45-14,16.45h-3.63a1.17,1.17,0,0,1-1-1V78.56c0-5.54-3.8-8.6-9.92-8.6-4.16,0-7.1,1.84-8.78,5V71.52a.74.74,0,0,0-.75-.81H85.44a2.23,2.23,0,0,0-.7,1.67A2,2,0,0,0,85.38,74h2.36A1.43,1.43,0,0,1,89,75.38V95.29a1.09,1.09,0,0,1-1,.93H85.78l-1,2.88H99.63a2,2,0,0,0,.52-1.5,1.74,1.74,0,0,0-.52-1.38H97.84a.86.86,0,0,1-.86-.87V79.83c1.44-4,4.27-6.29,6.64-6.29,2.19,0,3.57,1.67,3.57,4.15V95.12a1,1,0,0,1-.86,1.1h-2.14a1.68,1.68,0,0,0-.57,1.38,2,2,0,0,0,.57,1.5h17.49c17.37,0,21.88-10.44,21.88-19.27,0-14-9.7-19.4-22.23-19.4"/><path id="path3928" class="cls-1" d="M82.26,96.22c-1.9-.18-2.13-1.27-2.13-2.54V78.44a8.47,8.47,0,0,0-2.66-6.35c-2.37-2-5.77-2.48-8.71-2.48a30,30,0,0,0-10,1.5c-.35.17-.46.46-.46.93v4.21a.54.54,0,0,0,.52.58h1.61a1.13,1.13,0,0,0,.93-.52,10.42,10.42,0,0,1,2.94-2.72,8.3,8.3,0,0,1,3.46-.92c3.18,0,4.51,2.31,4.51,5V81.9c-12-.69-16.86,2.83-16.86,8.43,0,6.47,4.45,9.18,8.83,9.18,3.93,0,6.93-1.5,8.55-3.81.34,2,1.55,3.4,3.11,3.4h6.24l1-2.88ZM72.28,92A7,7,0,0,1,67,95c-2.72,0-4.27-1.33-4.27-4.39,0-3.58,1.67-5.48,9.58-5.48V92"/><path id="path3930" class="cls-1" d="M162.77,96.22h-3.28a.72.72,0,0,1-.81-.75V71.8c0-.69-.23-1.09-1-1.09h-10.1a2.35,2.35,0,0,0-.69,1.61,2.55,2.55,0,0,0,.69,1.62h2.83c.17,0,.34.12.34.4V95.41a.82.82,0,0,1-.75.81h-3.23a1.63,1.63,0,0,0-.63,1.38,2.16,2.16,0,0,0,.63,1.5h16a2.36,2.36,0,0,0,.52-1.5,1.89,1.89,0,0,0-.52-1.38"/><path id="path3932" class="cls-1" d="M38.34,74.4c-5.54-1.9-6.64-3.52-6.64-5.77,0-2.42,2.25-4.91,7.1-4.91a9.7,9.7,0,0,1,5.08,1.62,10.47,10.47,0,0,1,3.29,3.75.71.71,0,0,0,.58.35h1.73c.23,0,.35-.18.35-.46V62.4a.86.86,0,0,0-.58-.75,34,34,0,0,0-10.79-1.56c-7.91,0-13.16,4.5-13.16,11.37S30.43,81,37.07,83.12c4.27,1.27,9.29,3.06,9.29,7.21,0,2.48-2.31,5.37-6.87,5.37A9.55,9.55,0,0,1,32.39,93a17.17,17.17,0,0,1-3.86-5.25c-.12-.29-.35-.58-.64-.58-.69,0-2,0-2,0a.58.58,0,0,0-.52.63v7.68a1.2,1.2,0,0,0,.47.92,28.31,28.31,0,0,0,13.39,3.12c7.61-.06,13.44-5.08,13.44-13.16,0-8.66-8-9.76-14.31-11.95"/><path id="path3934" class="cls-1" d="M178.82,81.15c-5.77-1.38-7-2.42-7-4.44,0-1.73,1.5-3.58,4.56-3.58a8.85,8.85,0,0,1,7.09,3.81.8.8,0,0,0,.76.41h1.44a.35.35,0,0,0,.4-.35V72a.79.79,0,0,0-.58-.81,35,35,0,0,0-9.17-1.1c-4.91,0-10.22,2.83-10.22,8.83,0,5.2,4.16,8,7.74,8.95,6.11,1.67,7.9,2.54,7.9,5.14,0,2.25-1.79,3.63-4.84,3.63s-6-2.25-7.68-6.35c-.29-.4-.46-.52-.75-.52-.81,0-1.67,0-1.91,0a.46.46,0,0,0-.52.52v6c0,.46.64.92.64.92a20.55,20.55,0,0,0,3.69,1.79,21,21,0,0,0,6.53,1c7.21,0,10.62-4.44,10.62-9.69,0-4.68-2.66-7.62-8.72-9.07"/><path id="path3936" class="cls-1" d="M151.35,66.73h7.21a.78.78,0,0,0,.81-.52L161,61c.12-.4-.17-.63-.57-.63h-7.56a.65.65,0,0,0-.7.57l-1.38,4.74c-.23.57.06,1,.52,1"/><path id="path3938" class="cls-1" d="M223.2,96.28a4.25,4.25,0,0,1-3.75-1.68L209.87,80c2.31-3.12,3.46-4.33,5.48-5.37A14.37,14.37,0,0,1,221,73.42a1.78,1.78,0,0,0,.4-1.33,2.08,2.08,0,0,0-.4-1.44l-9.06.06a1.49,1.49,0,0,0-1.1.69c-.17.29-7.27,10.45-9.17,13.16V61.42a.92.92,0,0,0-1-1l-11.31,0a1.81,1.81,0,0,0-.58,1.38,2.09,2.09,0,0,0,.58,1.5H193c.46,0,.63.23.63.69V95.53c0,.46-.23.69-.52.69h-3.46a1.81,1.81,0,0,0-.58,1.38,2.24,2.24,0,0,0,.58,1.5h15.06a2.74,2.74,0,0,0,.47-1.5,2.18,2.18,0,0,0-.47-1.38h-2.42a.64.64,0,0,1-.63-.64V88.25c.69-.75,2-2.07,2.13-2.25a.72.72,0,0,1,1.21.12c.35.46,6.06,9.29,6.18,9.52.29.4.11.64-.17.64h-1.79a2.88,2.88,0,0,0-.47,1.38,3.21,3.21,0,0,0,.41,1.44h15.06a2.19,2.19,0,0,0-.11-2.82h-.93"/></g></g></svg>