<svg id="Layer_1" data-name="Layer 1" xmlns="http://www.w3.org/2000/svg" viewBox="0 0 250 160"><defs><style>.cls-1{fill:#0085ca;}</style></defs><path class="cls-1" d="M175.91,99.55h-5.7s2.82-3.38,2.82-6.7c0-5.27-3.27-8-5-8.25a14,14,0,0,0-2.22-.17v2.4a4.37,4.37,0,0,1,.72-.11c2.38,0,2.88,4.3,2.49,6.7-.33,2.12-1.38,4.81-3.21,5.39v2.63h14v-17h-3.94V99.55ZM165.83,84.43H144.67A3.58,3.58,0,0,0,141,86.6a4,4,0,0,0,1.05,4.59l9.31,6.47s1.22.69,1.11,1.32-.83.45-.83.45h-12s-1.05.12-1.33-.17-.16-1.72-.16-1.72V84.66h-4.1v1.2a5.26,5.26,0,0,0-3-1.2v3.66a2,2,0,0,1,1.78,0c2.1.91,1.55,3.78.61,6a7.14,7.14,0,0,1-2.39,3.32v3.55a5.73,5.73,0,0,0,2-1.37,5.6,5.6,0,0,0,1.39-1.66,3.94,3.94,0,0,0,.33,2.29,2.12,2.12,0,0,0,1.61,1.09h17.17c1.33,0,4.05-.35,3.94-3.61-.06-2.29-2.44-3.89-2.44-3.89l-7.92-5.85a1.32,1.32,0,0,1-.67-1.14c.06-.75,1.06-.63,1.06-.63h14s-2.88,2.23-2.88,7.5c0,4.7,3.55,7.62,6.26,7.62h.83V98.8a1.64,1.64,0,0,1-.77.17c-2.33,0-2.77-4-2.44-6.18.28-2,1.44-5.21,3.21-6v-2.4Zm-34.74.23h0a7.17,7.17,0,0,0-5.59,3,9.33,9.33,0,0,0-2.16,5,11.87,11.87,0,0,0,.44,4.63,7.91,7.91,0,0,0,1,2.12h-9a5.62,5.62,0,0,1-2-.45v2.46h15.73a3.43,3.43,0,0,0,1.55-.35V97.54a1.87,1.87,0,0,1-1.88.29c-2-.8-1.27-4.64-.61-6.24a7.43,7.43,0,0,1,2.49-3.27V84.66Zm-17.28,9.56V91.65h2.6s-.55-5.33-2.6-5.45V84.54c7.53,0,7.53,9.68,7.53,9.68Zm0,4.76A3.64,3.64,0,0,1,112,97.14a10.84,10.84,0,0,1-.72-2.92h2.55V91.65h-2.66s.44-5.45,2.55-5.45h.11V84.54h-.11c-7.92,0-7.37,9.68-7.37,9.68a9.33,9.33,0,0,0,1.11,3.55,7.63,7.63,0,0,0,3.6,3,8,8,0,0,0,2.66.63h.11V99Z"/><path class="cls-1" d="M207.33,99.09c-.56-.69-.94-5.27-.5-7.67.44-2.7.89-3.27,1.77-3.78a12.15,12.15,0,0,1,3.66-.4v3H216V86.43a1.78,1.78,0,0,0-.78-1.66,4.5,4.5,0,0,0-2.1-.4s-4.77-.06-6.49-.06a3.5,3.5,0,0,0-2.88,1.49,12.62,12.62,0,0,0-1.88,5.84c-.17,2.3.39,5.56,0,6.25a1.74,1.74,0,0,1-1.38,1.31,17.91,17.91,0,0,1-3,.23v-15h-4v14a1.17,1.17,0,0,1-.88.74,21.87,21.87,0,0,1-3.49.23V87.69a3.34,3.34,0,0,0-3.55-3.26,4.82,4.82,0,0,0-4,1.66,23.33,23.33,0,0,0-1.72,1.83v2.24a26.91,26.91,0,0,1,2.33-2.24,3.42,3.42,0,0,1,2.16-.8,1.41,1.41,0,0,1,1.33,1.43v12.89a23.67,23.67,0,0,0,3.6,0c1.28-.23,2.5-.34,2.88-.46s1.5-.4,1.5-.4a1.34,1.34,0,0,0,.94.74,6.27,6.27,0,0,0,1.94.12,25.67,25.67,0,0,0,4-.12c1-.17,2.33-1.89,2.33-1.89s0,1,.61,1.32a4.22,4.22,0,0,0,1.88.69h17l1.33-2H209.38S207.72,99.55,207.33,99.09Z"/><polygon class="cls-1" points="51.2 67.25 55.8 58.48 48.99 58.48 44.17 67.25 58.24 93.02 30.26 93.02 25.39 101.44 60.18 101.44 65.17 92.96 51.2 67.25"/><polygon class="cls-1" points="89.76 67.25 94.58 58.48 59.4 58.48 54.75 67.25 68.88 92.96 64.22 101.44 71.2 101.44 75.86 93.02 61.73 67.25 89.76 67.25"/><path class="cls-1" d="M103.5,91.53c-1.77-1.37-14.4-10.6-14.4-10.6s-1-.68-1-1.48,1.06-.86,1.06-.86h16V75.84H86.61a6.21,6.21,0,0,0-5.93,4.24,5.4,5.4,0,0,0,1.55,5.49,13.27,13.27,0,0,0,1.33,1.09l12.8,9.28s1.1.75,1.1,1.6a.9.9,0,0,1-.88,1H81v2.92H101a5.38,5.38,0,0,0,4.43-3.61C106.38,94.51,105.22,93,103.5,91.53Z"/><rect class="cls-1" x="193.64" y="78.64" width="4.04" height="4.18"/><path class="cls-1" d="M223,81.16a.81.81,0,0,0-.39-.8,2.1,2.1,0,0,0-1.1-.28v.51a1,1,0,0,1,.49.12.58.58,0,0,1,.28.51.52.52,0,0,1-.22.46.88.88,0,0,1-.55.17v.63l.66,1.49H223l-.89-1.77a1.31,1.31,0,0,0,.67-.35A.91.91,0,0,0,223,81.16Zm-1.49-1.08H220V84h.72V82.31h.66l.12.17v-.63h-.78V80.53h.55a.33.33,0,0,1,.23.06v-.51Z"/><path class="cls-1" d="M224.39,80.76a3.24,3.24,0,0,0-.72-1.08,2.81,2.81,0,0,0-1.11-.75,3.19,3.19,0,0,0-1.27-.29v.46h0a3.59,3.59,0,0,1,1.11.23,2.94,2.94,0,0,1,1,.69,3.28,3.28,0,0,1,.61.92,4.63,4.63,0,0,1,.23,1.2,3.85,3.85,0,0,1-.23,1.14,3.25,3.25,0,0,1-.66.92,2.4,2.4,0,0,1-2.05.86v.51a3.43,3.43,0,0,0,1.27-.28,3.31,3.31,0,0,0,1.11-.75,3.24,3.24,0,0,0,.72-1.08,3.7,3.7,0,0,0,.22-1.38A3.59,3.59,0,0,0,224.39,80.76Zm-3.1-2.12h0a3.15,3.15,0,0,0-1.27.23,3.2,3.2,0,0,0-1,.75,5.12,5.12,0,0,0-.78,1.14,3.81,3.81,0,0,0-.22,1.32,3.59,3.59,0,0,0,.22,1.32,5.22,5.22,0,0,0,.72,1.14,5.75,5.75,0,0,0,1.06.75,3.18,3.18,0,0,0,1.27.28h0v-.51h0a2.46,2.46,0,0,1-1.11-.23,2.28,2.28,0,0,1-.88-.63,2.6,2.6,0,0,1-.61-1,2.63,2.63,0,0,1-.23-1.15,3,3,0,0,1,.23-1.15,2.22,2.22,0,0,1,.66-1,2.26,2.26,0,0,1,.83-.63,2.43,2.43,0,0,1,1.11-.23v-.46Z"/></svg>