<svg id="Layer_1" data-name="Layer 1" xmlns="http://www.w3.org/2000/svg" viewBox="0 0 250 160"><defs><style>.cls-1{fill:#70bf4e;}.cls-2{fill:#979e96;}.cls-3{fill:#fff;}</style></defs><path id="path9778" class="cls-1" d="M46.89,57.57a13.3,13.3,0,0,1,1.81-1c.24.61.61,1.21.85,1.82a40.2,40.2,0,0,0-3.87,2.17,39.14,39.14,0,0,0-9.19,7.5,16.27,16.27,0,0,0-4.11,8.58,8.26,8.26,0,0,0,1.45,5.57,7.36,7.36,0,0,0,4.47,2.54,13.36,13.36,0,0,0,5.81-.37,40.37,40.37,0,0,0,10.4-4.71A25.94,25.94,0,0,0,60,75.59,4.09,4.09,0,0,0,61,73.05,1.92,1.92,0,0,0,60,71.35,3.39,3.39,0,0,0,57.77,71a14.89,14.89,0,0,0-2.9,1.21c-2.78,1.45-5.2,3.39-8,4.84a12.55,12.55,0,0,1-5.44,1.69,3.91,3.91,0,0,1-3.15-1.45,3.21,3.21,0,0,1-.72-2.54,7.71,7.71,0,0,1,1.57-4,18.78,18.78,0,0,1,6.05-5.08,44.06,44.06,0,0,1,12.57-5.8A24.7,24.7,0,0,1,65,59a18.26,18.26,0,0,1,9.91,3.27,14.29,14.29,0,0,1,6.17,10.52A18.77,18.77,0,0,1,78.81,83a27.84,27.84,0,0,1-4.72,6.53,52,52,0,0,1-4.59,4.35,51.29,51.29,0,0,1-6.65,4.84,53.24,53.24,0,0,1-7.38,3.75,18.68,18.68,0,0,1-2.29,1c-.49-2.18-1.21-4.36-1.7-6.53,2.06-1,4.11-1.82,6.17-2.9a47.58,47.58,0,0,0,6.53-4.36A46.16,46.16,0,0,0,69.26,85a18.85,18.85,0,0,0,5.32-10.28,12.58,12.58,0,0,0-.24-4.23,11.49,11.49,0,0,0-5.69-6.89,13.38,13.38,0,0,0-7.49-1.45,26.88,26.88,0,0,0-10.52,3.38c-1.57.85-3,1.69-4.48,2.66a13.92,13.92,0,0,0-3.87,3.14,3.46,3.46,0,0,0-.84,2.06,1.32,1.32,0,0,0,.84,1.21A3.49,3.49,0,0,0,45,74.26c4-1.94,7.38-5,11.61-6.41a9.29,9.29,0,0,1,6.53,0A5.85,5.85,0,0,1,66.48,72a6.86,6.86,0,0,1-.24,3.14,11.9,11.9,0,0,1-2.79,4.11A28.44,28.44,0,0,1,58.62,83c-2.42,1.33-4.72,2.9-7.26,4a45.4,45.4,0,0,1-6.89,2.42,16.59,16.59,0,0,1-8.1.24,9.18,9.18,0,0,1-6-4.11,10.68,10.68,0,0,1-1.57-5.68,18,18,0,0,1,1.57-6.65A28.24,28.24,0,0,1,37.58,64,50.05,50.05,0,0,1,47,57.45Z"/><path id="path9780" class="cls-2" d="M74.7,74.26V72.08A6.65,6.65,0,0,1,74.7,74.26Zm18.62-.37A6.44,6.44,0,0,1,98,73.41a4.14,4.14,0,0,1,2.17,1.33,17.26,17.26,0,0,1-1.57,1.45,3.35,3.35,0,0,0-4.35-.72,2.08,2.08,0,0,0-.49,2.78,5.88,5.88,0,0,0,2.54,1.33,5.57,5.57,0,0,1,3.15,1.57,4.09,4.09,0,0,1-1.09,6,5.93,5.93,0,0,1-3.51.73A5,5,0,0,1,91.14,86a14.3,14.3,0,0,1,1.58-1.33,3.52,3.52,0,0,0,5,.84A2,2,0,0,0,98,82.72a5.85,5.85,0,0,0-2.79-1.21,5.67,5.67,0,0,1-2.9-1.81,4.42,4.42,0,0,1-.72-2.78,3.71,3.71,0,0,1,1.81-2.78Zm60.82,0a7.8,7.8,0,0,1,5.2-.6A5.67,5.67,0,0,1,162.73,75c-.49.49-.85,1-1.33,1.45a5.4,5.4,0,0,0-7.26-.12,5.88,5.88,0,0,0-.85,7.38A5.4,5.4,0,0,0,156.8,86a8.37,8.37,0,0,0,4.23-.61V81.51h-3V79.7h5v6.65c0,.24-.24.36-.49.48a11.5,11.5,0,0,1-5.68,1,6.55,6.55,0,0,1-5.08-2.9,7.7,7.7,0,0,1-1.21-5.81A6.82,6.82,0,0,1,154.26,74Zm-43.65-.48h9v1.81H112.3v4.11h6.53v1.82H112.3c0,1.45-.12,2.9,0,4.35a7,7,0,0,0,1.58,0h5.8v1.82h-9.31V73.41Zm23.82,0H136c1.94,4.59,4,9.19,5.93,13.91a13.22,13.22,0,0,1-2.18,0c-.48-1.09-1-2.3-1.45-3.39h-6.53c-.48,1.09-.85,2.3-1.33,3.39h-2.18C130.2,82.72,132.38,78,134.31,73.41Zm43.89,0h1.7c1.93,4.59,4,9.19,5.92,13.91a13.22,13.22,0,0,1-2.18,0c-.6-1.09-1-2.3-1.45-3.39h-6.53c-.48,1.09-.84,2.3-1.33,3.39a13.1,13.1,0,0,1-2.17,0c2.05-4.6,4.11-9.32,6.16-13.91Zm13.42,0h10.89v1.81H198v12.1H196.1V75.22h-4.48V73.41Zm20.32,0h8.95v1.81h-7v4.11h6.65v1.82h-6.65V85.5h7.38v1.82h-9.31Z"/><path id="path9782" class="cls-3" d="M132.5,82.24c.84-2.06,1.69-4.24,2.66-6.29.84,2,1.69,4.23,2.54,6.29Zm43.89,0c.85-2.06,1.69-4.24,2.66-6.29.85,2,1.69,4.23,2.54,6.29Z"/></svg>