<svg id="Layer_1" data-name="Layer 1" xmlns="http://www.w3.org/2000/svg" xmlns:xlink="http://www.w3.org/1999/xlink" viewBox="0 0 250 160"><defs><style>.cls-1,.cls-4{fill:none;}.cls-2{fill:#1c1c1b;}.cls-3{clip-path:url(#clip-path);}.cls-4{stroke:#fff;stroke-miterlimit:1;}</style><clipPath id="clip-path"><rect class="cls-1" x="73.86" y="28.86" width="102.28" height="102.28"/></clipPath></defs><g id="surface1"><path class="cls-2" d="M116.75,63.11,101.57,47.92H84.68V64.29h16.41v48.12h16.42V64.35H132.9v48.06h16.42V64.23h16.32V47.92c-4.5-.21-15.31-.13-16.76.13V63.26L133.55,47.93h-16.8ZM74.05,29.05H176V131H74.05Z"/><g class="cls-3"><path class="cls-4" d="M116.75,63.11,101.57,47.92H84.68V64.29h16.41v48.12h16.42V64.35H132.9v48.06h16.42V64.23h16.32V47.92c-4.5-.21-15.31-.13-16.76.13V63.26L133.55,47.93h-16.8ZM74.05,29.05H176V131H74.05Z"/></g></g></svg>