<svg id="Layer_1" data-name="Layer 1" xmlns="http://www.w3.org/2000/svg" viewBox="0 0 250 160"><defs><style>.cls-1{fill:#304994;}.cls-2{fill:#fff;}.cls-3{fill:#fbfbfd;}</style></defs><path d="M152.34,106.27a4.58,4.58,0,0,1-3.11-2.38c-.88-2.18-.67-1.87,1.5-1.82s2.07-.15,2.18.57c.2,1.61,3,1.56,4.19.16a3,3,0,0,0,.62-2.38c0-.83,0-1.35-.1-1.14-.31.77-2.07,1.55-3.68,1.55-2.43,0-3.67-.83-4.92-3.26a6.07,6.07,0,0,1-.62-3.42c0-2,0-2.43.78-3.78a6.59,6.59,0,0,1,1.66-2.18c2-1.39,4.76-1.39,6.11,0l.72.73v-.62c0-.94.05-.63,2.13-.63h1.91v7.46c0,5.23,0,7.36-.41,8.18a7.4,7.4,0,0,1-2.44,2.65C158,106.42,153.63,106.63,152.34,106.27Zm4.3-8.75A4.78,4.78,0,0,0,157.78,94c0-1.55-.52-3.15-1.25-3.67a2.41,2.41,0,0,0-2.9.26c-1.5,1.6-1.45,5.74.16,7A2.09,2.09,0,0,0,156.64,97.52Zm16.46,3.78c-1.5-.63-1.91-2.39-1.91-7.82V90.27h-.83c-.78,0-.78.15-.78-1.3s0-1.29.78-1.29c1,0,.78-.06.83-1.35l.1-1.35,2-.72c1.09-.42,2-.73,2-.73a16,16,0,0,1,.05,2.13v2.12h3.11v2.59h-3.11V94.2c0,3.47,0,4,.47,4.51a2.24,2.24,0,0,0,1.5.36c1.14,0,.88,0,.93,1.14s0,1.24-.57,1.29A31.12,31.12,0,0,1,173.1,101.3Zm8.34-.21c-2.59-1.24-2.79-5.08-.46-7.15,1-.93,2.22-1.45,4.76-1.4,1.86,0,1.81-.15,1.76-.93a1.92,1.92,0,0,0-1.4-2c-1-.2-2.17.11-2.07,1.14s-.05.78-2.17.83H180l.16-1.09q.47-3.18,5.43-3.26c2.9,0,4.51.73,5.44,2.49.57,1.08.62,1.55.68,6.37l.05,5.17H190c-1.76,0-2.13.11-2-.62l-.11-1-.67.67a4.89,4.89,0,0,1-1.45.93A6.72,6.72,0,0,1,181.44,101.09Zm5.08-2.8c.57-.52.72-.88.83-2.12l.1-1.55-1.24.15c-2.44.31-3.53,1.45-2.85,3A2,2,0,0,0,186.52,98.29Zm-62.41-6.88v-9.9l4.92.11c4.2.1,5.13.2,6.32.67a7.4,7.4,0,0,1,4.35,3.94c.83,1.71,1.14,1.81,1.14,5.18,0,3.1-.31,3.52-.93,4.86a8.22,8.22,0,0,1-6.58,4.72,47.54,47.54,0,0,1-5.43.25h-3.73V91.41Zm8.7,6.16c2.28-.62,3.58-3.32,3.32-7-.26-4-1.92-5.65-5.75-5.65h-2.07v12.9h1.76A10.26,10.26,0,0,0,132.81,97.57Zm9.69-3.11V87.62h4.25V101.3H142.5Zm21.8,0V87.62h3.94V101.3H164.3Zm29.93-3V81.57h3.94v19.67h-3.94ZM201.07,86a2.33,2.33,0,0,1-.83-2.07,2.14,2.14,0,0,1,.83-2.07,3,3,0,0,1,4.87.93,2.9,2.9,0,0,1-2.85,4A2.28,2.28,0,0,1,201.07,86Zm3.68-.47a2.25,2.25,0,0,0,.77-1.6,2.64,2.64,0,0,0-2.38-2.38,2.83,2.83,0,0,0-2.38,2.12,2.63,2.63,0,0,0,2.59,2.59A2.44,2.44,0,0,0,204.75,85.55Zm-2.75.06a6.39,6.39,0,0,1-.15-1.87V82.08l1.6.11c.57,0,1.09.31.93.67-.52,1.4.16,1.14,0,2.75,0,.15-.57-.26-.62-.63a1,1,0,0,0-.62-.72c-.36-.05-.52.1-.52.72C202.62,85.76,202.36,86,202,85.61Zm1.66-2.54c-.16-.52-1-.57-1-.11a.44.44,0,0,0,.47.47C203.45,83.48,203.71,83.27,203.66,83.07Zm-61.16.36V81.57h4.25v3.72H142.5Zm21.54,0V81.57h4.46v3.72H164Zm-11.7-5.49A5.26,5.26,0,0,1,149,75.25c-.67-1.24-.77-1.61-.77-4s.1-2.8.62-3.88a6.33,6.33,0,0,1,5.8-3.63c4.09,0,6.57,2.64,6.57,7v1.4h-4.45c-5.23-.21-4.45,0-4.45.52a2.93,2.93,0,0,0,1.55,2.59c1.14.41,2.69,0,3-.88s.21-.68,2.07-.62c2.08,0,1.77-.26,1.82.62s-1.09,2.33-2.33,3A12.6,12.6,0,0,1,152.34,77.94Zm4.5-9.53a2.21,2.21,0,0,0-4.24-.62,8.14,8.14,0,0,0-.47,1.35c0,.15,1,.1,2.49.1H157Zm8.5,9.32a4.46,4.46,0,0,1-3.06-3.1l-.15-1h1.81c1.66,0,1.91-.26,2.28.83.26.78,1.08.78,1.86.78,1.14,0,2.07-.68,2-1.5s-1.24-1.25-3.83-2c-2.28-.67-3.42-1.56-3.73-3a3.41,3.41,0,0,1,.93-3.46,7.13,7.13,0,0,1,5.49-1.61c2.69.21,4,1.09,4.61,3.06l.26.82h-1.87c-1.55,0-1.91-.1-2.17-.51-.73-1.14-3-.88-3,.36,0,.72.67,1.19,2.74,1.71,3.26.83,4.87,2.28,4.87,4.3C174.3,76.91,169.69,79.08,165.34,77.73Zm12.42.06c-1.39-.63-1.65-1.61-1.65-6.58V66.86h-.78c-.62,0-.78.52-.78-1.3s-.05-1.45.73-1.39c.93.1.83.15.83-1.4l0-1.4L178,60.7c1-.37,2.08-.78,2.13-.78s-.05,1.19,0,2.28v1.91h3.1v2.7H180l.11,3.93c0,2.64,0,4,.31,4.25a3.64,3.64,0,0,0,1.6.31h1.19v1.14c0,.62.11,1.24-.05,1.29a12.26,12.26,0,0,1-2.48.26A6,6,0,0,1,177.76,77.79Zm9.79,0A6.29,6.29,0,0,1,184,74.16a14.37,14.37,0,0,1-.26-3.73c.1-2.17.21-2.64.88-3.73a7.42,7.42,0,0,1,2.07-2.07c1.19-.72,1.5-.77,3.52-.77s2.44.1,3.37.62c2,1.14,3,3.1,3,6v1.66h-8.7V73A2.19,2.19,0,0,0,190,75.25c1.09,0,2.28-.88,2.28-1.45,0-.31.41-.16,2-.16h2l-.15.73c-.57,2.33-2.39,3.52-5.6,3.62A10.2,10.2,0,0,1,187.55,77.84Zm4.87-9.27a2.25,2.25,0,0,0-2.23-2.07A2.28,2.28,0,0,0,188,68.57c0,.62.05.62,2.22.62S192.42,69.24,192.42,68.57ZM125,67.89l-2.39-9.73h2.18c2.07,0,2.17.05,2.33.57,0,.31.72,3.47,1.45,7s1.34,6.53,1.4,6.68a59.44,59.44,0,0,0,1.71-6.16c.88-3.52,1.76-6.78,1.91-7.3l.26-.88,2.38,0,2.38.05,1.61,6.89c.88,3.78,1.66,6.94,1.76,7a33.87,33.87,0,0,0,1.3-5.18c.62-2.9,1.29-6.11,1.5-7.09l.41-1.76h1.92c1.29,0,1.91.1,1.91.31s-1.08,4.5-2.38,9.58-2.38,9.32-2.38,9.42a8.37,8.37,0,0,1-2.43.16h-2.44l-1.71-7.25c-1.14-4.87-1.76-7.1-1.91-6.79s-.88,3.11-1.66,6.27S132.5,76,132.4,76.59l-.26,1h-4.87ZM198.38,71l-.06-6.68h3.84v2.28l.51-.83a4.58,4.58,0,0,1,3.47-1.66h.78L206,65.82c-.67,1.35-.73,1.82-1.55,2-1.56.31-1.87,1.4-2,5.85l.05,4h-3.94Zm9.52,0V64.27h2c2.13,0,2-.16,2,.52v.83l.78-.68a5.15,5.15,0,0,1,5.95-.52c2,1.25,2.07,1.25,2.12,7.57l.11,5.64h-4l-.05-4.82c-.1-4.66-.1-4.86-.73-5.49-1.29-1.39-3.05-1-3.83.89-.31.82-.41,2-.41,5.28v4.19h-3.94V71Z"/><path class="cls-1" d="M46.23,92.44A33.49,33.49,0,0,1,41,92.23c0-.46,2.17-19.62,2.23-19.67h.15c.47,0,1.92,0,3.63.1,3.67.1,3.72.1,3.72.52,0,.26-.25,2.22-.51,4.19-.21,1.4-.37,2.75-.47,3.47v.42h0l.1-.11c.37-.62,1.2-2.28,2.13-4L54.15,73l5.39.15a29,29,0,0,1,5.59.47,37.27,37.27,0,0,1,.47,3.73c.36,3.11.46,4.71.67,4.71s.52-1.34,1.35-4.14L69,73.69h3.73a24.55,24.55,0,0,1,3.89.16c.1.1-1.25,4.3-3,9.32s-3.16,9.17-3.16,9.22-2.12.1-4.71.1H61l-.16-.83c0-.46-.46-4-.83-7.82-.36-3.62-.67-6.62-.72-7l-.1.11c-.37.67-2,3.83-3.84,7.71l-3.83,7.87H46.23M73.78,71.16c-3.63,0-3.94,0-3.83-.47,0-.26.46-1.55.88-2.9l.77-2.43h4.2c3,0,3.83,0,3.73.31s-.52,1.5-1,2.9l-.83,2.54H73.78M85.9,84.88a20.46,20.46,0,0,0,5.9-1,11.69,11.69,0,0,0,5-4.77,7.29,7.29,0,0,0,.68-5,4.87,4.87,0,0,0-3.11-2.8,72.31,72.31,0,0,0-7.93-.25c-5.43,0-6.88-.06-6.78-.32s.52-1.5,1-2.9l.83-2.58,9.12.1,9.11.1,1.5.68a9.7,9.7,0,0,1,2.49,1.6c5.54,5,2.59,15.43-6,21.18A18.53,18.53,0,0,1,90.61,92c-1.35.31-7,.41-11.65.41-3.32,0-6.06,0-6.42-.15s1.5-4.61,3.16-9.58l3-9,5,.21c2.74.11,5,.21,5.08.26s-.68,2.43-1.66,5.28-1.71,5.39-1.5,5.39c0,0,.2,0,.31,0M55.14,71.16l1.55-2.9,1.55-2.9H61.3c1,0,1.66,0,2.12,0,1.35,0,1.14.41,1.4,3.52L65,71.11H55.14m-11.81,0v-.73c0-.41.15-1.71.31-3L44,65.25l4,0,4,0-.16.57a27,27,0,0,0-.46,3l-.31,2.44H43.33M73,53.55H33.23L32,54.12a7,7,0,0,0-2,1.71L29.3,57l-.06,21.59c-.1,23.93-.15,22.84,1.61,24.55a6.59,6.59,0,0,0,1.91,1.24c.83.31,7.57.36,40.29.36h9.33c29.67,0,30.08,0,31.12-.51a4.67,4.67,0,0,0,2.74-2.49c.57-1,.57-1.14.62-21.8.06-14.45,0-21.18-.2-22.17a5.65,5.65,0,0,0-2.9-3.78c-1-.36-2-.41-40.81-.41"/><path class="cls-2" d="M44.78,72.76c-1.19,0-1.55.11-1.55.31s-.47,4.46-1,9.48-1,9.22-1,9.32.31.26.73.36,2.69.11,5.07.16l4.41,0,3.83-7.82c2.43-5,3.52-7.15,4-7.66l0-.11h0v.06c.05-.06.05-.06.1-.06s.1.11.1.26.37,3.58.78,7.51S61,92,61,92.13s.77.31,3.16.31H65a35.14,35.14,0,0,0,4.71-.21c.57-.15.88-.88,3.26-8,1.45-4.3,2.8-8.39,3-9.06L76.37,74h-7.3l-.94,3c-.51,1.65-1.08,3.52-1.24,4.09s-.41,1.09-.52,1.09c-.31,0-.41-.57-.88-4.77-.2-2-.46-3.62-.46-3.68s-6.84-.57-8.81-.57H54.36l-.78,1.35c-.41.73-1.4,2.59-2.22,4.14a20.06,20.06,0,0,1-1.51,2.54c-.1.16-.15.26-.15.26h0v-.52a35,35,0,0,1,.36-3.62,15.82,15.82,0,0,0,.21-4.09,18.43,18.43,0,0,0-3.63-.31,12.39,12.39,0,0,0-1.86-.11"/><path class="cls-3" d="M49.75,80.79c0,.31,0,.52,0,.52h0a1.64,1.64,0,0,1,.16-.26l-.11.1h0s-.1-.1,0-.36m9.53-4a.17.17,0,0,0-.05.1s0,0,.05-.1h0"/><path class="cls-2" d="M47.94,65.36H44.11l-.31,2.43c-.16,1.35-.32,2.59-.32,2.85s.52.41,3.73.41c2.07,0,3.73,0,3.73,0,.16-.83.73-4.81.73-5.13s-.26-.51-3.73-.51"/><path class="cls-2" d="M62.85,65.56c-.41,0-1,0-1.71.06-2.28,0-2.84.15-3,.51s-.78,1.45-1.45,2.7l-1.19,2.22h9.42l-.15-2.12a10.49,10.49,0,0,0-.42-2.74c-.26-.52-.36-.63-1.45-.63"/><path class="cls-2" d="M75.44,65.62H71.66l-.78,2.59a15.44,15.44,0,0,0-.67,2.69,31.62,31.62,0,0,0,3.78.15h3.62l.83-2.53c.47-1.4.83-2.59.83-2.7a19.38,19.38,0,0,0-3.83-.2"/><path class="cls-2" d="M81.6,65.51l-.88,2.64c-.88,2.64-.88,2.64-.31,2.75.31,0,3.57.15,7.25.21,6.52.1,6.73.1,7.82.72a4.79,4.79,0,0,1,1.76,1.76,3.44,3.44,0,0,1,.52,2.64,9,9,0,0,1-2.7,5.49c-2.22,2.23-3.83,3-7.45,3.16L85.48,85l.16-.73c.15-.67,2.59-8.8,2.85-9.53.15-.36-1.19-.52-6.17-.72L78.8,73.9l-3,9c-1.66,4.92-3,9-3,9.11s.25.21.56.32a51.16,51.16,0,0,0,5.18.15c3.37,0,7.41,0,9.22-.21,5.59-.41,8.91-2,13-6.16a15.23,15.23,0,0,0,3.63-4.81c1.39-2.85,1.86-4.67,1.65-7.25a8.56,8.56,0,0,0-5-7.46l-1.5-.78-9.06-.1-8.91-.16"/></svg>