<svg id="Layer_1" data-name="Layer 1" xmlns="http://www.w3.org/2000/svg" viewBox="0 0 250 160"><defs><style>.cls-1{fill:#db241d;}.cls-1,.cls-2,.cls-3{fill-rule:evenodd;}.cls-2{fill:#2b2a29;}.cls-3{fill:#01328e;}</style></defs><g id="_2209239283696" data-name=" 2209239283696"><path class="cls-1" d="M86.25,74.21c19.32-12.71,28.27-16.6,51-19.12,12.21-1.35,36.07-1.38,49.07-1.57l24.72-.35.82-1.92-73.73.47c-22.38.14-38.52,4.36-58.06,15.68l6.16,6.81Z"/><path class="cls-2" d="M156.14,94c3.24,2.46,27.25,1.41,33.13,1.4,1.13-.51,8.73-16.23,9.43-18l-10,0L183.22,88c-2.54.2-5.65,0-8.25,0-2.12,0-5.68.43-6.05-1.9-.33-2.11,4.1-9.08,5.18-10.84,3.23-5.24,3.69-4.88,11.92-4.88,5.37,0,10.74,0,16.12,0a51.22,51.22,0,0,0,3.79-7.37c-8.15,0-16.31,0-24.46,0-9.93,0-13,2.36-14.78,4.48-3.62,4.24-15,23.11-10.55,26.46ZM127.49,77l12.07,0c1.77,0,3.82-.42,4.86-1.41,5.71-5.49-.67-5.23-4.8-5.18l-8.52.1Zm19.86-13.87L122,63.17,105.63,95.42h13.22l5.5-11.07c6.78-.34,18.63,1.06,24-1.94,3.91-2.18,7.78-7.12,9.08-13.15,1.49-6.92-5-6.19-10.1-6.18ZM84.65,95.31l15.54.13L64.45,55.77l-15.37,0L84.65,95.31Z"/><path class="cls-1" d="M74.37,83.87l-7-7.82C62.81,78,38.23,95.3,38.12,95.44l17.6,0c2.45,0,3.36-.85,6.09-3.1,2.92-2.17,9.72-7.52,12.56-8.52Z"/></g><path class="cls-3" d="M143.94,108.7a69.13,69.13,0,0,0,7.92-.12c2.59-.31,3.88-1.5,3.87-4.29,0-4.89-4.14-4.39-7.67-4.39q-2.06,0-4.11,0v8.8Zm-14.71-.06,1.75,0c.32-.43.67-1.19,1-1.66h6.58c.26,0,.71,1,.91,1.36s.2.28.95.28h2.68a26.1,26.1,0,0,0-1.58-2.84L139.9,103a13.27,13.27,0,0,0-1.72-2.66c-.59-.35-3.34-.25-4.24-.22-.39.59-.83,1.47-1.17,2.08-.55,1-3.53,6.11-3.54,6.42Zm48.86,0,1.78,0c.36-.57.64-1.13,1-1.66h6.7c.33.45.66,1.09,1,1.66H192c0-.27-3.64-6.41-4.28-7.47-.76-1.27-1-1-3.11-1h-1.77c-.54,1.08-4.67,8.17-4.72,8.5Zm-22.07,0h1.76a15.55,15.55,0,0,1,1-1.66h6.67l1,1.68h3.42c0-.21-4.49-8-4.92-8.33a16.25,16.25,0,0,0-4.25-.18c-.95,1.84-2.46,4.36-3.54,6.32a11.36,11.36,0,0,0-1.13,2.18Zm11.9-7c.53.18,3.74,0,4.61.07.21,1.23-.19,6.21.09,6.81a11.1,11.1,0,0,0,2.7,0,21.46,21.46,0,0,0,.05-3.44v-1.78a2.6,2.6,0,0,1,.2-1.58l4.33,0c0-.52.12-1.39-.16-1.48s-11.45,0-11.81,0v1.39Zm-21.48,5.73a20.65,20.65,0,0,0,4.56-.15,2.78,2.78,0,0,0,1.91-2.94c0-1.61-.52-2.51-1.83-3a22.46,22.46,0,0,0-4.62-.14l0,6.18Zm-13.72-1.78h5.33c0-.21-1.59-3-1.91-3.59s-.46-.52-1.27-.51a42.56,42.56,0,0,0-2.15,4.09Zm26.79,0h5.3a18.81,18.81,0,0,0-1.23-2.37c-.24-.42-.44-.79-.66-1.2-.33-.63-.5-.55-1.28-.52a37.32,37.32,0,0,0-2.13,4.08Zm21.9,0h5.36c0-.18-1.06-2-1.26-2.38-1-1.75-.61-1.72-1.93-1.7-.21.32-2.16,3.85-2.17,4.08Z"/></svg>