<svg xmlns="http://www.w3.org/2000/svg" xmlns:xlink="http://www.w3.org/1999/xlink" xmlns:a="http://ns.adobe.com/AdobeSVGViewerExtensions/3.0/" version="1.1" x="0px" y="0px" viewBox="0 -20.347 180 80" enable-background="new 0 -20.347 180 80" xml:space="preserve">
                <defs>
                </defs>
                <path fill="#ffffff" d="M36.146,37.661l-2.065-3.616c-0.195-0.342-0.56-0.554-0.954-0.554H11.174c-0.846,0-1.374-0.916-0.951-1.647  l11.351-19.66c0.423-0.732,1.48-0.732,1.903,0l4.304,7.455c0.196,0.34,0.559,0.549,0.952,0.549h4.164  c0.847,0,1.375-0.915,0.952-1.647L23.476,0.55c-0.422-0.732-1.479-0.733-1.903,0L2.554,33.491l-2.405,4.165  c-0.423,0.732,0.105,1.648,0.952,1.648h4.814h29.276C36.035,39.305,36.563,38.394,36.146,37.661z"></path>
                <path fill="#FCCA00" d="M36.152,22.533c-0.196-0.339-0.559-0.549-0.951-0.549h-6.065h-5.932c-0.393,0-0.755,0.21-0.951,0.55  l-1.761,3.049c-0.423,0.732,0.106,1.648,0.952,1.648h10.831l-0.01,0.014l6.565,11.496c0.196,0.341,0.558,0.553,0.951,0.554  l4.159,0.012c0.848,0.002,1.379-0.915,0.955-1.649L36.152,22.533z"></path>
                <path fill="#FCCA00" d="M179.468,27.127c0.354,0.354,0.532,0.786,0.532,1.3c0,0.51-0.178,0.939-0.532,1.295  c-0.352,0.354-0.787,0.526-1.298,0.526c-0.513,0-0.939-0.173-1.295-0.526c-0.355-0.355-0.531-0.785-0.531-1.295  c0-0.514,0.176-0.946,0.531-1.3c0.355-0.353,0.782-0.528,1.295-0.528C178.681,26.599,179.116,26.774,179.468,27.127z   M179.291,27.306c-0.308-0.306-0.681-0.46-1.121-0.46s-0.815,0.154-1.119,0.46c-0.304,0.305-0.457,0.679-0.457,1.121  c0,0.44,0.153,0.813,0.457,1.117c0.304,0.304,0.679,0.457,1.119,0.457s0.813-0.153,1.121-0.457c0.305-0.305,0.456-0.677,0.456-1.117  C179.747,27.984,179.596,27.61,179.291,27.306z M177.528,29.388v-1.935h0.72c0.155,0,0.289,0.055,0.398,0.161  c0.105,0.109,0.157,0.243,0.157,0.403c0,0.155-0.052,0.29-0.161,0.4c-0.051,0.051-0.108,0.089-0.176,0.117l0.337,0.853h-0.345  l-0.322-0.809h-0.319v0.809H177.528z M178.523,28.018c0-0.08-0.031-0.145-0.083-0.195c-0.052-0.052-0.117-0.083-0.192-0.083h-0.431  v0.278v0.273h0.431c0.075,0,0.141-0.028,0.192-0.081C178.492,28.156,178.523,28.094,178.523,28.018z"></path>
                <path fill="#FCCA00" d="M165.918,29.956c-4.601,0-10.694-0.672-13.607-3.878c-1.293-1.428-1.842-3.267-1.63-5.467  c0.705-7.284,12.03-8.373,18.717-8.373c2.775,0,5.106,0.181,6.248,0.291l0.183,0.016l-1.384,2.921l-0.092-0.01  c-0.813-0.071-2.5-0.19-4.608-0.19c-5.839,0-13.113,0.913-14.632,5.267c-0.383,1.087-0.288,2.046,0.284,2.849  c1.292,1.818,4.994,2.742,11.01,2.742c2.595,0,4.864-0.179,5.987-0.284l0.193-0.018l-1.304,3.837l-0.077,0.01  C170.445,29.754,168.412,29.956,165.918,29.956z"></path>
                <path fill="#FCCA00" d="M119.569,29.911c-2.444,0-5.16-0.185-6.824-1.563c-1.994-1.625-1.799-4.373-1.77-4.683l3.531-14.606h3.862  c0.186,0,0.357,0.082,0.47,0.224c0.108,0.138,0.148,0.315,0.114,0.486c-0.046,0.204-0.864,3.421-1.059,4.184l8.33,0.011l-0.11,0.188  c-0.606,1.032-2.18,3.427-3.652,3.427c-0.028,0-5.337,0-5.337,0l-1.664,6.808c0.069,1.725,1.939,2.527,5.873,2.527  c1.163,0,2.195-0.079,2.708-0.128l0.169-0.015l-0.686,3.005l-0.085,0.017C122.877,29.873,121.682,29.911,119.569,29.911  L119.569,29.911z"></path>
                <path fill="#FCCA00" d="M139.329,29.911c-4.072,0-9.427-0.609-11.816-3.511c-1.149-1.397-1.514-3.237-1.076-5.467  c1.521-7.553,12.381-8.68,18.72-8.68c2.337,0,4.268,0.151,5.212,0.24l0.178,0.016l-1.433,2.971l-0.085-0.006  c-0.633-0.046-1.95-0.121-3.632-0.121c-3.066,0-8.97,0.553-11.756,2.043c-1.761,0.938-2.572,2.017-2.84,2.437h14.005l-0.053,0.165  c-0.223,0.679-0.832,2.313-1.705,2.81l-0.032,0.014h-12.887c0.029,0.335,0.192,1.293,1.067,2.113  c1.409,1.316,4.603,2.014,9.233,2.014c1.755,0,3.674-0.087,5.704-0.261l0.202-0.015l-1.097,2.849l-0.075,0.01  C144.308,29.646,142.028,29.911,139.329,29.911L139.329,29.911z"></path>
                <path fill="#FCCA00" d="M101.46,29.874c0,0,1.591-6.48,2.344-9.752c0.352-1.517,0.207-2.726-0.415-3.5  c-0.642-0.791-1.584-0.878-1.962-0.878c-0.073,0-9.719,0.005-10.817,0.005l-2.333,9.747c-0.66,2.536-2.574,4.255-4.875,4.382h-0.916  l4.323-17.81h14.467c1.469,0,4.176,0.18,5.787,1.385c2.238,1.674,1.385,4.622,1.376,4.649c-0.014,0.064-1.647,6.855-1.736,7.303  c-0.805,4.032-1.938,4.473-4.158,4.473L101.46,29.874z"></path>
                <path fill="#FCCA00" d="M73.378,29.878l2.108-8.608H64.403l0.362-1.359c0.055-0.245,0.407-1.513,2.022-1.54h9.399l1.648-6.804  h-9.939c-0.055,0-5.73,0.084-6.71,4.577l-3.129,12.451c-0.36,1.01-0.962,1.235-1.285,1.281l-3.241,0.002l3.489-14.736  c0.177-0.767,0.715-3.104,3.58-4.692c2.419-1.278,6.624-1.295,6.802-1.295h15.716l-4.426,18.891  c-0.322,1.425-1.353,1.772-1.553,1.829l-0.019,0.004H73.378z"></path>
                </svg>