<svg xmlns="http://www.w3.org/2000/svg" viewBox="0 0 1931.48434 1666.66667" width="115.8891" height="100">
<g id="Cooler-Master_x5F_logo_x5F_190212_x5F_white_x5F_wordmark">
<title>Cooler Master logo</title>
<rect style="fill:none" width="1931.48434" height="1666.66667"/>
<path style="fill:#FFFFFF;" d="M408.57133,706.78942C406.65262,637.8563,430.11515,573.26523,489.044,559.99c38.43236-8.649,76.69353,24.31847,84.8867,73.42853l-53.62033,9.993c-3.81961-18.9493-14.66256-30.959-30.4889-26.51832-24.5479,6.88963-33.31581,40.47-32.46226,82.46035.84166,41.41622,10.582,68.59907,34.60743,66.89851,15.77939-1.12043,30.31471-17.54474,32.87417-40.21733,0,0,41.953-3.46532,51.47873-4.3159,0,51.25464-38.29922,97.99069-83.63068,97.99069C442.07556,819.70951,410.455,773.84128,408.57133,706.78942Zm371.49358-60.83271c-4.42883-99.97,20.01445-193.05042,83.16292-217.13945C928.99758,403.732,976.08135,494.6417,978.07555,609.42819c2.40016,139.51747-39.50643,210.28132-102.34463,210.28132C819.49585,819.70951,784.58944,748.19375,780.06491,645.95671Zm62.4608-6.49555c2.05775,61.0996,14.01518,105.69107,34.05286,103.73789,22.156-2.18856,33.86737-55.86714,32.07353-126.1638-1.84326-72.17494-16.50579-118.66729-38.99823-105.3802C853.71693,521.06729,840.18613,570.00319,842.52571,639.46116ZM585.92913,673.6971c-3.0534-86.91,23.88574-159.819,75.52971-177.13729,57.70382-19.39034,99.54087,53.911,101.33118,148.17482,2.02629,107.44394-30.41279,174.96656-92.363,174.96656C619.76147,819.70119,588.95341,759.24592,585.92913,673.6971Zm53.385-9.37717c1.54123,52.7436,13.04277,91.4577,32.40457,89.832,20.60647-1.72969,32.895-45.53716,31.57721-102.66322-1.3469-58.22629-15.79187-97.87479-36.65036-90.99348C652.6618,565.11549,637.59037,604.57258,639.31411,664.31993ZM1074.78056,434.0616l-71.08364-23.86018V815.53627h162.089V742.65875l-91.00536-6.61383Zm414.02726,286.5778,31.19977,94.89687H1469.6814l-27.80394-89.74822-19.85759-2.28723v92.03545h-59.09113V529.40248l94.70844,31.83577c38.21725,12.83417,60.62883,53.20247,60.62883,96.1766C1518.266,696.88086,1502.75648,714.59917,1488.80782,720.6394Zm-16.2763-72.85136c0-18.23781-9.33378-31.52193-22.68447-35.05977l-27.82718-7.37762v62.05419l27.82718,5.198C1463.19774,675.09036,1472.53152,666.03773,1472.53152,647.788Zm-468.8346,282.2298,49.47324-3.29948.04042,308.26369,67.67062-22.55371V921.89187l44.43455-3.65433v-72.575H1003.69692Zm182.324,260.71272,156.32991-52.09392v-60.61516l-91.78283,24.1128v-63.68581l80.89353-16.11641V960.51563L1250.568,970.958V913.17329l91.78283-6.44323v-61.0675H1186.02089Zm303.08888-195.36677,30.89782,84.13832-50.53483,16.83028-27.47945-80.06315-19.8926,4.35037v91.4785l-59.172,19.70062V845.66256h94.90578c38.35093,0,60.87848,33.01921,60.87848,76.22337C1518.713,961.56949,1503.122,984.6106,1489.10977,995.36379ZM1472.752,927.60638c0-18.34-9.357-28.52677-22.754-27.58347l-27.89731,1.9615v62.30741l27.89731-4.13045C1463.39508,958.17906,1472.752,945.94048,1472.752,927.60638Zm-748.754-81.94382,66.95081,357.3155-62.30146-21.72987-8.29478-53.74753-56.10489-15.97732-7.16543,45.25006-51.32177-17.69275,53.54481-293.41809Zm-13.46661,212.12157L690.662,936.88785,672.319,1049.0917ZM494.93268,966.28839,471.43805,845.66256h-57.4078v227.14073l40.10141,14.0182V943.20627L484.548,1097.25252l17.26894,5.99625,39.1813-147.25767V1116.823l52.60748,18.25266V845.66256H525.38946ZM1599.02639,720.54311V963.723c0,122.768-18.645,158.55057-131.20842,207.58812-39.06474,16.89983-98.06915,46.1904-248.81532,103.25821-66.36414,25.15181-166.17486,58.7666-253.37551,58.7666-86.75841,0-186.543-33.61479-253.13712-58.7666-150.55481-57.06781-209.54728-86.35838-248.58592-103.25821C351.3347,1122.27355,332.458,1086.491,332.458,963.723V720.54311c0-132.31637,31.66158-184.8133,142.50665-235.57815,22.7659-10.40191,49.01139-23.4245,192.62364-76.14194,164.63419-60.51055,247.066-75.49226,298.0389-75.49226,51.19995,0,133.62583,14.98171,298.47757,75.49226,143.61819,52.71744,169.86071,65.74,192.63856,76.14194C1567.58827,535.72981,1599.02639,588.22674,1599.02639,720.54311ZM1563.676,704.27572c0-120.5967-54.22126-161.19146-131.87533-193.50037-27.33977-11.48727-38.63565-18.86192-176.3622-69.85265-113.22561-42.06352-216.91357-73.51293-289.8113-73.51293-72.45015,0-176.12978,31.44941-289.58721,73.51293-137.509,50.99073-148.8019,58.36538-176.342,69.85265C422.24418,543.08426,368.02589,583.679,368.02589,704.27572V973.0419c0,93.2605,21.47429,128.84868,98.47869,163.33366,64.405,28.63734,70.93266,31.68183,204.12577,83.95288,84.15258,32.96987,196.29818,76.57465,294.99679,76.57465,99.14619,0,211.07127-43.60478,295.23872-76.57465,133.39579-52.27105,139.91452-55.31554,204.3231-83.95288,77.00975-34.485,98.487-70.07316,98.487-163.33366V704.27572ZM857.51927,953.21349c-1.0188-20.24924,13.70733-34.01244,28.17548-32.47118,10.71515,1.29162,24.71612,12.72064,22.78017,40.28687l70.59921,6.90509c3.75246-71.32734-26.32454-125.00592-91.03449-126.1115-50.155-.65026-98.59756,42.53012-97.06224,107.60324,2.5167,116.56255,129.60593,97.9794,130.51179,194.71948.104,14.5056-8.00768,29.2026-22.91094,27.70532-18.76681-3.567-32.88368-16.58361-34.14316-56.43l-66.048-16.1919c-.66156,60.91414,21.32628,125.26686,85.79847,139.22443,62.64918,13.74537,120.10335-36.83641,106.50063-123.80405C974.697,1013.51481,860.39792,1007.46328,857.51927,953.21349Zm328.548-137.67722H1342.3508V754.38734l-91.78283-6.237V685.74191l76.1515,10.2539V633.9119l-76.1515-15.62307V559.78674l91.78283,24.35651V522.35594l-156.32991-51.88173Z"/>
</g>
</svg>