<svg width="80" height="40" viewBox="0 0 80 40" fill="none" xmlns="http://www.w3.org/2000/svg">
<path d="M16.9226 16.963C16.8431 15.3086 17.8149 13.7584 20.2557 13.4398C21.8475 13.2322 23.4322 14.0234 23.7716 15.2021L21.5507 15.4419C21.3925 14.9871 20.9434 14.6989 20.2879 14.8054C19.2711 14.9708 18.908 15.7767 18.9433 16.7845C18.9782 17.7785 19.3816 18.4309 20.3767 18.3901C21.0303 18.3632 21.6323 17.969 21.7384 17.4248C21.7384 17.4248 23.476 17.3417 23.8705 17.3213C23.8705 18.5514 22.2842 19.673 20.4067 19.673C18.3103 19.673 17.0006 18.5722 16.9226 16.963ZM32.3095 15.503C32.126 13.1037 33.1384 10.8698 35.754 10.2916C38.4781 9.68958 40.4282 11.8714 40.5108 14.6263C40.6102 17.9747 38.8745 19.673 36.2718 19.673C33.9426 19.673 32.4969 17.9567 32.3095 15.503V15.503ZM34.8965 15.3471C34.9817 16.8135 35.477 17.8837 36.3069 17.8368C37.2246 17.7843 37.7097 16.496 37.6354 14.8089C37.559 13.0767 36.9517 11.9608 36.0201 12.2797C35.36 12.5056 34.7996 13.6801 34.8965 15.3471ZM24.2686 16.1687C24.1421 14.0829 25.2579 12.3331 27.3969 11.9174C29.7869 11.4521 31.5198 13.2113 31.5939 15.4736C31.6779 18.0523 30.3343 19.6728 27.7684 19.6728C25.6699 19.6728 24.3938 18.2219 24.2686 16.1687ZM26.4797 15.9437C26.5435 17.2095 27.0199 18.1387 27.8219 18.0997C28.6754 18.0581 29.1843 17.0068 29.1298 15.6357C29.074 14.2383 28.4757 13.2867 27.6117 13.4519C27.0326 13.5628 26.4083 14.5098 26.4797 15.9437H26.4797ZM44.5162 10.4175L41.572 9.84484V19.5729H48.2856V17.8238L44.5162 17.6651V10.4175ZM61.6648 17.2954L62.9571 19.5729H60.8726L59.721 17.4189L58.8985 17.364V19.5729H56.451V12.7057L60.3738 13.4697C61.9567 13.7777 62.8849 14.7466 62.8849 15.778C62.8849 16.7251 62.2425 17.1504 61.6648 17.2954ZM60.9907 15.5469C60.9907 15.1092 60.6041 14.7904 60.0511 14.7055L58.8985 14.5284V16.0177L60.0511 16.1425C60.6041 16.2022 60.9907 15.9849 60.9907 15.5469V15.5469ZM41.572 22.3204L43.6212 22.2412L43.6228 29.6396L46.4257 29.0983V22.1254L48.2661 22.0377V20.2959H41.572V22.3204ZM49.1237 28.5775L55.5987 27.3273V25.8725L51.7972 26.4512V24.9228L55.1477 24.536V23.0524L51.7972 23.303V21.9162L55.5987 21.7615V20.2959H49.1237V28.5775ZM61.6773 23.8887L62.9571 25.9081L60.864 26.312L59.7258 24.3905L58.9019 24.4949V26.6904L56.451 27.1632V20.2959H60.3819C61.9704 20.2959 62.9034 21.0884 62.9034 22.1253C62.9034 23.0777 62.2577 23.6307 61.6773 23.8887V23.8887ZM60.9998 22.2626C60.9998 21.8224 60.6122 21.5779 60.0573 21.6006L58.9019 21.6476V23.143L60.0573 23.0439C60.6122 22.9963 60.9998 22.7026 60.9998 22.2626ZM29.9872 20.2959L32.7603 28.8715L30.1798 28.35L29.8362 27.06L27.5124 26.6766L27.2156 27.7626L25.09 27.3379L27.3077 20.2959H29.9872ZM29.4294 25.3868L28.6065 22.4853L27.8467 25.1782L29.4294 25.3868ZM20.4996 23.1909L19.5265 20.2959H17.1487V25.7473L18.8097 26.0837V22.637L20.0695 26.3341L20.7847 26.478L22.4076 22.9438V26.8038L24.5865 27.2418V20.2959H21.7611L20.4996 23.1909ZM66.2299 17.293V23.1294C66.2299 26.0758 65.4577 26.9346 60.7954 28.1115C59.1774 28.5171 56.7335 29.22 50.4898 30.5897C47.741 31.1933 43.607 32.0001 39.9952 32.0001C36.4018 32.0001 32.2688 31.1933 29.5106 30.5897C23.2748 29.22 20.8314 28.5171 19.2144 28.1115C14.5519 26.9346 13.7701 26.0758 13.7701 23.1294V17.293C13.7701 14.1174 15.0815 12.8575 19.6725 11.6392C20.6155 11.3895 21.7025 11.077 27.6508 9.81176C34.4698 8.35951 37.884 7.99995 39.9952 7.99995C42.1159 7.99995 45.5299 8.35951 52.3579 9.81176C58.3064 11.077 59.3933 11.3895 60.3367 11.6392C64.9278 12.8575 66.2299 14.1174 66.2299 17.293ZM64.7658 16.9026C64.7658 14.0083 62.52 13.034 59.3036 12.2586C58.1712 11.9829 57.7034 11.8059 51.9989 10.5822C47.3092 9.57263 43.0146 8.81784 39.9952 8.81784C36.9944 8.81784 32.7001 9.57263 28.0009 10.5822C22.3054 11.8059 21.8376 11.9829 20.697 12.2586C17.4889 13.034 15.2432 14.0083 15.2432 16.9026V23.353C15.2432 25.5913 16.1327 26.4454 19.3221 27.273C21.9897 27.9603 22.2601 28.0334 27.7768 29.2879C31.2623 30.0792 35.9072 31.1257 39.9952 31.1257C44.1018 31.1257 48.7376 30.0792 52.2237 29.2879C57.7488 28.0334 58.0188 27.9603 60.6865 27.273C63.8762 26.4454 64.7658 25.5913 64.7658 23.353V16.9026H64.7658ZM35.5175 22.8771C35.4753 22.3911 36.0853 22.0608 36.6845 22.0978C37.1283 22.1288 37.7082 22.4031 37.6281 23.0647L40.5522 23.2304C40.7076 21.5186 39.4619 20.2303 36.7816 20.2038C34.7043 20.1881 32.6978 21.2245 32.7614 22.7862C32.8657 25.5837 38.1296 25.1377 38.1671 27.4595C38.1714 27.8076 37.8354 28.1604 37.2181 28.1244C36.4408 28.0388 35.8561 27.7264 35.804 26.7701L33.0683 26.3815C33.0409 27.8434 33.9516 29.3879 36.622 29.7229C39.2169 30.0528 41.5966 28.8388 41.0332 26.7516C40.3709 24.3244 35.6368 24.1791 35.5175 22.8771ZM49.1256 19.5729H55.5987V18.1053L51.7972 17.9556V16.4578L54.9513 16.7039V15.2139L51.7972 14.8389V13.4349L55.5987 14.0194V12.5366L49.1237 11.2914L49.1256 19.5729Z" fill="black"/>
</svg>
