<?xml version="1.0" encoding="UTF-8"?>
<svg width="350px" height="95px" viewBox="0 0 350 95" version="1.1" xmlns="http://www.w3.org/2000/svg" xmlns:xlink="http://www.w3.org/1999/xlink">
    <title>LeanIX-Logo</title>
    <defs>
        <circle id="path-1" cx="35.5" cy="35.5" r="35.5"></circle>
    </defs>
    <g id="LeanIX-Logo" stroke="none" stroke-width="1" fill="none" fill-rule="evenodd">
        <g id="LeanIX-Logo-Farbe" transform="translate(0.000000, 22.000000)">
            <path d="M144,57.1814539 L144,14 L153.747794,14 L153.747794,47.9507728 L175.365109,47.9507728 L175.365109,57.1814539 L144,57.1814539 Z M211.19648,40.412593 C211.19648,41.6970807 211.080013,42.9815684 210.90278,44.2660561 L187.229567,44.2660561 C188.229665,47.7744705 190.991962,50.285518 195.984858,50.285518 C199.448489,50.285518 203.443819,48.9431025 206.028883,47.1876359 L209.669748,53.441328 C206.555517,55.7785919 201.565153,57.8816256 195.572159,57.8816256 C183.530469,57.8816256 177.950173,49.8195764 177.950173,41.1127647 C177.950173,31.587407 184.705268,24.3439038 194.926526,24.3439038 C204.147686,24.3439038 211.19648,30.2449914 211.19648,40.412593 L211.19648,40.412593 Z M194.926526,31.7637092 C191.166663,31.7637092 188.229665,33.9851173 187.173865,37.7227247 L202.327254,37.7227247 C201.504388,34.1009731 198.802856,31.7637092 194.926526,31.7637092 Z M240.804454,25.1599313 L249.496448,25.1599313 L249.496448,57.1814539 L240.801922,57.1814539 L240.801922,53.9072696 C238.452324,56.2470521 235.282392,58 230.876896,58 C221.594971,58 215.014577,50.5197481 215.014577,40.996909 C215.014577,31.4136234 221.769671,24.3439038 230.874364,24.3439038 C235.221627,24.3439038 238.452324,26.1547796 240.801922,28.5499714 L240.801922,25.1599313 L240.804454,25.1599313 Z M232.461862,49.6432742 C237.335759,49.6432742 240.801922,45.7293646 240.801922,41.1127647 C240.801922,36.5540927 237.335759,32.7006297 232.461862,32.7006297 C227.585433,32.7006297 224.238268,36.5540927 224.238268,41.1127647 C224.238268,45.7872925 227.643667,49.6432742 232.461862,49.6432742 Z M256.603476,57.1814539 L256.603476,25.1599313 L265.591701,25.1599313 L265.591701,29.6027476 C267.176667,26.7390956 270.878297,24.2834574 275.752194,24.2834574 C282.155355,24.2834574 288.264816,28.5499714 288.264816,37.6068689 L288.264816,57.1814539 L279.041125,57.1814539 L279.041125,40.0045793 C279.041125,35.269605 276.516826,32.7006297 272.756963,32.7006297 C268.645166,32.7006297 265.824636,35.7380653 265.824636,40.2362908 L265.824636,57.1814539 L256.603476,57.1814539 Z M295.959244,14 L305.70957,14 L305.70957,57.1814539 L295.959244,57.1814539 L295.959244,14 Z M310.466999,57.1814539 L324.154421,35.3854608 L311.467098,14.0025186 L322.685922,14.0025186 L330.438583,28.0815112 L338.662176,14.0025186 L350,14.0025186 L336.548045,35.3854608 L349.883533,57.1814539 L338.662176,57.1814539 L330.322116,42.6894104 L321.804823,57.1814539 L310.466999,57.1814539 Z" id="Shape" fill="#222F4B" fill-rule="nonzero"></path>
            <g id="Group" transform="translate(37.000000, 1.000000)">
                <g id="a-link" fill="#166BFF" fill-rule="nonzero">
                    <circle id="a" cx="35.5" cy="35.5" r="35.5"></circle>
                </g>
                <g id="Clipped">
                    <mask id="mask-2" fill="white">
                        <use xlink:href="#path-1"></use>
                    </mask>
                    <g id="a"></g>
                    <polygon id="Path" fill-opacity="0.65" fill="#003399" fill-rule="nonzero" mask="url(#mask-2)" points="-24.85 42.6 11.6642857 6.08571429 48.1785714 42.6 11.6642857 79.1142857"></polygon>
                </g>
            </g>
            <polygon id="Path" fill="#166BFF" fill-rule="nonzero" points="0 36.5 36.5 0 73 36.5 36.5 73"></polygon>
            <path d="M46.8739014,62 C39.914926,55.3150939 35.9903589,46.1117159 36,36.5 C36,26.504 40.1650852,17.4668 46.8739014,11 L73,36.5 L46.8739014,62 L46.8739014,62 Z" id="Path" fill="#FFFFFF" fill-rule="nonzero"></path>
        </g>
    </g>
</svg>