<svg xmlns="http://www.w3.org/2000/svg" width="188" height="37" viewBox="0 0 1460.793 283.249">
  <g id="en_us-SanDisk_logo_red" transform="translate(0 0.023)">
    <path id="Path_28" data-name="Path 28" d="M577.557,255.64h-44.8a13.572,13.572,0,0,0-5.222,11.379c0,9.652,5.222,11.771,5.222,11.771h39.892c57.717,0,94,38.491,94,114.375,0,81.652-35.808,117.122-99.336,117.122h-25.6a8.321,8.321,0,0,1-7.067-7.1c0-15.185,0-110.922,0-118.966,0-39.237-26.935-60.974-70.674-60.974-29.33,0-50.414,13.184-62.272,35.666V334.271a5.22,5.22,0,0,0-5.575-5.729H322.187a16.434,16.434,0,0,0-4.829,11.771,13.572,13.572,0,0,0,4.829,11.418h16.53a10.165,10.165,0,0,1,9.031,10.045V503.264a7.85,7.85,0,0,1-6.832,6.592h-15.9L317.751,530.1h105.5a14.942,14.942,0,0,0,3.691-10.633,12.746,12.746,0,0,0-3.612-9.809H410.883a6.476,6.476,0,0,1-6.439-6.239V393.44c10.366-28.172,30.547-44.809,47.116-44.809,15.705,0,25.717,11.771,25.717,29.506V502.126A7.3,7.3,0,0,1,471,509.973H455.84a12,12,0,0,0-4.123,9.809,13.925,13.925,0,0,0,4.24,10.633H580.031c123.6,0,155.444-74.079,155.444-137.329C735.475,293.9,666.567,255.64,577.557,255.64Z" transform="translate(105.274 -253.1)" fill="#ee3224"></path>
    <path id="Path_29" data-name="Path 29" d="M454.6,461.566c-13.35-1.453-14.959-9.345-15.156-18.179V335.177c0-15.705-5.576-34.12-18.964-45.31-16.648-13.938-40.873-17.551-62-17.551a206.444,206.444,0,0,0-70.871,10.719c-2.552.942-3.141,3.3-3.141,6.557v29.84a3.927,3.927,0,0,0,3.926,4.123h11.779a8.363,8.363,0,0,0,6.518-3.926,76.015,76.015,0,0,1,20.731-18.964,53.63,53.63,0,0,1,24.854-6.793c22.459,0,31.961,16.334,31.961,35.337V359.4c-84.966-4.908-119.832,20.1-119.832,60.112,0,45.781,31.411,64.9,62.468,64.9,28.191,0,49.236-10.68,61.055-27.092,2.473,14.253,10.915,24.186,22.145,24.186h44.289l7.224-20.26Zm-70.674-29.958c-8.6,11.229-22.812,20.771-37.732,20.771-19.632,0-30.547-9.659-30.547-31.411,0-25.089,11.779-38.91,68.279-38.91Z" transform="translate(-49.56 -204.667)" fill="#ee3224"></path>
    <path id="Path_30" data-name="Path 30" d="M546.837,455.823H523.475a4.986,4.986,0,0,1-5.5-5.418s0-163.611,0-168.362-1.688-7.853-7.342-7.853H438.626a16.961,16.961,0,0,0-4.712,11.426,17.238,17.238,0,0,0,4.712,11.465h20.024c1.492,0,2.591,1.06,2.591,3.062v149.79a5.929,5.929,0,0,1-5.34,5.772H432.816a11.779,11.779,0,0,0-4.319,9.855A14.88,14.88,0,0,0,432.816,476H546.954a17.236,17.236,0,0,0,3.73-10.68,12.918,12.918,0,0,0-3.848-9.5Z" transform="translate(430.549 -199.002)" fill="#ee3224"></path>
    <path id="Path_31" data-name="Path 31" d="M302.784,356.623c-39.46-13.576-47.548-24.955-47.548-40.885,0-17.3,16.02-34.725,50.375-34.725a69.1,69.1,0,0,1,36.24,11.418c7.3,4.512,14.8,11.771,23.323,26.525a5.576,5.576,0,0,0,3.926,2.668h12.446c1.845,0,2.474-1.295,2.474-3.414V271.557a5.533,5.533,0,0,0-4.162-5.3,233.09,233.09,0,0,0-76.446-11.222c-56.225,0-93.722,31.9-93.722,80.711,0,47.909,36.436,68.116,84.063,82.752,30.036,9.26,65.688,21.738,65.688,51.4,0,17.578-16.137,37.9-48.53,37.9-24.932,0-41.227-8.711-50.768-18.559a128.822,128.822,0,0,1-27.17-37.275c-.942-2.354-2.513-4.395-4.555-4.395H213.891c-2,0-3.534,1.452-3.534,4.395v54.5a8.277,8.277,0,0,0,3.337,6.552c28.113,15.7,64.706,22.13,95.1,21.973,53.869-.353,95.646-36.059,95.646-93.463C404.437,379.891,347.819,372.122,302.784,356.623Z" transform="translate(-209.69 -255.01)" fill="#ee3224"></path>
    <path id="Path_32" data-name="Path 32" d="M555.583,351.88c-41.344-9.934-49.747-17.237-49.747-31.8,0-12.368,10.68-25.4,32.235-25.4a62.037,62.037,0,0,1,50.454,27.484,5.772,5.772,0,0,0,5.575,2.906h10.13a2.749,2.749,0,0,0,2.788-2.709V286.663a5.458,5.458,0,0,0-3.926-5.693,248.89,248.89,0,0,0-65.492-7.853c-34.787,0-72.559,19.946-72.559,62.821,0,36.751,29.683,56.736,55.165,63.646,43.19,11.779,55.911,17.9,55.911,36.4,0,16.019-12.564,25.717-34.434,25.717s-42.365-16.216-54.537-44.878c-1.924-2.945-3.062-3.926-5.065-3.926h-13.86a3.416,3.416,0,0,0-3.612,3.926v42.13c0,3.259,4.437,6.753,4.437,6.753a153.4,153.4,0,0,0,26.66,12.525,136.594,136.594,0,0,0,46.135,7.185c51.042,0,75.7-31.764,75.7-68.829C617.58,382.9,598.537,362.167,555.583,351.88Z" transform="translate(536.177 -202.209)" fill="#ee3224"></path>
    <path id="Path_33" data-name="Path 33" d="M441.027,300.595h51.317A5.34,5.34,0,0,0,498,296.9l11.779-36.79c.864-3.063-1.1-4.594-3.926-4.594H452.06a4.751,4.751,0,0,0-4.751,3.926l-9.934,33.963C435.883,297.3,437.886,300.595,441.027,300.595Z" transform="translate(455.122 -253.451)" fill="#ee3224"></path>
    <path id="Path_34" data-name="Path 34" d="M750.231,510.448c-12.172,0-21.516-3.688-26.857-11.771-2.395-3.571-66.473-101.349-67.847-103.7,16.176-22.365,24.658-30.6,38.871-38.06a99.788,99.788,0,0,1,40.088-8.671s3.18-2.433,3.18-9.652a12.982,12.982,0,0,0-3.3-9.888H670.251a10.484,10.484,0,0,0-7.852,4.983c-1.414,2.04-51.789,74.55-65.217,93.776V262.667A6.673,6.673,0,0,0,590,255.526H509.781a12.669,12.669,0,0,0-3.926,9.888,15.689,15.689,0,0,0,3.926,10.633h25.993c3.141,0,4.555,1.491,4.555,4.748V505.268c0,3.178-1.571,4.708-3.926,4.708H511.666a14.081,14.081,0,0,0-3.926,10.005,16.119,16.119,0,0,0,3.926,10.515H618.973a21.179,21.179,0,0,0,2.984-10.594,16.982,16.982,0,0,0-2.984-9.809h-17.59a4.357,4.357,0,0,1-4.24-4.63V453.632c4.987-5.218,14.135-14.6,15.313-15.695a5.106,5.106,0,0,1,8.56.785c2.081,3.374,42.954,66,43.9,67.605,1.885,3.139.746,4.512-1.571,4.512H650.658a20.707,20.707,0,0,0-3.062,9.927,22.821,22.821,0,0,0,2.748,9.966H757.416a17.964,17.964,0,0,0,3.337-9.966,18.356,18.356,0,0,0-3.927-10.319Z" transform="translate(656.933 -253.496)" fill="#ee3224"></path>
    <path id="Path_35" data-name="Path 35" d="M593.92,298.445v-3.1a6.754,6.754,0,0,0-2.356-5.772,8.482,8.482,0,0,0-3.926-1.452,8.285,8.285,0,0,0,4.515-1.728,5.732,5.732,0,0,0,1.885-4.712,6.4,6.4,0,0,0-3.455-6.164,12.053,12.053,0,0,0-5.1-1.335H573.15v25.875H579.9v-9.266h2.906a10.6,10.6,0,0,1,2.277.393,3.1,3.1,0,0,1,1.924,1.924,14.925,14.925,0,0,1,.471,3.22,17.3,17.3,0,0,0,.432,3.612h6.518v-.707A5.438,5.438,0,0,1,593.92,298.445Zm-7.853-13.271a6.2,6.2,0,0,1-3.927.982h-2.631V278.7h1.61a12.8,12.8,0,0,1,3.926.471,2.984,2.984,0,0,1,2.081,2.984,3.377,3.377,0,0,1-1.06,3.1Z" transform="translate(853.92 -198.9)" fill="#ee3224"></path>
    <path id="Path_36" data-name="Path 36" d="M609.675,278.393a22.341,22.341,0,0,0-16.53-6.91,22.578,22.578,0,0,0-16.059,6.4,22.183,22.183,0,0,0-7.342,17,23.558,23.558,0,1,0,39.931-16.491Zm-2.945,30.272a18.651,18.651,0,0,1-13.546,5.654,18.454,18.454,0,0,1-13.585-5.654,19.239,19.239,0,0,1,0-27.17,18.886,18.886,0,0,1,27.249,0,18.61,18.61,0,0,1,5.536,13.428,19,19,0,0,1-5.654,13.939Z" transform="translate(843.937 -206.8)" fill="#ee3224"></path>
  </g>
</svg>