<?xml version="1.0" encoding="iso-8859-1"?>
<!-- Generator: Adobe Illustrator 22.0.0, SVG Export Plug-In . SVG Version: 6.00 Build 0)  -->
<svg version="1.1" id="Layer_1" xmlns="http://www.w3.org/2000/svg" xmlns:xlink="http://www.w3.org/1999/xlink" x="0px" y="0px"
	 viewBox="0 0 298 62" style="enable-background:new 0 0 298 62;" xml:space="preserve">
<g>
	<path style="fill:#0085CA;" d="M221.771,58.94h-8.156c0,0,4.038-4.829,4.038-9.577c0-7.531-4.672-11.378-7.127-11.787
		c-0.871-0.163-2.138-0.245-3.167-0.245v3.438c0.396-0.082,0.713-0.164,1.03-0.164c3.405,0,4.118,6.14,3.563,9.578
		c-0.475,3.029-1.979,6.876-4.593,7.695v3.765c4.514,0,20.034,0,20.034,0V37.33h-5.622V58.94z M207.359,37.33c-1.029,0-1.9,0-1.9,0
		s-27.715,0-28.348,0c-0.634,0-3.959-0.164-5.226,3.11c-0.871,2.374-0.396,5.157,1.504,6.549c1.03,0.737,13.303,9.25,13.303,9.25
		s1.742,0.982,1.584,1.883c-0.079,0.818-1.188,0.655-1.188,0.655h-17.104c0,0-1.505,0.163-1.9-0.246
		c-0.396-0.491-0.238-2.455-0.238-2.455V37.657h-5.859v1.719c0,0-1.98-1.719-4.276-1.719v5.239c0.792-0.409,1.663-0.491,2.534-0.082
		c3.009,1.309,2.217,5.402,0.871,8.513c-0.792,1.965-1.98,3.848-3.405,4.748v5.075c0.871-0.328,1.821-0.9,2.93-1.965
		c1.663-1.556,1.979-2.374,1.979-2.374s-0.317,2.046,0.475,3.274c1.029,1.555,2.296,1.555,2.296,1.555s23.756,0,24.548,0
		c1.9,0,5.78-0.491,5.622-5.157c-0.079-3.274-3.484-5.566-3.484-5.566l-11.323-8.35c0,0-1.029-0.573-0.95-1.637
		c0.079-1.064,1.505-0.9,1.505-0.9h20.034c0,0-4.117,3.193-4.117,10.723c0,6.712,5.068,10.887,8.948,10.887c0.158,0,0.554,0,1.188,0
		v-3.765c-0.317,0.163-0.713,0.245-1.108,0.245c-3.326-0.082-3.959-5.73-3.485-8.84c0.396-2.865,2.059-7.449,4.593-8.513V37.33z
		 M157.71,37.657L157.71,37.657c-2.613,0-5.86,1.392-7.998,4.338c-2.376,3.274-2.771,4.83-3.088,7.122
		c-0.158,1.555-0.158,4.338,0.634,6.63c0.396,1.473,1.505,3.029,1.505,3.029h-12.828c0,0-1.505,0-2.93-0.655v3.52h22.488
		c0,0,0.871,0.082,2.217-0.491v-5.075c-0.871,0.573-1.742,0.818-2.692,0.409c-2.851-1.146-1.821-6.63-0.871-8.923
		c0.792-1.801,2.058-3.765,3.563-4.666V37.657L157.71,37.657z M133.005,51.327v-3.683h3.721c0,0-0.792-7.613-3.721-7.777v-2.374
		c10.769,0,10.769,13.834,10.769,13.834H133.005z M133.005,58.122c-1.029-0.491-2.059-1.309-2.613-2.62
		c-0.871-2.128-1.029-4.175-1.029-4.175h3.643v-3.683h-3.801c0,0,0.634-7.777,3.643-7.777c0.079,0,0.079,0,0.158,0v-2.374
		c-0.08,0-0.08,0-0.158,0c-11.323,0-10.532,13.834-10.532,13.834s0.238,2.865,1.584,5.075c1.505,2.292,3.009,3.356,5.147,4.339
		c1.742,0.818,3.801,0.9,3.801,0.9h0.158V58.122z"/>
	<path style="fill:#0085CA;" d="M266.669,58.285c-0.792-0.983-1.346-7.531-0.713-10.969c0.634-3.848,1.267-4.666,2.534-5.402
		c1.267-0.655,5.226-0.573,5.226-0.573v4.338h5.385v-5.485c0,0,0.158-1.719-1.108-2.374c-1.029-0.655-3.009-0.573-3.009-0.573
		s-6.81-0.082-9.264-0.082c-1.9,0-3.009,0.819-4.118,2.128c-1.188,1.555-2.455,5.075-2.692,8.35
		c-0.238,3.274,0.554,7.94,0.079,8.922c-0.396,0.983-0.792,1.637-1.979,1.883c-1.188,0.328-4.355,0.328-4.355,0.328V37.33h-5.701
		v20.055c0,0-0.237,0.818-1.267,1.064c-1.03,0.328-4.989,0.328-4.989,0.328V41.996c0,0-0.079-4.666-5.068-4.666
		c-3.722,0-4.751,1.556-5.701,2.374c-0.634,0.491-2.455,2.62-2.455,2.62v3.193c0,0,2.296-2.456,3.326-3.193
		c1.108-0.819,1.979-1.146,3.088-1.146c1.346,0,1.901,1.31,1.901,2.046c0,0.737,0,18.418,0,18.418s3.326,0.245,5.147,0
		c1.821-0.328,3.564-0.491,4.118-0.655c0.713-0.164,2.138-0.573,2.138-0.573s0.317,0.818,1.346,1.064
		c0.95,0.328,2.771,0.164,2.771,0.164s4.276,0.164,5.701-0.164c1.425-0.246,3.326-2.701,3.326-2.701s0.079,1.391,0.871,1.882
		c1.346,0.9,2.693,0.983,2.693,0.983h24.31l1.9-2.865h-20.509C269.599,58.777,267.224,58.94,266.669,58.285z"/>
	<polygon style="fill:#0085CA;" points="43.525,12.773 50.097,0.249 40.358,0.249 33.469,12.773 53.582,49.608 13.593,49.608 
		6.625,61.642 56.353,61.642 63.48,49.527 	"/>
	<polygon style="fill:#0085CA;" points="98.638,12.773 105.528,0.249 55.245,0.249 48.593,12.773 68.785,49.527 62.134,61.642 
		72.111,61.642 78.762,49.608 58.57,12.773 	"/>
	<path style="fill:#0085CA;" d="M118.276,47.48c-2.534-1.965-20.588-15.144-20.588-15.144s-1.425-0.982-1.425-2.128
		c0-1.227,1.505-1.227,1.505-1.227h22.885v-3.929H94.125c0,0-6.494-0.164-8.473,6.058c-1.03,3.192,0.475,6.221,2.217,7.858
		c0.554,0.573,1.9,1.555,1.9,1.555l18.292,13.261c0,0,1.584,1.064,1.584,2.292c0,1.391-1.267,1.391-1.267,1.391h-22.33v4.175h28.665
		c0,0,4.91-0.491,6.335-5.157C122.394,51.737,120.731,49.527,118.276,47.48z"/>
	<rect x="247.11" y="29.063" style="fill:#0085CA;" width="5.78" height="5.975"/>
	<path style="fill:#0085CA;" d="M288.999,32.664c0-0.573-0.158-0.9-0.554-1.146c-0.396-0.246-0.95-0.409-1.584-0.409v0.737
		c0.317,0,0.554,0.082,0.713,0.164c0.237,0.163,0.396,0.409,0.396,0.737c0,0.327-0.158,0.573-0.317,0.655
		c-0.237,0.164-0.475,0.246-0.792,0.246v0.9l0.95,2.128h1.188l-1.267-2.538c0.396-0.082,0.713-0.245,0.95-0.491
		C288.92,33.401,288.999,33.073,288.999,32.664z M286.861,31.109c-0.08,0-0.08,0-0.08,0h-2.058v5.566h1.029v-2.374h0.951
		l0.158,0.246v-0.9c-0.08,0-0.158,0-0.317,0h-0.792v-1.883h0.792c0.079,0,0.237,0,0.317,0.082V31.109z"/>
	<path style="fill:#0085CA;" d="M291.058,32.091c-0.237-0.573-0.554-1.064-1.029-1.555c-0.475-0.491-0.95-0.818-1.584-1.064
		c-0.554-0.245-1.188-0.409-1.821-0.409v0.655l0,0c0.555,0,1.109,0.164,1.584,0.328c0.554,0.245,1.029,0.573,1.425,0.982
		c0.317,0.328,0.633,0.819,0.871,1.309c0.158,0.573,0.317,1.146,0.317,1.719c0,0.573-0.158,1.064-0.317,1.637
		c-0.238,0.491-0.554,0.9-0.95,1.31c-0.396,0.41-0.871,0.737-1.346,0.983c-0.475,0.164-1.029,0.245-1.584,0.245v0.737
		c0.634,0,1.188-0.164,1.821-0.409c0.554-0.245,1.108-0.573,1.584-1.064c0.475-0.491,0.792-0.982,1.029-1.555
		c0.237-0.655,0.317-1.227,0.317-1.965C291.375,33.319,291.295,32.746,291.058,32.091z M286.624,29.063L286.624,29.063
		c-0.633,0-1.267,0.082-1.821,0.328c-0.475,0.245-1.029,0.573-1.425,1.064c-0.475,0.491-0.792,1.064-1.109,1.637
		c-0.237,0.655-0.317,1.228-0.317,1.882c0,0.655,0.079,1.31,0.317,1.883c0.238,0.573,0.634,1.146,1.03,1.637
		c0.475,0.409,1.029,0.819,1.505,1.064c0.554,0.245,1.188,0.409,1.821,0.409l0,0V38.23l0,0c-0.554,0-1.108-0.082-1.584-0.328
		c-0.475-0.164-0.871-0.491-1.267-0.9c-0.396-0.409-0.713-0.9-0.871-1.391c-0.237-0.491-0.317-1.064-0.317-1.638
		c0-0.491,0.079-1.064,0.317-1.637c0.158-0.491,0.475-0.982,0.95-1.391c0.317-0.41,0.713-0.655,1.188-0.9
		c0.475-0.246,1.029-0.328,1.584-0.328V29.063z"/>
</g>
</svg>
