<?xml version="1.0" encoding="UTF-8"?>
<svg width="350px" height="95px" viewBox="0 0 350 95" version="1.1" xmlns="http://www.w3.org/2000/svg" xmlns:xlink="http://www.w3.org/1999/xlink">
    <title>Tableau- Logo</title>
    <defs>
        <polygon id="path-1" points="0 67 347.681 67 347.681 0.6097 0 0.6097"></polygon>
    </defs>
    <g id="Tableau--Logo" stroke="none" stroke-width="1" fill="none" fill-rule="evenodd">
        <g id="Group-21" transform="translate(0.000000, 27.000000)">
            <polygon id="Fill-1" fill="#E7762C" points="45 32.1906961 35.807543 32.1906961 35.807543 22 32.1935663 22 32.1935663 32.1906961 23 32.1906961 23 35.8115662 32.1935663 35.8115662 32.1935663 46 35.807543 46 35.807543 35.8115662 45 35.8115662"></polygon>
            <polygon id="Fill-2" fill="#C72036" points="26 49.1100533 17.590034 49.1100533 17.590034 40 14.407701 40 14.407701 49.1100533 6 49.1100533 6 51.8876876 14.407701 51.8876876 14.407701 61 17.590034 61 17.590034 51.8876876 26 51.8876876"></polygon>
            <polygon id="Fill-3" fill="#5A879A" points="61 16.1545992 52.592775 16.1545992 52.592775 7 49.407225 7 49.407225 16.1545992 41 16.1545992 41 18.9301237 49.407225 18.9301237 49.407225 28 52.592775 28 52.592775 18.9301237 61 18.9301237"></polygon>
            <polygon id="Fill-4" fill="#5B6591" points="32.6520763 52 32.6520763 58.2858526 27 58.2858526 27 60.7130299 32.6520763 60.7130299 32.6520763 67 35.345679 67 35.345679 60.7130299 41 60.7130299 41 58.2858526 35.345679 58.2858526 35.345679 52"></polygon>
            <polygon id="Fill-5" fill="#EA9128" points="26 16.1534696 17.4915062 16.1534696 17.4915062 7 14.5084938 7 14.5084938 16.1534696 6 16.1534696 6 18.8487897 14.5084938 18.8487897 14.5084938 28 17.4915062 28 17.4915062 18.8487897 26 18.8487897"></polygon>
            <polygon id="Fill-6" fill="#5B6591" points="67 33.2856717 61.3472545 33.2856717 61.3472545 27 58.6538677 27 58.6538677 33.2856717 53 33.2856717 53 35.7132106 58.6538677 35.7132106 58.6538677 42 61.3472545 42 61.3472545 35.7132106 67 35.7132106"></polygon>
            <polygon id="Fill-7" fill="#1F447E" points="61 49.1100533 52.592775 49.1100533 52.592775 40 49.407225 40 49.407225 49.1100533 41 49.1100533 41 51.8876876 49.407225 51.8876876 49.407225 61 52.592775 61 52.592775 51.8876876 61 51.8876876"></polygon>
            <polygon id="Fill-8" fill="#7098A5" points="32.5088868 1 32.5088868 7.08073019 27 7.08073019 27 8.92037139 32.5088868 8.92037139 32.5088868 15 34.4900077 15 34.4900077 8.92037139 40 8.92037139 40 7.08073019 34.4900077 7.08073019 34.4900077 1"></polygon>
            <polygon id="Fill-9" fill="#7098A5" points="5.52848155 27 5.52848155 33.0299292 0 33.0299292 0 34.9689565 5.52848155 34.9344106 5.52848155 41 7.47151845 41 7.47151845 34.9232667 13 34.8898352 13 33.0299292 7.47151845 33.0299292 7.47151845 27"></polygon>
            <g id="Group-20">
                <path d="M182.930773,45.56201 C187.272965,45.56201 189.762504,43.0707267 189.762504,38.6330933 C189.762504,34.26916 187.258465,31.6505767 183.353504,31.6505767 C181.653658,31.6505767 180.043042,32.23906 178.862965,32.77841 L178.862965,44.77476 C180.298465,45.3018267 181.639158,45.56201 182.930773,45.56201 L182.930773,45.56201 Z M178.862965,28.48371 C181.052465,27.6216433 182.996581,27.3670433 184.24135,27.3670433 C190.449581,27.3670433 194.644542,31.7354433 194.644542,38.5850767 C194.644542,45.68931 190.236542,49.8410767 182.463427,49.8410767 C179.767542,49.8410767 177.124081,49.3195933 174.346773,48.3771267 L174.215158,16.9585933 L178.862965,16.9585933 L178.862965,28.48371 Z" id="Fill-10" fill="#1F447E"></path>
                <mask id="mask-2" fill="white">
                    <use xlink:href="#path-1"></use>
                </mask>
                <g id="Clip-13"></g>
                <polygon id="Fill-12" fill="#1F447E" mask="url(#mask-2)" points="213.965346 53.7853667 218.566308 53.7853667 218.566308 12.5479833 213.965346 12.5479833"></polygon>
                <path d="M249.1796,49.9261667 C242.093562,49.2383 238.641446,44.2512667 238.839985,38.3385167 C239.054138,31.9534167 243.182177,27.4219833 249.476292,27.4219833 C256.079369,27.4219833 259.904023,32.3129833 259.5761,39.5277667 L243.681869,39.5277667 C244.062215,43.5243167 246.459177,45.4170667 249.735062,45.6683167 C252.462177,45.8804833 256.3136,45.26185 258.399369,43.9508833 L258.399369,48.3460833 C255.651062,49.6849667 252.788985,50.2768 249.1796,49.9261667 M243.968523,36.1386833 L254.531215,36.1386833 C254.411869,33.3246833 252.901638,31.8640833 250.211331,31.691 C247.503177,31.5168 244.878677,33.2599167 243.968523,36.1386833" id="Fill-14" fill="#1F447E" mask="url(#mask-2)"></path>
                <path d="M327.784769,46.2991217 C330.7015,46.2991217 332.670154,44.810605 332.670154,41.477355 L332.670154,27.8350383 L337.320192,27.8350383 L337.320192,42.0513217 C337.320192,46.8027383 333.636077,49.701605 327.782538,49.701605 C321.933462,49.701605 318.249346,46.8027383 318.249346,42.0513217 L318.249346,27.8350383 L322.896038,27.8350383 L322.896038,41.477355 C322.896038,44.810605 324.871385,46.2991217 327.784769,46.2991217" id="Fill-15" fill="#1F447E" mask="url(#mask-2)"></path>
                <path d="M143.136304,45.56201 C144.194804,45.5463767 145.479727,45.46821 147.115996,45.0550433 L147.202996,33.1524933 C145.713958,32.1307433 144.278458,31.6505767 142.714688,31.6505767 C138.808612,31.6505767 136.305688,34.26916 136.305688,38.6330933 C136.305688,43.0707267 138.795227,45.6234267 143.136304,45.56201 M143.60365,49.8411844 C135.83165,49.8656433 131.422535,45.68931 131.422535,38.5850767 C131.422535,31.7354433 135.620842,27.3670433 141.824612,27.3670433 C143.920419,27.3670433 145.651496,27.8315767 147.202996,28.8376933 L147.202996,27.26766 L151.849688,27.26766 L151.719188,48.3771267 C149.763919,49.2280267 146.552727,49.8310267 143.60365,49.8411844" id="Fill-16" fill="#1F447E" mask="url(#mask-2)"></path>
                <path d="M289.996765,45.5620339 C290.912496,45.5597767 292.336842,45.46821 293.976458,45.0550433 L294.062342,33.1524933 C292.573304,32.1307433 291.135573,31.6505767 289.574035,31.6505767 C285.666842,31.6505767 283.165035,34.26916 283.165035,38.6330933 C283.165035,43.0707267 285.651227,45.5709433 289.996765,45.5620339 M290.461881,49.8411844 C282.688765,49.8656433 278.281881,45.68931 278.281881,38.5850767 C278.281881,31.7354433 282.476842,27.3670433 288.682842,27.3670433 C290.776419,27.3670433 292.508612,27.8315767 294.062342,28.8376933 L294.062342,27.26766 L298.709035,27.26766 L298.575188,48.3771267 C296.623265,49.2280267 293.412073,49.8310267 290.461881,49.8411844" id="Fill-17" fill="#1F447E" mask="url(#mask-2)"></path>
                <polygon id="Fill-18" fill="#1F447E" mask="url(#mask-2)" points="96.8364654 18.4463283 101.438542 18.4463283 101.438542 31.525845 113.870619 31.525845 113.870619 35.8227783 101.438542 35.8227783 101.438542 50.004445 96.8364654 50.004445 96.8364654 35.8227783 84.4032731 35.8227783 84.4032731 31.525845 96.8364654 31.525845"></polygon>
                <path d="M344.443708,30.31415 L344.800631,30.31415 C345.206631,30.31415 345.545708,30.1656333 345.545708,29.78485 C345.545708,29.5157333 345.351631,29.2466167 344.800631,29.2466167 C344.643362,29.2466167 344.531823,29.2577833 344.443708,29.2711833 L344.443708,30.31415 Z M344.443708,32.0193 L343.955169,32.0193 L343.955169,28.9395333 C344.212823,28.9026833 344.458208,28.8647167 344.825169,28.8647167 C345.293631,28.8647167 345.597015,28.9652167 345.782169,29.0981 C345.963977,29.2343333 346.063246,29.4420333 346.063246,29.7368333 C346.063246,30.1410667 345.793323,30.3867333 345.464285,30.4872333 L345.464285,30.50845 C345.729746,30.5598167 345.917131,30.80325 345.975131,31.25885 C346.048746,31.7367833 346.124592,31.9210333 346.170323,32.0193 L345.658362,32.0193 C345.583631,31.9210333 345.510015,31.6396333 345.4509,31.2342833 C345.376169,30.8401 345.178746,30.6938167 344.788362,30.6938167 L344.443708,30.6938167 L344.443708,32.0193 Z M344.961246,28.0808167 C343.746592,28.0808167 342.752785,29.1249 342.752785,30.4113 C342.752785,31.7245 343.746592,32.7551833 344.971285,32.7551833 C346.199323,32.7697 347.177515,31.7245 347.177515,30.4235833 C347.177515,29.1249 346.199323,28.0808167 344.971285,28.0808167 L344.961246,28.0808167 Z M344.971285,27.6520167 C346.478169,27.6520167 347.680554,28.877 347.680554,30.4113 C347.680554,31.9712833 346.478169,33.1839833 344.961246,33.1839833 C343.4499,33.1839833 342.226323,31.9712833 342.226323,30.4113 C342.226323,28.877 343.4499,27.6520167 344.961246,27.6520167 L344.971285,27.6520167 Z" id="Fill-19" fill="#1F447E" mask="url(#mask-2)"></path>
            </g>
        </g>
    </g>
</svg>