<svg xmlns="http://www.w3.org/2000/svg" width="100" height="50" viewBox="0 0 1096.435 600">
  <g id="en_us-WD_logo_orange" transform="translate(0 0.01)">
    <path id="Path_1" data-name="Path 1" d="M1760.387,452.87H862.855a63.742,63.742,0,0,0-63.8,63.688v471.46a63.776,63.776,0,0,0,63.8,63.722h897.532a63.775,63.775,0,0,0,63.795-63.722V516.558A63.741,63.741,0,0,0,1760.387,452.87ZM1297.276,591.519h92.111l-23.437,67.911h-90.337Zm-156.929,0h70.414l7.164,67.877h-113.5Zm-167.163-1.158h92.11l-10.234,68.967H965.712ZM1171.05,906.824l-18.9-187.317-92.793,187.317H938.215L963.9,675.811l88.392,3.1-16.273,109.427L1093.3,680.375l127.352,4.53,11.633,110.313,34.695-108.678,88.529,3.1-75.053,217.254Zm523.495-157.687C1664.967,837.687,1569,906.824,1481.5,906.824H1307.681l72.255-216.4,117.185,4.121-42.814,126.252c18.081,1.43,22.482,0,35.173-.579,49.467-2.316,93-36,107.872-80.444,14.67-43.764-6.823-79.15-49.944-80.274H1390.274l22.652-67.979h173.987c88.119,0,137.552,68.967,107.974,157.619Z" transform="translate(-799.06 -451.75)" fill="#f58220"></path>
    <path id="Path_2" data-name="Path 2" d="M1103.91,480.942a28.412,28.412,0,1,1,28.412,28.412A28.412,28.412,0,0,1,1103.91,480.942Zm7.543,0a20.769,20.769,0,1,0,6.095-14.765,20.869,20.869,0,0,0-6.095,14.765Z" transform="translate(-64.299 -452.54)" fill="#f58220"></path>
    <path id="Path_3" data-name="Path 3" d="M1115.192,482.913h-5.682V456.96h12.4a14.19,14.19,0,0,1,6.978,1.23,7.777,7.777,0,0,1,3.024,6.945c0,4.752-2.459,6.646-7.011,7.211l6.247,10.567H1124.5l-5.682-10.567h-3.755Zm6.845-15.286c2.858,0,3.855-.665,3.855-3.323s-2.659-2.658-5.118-2.658h-5.583v5.915Z" transform="translate(-51.29 -442.349)" fill="#f58220"></path>
  </g>
</svg>